/* XPM */
static char *_f07a51ac14a4edac0c875378203ce6cRXKwJsXkNJc34Uiy[] = {
/* columns rows colors chars-per-pixel */
"54 64 254 2 ",
"   c None",
".  c #222532",
"X  c #1D354C",
"o  c #1C3658",
"O  c #152A5C",
"+  c #383D48",
"@  c #273B5A",
"#  c #2C3C56",
"$  c #0E2469",
"%  c #152A67",
"&  c #1B3467",
"*  c #0C2877",
"=  c #152B76",
"-  c #193776",
";  c #0D337E",
":  c #253A66",
">  c #223C7B",
",  c #263A77",
"<  c #384559",
"1  c #2D414F",
"2  c #1B427A",
"3  c #114569",
"4  c #2B4468",
"5  c #344865",
"6  c #294678",
"7  c #374977",
"8  c #2D577C",
"9  c #3B557A",
"0  c #31526C",
"q  c #454859",
"w  c #495057",
"e  c #625E57",
"r  c #434A66",
"t  c #495568",
"y  c #555D6D",
"u  c #445473",
"i  c #485876",
"p  c #535A77",
"a  c #424D79",
"s  c #596476",
"d  c #506B78",
"f  c #646878",
"g  c #6A7073",
"h  c #173787",
"j  c #0E2899",
"k  c #193A98",
"l  c #0F2B8B",
"z  c #273C86",
"x  c #263E9A",
"c  c #29348F",
"v  c #173BA4",
"b  c #133DB6",
"n  c #122CA4",
"m  c #263BB1",
"M  c #1C4384",
"N  c #1D498D",
"B  c #19468B",
"V  c #1C4B9B",
"C  c #1B4596",
"Z  c #1A539B",
"A  c #0E4895",
"S  c #23448C",
"D  c #2C4D8C",
"F  c #274786",
"G  c #364A89",
"H  c #2B5588",
"J  c #395688",
"K  c #244493",
"L  c #244C94",
"P  c #22439C",
"I  c #294A98",
"U  c #374C99",
"Y  c #2B5493",
"T  c #28579A",
"R  c #345394",
"E  c #375898",
"W  c #3A649A",
"Q  c #396593",
"!  c #1A48A7",
"~  c #1B58A8",
"^  c #1C45B7",
"/  c #1B58B6",
"(  c #2345A2",
")  c #2848A7",
"_  c #364BA7",
"`  c #2B52A3",
"'  c #2658A7",
"]  c #3658A6",
"[  c #2647B6",
"{  c #364DB5",
"}  c #2B54B3",
"|  c #2758B7",
" . c #3558B7",
".. c #1C63B3",
"X. c #2D63A9",
"o. c #3866A9",
"O. c #2766BA",
"+. c #3866B9",
"@. c #3575BB",
"#. c #2A73B2",
"$. c #435C85",
"%. c #485A87",
"&. c #455C98",
"*. c #495191",
"=. c #566585",
"-. c #48699A",
";. c #556997",
":. c #526E8D",
">. c #636A89",
",. c #677392",
"<. c #445BA4",
"1. c #465BB4",
"2. c #4769A6",
"3. c #576CA6",
"4. c #4A74A6",
"5. c #5877A8",
"6. c #4669B6",
"7. c #5276B8",
"8. c #6477A9",
"9. c #6479B7",
"0. c #747EB3",
"q. c #133DC0",
"w. c #1A49C6",
"e. c #1B57C4",
"r. c #124CDA",
"t. c #1A55D6",
"y. c #0F48D3",
"u. c #2547C6",
"i. c #2B59C5",
"p. c #2855D5",
"a. c #3255D0",
"s. c #2B68C6",
"d. c #3867C7",
"f. c #2A73C8",
"g. c #3776C5",
"h. c #2B67D6",
"j. c #3669D5",
"k. c #2C76D4",
"l. c #3679D6",
"z. c #154FEA",
"x. c #2A5CE2",
"c. c #2977F6",
"v. c #387CF3",
"b. c #2C71EA",
"n. c #4769C5",
"m. c #4778C6",
"M. c #4678D6",
"N. c #5678CD",
"B. c #4A76E8",
"V. c #3480BC",
"C. c #7A8B98",
"Z. c #5585B9",
"A. c #518EB4",
"S. c #6785B8",
"D. c #7B95B8",
"F. c #718DB0",
"G. c #6BA4B6",
"H. c #3884DB",
"J. c #2D8CD8",
"K. c #2B85E9",
"L. c #3584E8",
"P. c #3688F8",
"I. c #2D93FC",
"U. c #3493FD",
"Y. c #3B94FC",
"T. c #3699F8",
"R. c #3599ED",
"E. c #3AA4F8",
"W. c #36ADF4",
"Q. c #4984C8",
"!. c #5389C7",
"~. c #4C8CDC",
"^. c #4787D8",
"/. c #548AD7",
"(. c #4894D8",
"). c #5799D8",
"_. c #5392C6",
"`. c #6687C7",
"'. c #6894C9",
"]. c #698BD7",
"[. c #6697D6",
"{. c #7897D5",
"}. c #57A5DB",
"|. c #57A7CC",
" X c #68A5D9",
".X c #74AED4",
"XX c #478AE7",
"oX c #4A95E7",
"OX c #5697E6",
"+X c #448DF9",
"@X c #4494FB",
"#X c #4A94FD",
"$X c #4B9BFA",
"%X c #4798F5",
"&X c #5499F8",
"*X c #5387E8",
"=X c #6294E7",
"-X c #4BA5E8",
";X c #56A5EA",
":X c #49A8FA",
">X c #52A5FC",
",X c #56A8F7",
"<X c #4AB7F6",
"1X c #5AB6F9",
"2X c #58B9E6",
"3X c #66A6E8",
"4X c #68B5E6",
"5X c #77B6E9",
"6X c #63A8F4",
"7X c #65BAF9",
"8X c #77B0F0",
"9X c #5CC4F5",
"0X c #54CDF6",
"qX c #6CC3FB",
"wX c #67C8F7",
"eX c #78C8F7",
"rX c #68D2FA",
"tX c #7AD7F8",
"yX c #70CAEA",
"uX c #77E2F6",
"iX c #6DE6F6",
"pX c #888E9A",
"aX c #8993A7",
"sX c #8B99B2",
"dX c #8DA2BB",
"fX c #8397C4",
"gX c #8DAFCE",
"hX c #ACB7CD",
"jX c #86B3EC",
"kX c #A7B7E5",
"lX c #92C8D6",
"zX c #89D7F3",
"xX c #96D6F4",
"cX c #93CAED",
"vX c #AED6ED",
"bX c #9CEBF8",
"nX c #95F8FA",
"mX c #88EBF6",
"MX c #AAE7F4",
"NX c #B6EAF5",
"BX c #A5FBFA",
"VX c #B6F7F7",
"CX c #ADE3E9",
"ZX c #B9C5D1",
"AX c #CCD5E6",
"SX c #CAE9F5",
"DX c #CAF6F7",
"FX c #DAF9F9",
"GX c #DAE8EF",
"HX c #E9F8F7",
"JX c #F5F6F5",
"KX c #F7F7F7",
"LX c #E9EDF1",
"PX c #C3C9D5",
/* pixels */
"                                                                                                            ",
"                                                              wX                                            ",
"                                                            rXrXzX                                          ",
"                                                            rXrXtX                                          ",
"                                                          zXrXrXtX                                          ",
"                                                          eXwXrXtX                                          ",
"                                                        eXwXrXrXtXvX                                        ",
"                                                        qXwXrXtXzXxXJX    5X;XoX                            ",
"                                                      8X>X1XrXtXeXxXLXKXNX8XOX-X                            ",
"                                                    jX&X#X>X1XqXeXxXGXHXvX8X~.~.N.                          ",
"                                                    6X&X#X#X>X7X7XzXSXFXMXjXB.d.1.F.                        ",
"                                                  8X&X#X&X#X:X1X7X8XvXvXmXxX/.d. .3.                        ",
"        ;X,X                                    jX6X$X#X#X#X%X1XqXeXlXD.S..XQ.+.o.E fXLX                    ",
"        4X<XtXnX                                8X&X$X$X$XP.oX6X7XqX{.;.;.3.6.d.o.Y 3.vXKXKX                ",
"      gXyX,X9XuX  }.                          {.$X$X@X@X%X+X&X6X6X6X5.=.p %.6.+. .' ] sXLXJX                ",
"      CXzX2X9XuXrX,X;X                        +.H.T.Y.%XY.+X,X7X6X[.:.f p a 6.d.O.] ' :.ZXSXCX              ",
"    .XSXMX1X<X9X1X:X-XOX'.                  W O.l.L.U.T.P.+X1X7X6X7.f s t u +.j.j. .' R C.xXzXVX            ",
"    3.vXMX1XW.:X:X>X,X;X;X'.                o.k.v.v.P.P.v.d.Q.,XOX;.f s i i d.l.j.d.o.R 3. XyXCX            ",
"  u $..XMX;XR.-X,X,X;X;XOX/.`.F.          pX-.g.L.P.P.K.O.H T k.m.=.s y %.G X.O.] ' E Y E Z.9XyXgX          ",
"  i $.'.lX/.H.oXoXoXoXoXoXoX/.!.S.        sX$.T @.v.I.b...8 H w.{ =.y i a J ] T D 8 6 H Y o.2X9X5XxX        ",
"  5 %.9.8.7 +.~.(.~.*X~./.~.~.!./.!.        &.6 J j.K.k.X.6 z u.<.s y u 7 G E E 8 7 6 7 G W }.2X5XbXCX      ",
"  5 u =.p q J ^.~.~.~.~.~.~.^.l.d.o.         .6 { j.h.| Z z m u.%.p y u 6 G U ] D F H R E J Z.;X-X4XlXaX    ",
"  J %.p q + 5 g.oX~.~.^.M.@.} P P I       gXd.( p. .! ) '  .p.a.i u i 7 7 G E [ { D Y _ ] *.-.!.(.oXD.pXC.  ",
"  !.!.,.t q G d.oXoXl.g.P h = % 2 P       kXj.z.p.P P ! | j.a. .t i %.U F > ) i.) _ _ _ _ E 7 -.7.J.^.C.pX  ",
"  H.<X4XG.=.<.<.@.#.L T B ; - - I [ [     vXj.w.^ ( x k ! l.j.E t i $.R F > _ n.{ { { ] *.7 : $.2.f.K.'.aX  ",
"  A.<X0XiX.X5.p 9 3 ; ` ~ - - F ` [ (     AX .l k z z l k O.a.R < w 8 8 > : *.9.6.{ { U 8 4 : a o.k.I.R.sX  ",
"  o.W.W.0XrX|.4.J 2 h C B C C I Y S M Y   AXo.* % - - l j } j.o.d 0 1 6 , , 6 <.6.` I E J G z , V.E.I.W.~.  ",
"  $.V.W.W.<X<XoX6.F C C V V )  .L N T L   GX-.= % $ = j l ( x.m.|.0 1 3 , P x v ^ S , G E _ c , o.J.J.J.V.  ",
"  d J L.E.W.:XT.oXm.+.o.+.V C I S M F L   GX8.= O $ * j * v i.<.A.8 X o 6 ` ( b b k & 6 1.u.n c R N Z ~ W   ",
"  d 0 f.I.E.T.U.T.T.M.m.m.+.F 6 h - : S 8.AX`.= $ $ * j l v | G d 0 X o 6 G 6 v b v ; - x n n b { k A / o.  ",
"  A.w W K.U.Y.U.P.P.P.XXOX[.-.D - - : : %.PXfXl = $ $ l * h ' D < 0 1 o 6 6 : h v v V I x v v w.{ Y A ~ 4.  ",
"  S.=.J J.U.Y.Y.U.I.I.U.L.~.!.] - & & X 7 hXgXl $ O $ $ $ B O.' $.W H 6 H 6 : 2 h C / ' N v r.p.<.D M H >.  ",
"  3.;.u g.I.@XY.P.I.U.U.I.P.L.o.h - 3 @ 7 sXhX- $ % % = - ! e.` 2.+.X.T L H H Z Z A ~ ~ Z ~ x.a.U U F J g   ",
"5 %.;.i o.R.@X%XU.I.I.U.P.L.s.K S k Y J $.F.hX, % % - S B ^ t.[ &.o.X.X.~ ' Z ~ ..~ ~ Z | | i.I U 1.Y =.    ",
"+ < &.y $.H.T.Y.@XU.T.J.@.} ! k B N Q -.3.D.hX7 = z 4.).g.t.z.p.6.6.#.X.T d.O.....~ Z ~ h.d.O.` U 6.E =.    ",
"+ + p i s A.W.E.%XH.f.} D V ! k h F J -.Z.D.PX%., &.gX;X.X/.p.p.n.n.g.o.T X.f.....~ B T k.l.s.} *.2.J       ",
"# q p r =.2.J.J.@.Q Y I , z P ! C - 7 -.8.gXAX,.z 9.cXl. X5Xn.{ 1.m.H.g.Y Y Z Z / ' V W f.s.h.i.U ;.3.      ",
"r w r : 7 7 $.C.e 0 F S % @ z k k > 8 $.=.dXLXaXG 6.^.+.g.m.n.7.<.7.XXl.o.J M Z ~ N H o.g.| s.i.*.;.F.fX    ",
"p q q # @ o : y e r 6 B O o c k k - F 9 s aXJXgX7 ] P 3 ~ ~ d.3X'.3.^.H.g.W F ~ ..~ Y 4.g.h.j.i.*.>.,.aX    ",
"  u q q 4 & , 8 d y 7 k = : z I ) h h 7 u C.GXgXD | 2 3 #.T d.5X'.<.g.l.f.o.X.O.| ..T W l.b.h.} 7 >.pX      ",
"  %.i r 4 6 6 2 8 s %.) k > G _ ' - & , 9 :.gX/._ i.Z ~ #...i.!.$.F } l.f.O.k.k./ ~ ' -.@.h.s.{ r g aX      ",
"    J 7 4 z 2 M F 9 $.{ v z c [  ., : : 8 W +.u.m | ~ ! ~ Z | R 7 F Z O.O.f.f...~ T T W o.a.a._ r e         ",
"    i 5 4 h 2 2 F 6 4 _ k > c m { G & , 7 Q R { [ m k h - M D G G ( ! ~ ' ../ ! V V R E 1.u.a.<.r e         ",
"    s # # 4 S M - & & K h : , x m , , c 7 5 : *.{ x l ; l - S D U u.u.C Z Z ! ! ! ! ` E x m m x >.g         ",
"      < @ 4 h S M o & z h 4 4 x x _ F z 7 < . *.<.c l l k S L L ` u.p.( ^ ! v ^ ! ! L J G x m a.3.g         ",
"      u : , > 2 - & O z F i R C m a.d.U J + . G ] v v v k I L ` i.u.p.u.u.v ! V C C T R 3.1.a.B.8.f         ",
"        6 , 6 2 - M - z -.5.' h ) _ o.m.).%.+ $.d.u.b b ! C K P / e.e.! v k P N M L +.2.-.6.B.+X.Xg         ",
"        9 6 6 - N ' C ( T 6.T k [ U u Z.9X'.i 4 d.z.z.z.w.! ^ ) e.w.e.) ( C ( ) L S o.&.%.&.M.&XzXsX        ",
"          : , M Z V S K I ` C k w.[ a :.2X4X;.J l.c.z.z.t./ w.p.h.t.p.a.| ! N [ [ K D $.%.-.).tXBXCX        ",
"          : 7 Y Z S , z I ( K I | i.J i G.0XA.2.(.b.y.r.y.e.x.h.K.L.b.M.d.C B ^ u.L D W Z.A.yXnXBXBXNX      ",
"        6 , 6 2 - M - z -.5.' h ) _ o.m.).%.+ $.d.u.b b ! C K P / e.e.! v k P N M L +.2.-.6.B.+X.Xg         ",
"        9 6 6 - N ' C ( T 6.T k [ U u Z.9X'.i 4 d.z.z.z.w.! ^ ) e.w.e.) ( C ( ) L S o.&.%.&.M.&XzXsX        ",
"          : , M Z V S K I ` C k w.[ a :.2X4X;.J l.c.z.z.t./ w.p.h.t.p.a.| ! N [ [ K D $.%.-.).tXBXCX        ",
"          : 7 Y Z S , z I ( K I | i.J i G.0XA.2.(.b.y.r.y.e.x.h.K.L.b.M.d.C B ^ u.L D W Z.A.yXnXBXBXNX      ",
"            @ E } ' U S F S } ] ] _ G t A.iX<X3XvX+Xz.w.i.s.XXzX0X2.XX*X&X%XL.+XXX4.J Q Q.H.G.nXnXmX4X      ",
"            X J m.j.{ U z K D 9 J R <.%.=.).1X3XvX8XL.-X}.|.rXzXiX2X;X3X&X,X>X$XXXN.6.m.H.H._.zXuXqX).      ",
"            X J m.j.{ U z K D 9 J R <.%.=.).1X3XvX8XL.-X}.|.rXzXiX2X;X3X&X,X>X$XXXN.6.m.H.H._.zXuXqX).      ",
"            @ E } ' U S F S } ] ] _ G t A.iX<X3XvX+Xz.w.i.s.XXzX0X2.XX*X&X%XL.+XXX4.6 Q Q.H.G.zXuXqX4X      ",
"            X J m.j.{ U z K D 9 J R <.%.=.).1X3XvX8XL.-X}.|.rXzXiX2X;X3X&X,X>X$X#XN.6.m.H.H._.zXuXqX).      ",
"          < 5 E T F 6 6 D I  .| i.| 7 t A.iX1X3XvX8XL.y.t.h.xXzXiX2X;X3X&X,X>X$X#XN J Q ).}.4XnXnXBXbX      ",
"            @ E } ' U S F S } ] ] _ G t A.iX<X3XvX+Xz.w.i.s.XX-X0XW.XX*X&X%XL.+XXX4.J Q Q.H.G.nXnXmX4X      ",
"            X J m.j.{ U z K D 9 J R <.%.=.).1XeXvX8XL.-X}.|.rXzXiX2X;X3X&X,X>X$X#XN.6.m.H.H._.zXuXqX).      ",
"              $.d.a. .i.F z D 7 7 9 <.;.=.[.5XCXFXxXwXiXiXuXnXBXnXxXzX7X;X>X,X$X@X%XXX@Xb.b.K.1XqX7X).p     ",
"              E +.3.3.1._ G D 9 r t s =.,..XNXHXLXNXtXuXnXnXnXBXVXDXvX7X,X,X>X+X+X+X@XP.c.b.c.>X7X7X[.      ",
"                9.aX>.<.1.&.G R %.s f =.S.jXGXJXKXNXtXiXnXnXnXVXHXLXCXwX,X>X$XP.+X#X+X+Xc.c.c.>XqX7X3X      ",
"                8XfX9.7.6.3.<.6.7.8.,.8.].8XSXJXKXDXmXiXnXnXVXHXJXJXDXtX1X$X$X+X@X#X+X+Xc.c.P.>XqX7X3X      ",
"                   X'.[. X!.9.N.N.8.>.p 5.kXFXJXJXHXVXnXBXDXFXKXJXJXFXMXwX$X#X#X#X#X@XP.+XP.@X1XqX7X3X      ",
"                      S.`.].{.].`.5.d e C.NXFXHXJXJXHXFXFXHXKXKXJXKXHXVXqX>X#X#X$X$X#X+X+X$X>X1X7X,X3X      ",
"                        8.0.].N.!.4.i g yXVXDXFXHXKXKX          JXKXKXSXeX1X>X>X>X>X>X#X$X7X1X7X6X=X        ",
"                            '.S.!.9.:.F.gXlXvX      KX              KXGXcX1X,X1X1X1X7X&X&X,X6X8X=X].        ",
"                                      Z.5.                            JXcX#X@X:X:XwX7X XB.B.N.].].          ",
"                                                                      KXAX6XT.:X<XqXeX[.~.*XN.].].          ",
"                                                                          eX<X              =X].            "
};
