/* XPM */
static char *result[] = {
/* columns rows colors chars-per-pixel */
"64 64 193 2 ",
"   c black",
".  c #030F18",
"X  c #00070D",
"o  c #000A10",
"O  c #000306",
"+  c #000102",
"@  c #000509",
"#  c #00070B",
"$  c #010508",
"%  c #000001",
"&  c #00050A",
"*  c #000204",
"=  c #000101",
"-  c #00090F",
";  c #000508",
":  c #000B12",
">  c #00080F",
",  c #000407",
"<  c #00060B",
"1  c #050C0B",
"2  c #071212",
"3  c #020404",
"4  c #020606",
"5  c #02080C",
"6  c #010608",
"7  c #010406",
"8  c #081414",
"9  c #030808",
"0  c #000305",
"q  c #020B10",
"w  c #000203",
"e  c #02080B",
"r  c #00090E",
"t  c #020A0F",
"y  c #030606",
"u  c #010302",
"i  c #030F17",
"p  c #00060C",
"a  c #00080E",
"s  c #010303",
"d  c #02070B",
"f  c #020C13",
"g  c #0B1A1A",
"h  c #000406",
"j  c #000910",
"k  c #060E0D",
"l  c #040A0A",
"z  c #030B0D",
"x  c #000002",
"c  c #071010",
"v  c #050C0C",
"b  c #040909",
"n  c #070F0E",
"m  c #000304",
"M  c #00070C",
"N  c #020B12",
"B  c #000103",
"V  c #010304",
"C  c #000810",
"Z  c #00060A",
"A  c #020C10",
"S  c #0A1615",
"D  c #0A1716",
"F  c #000408",
"G  c #010202",
"H  c #00040A",
"J  c #050E10",
"K  c #081313",
"L  c #000202",
"P  c #020405",
"I  c #010507",
"U  c #020403",
"Y  c #020504",
"T  c #000205",
"R  c #000307",
"E  c #010404",
"W  c #000911",
"Q  c #040C0E",
"!  c #091413",
"~  c #0A1817",
"^  c #01070D",
"/  c #000609",
"(  c #00070E",
")  c #010509",
"_  c #01070B",
"`  c #030F16",
"'  c #030E16",
"]  c #000100",
"[  c #000104",
"{  c #020D14",
"}  c #010609",
"|  c #020A11",
" . c #060B09",
".. c #050B0B",
"X. c #020607",
"o. c #010101",
"O. c #010204",
"+. c #091311",
"@. c #020809",
"#. c #030D14",
"$. c #020E18",
"%. c #02070A",
"&. c #010203",
"*. c #010C16",
"=. c #010B15",
"-. c #040B0C",
";. c #060F0F",
":. c #081312",
">. c #02090B",
",. c #040808",
"<. c #050A0A",
"1. c #010B14",
"2. c #010A0E",
"3. c #0B1816",
"4. c #030D10",
"5. c #01080D",
"6. c #02090E",
"7. c #010407",
"8. c #020A10",
"9. c #030707",
"0. c #010102",
"q. c #132B3C",
"w. c #2C5878",
"e. c #050F10",
"r. c #010305",
"t. c #000B11",
"y. c #030D13",
"u. c #02090D",
"i. c #050D0D",
"p. c #020605",
"a. c #010405",
"s. c #01080C",
"d. c #010A13",
"f. c #010B12",
"g. c #020B11",
"h. c #01090E",
"j. c #0B1917",
"k. c #00080D",
"l. c #020E17",
"z. c #030E15",
"x. c #01090F",
"c. c #0B1C29",
"v. c #07111A",
"b. c #07131C",
"n. c #031019",
"m. c #091615",
"M. c #000409",
"N. c #051019",
"B. c #306082",
"V. c #1D3E56",
"C. c #20435C",
"Z. c #010100",
"A. c #0B1817",
"S. c #030A0F",
"D. c #091616",
"F. c #020709",
"G. c #071110",
"H. c #061011",
"J. c #020302",
"K. c #01060A",
"L. c #050D0C",
"P. c #031018",
"I. c #020303",
"U. c #06100F",
"Y. c #060E0E",
"T. c #000A11",
"R. c #040806",
"E. c #061316",
"W. c #03101A",
"Q. c #010000",
"!. c #01070C",
"~. c #030706",
"^. c #040908",
"/. c #0F2231",
"(. c #081212",
"). c #162F41",
"_. c #0B1A26",
"`. c #020D13",
"'. c #07334C",
"]. c #031B2B",
"[. c #083A57",
"{. c #010E17",
"}. c #030B10",
"|. c #010C14",
" X c #000D18",
".X c #010A12",
"XX c #042335",
"oX c #02131E",
"OX c #05293D",
"+X c #04090A",
"@X c #071111",
"#X c #081515",
"$X c #020F19",
/* pixels */
"+   + +                                                                   m     =       M %     = N +     m   B %     % V       ",
"C = Z A S   =                                                         4 D > = & F                 G H J K >   X *     L i p     ",
"        P             &   @ I U                 = Y # + T R           = 3                       Z *   G E   %             B     ",
"W +                   @   O Q !   =             s ~ @ + * O               =   & ^               / m       =   ( )               ",
"_                                                                             % ` +         + m               * '               ",
"                              ]                   =                                 B       [ M   %                             ",
"            OOO                                                                   { X   } |  .z X   >           %               ",
"           ]]]                                                                    e     =   ..X.    +                           ",
"                          II                  9 o.      G O.                                                                    ",
"                       OO             F @ + > +.@.#.    $.%.                                                                    ",
"              FF                      % %   m &   +   + O                                 =                   =                 ",
"= =           dd                * .         d f                               = %                 = =                       3 g ",
"                                                                                          h r                                   ",
"j k s                                                                       l z a         = w   = k - h                         ",
"x c u   =                     O % * h   B 5.6.  %   m *                 =   v b %       #         n w =                         ",
"+   + +                                                                   m     =       M %     = N +     m   B %     % V       ",
"C = Z A S   =                                                         4 D > = & F                 G H J K >   X *     L i p     ",
"        P             &   @ I U                 = Y # + T R           = 3                       Z *   G E   %             B     ",
"W +                   @   O Q !   =             s ~ @ + * O               =   & ^               / m       =   ( )               ",
"_                                                                             % ` +         + m               * '               ",
"                              ]                   =                                 B       [ M   %                             ",
"                                                                                  { X   } |  .z X   >           %               ",
"    r ;   o.  C./.  G     j   =   s (.0                                           e     =   ..X.    +                           ",
"                                              9 o.      G O.                                                                    ",
"     F @ + > +.@.#.    $.%.           F @ + > +.@.#.    $.%.                                                                    ",
"                                      % %   m &   +   + O                                 =                   =                 ",
"                          6 5   %           % /           5 }                               ]                                   ",
"                    %     &.*.B   %   %   h =             7 =.                    0   B -.;.  =             E :.* = w B         ",
"                                          - w                 %                   X   M >.,.                G <.a = F ,         ",
"        %       * 1.5   %   < + h 2.3.H *                   p   F 4.S   =                                                       ",
"                  V I       O % * h   B 5.6.  %   m *       R   0 m                                                             ",
"      7.8.                              4 9.  %   Z @         l                                                                 ",
"  0.  q.w.  o.=                   %   > e.k   = =         0 j ! &.                            %                                 ",
"      r.^       =                     =       w t.  %                                                                           ",
"      + 7   9.K   = %                   = =                   =                             + y.        d u.                    ",
"      I ^ n i.p.                                                                            ( 5.        &.1.+                   ",
"          9 s     $ q               ] a.s.m                 %.=                                                                 ",
"        = %   o.  )._.  %   t I       G 1 M `.w                             =   '.].  =                             [ [.{.  %   ",
",               o.  w }.  R |.=            X.X]           %   k./           =   XXoX  =                             x OXx.      ",
"T.=               o.      %               +       F R         =               ]     =   9 s                   b G               ",
"                        L *                                                                                                     ",
"                            =                                                                 = (     F @                       ",
"                                                                 = S.  G D.v 2   F.F.           *     + B                       ",
"                          ; k.              %   o w                                                                             ",
"                          + w       F +         m %     = +                                                                     ",
"                      % #           & B     O ,         l.d   %                             =             = =                   ",
"                      = M               %   _ ,       + F   V           %                               =     =                 ",
"    V                       3 o.    #.7   ^ z.  =         x.z.  %   r.d   %               7 c.=       =   v.b.  =               ",
"    n.&             9.i.  > m.9     V =   F               M.        &.l.T   %         =   N.B.&   =   G   V.C.  G               ",
"    % F             9.v   m                                             =                               Z.                      ",
"          *                 =                             =           F B w # A.=         = S.  G D.v 2   F.F.      =   G.H.F   ",
"          t.%                                                         R B w / J.          = K.L.K   G 9.D O }           G a.@   ",
"                                + P.%             3 I.+ Z ~ s                                 G G       3                       ",
"                              =   @ &   =     =   U.Y.  Z u =                               %                                   ",
"            0           9.        L       9.G   a.                                                                              ",
"            T.    0.  = S j * R.E.@   * j m.Y [ W.&.                                                                            ",
"                Q.  % !.  +   ~.^.  =         0 +                               = =                                   = %       ",
"    %   r ;   o.  C./.  G     j   =   s (.0                                                                                     ",
"        = %   o.  )._.  %   t I       G 1 M `.w                             =   '.].  =                             [ [.{.  %   ",
",               o.  w }.  R |.=            X.X]           %   k./           =   XXoX  =                             x OXx.      ",
"T.=               o.      %               +       F R         =               ]     =   9 s                   b G               ",
"            %     w O                 k.Z         * *     + k.                  +X@X  j K 9.              =   ! A @ J.#X  =     ",
"%             %   h M                 0 o w           %   } ;             I %   3 b   =                             G l     7 G ",
"          I g.  =             F p   %         %   q t   M.W.            & W.            =                     =         =   u.$X"
};
