/* XPM */
static char *_f83b6cb20ec4cb4c9f1e26ae8e0ab25Fvj1irkvsauWPItZ[] = {
/* columns rows colors chars-per-pixel */
"64 16 175 2 ",
"   c None",
".  c #1C1919",
"X  c #1E1A1B",
"o  c #1A1C1A",
"O  c #1A1C1B",
"+  c #1B1C1B",
"@  c #1A1D1B",
"#  c #1B1D1B",
"$  c #211A1A",
"%  c #221F1F",
"&  c #102A1E",
"*  c #1B3626",
"=  c #1E3824",
"-  c #272828",
";  c #282828",
":  c #282829",
">  c gray16",
",  c #2A2A2A",
"<  c #2A2A2B",
"1  c #2B2A2B",
"2  c gray17",
"3  c #2B2C2C",
"4  c #2C2C2C",
"5  c #2D2D2D",
"6  c gray18",
"7  c #2F2F2F",
"8  c #3C2D2D",
"9  c #243121",
"0  c #273823",
"q  c #283E25",
"w  c #2F2F30",
"e  c gray19",
"r  c #303131",
"t  c #313131",
"y  c #313232",
"u  c #313B36",
"i  c #431718",
"p  c #411D1D",
"a  c #551213",
"s  c #531514",
"d  c #5C1415",
"f  c #531D1D",
"g  c #501E1E",
"h  c #5B1818",
"j  c #640E0F",
"k  c #670F0F",
"l  c #7C0F10",
"z  c #611515",
"x  c #681E1E",
"c  c #761413",
"v  c #7A1010",
"b  c #721818",
"n  c #44271C",
"m  c #432423",
"M  c #4B2223",
"N  c #443534",
"B  c #493838",
"V  c #632122",
"C  c #64393A",
"Z  c #09472A",
"A  c #0A472A",
"S  c #0A472B",
"D  c #0A482B",
"F  c #12482E",
"G  c #154B2F",
"H  c #075B32",
"J  c #224A29",
"K  c #037039",
"L  c #00763C",
"P  c #01763C",
"I  c #00773C",
"U  c #01773C",
"Y  c #2A6331",
"T  c #2D7738",
"R  c #2D7939",
"E  c #2E7D39",
"W  c #2F7D39",
"Q  c #2E7D3A",
"!  c #2F7D3A",
"~  c #2F7E3A",
"^  c #4A5950",
"/  c #940E0E",
"(  c #801010",
")  c #8A1112",
"_  c #8C1B1C",
"`  c #991010",
"'  c #991717",
"]  c #A00C0C",
"[  c #A00E0C",
"{  c #A60C0C",
"}  c #A90B0B",
"|  c #AD0809",
" . c #AE080A",
".. c #AF090A",
"X. c #AC0A0B",
"o. c #AC0B0B",
"O. c #B90505",
"+. c #B90507",
"@. c #B90607",
"#. c #B10708",
"$. c #B20E0E",
"%. c #B80909",
"&. c #BE0A0A",
"*. c #842121",
"=. c #C40203",
"-. c #C60606",
";. c #C90001",
":. c #CD0102",
">. c #CE0103",
",. c #C80304",
"<. c #CF0707",
"1. c #CC0909",
"2. c #D10102",
"3. c #D30102",
"4. c #D60102",
"5. c #D70102",
"6. c #D80101",
"7. c #DD0102",
"8. c #DC0808",
"9. c #DD0808",
"0. c #E20302",
"q. c #E40202",
"w. c #E80101",
"e. c #E90302",
"r. c #E90303",
"t. c #F00202",
"y. c #F50000",
"u. c #F70101",
"i. c #F40201",
"p. c #F40202",
"a. c #F70202",
"s. c #F80101",
"d. c #FD0000",
"f. c #FD0100",
"g. c #FE0000",
"h. c red",
"j. c #FE0100",
"k. c #FF0100",
"l. c #FE0101",
"z. c #FC0808",
"x. c #FC0A09",
"c. c #E91717",
"v. c #EC1616",
"b. c #F71515",
"n. c #F81616",
"m. c #FC1514",
"M. c #FC1616",
"N. c #FC1717",
"B. c #FD1B1B",
"V. c #FC3535",
"C. c #FC3635",
"Z. c #FB6464",
"A. c #FB6868",
"S. c #078540",
"D. c #0B8941",
"F. c #089544",
"G. c #089445",
"H. c #089545",
"J. c #089645",
"K. c #2FA145",
"L. c #30A948",
"P. c #32AF49",
"I. c #31AF4A",
"U. c #32AF4A",
"Y. c #38AB48",
"T. c #32B04A",
"R. c #39B04A",
"E. c #3AB74B",
"W. c #3BB74B",
"Q. c #3BB74C",
"!. c #3BB84C",
"~. c #FD8685",
"^. c #FD8989",
"/. c #FBA4A3",
"(. c #FBA8A7",
/* pixels */
"      % %         .                                                                                                             ",
"      ` { h     v } (                                                                                                           ",
"    c q.d./ g d %.y. .z                                                                                                         ",
"  s 9.B.x.a.v o.d.6.>. .p                                                                                                       ",
"i <.n.(.C.d.r.t.d.s.6.=.o.$ # # # # + + # # + + # + # + + + O O + + + # # + + + + + + # + + # # # + + O O o + + # + # # # +     ",
"a c.^.Z.m.d.l.d.d.d.6.;.@.9 R ~ R ~ ~ ~ ~ R ~ W ~ ~ ~ R E E E ~ Q ~ ~ W ~ ~ ~ R ~ ~ ~ R E E E R E ~ E ~ E R ~ E ~ ~ ~ ~ ~ T     ",
"j v.~.A.m.d.d.d.d.d.6.;.@.q R.!.Q.E.Q.E.E.Q.W.W.E.E.E.E.Q.E.E.E.E.E.E.E.Q.E.E.E.E.E.E.E.E.E.E.E.E.E.E.E.E.E.E.E.E.Q.!.!.!.Y.Y   ",
"M 1.b./.C.d.d.d.d.s.6.=.` J L.T.U.U.U.U.U.U.P.P.U.U.U.U.I.I.U.U.U.I.U.U.U.U.U.T.U.U.U.U.I.U.U.U.U.U.U.P.P.T.I.U.U.U.U.U.U.T.K.= ",
"  f 9.N.x.d.l.d.l.6.>. .0 S.F.F.J.G.J.G.F.F.G.G.G.G.F.F.F.F.J.J.G.G.F.F.G.G.G.J.J.J.J.J.G.F.F.G.G.G.G.G.F.F.G.J.G.G.G.G.G.J.D.* ",
"    b 0.d.a.l.d.7.3.#.n H U U U U U U U U U U U U U U U U U U U U U U U P P P I P P P P U U U U U U U U U U U U U U P P I K G ^ ",
"    N ' e.d.d.e.3.@.k & Z Z Z Z Z Z Z Z Z Z Z Z Z Z Z Z Z Z D D Z Z Z Z Z Z Z Z Z Z S Z Z Z Z Z Z Z Z Z Z Z Z Z D Z D Z D F u   ",
"      8 $.a.d.2.-._ t t t t 6 6 4 6 4 6 4 , 4 > ; ; ; ; ; ; - - ; ; ; ; > > > , > > - , ; ; ; , ; ; ; ; ; ; - , - - , - ; 3     ",
"        m &.d.y.) B                                                                                                             ",
"          V -.] C                                                                                                               ",
"            *.x                                                                                                                 ",
"            t                                                                                                                   "
};
