/* XPM */
static char *result[] = {
/* columns rows colors chars-per-pixel */
"70 88 256 2 ",
"   c #050504",
".  c #0C0504",
"X  c #0B0A05",
"o  c #0D0C0B",
"O  c #080808",
"+  c #130A04",
"@  c #1B0B05",
"#  c #150B0A",
"$  c #1D0D0B",
"%  c #180706",
"&  c #15140C",
"*  c #1C120B",
"=  c #1A1609",
"-  c #1C1C13",
";  c #191614",
":  c #101110",
">  c #230C05",
",  c #230C0A",
"<  c #2A0E0B",
"1  c #280906",
"2  c #350D0B",
"3  c #251306",
"4  c #2C1206",
"5  c #23130B",
"6  c #2B130C",
"7  c #2C1A0D",
"8  c #241C0E",
"9  c #33140C",
"0  c #341C0D",
"q  c #3B1B0C",
"w  c #381607",
"e  c #2C0F12",
"r  c #241513",
"t  c #2B1413",
"y  c #231B14",
"u  c #2D1B14",
"i  c #291C19",
"p  c #341512",
"a  c #341C12",
"s  c #3A1D13",
"d  c #391916",
"f  c #1D2114",
"g  c #29230E",
"h  c #3D220D",
"j  c #34210E",
"k  c #242112",
"l  c #2B2413",
"z  c #2C2B1B",
"x  c #2A271A",
"c  c #342313",
"v  c #3B2313",
"b  c #322C15",
"n  c #35231A",
"m  c #3B231C",
"M  c #3A2A1A",
"N  c #34311C",
"B  c #3B341D",
"V  c #3F3A1C",
"C  c #2A2723",
"Z  c #332B23",
"A  c #392A25",
"S  c #3A3423",
"D  c #3D3A24",
"F  c #3B332C",
"G  c #3D3A2B",
"H  c #353326",
"J  c #3A3932",
"K  c #261E22",
"L  c #43180E",
"P  c #461A15",
"I  c #591D14",
"U  c #5E1E0E",
"Y  c #44230D",
"T  c #4B2A0D",
"R  c #4A260D",
"E  c #57280A",
"W  c #432413",
"Q  c #4A2414",
"!  c #442A13",
"~  c #4B2B14",
"^  c #44251B",
"/  c #442B1C",
"(  c #4B2D1C",
")  c #4D241A",
"_  c #532C12",
"`  c #542C1C",
"'  c #572518",
"]  c #4C321C",
"[  c #473619",
"{  c #5C3314",
"}  c #53331B",
"|  c #5A341A",
" . c #5B3A1D",
".. c #543519",
"X. c #59320D",
"o. c #632C0A",
"O. c #72370C",
"+. c #65271A",
"@. c #643413",
"#. c #633C1C",
"$. c #6B3C1B",
"%. c #6B3717",
"&. c #753C16",
"*. c #68350C",
"=. c #422D22",
"-. c #492B24",
";. c #572822",
":. c #453323",
">. c #4B3323",
",. c #423D23",
"<. c #43342C",
"1. c #493A2A",
"2. c #533423",
"3. c #5B3522",
"4. c #533A24",
"5. c #5C3C23",
"6. c #523B2A",
"7. c #593A2A",
"8. c #483C35",
"9. c #533C33",
"0. c #543C34",
"q. c #633D24",
"w. c #683B25",
"e. c #733625",
"r. c #6E3228",
"t. c #52411F",
"y. c #65421D",
"u. c #6C411C",
"i. c #73431C",
"p. c #794319",
"a. c #45422B",
"s. c #4B462C",
"d. c #484629",
"f. c #56442A",
"g. c #4C4334",
"h. c #4D4B33",
"j. c #4C453A",
"k. c #544433",
"l. c #5B4433",
"z. c #524C34",
"x. c #55453B",
"c. c #534C3B",
"v. c #5B4A39",
"b. c #5D593B",
"n. c #585437",
"m. c #5E5029",
"M. c #644224",
"N. c #6B4523",
"B. c #64442C",
"V. c #6A452A",
"C. c #6B4A2B",
"Z. c #6C4924",
"A. c #744B25",
"S. c #7A4C24",
"D. c #734C2C",
"F. c #7A4D2B",
"G. c #764426",
"H. c #7D522C",
"J. c #7B5127",
"K. c #644B36",
"L. c #6C4B33",
"P. c #624C3A",
"I. c #674937",
"U. c #734D32",
"Y. c #7A4937",
"T. c #6C523C",
"R. c #64553A",
"E. c #745233",
"W. c #7C5532",
"Q. c #7C5933",
"!. c #7B583A",
"~. c #6A633B",
"^. c #4B4642",
"/. c #59574A",
"(. c #5C5A53",
"). c #5B4C44",
"_. c #614B44",
"`. c #645443",
"'. c #625E42",
"]. c #675748",
"[. c #785C45",
"{. c #675A53",
"}. c #785249",
"|. c #696447",
" X c #786549",
".X c #6C6657",
"XX c #786755",
"oX c #797655",
"OX c #76714C",
"+X c #777365",
"@X c #6B6660",
"#X c #813E1A",
"$X c #834317",
"%X c #88511D",
"&X c #884C25",
"*X c #82552D",
"=X c #88582B",
"-X c #97592B",
";X c #835633",
":X c #855A34",
">X c #8B5B32",
",X c #855D3B",
"<X c #89593A",
"1X c #925D37",
"2X c #8C4B2D",
"3X c #8C6135",
"4X c #8C633B",
"5X c #87643C",
"6X c #936335",
"7X c #93643B",
"8X c #9B6B3D",
"9X c #99683D",
"0X c #9C642D",
"qX c #A3673A",
"wX c #8D5D45",
"eX c #886648",
"rX c #946B43",
"tX c #9A6C43",
"yX c #966845",
"uX c #9E7146",
"iX c #846B59",
"pX c #946A55",
"aX c #86795B",
"sX c #997557",
"dX c #807D4E",
"fX c #A16C44",
"gX c #A17245",
"hX c #A8774A",
"jX c #A87C53",
"kX c #B17E54",
"lX c #857765",
"zX c #947B64",
"xX c #8A7D78",
"cX c #A37765",
"vX c #968569",
"bX c #8B8678",
"nX c #949175",
"mX c #8E816D",
"MX c #A58A71",
"NX c #A8957C",
"BX c #B79577",
"VX c #B58D72",
"CX c #B38051",
"ZX c #9B9A8A",
"AX c #928C84",
"SX c #A2918B",
"DX c #A8A698",
"FX c #B4A997",
"GX c #B3A88A",
"HX c #BAB7A7",
"JX c #B6A8A3",
"KX c #C09E81",
"LX c #C5C1AE",
"PX c #CECEC2",
"IX c #EDE7E3",
"UX c None",
/* pixels */
"UXUXUXUXUXUXUXUXUXUXUXUXUXUXUXUXUXUXUXUXUXUXUXUXUXUXUXUXUXUXUXUXUXUXUXUXUXUXUXUXUXUXUXUXUXUXUXUXUXUXUXUXUXUXUXUXUXUXUXUXUXUXUXUXUXUXUXUXUXUX",
"UXUXUXUXUXUXUXUXUXUXUXUXUXUXUXUXUXUXUXUXUXUXUXUXUXUXUXUXUXUXUXUXUXUXUXUXUXUXUXUXUXUXUXUXlXUXUXUXUXUXUXUXUXUXUXUXUXUXUXUXUXUXUXUXUXUXUXUXUXUX",
"UXUXUXUXUXUXUXUXUXUXUXUXUXUXUXUXUXUXUXUXUXUXUXUXUXUXUXUXUXUXUXUXUXUXUXUXUXUXUXUXUXUXUXUXXX[.UXUXUXUXUXUXUXUXUXUXUXUXUXUXUXUXUXUXUXUXUXUXUXUX",
"UXUXUXUXUXUXUXUXUXUXUXUXUXUXUXUXUXUXUXUXUXUXUXUXUXUXUXUXUXUXUXUXUXUXUXUXUXUXUXUXUXUXUXUX XT.UXUXUXUXUXUXUXUXUXUXUXUXUXUXUXUXUXUXUXUXUXUXUXUX",
"UXUXUXUXUXUXUXUXUXUXUXUXUXUXUXUXUXUXUXUXUXUXUXUXUXUXUXUXUXUXUXUXUXUXUXUXUXUXUXUXUXUXUXUXeX4.UXUXUXUXUXUXUXUXUXUXUXUXUXUXUXUXUXUXUXUXUXUXUXUX",
"UXUXUXUXUXUXUXUXUXUXUXUXUXUXUXUXUXUXUXUXUXUXUXUXUXUXUXUXUXUXUXUXUXUXUXUXUXUXUXUXUXUXUXNXeX2.UXUXUXUXUXUXUXUXUXUXUXUXUXUXUXUXUXUXUXUXUXUXUXUX",
"UXUXUXUXUXUXUXUXUXUXUXUXUXUXUXUXUXUXUXUXUXUXUXUXUXUXUXUXUXUXUXUXUXUXUXUXUXUXUXUXUXUXUXvXeX7.UXUXUXUXUXUXUXUXUXUXUXUXUXUXUXUXUXUXUXUXUXUXUXUX",
"UXUXUXUXUXUXUXUXUXUXUXUXUXUXUXUXUXUXUXUXUXUXUXUXUXUXUXUXUXUXUXUXUXUXUXUXUXUXUXUXUXUXUXzXwXw.UXUXUXUXUXUXUXUXUXUXUXUXUXUXUXUXUXUXUXUXUXUXUXUX",
"UXUXUXUXUXUXUXUXUXUXUXUXUXUXUXUXUXUXUXUXUXUXUXUXUXUXUXUXUXUXUXUXUXUXUXUXUXUXUXUXUXUXSXeXH.5.l.UXUXUXUXUXUXUXUXUXUXUXUXUXUXUXUXUXUXUXUXUXUXUX",
"UXUXUXUXUXUXUXUXUXUXUXUXUXUXUXUXUXUXUXUXUXUXUXUXUXUXUXUXUXUXUXUXUXUXzXUXUXUXUXUXUXMXeXQ.y.f.l.UXUXUXUXUXUXUXUXUXUXUXUXUXUXUXUXUXUXUXUXUXUXUX",
"UXUXUXUXUXUXUXUXUXUXUXUXUXUXUXUXUXUXUXUXUXUXUXUXUXUXUXUXUXUXUXUX[.f.U.B.XXUXUXUXUX XeXW.t.[ k.UXUXUXUXUXUXUXUXUXUXUXUXUXUXUXUXUXUXUXUXUXUXUX",
"UXUXUXUXUXUXUXUXUXUXUXUXUXUXUXUXUXUXUXUXUXUXUXUXUXUXUXUXUXUXUX[.Z.u.H.5.U. XUXUXXXH.;XH.M.v :.UXUXUXUXUXUXUXUXUXUXUXUXUXUXUXUXUXUXUXUXUXUXUX",
"UXUXUXUXUXUXUXUXUXUXUXUXUXUXUXUXUXUXUXUXUXUXUXUXUXUXUXUXUXUXUXI.Z.J.5Xi.A.C.UXzXeX>XH.U.L.[ v UXUXUXUXUXUXUXUXUXUXUXUXUXUXUXUXUXUXUXUXUXUXUX",
"UXUXUXUXUXUXUXUXUXUXUXUXUXUXUXUXUXUXUXUXUXUXUXUXUXUXUXUXUXUXK.U.J.p.3Xi.Q.C.I. XeX;XJ.C. .f.] <.UXUXUXUXUXUXUXUXUXUXUXUXUXUXUXUXUXUXUXUXUXUX",
"UXUXUXUXUXUXUXUXUXUXUXUXUXUXUXUXUXUXUXUXUXUXUXUXUXUXUXUXUXR.[ !.H.=XgXJ.3XD.~ f.i.y.D.Q...5.f.:.UXUXUXUXUXUXUXUXUXUXUXUXUXUXUXUXUXUXUXUXUXUX",
"UXUXUXUXUXUXUXUXUXUXUXUXUXUXUXUXUXUXUXUXUXUXUXUXUXUXUXNX Xf. .rXrX6X9X4XgXJ...N.A.y. .zXV.R B.P.UXUXUXUXUXUXUXUXUXUXUXUXUXUXUXUXUXUXUXUXUXUX",
"UXUXUXUXUXUXUXUXUXUXUXUXUXUXUXUXUXUXUXUXUXUXUXUXlXNXNX!.Q.E.#.4XuXuXCX9XjXZ.5.Q.*XC.[ M.V.w M.T.XXUXUXUXUXUXUXUXUXUXUXUXUXUXUXUXUXUXUXUXUXUX",
"UXUXUXUXUXUXUXUXUXUXUXUXUXUXUXUXUXUXUXUXUXUXUXNX[.MXW.*XrX!. .,XjXhXCXhXjXN.Z.4X8X*X#.R } 3.5.E.K.UXUXUXUXUXUXUXUXUXUXUXUXUXUXUXUXUXUXUXUXUX",
"UXUXUXUXUXUXUXUXUXUXUXUXUXUXUXUXUXUXUXUXUXUXUXXXB.I.F.9X8XeXZ.Q.uX1X8XtXuXM.W.9X9X8XH._ W T.Z.u.C.`.UXUXUXUXUXUXUXUXUXUXUXUXUXUXUXUXUXUXUXUX",
"UXUXUXUXUXUXUXUXUXUXUXUXUXUXUXUXUXUXUXUXUXUXXX>.s q.,X3X6X:XZ.C.tX8XCX8XrXC.4XuX6X=XH.#.P 2.V.$.V.v.UXUXUXUXUXUXUXUXUXUXUXUXUXUXUXUXUXUXUXUX",
"UXUXUXUXUXUXUXUXUXUXUXUXUXUXUXUXUXUXUXUXUXUX].s Y M.Q.=X7X>XC.N.yX-X6X7X4XA.eXtX8X5XQ. .P Q M.w.B.B.P.UXUXUXUXUXUXUXUXUXUXUXUXUXUXUXUXUXUXUX",
"UXUXUXUXUXUXUXUXUXUXUXUXUXUXUXUXUXUXUXUXUXlXI.q q D.rXtXuXrXQ.N.7XyXuX4X5XZ.yXgX8XuXrXy.q ) L.| B.B.K.UXUXUXUXUXUXUXUXUXUXUXUXUXUXUXUXUXUXUX",
"UXUXUXUXUXUXUXUXUXUXUXUXUXUXUXUXUXUXUXUXUX[.I.2 Q !.4X4XtXuXQ.y.yXtX9XrXH.{ 5XtX9X4XeXE.L ) W.] 5.V.f.P.UXUXUXUXUXUXUXUXUXUXUXUXUXUXUXUXUXUX",
"UXUXUXUXUXUXUXUXUXUXUXUXUXUXUXUXUXUXUXUXUX7.L.P W D.Q.J.6XtX3X#.yXhXhXtXA.y.F.4X=XH.Q.B.q ) U.! } Z.#.} UXUXUXUXUXUXUXUXUXUXUXUXUXUXUXUXUXUX",
"UXUXUXUXUXUXUXUXUXUXUXUXUXUXUXUXUXUXUXUXUXK.E.` q _ #.u.=X*X3XF.rXgXqXtXu.Q.4XH.H.S.M.( q q.U.0 M y.y.] k.UXUXUXUXUXUXUXUXUXUXUXUXUXUXUXUXUX",
"UXUXUXUXUXUXUXUXUXUXUXUXUXUXUXUXUXUXUXUXUX].I.5.q R _ i.J.J.7XH.7XhXgXyXy.Q.7XH.F.w.{ Q W L.V.9 j T ..] m UXUXUXUXUXUXUXUXUXUXUXUXUXUXUXUXUX",
"UXUXUXUXUXUXUXUXUXUXUXUXUXUXUXUXUXUXUXUXUXUXT.T.q q ~ Z.A.=XrX:X>XgX8X4XN.W.:X;XH.q...L W [.` > 4 Y ( ( m <.UXUXUXUXUXUXUXUXUXUXUXUXUXUXUXUX",
"UXUXUXUXUXUXUXUXUXUXUXUXUXUXUXUXUXUXUXUXUXUXR.T.! 4 T  .D.*X3XW.*XuX8X>XZ.yX*XS.Z.2.~ 9 l.T.q 4 4 W s 9 6 m UXUXUXUXUXUXUXUXUXUXUXUXUXUXUXUX",
"UXUXUXUXUXUXUXUXUXUXUXUXUXUXUXUXUXUXUXUXUXUXUXl.f.q h ~ #.i.3X4X:XgXtXW.y.rX1Xu.X.0 9 W T.} w q W W 0 w q p <.UXUXUXUXUXUXUXUXUXUXUXUXUXUXUX",
"UXUXUXUXUXUXUXUXUXUXUXUXUXUXUXUXUXUXUXUXUXUXUXP.6.( w Y ..J.4XrXH.tX9X:X*X4X&XN.T 9 4 4.4.j 4 a s -.B.Y 7.q.4.[.UXUXUXUXUXUXUXUXUXUXUXUXUXUX",
"UXUXUXUXUXUXUXUXUXUXUXUXUXUXUXUXUXUXUXUXUXUXUXUX1.7.s w ~ D.rXpXF.4XrXW.rXtXF.| L 9 ( 6.7 @ , > $ d iX{ _ i.3XeXaXUXUXUXUXUXUXUXUXUXUXUXUXUX",
"UXUXUXUXUXUXUXUXUXUXUXUXUXUXUXUXUXUXUXUXUXUXUXUX_.9.( w ~ V.,XrXA.3X4XA.7XeXH.| q q k.l + . % $ % 4 eXpX_ o.*X7X4XeXzXUXUXUXUXUXUXUXUXUXUXUX",
"UXUXUXUXUXUXUXUXUXUXUXUXUXUXUXUXUXUXUXUXUXUXUXUXUXA =.q T q.U.,XS.3X7Xi.4XQ.N.} L =.n X .   & r 7 > ] KXuX+.X.p.%X-X,XaXUXUXUXUXUXUXUXUXUXUX",
"UXUXUXUXUXUXUXUXUXUXUXUXUXUXUXUXUXUXUXUXUXUXUXUXJ o x M Y |  .W.;X6X8X>X4XD. .! ^ :.$ . . . + 8 M m < I.GXVX$.E p.%X=X,XUXUXUXUXUXUXUXUXUXUX",
"UXUXUXUXUXUXUXUXUXUXUXUXUXUXUXUXUXUXUXUXUXUXUX(.; O # n c ~  .<X>X6X8X>X;XM.} W ^ r . . . @ @ 4 / m e % f.MXBX;Xo.O.p.*XeXUXUXUXUXUXUXUXUXUX",
"UXUXUXUXUXUXUXUXUXUX/.R.eXQ.iXUXUXUXUXUXUXUXUXA O o . t v Y V.,X*X7X6X=X:XM.~ c a X . . . @ 4 w ( a r # > m aXBX3Xo.O.=X:XUXUXUXUXUXUXUXUXUX",
"UXUXUXUXUXUXUXUXUX.Xl 0 &X0XQ.UXUXUXUXUXUXUX).$ % .   # 0 W C.W.S.1X>Xp.,XG.~ 0 *   . % @ 5 6 , ^ m ; o t , 5 `.BX2XE &.i.!.UXUXUXUXUXUXUXUX",
"UXUXUXUXUXUXUXUX|.H = 3 i.-XC.UXUXUXUXUXUX{.x # % % # + 7 ~ V.D.p.6X>X$.H.Z...0 %   , < > p p a d u Z 8.p P 2 , _.jXe.E %.U.UXUXUXUXUXUXUXUX",
"UXUXUXUXUXUXUX|.V 8 $ 7 5.D.5.1.UXUXUXUXUX=.1 1 2 P t , M ~ { G.G.1X>Xi.u.@.} v * . e d > 9 9 u i 8.{.JX0.I I e p I.pX@.@.G.UXUXUXUXUXUXUXUX",
"UXUXUXUXUXUX|.t.g 5 * A v W ] g.UXUXUXUX_.e p L I ;.d d / ~ { &.&.-X%Xp.u.@.T / 6 % e P 1 9 p r C UXUXJXSXr.r.I P Q U.yXo.$.!.UXUXUXUXUXUXUX",
"UXUXUXUXUX|.[ N S x 8.i $ , v x.UXUXUXlXm 2 P I +.;.2 s L ~ { @.p.=X&Xp.$.*.T v c * p P 9 0 s 6 A UXUXUXSX}.e.+.' ( P eXF.@.C.UXUXUXUXUXUXUX",
"UXUXUX|.n.d.h..XUXUXUXZ # r s 8.UXUXUX_.d 2 P U ' 2 % p q ~ +.&.$X&X%Xp.O.X.T q 7 * t P q 0 a a 8.UXUXUXUX0.+.r.U +.' ` !.@.M.UXUXUXUXUXUXUX",
"UXUX^.c.(.+XUXUXUXUXUXF % 5 H UXUXUXpX;.2 1 P I d 1 % p ( { @.O.$X$X&X#X*.*.| / t , , e < < 9 6 UXUXUXUXUXUX=.3.+.+.e.P 7.V. .[.UXUXUXUXUXUX",
"UXc.(.+XUXUXUXUXUXUXUXJ 3 7 @XUXUXcXY.;.1 2 ;.P , $ F {.6.| E @.$X-X&X&.o.{ | d t i , % , , 5 5 <.UXUXUXUXUXUX0.;.' I P P w.| T.UXUXUXUXUXUX",
"UXUXUXUXUXUXUXUXUXUXUX8.0 m DXIX}.wXwXP , m P < u ^.UXUX:.q ) %.#X-X2X&.+.) s m i i $ u m u 5 $ <.UXUXUXUXUXUXUXx.-.P 2 L ' w.q. XUXUXUXUXUX",
"UXUXUXUXUXUXUXUXUXUXUXg.v >.JXxX-.e.7.1 e e e m {.UXUXUX=.L w ) o.#X%.r.P 9 p m 5 $ m -./ ^ / , A UXUXUXUXUXUXUXUXUX;.< 9 I <Xw.L.pXUXUXUXUX",
"UXUXUXUXUXUXUXUXUXUXUXc.h [ x.u e d 1 e e e ^ UXUXUXUXUXv q p Q %.%.$.2.s p d a < W B.q.q.3.q.v A UXUXUXUXUXUXUXUXUXUXA 1 L 2XwX$.W.sXUXUXUX",
"UXUXUXUXUXUXUXUXUXUXUXz.h ! > , 1 % r e e A UXUXUXUXUX{.:.] s -.w.e.2X-.m d m q h | _ w.2XD.N.| / UXUXUXUXzXzXzXUXUXUX(., 2 r.fX&Xp.;XpXUXUX",
"UXUXUXUXUXUXUXUXUXUXUXk.h ! s $ # # < p -.UXUXUXUXUXUX].vXbX-...e.-X%X$.3.-.p 9 ~ _ Q +.J.;X .#.[ UXUXUX[.1X1XwX!.I.UXUX8.p r.2XqX$X$X<XUXUX",
"UXUXUXUXUXUXUXUXUXUXUX1.W ....6 r 5 < d {.UXUXUXUXUXUXv.FXHX6...&.qX0X#.6.8.i a ~ Y ` w.i.J.| _ ] UXUXUX2.#.@.e.q.Q x.UX.Xt p P <X2X$X>X[.UX",
"UXUXUXUXUXUXUXUXUXUXUXB ! X.q.Q p 6 p 0.UXUXUXUXUXUXUXv.DXSX<.>.V.Y.U.9.<.J y >...W ` Y.,XR ~ { 2.UXUXUX5 7 7 w ` v M xXAX^.$ < -.<X&.&XeXUX",
"UXUXUXUXUXUXUXUXUXUXUX4.[ ..| Y w t d UXUXUXUXUXUXUXUX+X].^.& y 8._._.J r * S f.h s _ w.;X| Y q.2.UXUXUXC 8.c.3 u v 0 l.XXbXj.+ < G.e.G.eXUX",
"UXUXUXUXUXUXUXUXUXUX`.f.~  .y.Y w d x.UXUXUXUXUXUXUXUXUXx.F Z - # ; $ $ u =.9./ 0 ( D.J.| | } _ 2.UXUXUXUX^.|.h.7 0 0 ! 2.XXiXp > q w.| T.UX",
"UXUXUXUXUXUXUXUXUXUXR.5.! [ 4.M a x.UXUXUXUXUXUXUXUXUXUXUX] / =.m Z A A >.>.>.s / ! y.>X#.R ..f.( UXUXUXUXUXZXmXz.c 5 ! | q.| 5.f.>.Q | 4.UX",
"UXUXUXUXUXUXUXUXUXUX).:.u n g.8.j.UXUXUXUXUXUXUXUXUXUXUXUX=.=.>.( ` +.| 5.( u * M f.#.u.i.{ [ w.>.UXUXUXUXUXUXFXmXs.H = c 4..._ #.Z.N.5.v x.",
"UXUXUXUXUXUXUXUXUXUXUX<.F UXUXUXUXUXUXUXUXUXUXUXUXUXUXUXUXi % a ( 3.w.^ 0 @ . + * v M.#.G.u.$. .( UXUXUXUXUXUXUXFXoX@X.Xy g M ~ { #.C.7.5 i ",
"UXUXUXUXUXUXUXUXUXUXUXUXUXUXUXUXUXUXUXUXUXUXUXUXUXUXUXUXUXr . . 5 >.2.# . X X & = = c 5.$.S.p.5.1.UXUXUXUXUXUXUXUXFXaXHXbXO & M 4.M.#.} A ^.",
"UXUXUXUXUXUXUXUXUXUXUXUXUXUXUXUXUXUXUXUXUXUXUXUXUXUXUXUXUXC .   X * r   O : f z H H S 4.C.G.i.f.UXUXUXUXUXUXUXUXUXUXZXnXPXUXX + N  .D.4.`.UX",
"UXUXUXUXUXUXUXUXUXUXUXUXUXUXUXUXUXUXUXUXUXUXUXUXUXUXUXUXUXC o O O O O     X : f B s.z.1.] M.w.1.UXUXUXUXUXUXUXUXUXUXLXnXZXUXUX; y ! B.K.`.UX",
"UXUXUXUXUXUXUXUXUXUXUXUXUXUXUXUXUXUXUXUXUXUXUXUXUXUXUXUXUXK X X     O . & & f k l [ k./ s K.L.c.UXUXUXUXUXUXUXUXUXUXUXHXnXUXUXUXUXx.9.9.x.UX",
"UXUXUXUXUXUXUXUXUXUXUXUXUXUXUXUXUXUXUXUXUXUXUXUXUXUXUXUXUXx = - : X : = x D D D B [ ,.n <.UXUXUXUXUXUXUXUXUXUXUXUXUXUXPXDXbXUXUXUXUXUXUXUXUX",
"UXUXUXUXUXUXUXUXUXUXUXUXUXUXUXUXUXUXUXUXUXUXUXUXUXUXUXUX/.f f f X X X f D h.n.b.R.T.>.l UXUXUXUXUXUXUXUXUXUXUXUXUXUXUXUXPXZXZXUXUXUXUXUXUXUX",
"UXUXUXUXUXUXUXUXUXUXUXUXUXUXUXUXUXUXUXUXUXUXUXUXUXUXUXUXh.f = = X f f & f z d.n.|.[.>.Z UXUXUXUXUXUXUXUXUXUXUXUXUXUXUXUXUXHXAXUXUXUXUXUXUXUX",
"UXUXUXUXUXUXUXUXUXUXUXUXUXUXUXUXUXUXUXUXUXUXUXUXUXUXUXUXD g g g f z f f z N D a.s.K./ UXUXUXUXUXUXUXUXUXUXUXUXUXUXUXUXUXUXUXDXAXUXUXUXUXUXUX",
"UXUXUXUXUXUXUXUXUXUXUXUXUXUXUXUXUXUXUXUXUXUXUXUXUXUXUX+X1.a.h.g.D d.D d.h.h.n.d.d.>.=.UXUXUXUXUXUXUXUXUXUXUXUXUXUXUXUXUXUXUXUXUXUXUXUXUXUXUX",
"UXUXUXUXUXUXUXUXUXUXUXUXUXUXUXUXUXUXUXUXUXUXUXUXUXUXUX].1.'..Xn.,.h.'.oXdXaXdXOX~.,.UXUXUXUXUXUXUXUXUXUXUXUXUXUXUXUXUXUXUXUXUXUXUXUXUXUXUXUX",
"UXUXUXUXUXUXUXUXUXUXUXUXUXUXUXUXUXUXUXUXUXUXUXUXUXUXUXc.l B s.N g a.'.|.oXoXOX~.R.<.UXUXUXUXUXUXUXUXUXUXUXUXUXUXUXUXUXUXUXUXUXUXUXUXUXUXUXUX",
"UXUXUXUXUXUXUXUXUXUXUXUXUXUXUXUXUXUXUXUXUXUXUXUXUXUXUXc.g l N b D D N N H a.d.m.T.j.UXUXUXUXUXUXUXUXUXUXUXUXUXUXUXUXUXUXUXUXUXUXUXUXUXUXUXUX",
"UXUXUXUXUXUXUXUXUXUXUXUXUXUXUXUXUXUXUXUXUXUXUXUXUXUXUXj.:.,.d.a.b.V d.h.h.a.d.R.P.UXUXUXUXUXUXUXUXUXUXUXUXUXUXUXUXUXUXUXUXUXUXUXUXUXUXUXUXUX",
"UXUXUXUXUXUXUXUXUXUXUXUXUXUXUXUXUXUXUXUXUXUXUXUXUXUXUXg.h.b.n.n.~.d.b.~.|.R.~. X6.UXUXUXUXUXUXUXUXUXUXUXUXUXUXUXUXUXUXUXUXUXUXUXUXUXUXUXUXUX",
"UXUXUXUXUXUXUXUXUXUXUXUXUXUXUXUXUXUXUXUXUXUXUXUXUXUXUX1.n.|.~.d.z.s.OXdXoXoXOXE.>.UXUXUXUXUXUXUXUXUXUXUXUXUXUXUXUXUXUXUXUXUXUXUXUXUXUXUXUXUX",
"UXUXUXUXUXUXUXUXUXUXUXUXUXUXUXUXUXUXUXUXUXUXUXUXUXUXUXZ z |.n.b V b.nXmX|.b.z.m.6.UXUXUXUXUXUXUXUXUXUXUXUXUXUXUXUXUXUXUXUXUXUXUXUXUXUXUXUXUX",
"UXUXUXUXUXUXUXUXUXUXUXUXUXUXUXUXUXUXUXUXUXUXUXUXUXUXUXG g B D S h.h.n.V N V d.R.v.UXUXXXiX X XUXUXUXUXUXUXUXUXUXUXUXUXUXUXUXUXUXUXUXUXUXUXUX",
"UXUXUXUXUXUXUXUXUXUXUXUXUXUXUXUXUXUXUXUXUXUXUXUXUXUXUXD S D D s.b.,.a.V a.d.m.b.l.{.6.B.L.q.} a.{.UXUXUXUXUXUXUXUXUXUXUXUXUXUXUXUXUXUXUXUXUX",
"UXUXUXUXUXUXUXUXUXUXUXUXUXUXUXUXUXUXUXUXUXUXUXUXUXUXUXz D n.n.s.h.~.OXR.b.h.b.b.s c ] | | ~ Y h ( P.].UXUXUXUXUXUXUXUXUXUXUXUXUXUXUXUXUXUXUX",
"UXUXUXUXUXUXUXUXUXUXUXUXUXUXUXUXUXUXUXUXUXUXUXUXUXUXUXz z '.b.b V mXnXOXn.D d.m.7 w q Y R Y Y q q ~ 4.9.UXUXUXUXUXUXUXUXUXUXUXUXUXUXUXUXUXUX",
"UXUXUXUXUXUXUXUXUXUXUXUXUXUXUXUXUXUXUXUXUXUXUXUXUXUXUXH g a.a.g N n.~.a.k b [ m.5 % 3 4 L ~ ~ W Y R ..4.1.UXUXUXUXUXUXUXUXUXUXUXUXUXUXUXUXUX",
"UXUXUXUXUXUXUXUXUXUXUXUXUXUXUXUXUXUXUXUXUXUXUXUXUXUXUXH b D ,.N G b V N S D s.z.7 O . 4 h 3.~ h ! T T } ( UXUXUXUXUXUXUXUXUXUXUXUXUXUXUXUXUX",
"UXUXUXUXUXUXUXUXUXUXUXUXUXUXUXUXUXUXUXUXUXUXUXUXUXUXUXZ Z h.h.F ,.,.b.c.h.h.s.k.6   % 7 ( ! q u c v ~ ] ] :.UXUXUXUXUXUXUXUXUXUXUXUXUXUXUXUX",
"UXUXUXUXUXUXUXUXUXUXUXUXUXUXUXUXUXUXUXUXUXUXUXUXUXUXUXUXx c.'.N z z.oX|.h.S M ,.0 + + 0 ~ 0 l UXUXUX7 ! ( ] 6.UXUXUXUXUXUXUXUXUXUXUXUXUXUXUX",
"UXUXUXUXUXUXUXUXUXUXUXUXUXUXUXUXUXUXUXUXUXUXUXUXUXUXUXUXUXH c.- g c.oXz.l - N :.j = @ 4 c 7 UXUXUXUXUXA >.~ 7.UXUXUXUXUXUXUXUXUXUXUXUXUXUXUX",
"UXUXUXUXUXUXUXUXUXUXUXUXUXUXUXUXUXUXUXUXUXUXUXUXUXUXUXUXUXz z = z S Z y k N ,.B j 7 3 4 UXUXUXUXUXUXUXUX).4.` v.XXUXUXUXUXUXUXUXUXUXUXUXUXUX",
"UXUXUXUXUXUXUXUXUXUXUXUXUXUXUXUXUXUXUXUXUXUXUXUXUXUXUXUXUXJ H z N Z x H G a.G l g 8 8 3 UXUXUXUXUXUXUXUXUXiX2.>.k..XUXUXUXUXUXUXUXUXUXUXUXUX",
"UXUXUXUXUXUXUXUXUXUXUXUXUXUXUXUXUXUXUXUXUXUXUXUXUXUXUXUXUX/.J G z z J c.z.1.f - 5 5 * UXUXUXUXUXUXUXUXUXUXUXlX6.k.SXUXUXUXUXUXUXUXUXUXUXUXUX",
"UXUXUXUXUXUXUXUXUXUXUXUXUXUXUXUXUXUXUXUXUXUXUXUXUXUXUXUXUXUXJ G k & J c.H - - k & + ; UXUXUXUXUXUXUXUXUXUXUXUXXX9.].UXUXUXUXUXUXUXUXUXUXUXUX",
"UXUXUXUXUXUXUXUXUXUXUXUXUXUXUXUXUXUXUXUXUXUXUXUXUXUXUXUXUXUXUXUX: : f f - C C - UXUXUXUXUXUXUXUXUXUXUXUXUXUXUXUX{.k.XXUXUXUXUXUXUXUXUXUXUXUX",
"UXUXUXUXUXUXUXUXUXUXUXUXUXUXUXUXUXUXUXUXUXUXUXUXUXUXUXUXUXUXUXUXUXUXUXUXK C - UXUXUXUXUXUXUXUXUXUXUXUXUXUXUXUXUXUX_.v.UXUXUXUXUXUXUXUXUXUXUX",
"UXUXUXUXUXUXUXUXUXUXUXUXUXUXUXUXUXUXUXUXUXUXUXUXUXUXUXUXUXUXUXUXUXUXUXUX: : UXUXUXUXUXUXUXUXUXUXUXUXUXUXUXUXUXUXUXUXUXUXUXUXUXUXUXUXUXUXUXUX"
};
