/* XPM */
static char *_c42a1d8e4334631b9af6df2d0dc6222O2lZtiLaikYqCDRE[] = {
/* columns rows colors chars-per-pixel */
"64 64 246 2 ",
"   c None",
".  c #0C0708",
"X  c #130A06",
"o  c #130C0A",
"O  c #1A0D0C",
"+  c #150707",
"@  c #1C110E",
"#  c #17130F",
"$  c #191413",
"%  c #130F10",
"&  c #22120D",
"*  c #28160F",
"=  c #241411",
"-  c #2A1713",
";  c #2B1A14",
":  c #271B17",
">  c #321B16",
",  c #331E19",
"<  c #381917",
"1  c #2F0F14",
"2  c #2D231E",
"3  c #26211E",
"4  c #3B231A",
"5  c #36231A",
"6  c #351228",
"7  c #252123",
"8  c #2D292B",
"9  c #2C2726",
"0  c #3C2622",
"q  c #332B24",
"w  c #3A2D2D",
"e  c #362C29",
"r  c #3C322B",
"t  c #372E30",
"y  c #383634",
"u  c #1C1F23",
"i  c #4A1E17",
"p  c #45271D",
"a  c #49182B",
"s  c #4B1935",
"d  c #531A36",
"f  c #51192E",
"g  c #442C23",
"h  c #4B2D24",
"j  c #4B2928",
"k  c #552A26",
"l  c #43342D",
"z  c #4D342B",
"x  c #483529",
"c  c #543427",
"v  c #53342A",
"b  c #5B342C",
"n  c #5B3A2E",
"m  c #54392B",
"M  c #592A36",
"N  c #463534",
"B  c #493933",
"V  c #5D3B33",
"C  c #553936",
"Z  c #4B2135",
"A  c #643B2D",
"S  c #69243B",
"D  c #633D33",
"F  c #6B3D33",
"G  c #683537",
"H  c #753C3B",
"J  c #622F2F",
"K  c #641F3D",
"L  c #494239",
"P  c #53443A",
"I  c #58463A",
"U  c #654234",
"Y  c #6C4335",
"T  c #64443C",
"R  c #6B453C",
"E  c #6D4A3D",
"W  c #684B37",
"Q  c #744B3C",
"!  c #7A4B3D",
"~  c #744539",
"^  c #7B513E",
"/  c #69513D",
"(  c #551E44",
")  c #4E1C45",
"_  c #641D43",
"`  c #57224A",
"'  c #4B2D55",
"]  c #4E2E59",
"[  c #462D51",
"{  c #522E5C",
"}  c #5B2655",
"|  c #4D3059",
" . c #53305E",
".. c #45294C",
"X. c #65244A",
"o. c #783746",
"O. c #6A275D",
"+. c #672657",
"@. c #762D56",
"#. c #542E61",
"$. c #5C2E63",
"%. c #563163",
"&. c #5A3165",
"*. c #5D3269",
"=. c #6C2A63",
"-. c #6C2D6B",
";. c #652B64",
":. c #722D6B",
">. c #742C63",
",. c #62326C",
"<. c #6E306F",
"1. c #773568",
"2. c #692E71",
"3. c #752F72",
"4. c #663473",
"5. c #6B3474",
"6. c #6D357A",
"7. c #673378",
"8. c #743174",
"9. c #74347C",
"0. c #7A347C",
"q. c #76347B",
"w. c #564B44",
"e. c #5C5243",
"r. c #5B544D",
"t. c #4E4940",
"y. c #694B44",
"u. c #764B44",
"i. c #625445",
"p. c #64594A",
"a. c #7B5245",
"s. c #765448",
"d. c #645C54",
"f. c #7E5E53",
"g. c #7B664D",
"h. c #6D6355",
"j. c #6F6658",
"k. c #786A59",
"l. c #6D604B",
"z. c #7A7367",
"x. c #74736D",
"c. c #884C3B",
"v. c #83513D",
"b. c #834B44",
"n. c #835443",
"m. c #8B5544",
"M. c #855A4C",
"N. c #8B5C4C",
"B. c #865648",
"V. c #935D4C",
"C. c #955A47",
"Z. c #8B475B",
"A. c #855A53",
"S. c #965C55",
"D. c #964C50",
"F. c #8A634D",
"G. c #9C634D",
"H. c #96644E",
"J. c #8A6758",
"K. c #946454",
"L. c #9A6453",
"P. c #9A6959",
"I. c #8A7258",
"U. c #9C715C",
"Y. c #A46A55",
"T. c #A96D54",
"R. c #A46C5A",
"E. c #A76758",
"W. c #B66D5A",
"Q. c #A8745B",
"!. c #B6745B",
"~. c #A0634D",
"^. c #935268",
"/. c #8A7B68",
"(. c #987C6A",
"). c #857E70",
"_. c #A97763",
"`. c #B47B61",
"'. c #BB7B64",
"]. c #B87966",
"[. c #B1707A",
"{. c #A45A60",
"}. c #C37B64",
"|. c #C57966",
" X c #D37F66",
".X c #97856B",
"XX c #898278",
"oX c #968976",
"OX c #988C76",
"+X c #A98667",
"@X c #B9846A",
"#X c #A88872",
"$X c #A2937A",
"%X c #B99776",
"&X c #BC8D74",
"*X c #CB836C",
"=X c #C38C6E",
"-X c #C68569",
";X c #C78A75",
":X c #CA9476",
">X c #D69879",
",X c #D38D6F",
"<X c #E89A7A",
"1X c #E99174",
"2X c #D4A67E",
"3X c #F6A17E",
"4X c #763682",
"5X c #7A3683",
"6X c #763984",
"7X c #7A3985",
"8X c #7C398A",
"9X c #7A3789",
"0X c #813A8C",
"qX c #803887",
"wX c #823B92",
"eX c #B77B8A",
"rX c #988D81",
"tX c #9E9385",
"yX c #A89B87",
"uX c #BB8684",
"iX c #B6A78B",
"pX c #B6A995",
"aX c #ACA087",
"sX c #B8B2A2",
"dX c #C58C89",
"fX c #CD938C",
"gX c #CAA88A",
"hX c #DAA584",
"jX c #C7B99C",
"kX c #D2B18E",
"lX c #E5A687",
"zX c #EAB58E",
"xX c #E8AD94",
"cX c #EAB994",
"vX c #F3B798",
"bX c #FBB289",
"nX c #C5BBA6",
"mX c #EAB9A4",
"MX c #F0C297",
"NX c #D5CCB9",
"BX c #D5C9AC",
"VX c #F6CBA6",
"CX c #F0D0AA",
"ZX c #FBE3B1",
"AX c #F2EAD3",
"SX c #E2D7C2",
/* pixels */
"                                            /.                                                                                  ",
"                                            (.#XJ.A.y.y.y.w.                                                                    ",
"                                              I._.N.Y.E.].S.m.F j v                                                             ",
"                                                E.R.W.D.;XhX>X].U.A.u.C w w                                                     ",
"                                                S.;XE.S Z.xXvXvXmXxX;X].C.Y m t 8                                               ",
"                                                s.].{.X.X.D.^.[.fXeXmXCXxX>X`.V.! y.N 8                                         ",
"                                                I Y.R.o.d O.:.:.3.>.^.uXeXuXvXzX<X,XU.u.N w 8                                   ",
"                                                C N.L.C.k O.qX8X3.>.>.+.S S Z.dX[.fXhXlX;XP.u.C t                               ",
"                                                B a.A.W.G d 0.8.3.qX0.3.:.O.+.=.+.@.1.dXmXmXlX;XL.I B t                         ",
"                                                B Q B.].~ ` 8.-.5X0XqX0X8X5X5X3.:.O.X.X.Z.uXdXdXlXdXU.b.y.y.                    ",
"                                                C T M. Xm.d } 5.8X8X8X7X5X4X6.4X8X0.>.+.X.@.@.o.;XvXlX>X>X@XK.y.P               ",
"                                                N V B.|.V.s +.6X8X6X4X4X7.7.6.6XwX0X7X8.q.5X-.} 1.^.eXxXxX*X].].K.y.w           ",
"                                                9 j R S.a.a -.8.,.9.8X9X7.7.6.7.4.7.6X*.*.#.[  .3.:.+.D.D.H D.1X[.S.F.I 8       ",
"                            P t               t w z ~ u.b d =.-.4.6X8X8X9X4X4.#.#.' #.%.[ ] %.7.5X0.:.O.+._ f o.K._.:XU.y.y 8   ",
"                    Y c p n Q h x U r e e e z V u.m.V.C.H f } 3.0.6X8X5X9X5X*.&.,.{ { *.#.4.6X9XqX0XqX8.<.:.{ 6 N a.Q.Q.%X.Xp.  ",
"                  g U U h n Y c m v.Y m g m ^ a.m.S.E.W.~.H X.:.q.4X5X5X8X4X#.*.] ' #.*.4X7.7.9XqX<.-.&.        7 N / F.%XiX$XL ",
"                  4 p c p c U v n U U c g m n.F.H.N.~.W.W.P.G X.8.0.6X7X8X6.&.&.' [ ]  .4.*.4.9.                    l z k.#XjXl.",
"                  5 4 p > 5 n U U U A I I Q v.! c I N._.].|.C.M -.q.9.9.8X8X6.*.| ' | { 4.6.                              h.sXoX",
"                  : > p p * 4 c n c c U Q Q ^ Y 4 m F.R.].|.W.F ` 9.q.9.6.6.9.,.&.4.4.4.                                    yXtX",
"                    * g p ; * k A 4 g n.V.H.m.v.B.F.U.'.`.].|.E.C ;.q.6X| | 4.6X6X8X                                          z.",
"  y.                : h g g & c U ; b ~.|. X|.W.K.L.R.T.^ H.Q.Q.a.) <.5.[  .7XwX6X                                              ",
"J.I.C               ; g j v & v Y ; D W.1X1X1X XT.F.F.^ x L F.@X'.u.` ;.| 4.8X6.                                                ",
"  (.y.w             $ 5 h m - ! m.; D W.1X3X3X1X}.T.N.^ x 0 a.@X>X'.M ` ,.6X6.                                                  ",
"  A.M.R C B         $ ; g c k ,X-X5 p ~.*X<XbXbXzX<X=XH.F.H.Y.,X;X@XG.~ +.<.                                                    ",
"  u.A.u.B.{.a.y.T   9 @ - 4 B.lX-Xj ; Q L.R.-X<XVXZXCXkX+XG.G.@X>X>X,X@XM.8                                                     ",
"  f.A.L.k S {.;XL.b.F b c ~ *XR.b.F O 0 C T a.K.:XMXzX2X:X@XL.G.^ R.,X2X%Xs.N P                                                 ",
"  y.A.!.F 6 o.;XhX;X@X].T.*X*XF k h - O , 0 j l E P.!.T.-XzX:XG.U 5 a.2XMX:Xm.~ U m                                             ",
"    B.'.D.a f G ].xXxXxX>X*XC.p < - > - : , 0 0 0 z n.G.G.=X=XT.v.U N.2XVX:Xm.U A Y                                             ",
"    B.!.!.j s d S A.S.E.D.Q k a J H < = g j j 0 0 z D A b =XcX@Xv.Q v.@XMX,XT.~ ~ c.c                                           ",
"    N.W.;XM ( :.O.+.f a d s s S d c.b & h V b z n R k h ~ F.>XcXkXP.Y U T.,X,XT.G.v.c 2                                         ",
"    n.W.;Xy.( q.8.-.+.=.O.X.( ( f f S & ; v F D v h < D G p ~ Y.kXCX>XH.U C.<XhXQ.G.A E                                         ",
"    R !.>XJ.) :.=.<.q.8.<.:.O.X.X.d a 6 O = , , c z - 1 b n.p i @XCXMX=XW c !.MX>XQ.Y I.p.                                      ",
"      !.<X[.a O.0.7X9.2.8.<.=.:.3.+.d f 6 + & & g E j < A c.1 J :X=X=XQ.Q.m.Q -X-X+Xc W g.e.                                    ",
"      ~.<XgXM ;.0.7Xq.5.8.q.0.0.3.O.O.d a & < h 0 u.D < A k c @XhXm.c.@X<X,Xc.c.-X+XI.W I l.L                                   ",
"      m.>XkXu.+.q.9.8.4X4X6X5X8.3.qX3.( a a 6 a h u.V < k k ~ @XhXc.c.2X3X<X-XC.C.I.2XOXI e.l.                                  ",
"      E Q.}.b.a <.5X6.4X4X5X5Xq.5X5X3.:.+._ ) 6 a V Y h h b b N.:X:X2X,X+X2XQ.F.^ I $XjXk.t.e.l.                                ",
"        V.T.m.a +.4X2.4.6X5X7X5X5X5X5X3.0.3.5X2.s 6 c m m ! Q C.+XzXMX,XT.~.v.2X%X/ e.BXiXj.9 / L                               ",
"        N.T.V.M } 4X4.4.9.4X5X5X5X;.$.2.8X8X2.6 o > - = h n.Q n c.2X2X=X+Xv.g.jXNXiXL $XBX$Xe.q p.                              ",
"        R '.Y.G ` 9.7.4.,.,.,.6.4X2.#.5X8X7.6 . . O > @ > n m p c Q I.%X^ x I BXAXSXz.I aXiXXX2 y L                             ",
"        l Q.!.G ) 4X6X4.&.{ { #.6.7.2.9X7.6 . . . . = , > h m c p p / +X+Xg 2 iXAXAXaXy p.$XtXL 2 q                             ",
"          V.}.S.s -.0X7.{ &.' { $.2.9.6X..% . . X X X - - , c ^ c * m F.%X.X* P BXAXNXd.2 r.OXk.9                               ",
"          T }.`.J ) 5X9.{  .[ [ ' 4.5X      X + O O o . > 5 * p p * 2 I k.sXj.# j.nXAXiXL 3 e.$XP                               ",
"          w V.-XA.s ;.5.&.%. .[ ] 9.          O @ @ o . O h p & # W I q L .XjXq # e.nXNXXXL 7 h.d.                              ",
"            I '.!.b } $.{ %.%.' ] ,.            @ & @ # . O 4 x 2 r .X/ 2 L aXOX# # p.nXNX).t 8 y                               ",
"            t R.-X~ ) 2.' | ,.,.,.                O @ @ o . X q I 2 i..XI 9 l.iXI # 2 XXNXpXr.                                  ",
"            7 a.*Xb.) { .. .4.*.5.                  @ @ @ X . o r x 9 e.OXP r XX.XL r L tXnXXXy                                 ",
"              l !.P.Z ` ' <.6X4.                      @ @ o X X # 9 L r p..Xq L k.l.L q h.OXtXr.                                ",
"              7 s.].~ ` 5.q.8X6.                        O + X X X # q q $ P                                                     ",
"                B _.A.M -.8.5X                            o + X X X % u                                                         ",
"                e A._.~ d -.8.                              @ X X o . o                                                         ",
"                  E _.B.Z =.-.                                $ o X # o %                                                       ",
"                  R _.K.k ` -.                                  @ o # o %                                                       ",
"                    (._.A a +.                                    $ @ % # u                                                     ",
"                    R.&XP.M `                                         # $ 9 3                                                   ",
"                      ].&XA.j                                                                                                   ",
"                      M.].@XM.                                                                                                  ",
"                      E R.@XU.s.                                                                                                ",
"                        E F.A.y.                                                                                                ",
"                        x m k.M.I                                                                                               ",
"                          2 g.#X(.d.                                                                                            ",
"                          8 k.iXpXpXrX                                                                                          ",
"                            x.sXsXSXnXrXx.                                                                                      ",
"                              h.XXtXtXx.x.                                                                                      ",
"                                                                                                                                "
};
