/* XPM */
static char *_0dd46c506da492ff5da472f1bea48e8py0gO1KRKLZclTMl[] = {
/* columns rows colors chars-per-pixel */
"64 64 188 2 ",
"   c None",
".  c #0C0C0A",
"X  c #0F0E0C",
"o  c #0E0E0D",
"O  c #101111",
"+  c #131317",
"@  c #151216",
"#  c #121415",
"$  c #11151B",
"%  c #12151A",
"&  c #12181F",
"*  c #181A1D",
"=  c #151B21",
"-  c #151C23",
";  c #161C22",
":  c #161D24",
">  c #191E22",
",  c #1A1E22",
"<  c #181D24",
"1  c #181F25",
"2  c #191F25",
"3  c #181F26",
"4  c #181F27",
"5  c #161F29",
"6  c #181F28",
"7  c #1F2223",
"8  c #1A2024",
"9  c #182028",
"0  c #192128",
"q  c #1A2128",
"w  c #1B2128",
"e  c #1B2229",
"r  c #1A222B",
"t  c #1A232B",
"y  c #1B232B",
"u  c #1D232A",
"i  c #1D242A",
"p  c #19232D",
"a  c #1A222D",
"s  c #1B252E",
"d  c #1A242F",
"f  c #1B252F",
"g  c #1C242C",
"h  c #1D252E",
"j  c #1E252E",
"k  c #1C262F",
"l  c #1E262E",
"z  c #1E262F",
"x  c #1D2731",
"c  c #1E2730",
"v  c #1E2731",
"b  c #1D2732",
"n  c #1E2732",
"m  c #1F2831",
"M  c #1E2832",
"N  c #1F2832",
"B  c #1E2935",
"V  c #1F2B37",
"C  c #21272B",
"Z  c #22262B",
"A  c #20262C",
"S  c #262928",
"D  c #282A2B",
"F  c #292D2F",
"G  c #212931",
"H  c #202A32",
"J  c #242B31",
"K  c #272C30",
"L  c #202A34",
"P  c #202A35",
"I  c #212A35",
"U  c #222C36",
"Y  c #232D37",
"T  c #242D35",
"R  c #242D37",
"E  c #252E36",
"W  c #2A2E33",
"Q  c #202C39",
"!  c #222D38",
"~  c #232D38",
"^  c #242D38",
"/  c #242F38",
"(  c #242E39",
")  c #252E39",
"_  c #222E3C",
"`  c #2B3236",
"'  c #253039",
"]  c #22303F",
"[  c #283138",
"{  c #2A3138",
"}  c #2A3139",
"|  c #29313A",
" . c #29333E",
".. c #303536",
"X. c #333839",
"o. c #263340",
"O. c #253342",
"+. c #283340",
"@. c #283541",
"#. c #2A3440",
"$. c #2A3542",
"%. c #2C3642",
"&. c #2F3842",
"*. c #2F3843",
"=. c #2F3943",
"-. c #2C3844",
";. c #2D3844",
":. c #2C3946",
">. c #2D3A47",
",. c #2E3A47",
"<. c #27394B",
"1. c #28394B",
"2. c #2A394A",
"3. c #2C3B4A",
"4. c #283A4C",
"5. c #283A4D",
"6. c #293C4E",
"7. c #2B3D4E",
"8. c #2A3D4F",
"9. c #2C3D4D",
"0. c #313A43",
"q. c #323A43",
"w. c #313C48",
"e. c #303D4B",
"r. c #323E4D",
"t. c #283D51",
"y. c #2D3F50",
"u. c #2D3F52",
"i. c #35404C",
"p. c #2C4157",
"a. c #2F4357",
"s. c #324151",
"d. c #344250",
"f. c #354453",
"g. c #334354",
"h. c #304356",
"j. c #334556",
"k. c #344456",
"l. c #384655",
"z. c #394756",
"x. c #384757",
"c. c #344658",
"v. c #35475B",
"b. c #34475C",
"n. c #38495B",
"m. c #3C4958",
"M. c #394B5D",
"N. c #3C4C5D",
"B. c #3D4D5F",
"V. c #3E4C5E",
"C. c #394E63",
"Z. c #3C5268",
"A. c #3F556B",
"S. c #44515F",
"D. c #415162",
"F. c #41566B",
"G. c #42576D",
"H. c #47596C",
"J. c #47596D",
"K. c #45596E",
"L. c #49586C",
"P. c #505E6E",
"I. c #415B75",
"U. c #465D74",
"Y. c #465C75",
"T. c #495E74",
"R. c #4B5E74",
"E. c #425C78",
"W. c #47617C",
"Q. c #49617A",
"!. c #4A627B",
"~. c #4F6278",
"^. c #4C637B",
"/. c #4D647C",
"(. c #4E667F",
"). c #516375",
"_. c #50657B",
"`. c #546578",
"'. c #51667C",
"]. c #50667E",
"[. c #52677F",
"{. c #4E6783",
"}. c #536880",
"|. c #526981",
" X c #536981",
".X c #536A81",
"XX c #556B83",
"oX c #576C83",
/* pixels */
"                                                                                                                                ",
"                                                                                                                                ",
"                                                                                                                                ",
"                                                                                                                                ",
"                                                                                                                                ",
"                                                                                                                                ",
"                                                                                                                                ",
"                                                                                                                                ",
"                                                                                                                                ",
"                                                                                                                                ",
"                                                                                                                                ",
"                                                                                                                                ",
"                                                                                                                                ",
"                                                                                                                                ",
"                                                                                                                                ",
"                                                                                                                                ",
"                                                                                                                                ",
"                                                                                                                                ",
"                                                                                                                                ",
"                                                                                                                                ",
"                                                                                                                                ",
"                                                                                                                                ",
"                                                                                                                                ",
"                                                                                                                                ",
"                                                                                                                                ",
"                                                                                                                                ",
"                                                                            D.                                                  ",
"                                                                        L.n.k.0.%.%.z.C.s.                                      ",
"                                                                  R.~._.R.h.w.[  .I T ( 3.                                      ",
"                                                              L.XX/.U.G.k.I Y Y Y l e O.h.                                      ",
"                                                            {.|.I.Z.M.:.T [ d.:.( )   e @.                                      ",
"                                                      E.Q.{.!.Z.C.9.C 7 K ` :.( x     . o                                       ",
"                                                  U.~.Q.].K.c.b.b.j.X.F J < + @ : f # o                                         ",
"                                              [.|.oX|.F.2.Q x x.d.:.A e x 6 r 3 O l x *                                         ",
"                                          XX_.`.P.B.u.2._ 5 & u y : ) l x u.h.    < ;                                           ",
"                                      B.L.).S.%.u V <.I = & 6 G +.q...G x 3 3                                                   ",
"                                      m.r.[ G O.5.p.t.r x ) @.r.@.i 8 x e : 3                                                   ",
"                                      l = x 5.6.t.9.9.w.0.[ C     x e                                                           ",
"                                        e l o.( G G q.W                                                                         ",
"                                          % G T S D                                                                             ",
"                                            ' )                                                                                 ",
"                                                                                                                                ",
"                                                                                                                                ",
"                                                                                                                                ",
"                                                                                                                                ",
"                                                                                                                                ",
"                                                                                                                                ",
"                                                                                                                                ",
"                                                                                                                                ",
"                                                                                                                                ",
"                                                                                                                                ",
"                                                                                                                                ",
"                                                                                                                                ",
"                                                                                                                                ",
"                                                                                                                                ",
"                                                                                                                                ",
"                                                                                                                                ",
"                                                                                                                                ",
"                                                                                                                                ",
"                                                                                                                                ",
"                                                                                                                                ",
"                                                                                                                                ",
"                                                                                                                                ",
"                                                                                                                                "
};
