/* XPM */
static char *_5647b48dbf749f9dbd09edc289be616fawbLEevZUMSx847[] = {
/* columns rows colors chars-per-pixel */
"64 69 256 2 ",
"   c black",
".  c #010101",
"X  c #020202",
"o  c gray1",
"O  c #040404",
"+  c gray2",
"@  c #060606",
"#  c #070707",
"$  c gray3",
"%  c #090909",
"&  c gray4",
"*  c #0B0B0B",
"=  c #0C0C0C",
"-  c gray5",
";  c #0E0E0E",
":  c gray6",
">  c #101010",
",  c #111111",
"<  c gray7",
"1  c #131313",
"2  c gray8",
"3  c #151515",
"4  c #161616",
"5  c gray9",
"6  c #181818",
"7  c #191919",
"8  c gray10",
"9  c #1B1B1B",
"0  c gray11",
"q  c #1D1D1D",
"w  c #1E1E1E",
"e  c gray12",
"r  c #202020",
"t  c gray13",
"y  c #222222",
"u  c #232323",
"i  c gray14",
"p  c #252525",
"a  c gray15",
"s  c #272727",
"d  c #282828",
"f  c gray16",
"g  c #2A2A2A",
"h  c gray17",
"j  c #2C2C2C",
"k  c #2D2D2D",
"l  c gray18",
"z  c #2F2F2F",
"x  c gray19",
"c  c #313131",
"v  c #323232",
"b  c gray20",
"n  c #343434",
"m  c #353535",
"M  c gray21",
"N  c #373737",
"B  c gray22",
"V  c #393939",
"C  c #3A3A3A",
"Z  c gray23",
"A  c #3C3C3C",
"S  c gray24",
"D  c #3E3E3E",
"F  c #3F3F3F",
"G  c gray25",
"H  c #414141",
"J  c gray26",
"K  c #434343",
"L  c #444444",
"P  c gray27",
"I  c #464646",
"U  c gray28",
"Y  c #484848",
"T  c #494949",
"R  c gray29",
"E  c #4B4B4B",
"W  c #4C4C4C",
"Q  c gray30",
"!  c #4E4E4E",
"~  c gray31",
"^  c #505050",
"/  c #515151",
"(  c gray32",
")  c #535353",
"_  c gray33",
"`  c #555555",
"'  c #565656",
"]  c gray34",
"[  c #585858",
"{  c gray35",
"}  c #5A5A5A",
"|  c #5B5B5B",
" . c gray36",
".. c #5D5D5D",
"X. c gray37",
"o. c #5F5F5F",
"O. c #606060",
"+. c gray38",
"@. c #626262",
"#. c gray39",
"$. c #646464",
"%. c #656565",
"&. c gray40",
"*. c #676767",
"=. c #686868",
"-. c DimGray",
";. c #6A6A6A",
":. c gray42",
">. c #6C6C6C",
",. c #6D6D6D",
"<. c gray43",
"1. c #6F6F6F",
"2. c gray44",
"3. c #717171",
"4. c #727272",
"5. c gray45",
"6. c #747474",
"7. c gray46",
"8. c #767676",
"9. c #777777",
"0. c gray47",
"q. c #797979",
"w. c gray48",
"e. c #7B7B7B",
"r. c #7C7C7C",
"t. c gray49",
"y. c #7E7E7E",
"u. c gray50",
"i. c #808080",
"p. c #818181",
"a. c gray51",
"s. c #838383",
"d. c #848484",
"f. c gray52",
"g. c #868686",
"h. c gray53",
"j. c #888888",
"k. c #898989",
"l. c gray54",
"z. c #8B8B8B",
"x. c gray55",
"c. c #8D8D8D",
"v. c #8E8E8E",
"b. c gray56",
"n. c #909090",
"m. c gray57",
"M. c #929292",
"N. c #939393",
"B. c gray58",
"V. c #959595",
"C. c gray59",
"Z. c #979797",
"A. c #989898",
"S. c gray60",
"D. c #9A9A9A",
"F. c #9B9B9B",
"G. c gray61",
"H. c #9D9D9D",
"J. c gray62",
"K. c #9F9F9F",
"L. c #A0A0A0",
"P. c gray63",
"I. c #A2A2A2",
"U. c gray64",
"Y. c #A4A4A4",
"T. c #A5A5A5",
"R. c gray65",
"E. c #A7A7A7",
"W. c gray66",
"Q. c #A9A9A9",
"!. c #AAAAAA",
"~. c gray67",
"^. c #ACACAC",
"/. c gray68",
"(. c #AEAEAE",
"). c #AFAFAF",
"_. c gray69",
"`. c #B1B1B1",
"'. c #B2B2B2",
"]. c gray70",
"[. c #B4B4B4",
"{. c gray71",
"}. c #B6B6B6",
"|. c #B7B7B7",
" X c gray72",
".X c #B9B9B9",
"XX c gray73",
"oX c #BBBBBB",
"OX c #BCBCBC",
"+X c gray74",
"@X c gray",
"#X c gray75",
"$X c #C0C0C0",
"%X c #C1C1C1",
"&X c gray76",
"*X c #C3C3C3",
"=X c gray77",
"-X c #C5C5C5",
";X c #C6C6C6",
":X c gray78",
">X c #C8C8C8",
",X c gray79",
"<X c #CACACA",
"1X c #CBCBCB",
"2X c gray80",
"3X c #CDCDCD",
"4X c #CECECE",
"5X c gray81",
"6X c #D0D0D0",
"7X c gray82",
"8X c #D2D2D2",
"9X c LightGray",
"0X c gray83",
"qX c #D5D5D5",
"wX c gray84",
"eX c #D7D7D7",
"rX c #D8D8D8",
"tX c gray85",
"yX c #DADADA",
"uX c gray86",
"iX c gainsboro",
"pX c #DDDDDD",
"aX c gray87",
"sX c #DFDFDF",
"dX c gray88",
"fX c #E1E1E1",
"gX c #E2E2E2",
"hX c gray89",
"jX c #E4E4E4",
"kX c gray90",
"lX c #E6E6E6",
"zX c #E7E7E7",
"xX c gray91",
"cX c #E9E9E9",
"vX c #EAEAEA",
"bX c gray92",
"nX c #ECECEC",
"mX c gray93",
"MX c #EEEEEE",
"NX c #EFEFEF",
"BX c gray94",
"VX c #F1F1F1",
"CX c gray95",
"ZX c #F3F3F3",
"AX c #F4F4F4",
"SX c gray96",
"DX c #F6F6F6",
"FX c gray97",
"GX c #F8F8F8",
"HX c #F9F9F9",
"JX c gray98",
"KX c #FBFBFB",
"LX c gray99",
"PX c #FDFDFD",
"IX c #FEFEFE",
"UX c white",
/* pixels */
"                                    X = ; l l.@.7 _ M.B.M.c.g.i.( $       # , { B.n.j.2.i X                                     ",
"                                    9 w.d.B.L.F.j.Z.H.H.J.J.H.H.J.O.*   1 >.k.F.K.J.J.J.x. .4                                   ",
"                                    e M.K.H.H.K.K.H.H.H.H.H.H.H.J.P.5.o.y.U.K.J.H.H.G.G.L.J.r.x                                 ",
"                                    6 u.J.J.K.J.H.G.H.H.H.H.H.H.H.H.K.K.K.H.H.H.H.H.H.H.H.J.J.l.n                               ",
"                                & s O.d.H.F.N.D.Z.A.G.S.B.F.H.H.H.H.H.H.H.H.H.H.H.H.H.H.H.H.H.K.m.V                             ",
"                              # Q 8.i.f.C.A.d.C.f.g.S.B.d.A.J.H.P.U.I.H.H.H.H.H.H.H.H.H.H.H.H.H.L.c.c .                         ",
"                              V 9.z.V.z.a.A.F.S.d.9.k.F.V.S.J.J.~.|._.K.H.H.H.H.H.H.H.H.H.H.H.H.H.J.M.c                         ",
"                          $ N ..M.g.t.e.0.d.E.j.8.f.A.V.i.y.B.H.K.U.P.H.H.H.H.H.H.H.H.H.J.F.H.H.H.H.J.x.S +                     ",
"                          < ;.q.i.z.a.t.V.D.X.( *.j.H.D.m.v.d.i.i.x.J.H.H.H.H.H.H.H.H.K.(.T.F.H.H.H.J.K.D./                     ",
"                        4 ' 7.j.z.S.l.0.B.`.t.! +.y.h.x.D.z.k.l.k.M.J.H.H.H.H.H.H.H.K.)..XS.m.G.H.H.J.H.J.M.M                   ",
"                      5 O.0.9.k.c.x.i.5.a.!.H.-.=.y.i.0.k.k.A.N.N.J.S.b.G.H.H.H.H.G.F.x.y.8.z.G.H.H.H.H.H.L.c.n .               ",
"                    6 $.9.6.5.5.5.6.8.6.r.c.q.6.6.s.g.6.9.v.S.z.b.H.C.d.b.F.J.H.H.J.n.U f %.B.H.H.H.H.H.H.J.L.V.H o             ",
"                  4 +.9.5.5.6.6.6.5.7.6.6.7.6.5.5.q.w.5.5.0.v.D.F.F.S.C.t.B.S.S.J.K.m.' K v.Q.H.H.H.H.H.H.H.H.K.S.S X           ",
"                X ) q.6.6.6.7.6.6.6.6.6.6.6.6.6.6.h.c.q.6.8.w.b.D.v.a.V.y.N.j.x.F.J.G.Z.Y.Y.K.H.H.H.H.H.H.H.H.H.L.l.5           ",
"                1 *.6.6.6.8.9.7.6.6.6.6.6.6.6.6.6.h.D.c.e.c.r.w.y.w.p.B.u.B.A.j.j.H.H.J.I.K.H.H.H.H.H.H.H.H.H.H.H.Z.v           ",
"              1 *.q.6.6.4.p.H.r.6.6.7.7.7.6.6.6.6.e.i.u.8.p.c.t.a.n.C.D.N.D.x.k.B.G.H.H.G.G.H.G.H.H.H.H.F.H.H.G.H.J.c.h         ",
"            < [ w.6.6.6.5.r.v.w.7.c.x.5.5.6.6.6.6.5.5.5.5.8.p.w.r.f.x.Z.k.h.l.k.n.G.D.k.f.Z.K.H.H.H.H.H.J.E.E.H.H.H.K.J         ",
"            n e.7.7.6.5.6.6.4.6.7.n.z.7.6.6.6.6.6.6.6.6.6.6.6.i.r.5.t.S.j.0.d.u.d.J.A.q.p.l.V.J.J.J.G.H.E.|.`.H.H.H.K.L         ",
"          - &.e.6.7.7.5.6.6.6.6.6.6.6.6.6.6.6.6.6.6.6.6.6.6.7.g.d.6.e.b.b.w.7.6.i.n.b.g.Z.a.s.C.S.N.G.H.~.{.!.J.H.H.K.L         ",
"          s w.7.6.3.5.5.4.6.6.6.6.6.6.6.6.6.6.6.6.6.6.5.6.6.5.7.7.6.9.t.r.8.7.q.w.9.r.m.D.h.t.j.n.s.S.H.H.J.J.J.H.H.L.P         ",
"        o L 9.5.4.-.>.,.:.7.7.6.7.6.6.6.6.6.6.6.6.0.e.e.r.q.w.9.5.6.r.B.N.t.7.h.k.8.9.t.B.A.A.c.f.C.H.K.H.G.F.J.H.H.P.W         ",
"      O H 8.7.3.*.<.4.3.2.7.7.6.7.7.6.6.6.6.6.6.5.M.(./.R.C.E.z.5.7.8.e.w.7.6.z.v.6.q.b.p.q.x.D.b.f.A.G.G.H.F.F.H.H.U.*..       ",
"      z :.=.*.%.@.$.%.*.>.6.6.6.>.<.6.6.6.6.6.6.5.A.^.d.%.) m.G.a.6.7.4.6.7.5.e.r.7.8.y.9.4.w.c.A.V.F.G.x.n.n.l.G.H.K.b.q       ",
"    X T +.O.O.+.-.$.O.%.:.:.5.7.<.3.6.6.6.6.6.6.5.D.P.0.d.u.P.C.t.6.6.6.6.6.6.5.6.7.0.g.e.f.c.k.x.S.z.Z.p.z.V.M.J.H.H.S.m       ",
"    y #.%.%.+.@.:.$.o.%.=.$.4.<.;.3.6.6.6.6.6.6.6.j.S.Z.G.J.G.s.5.6.6.6.6.6.6.6.6.6.0.k.q.f.c.a.w.h.w.B.v.N.V.z.z.x.F.G.P       ",
"  X U @.:.1.+.O.%.&.@.#.$.%.3.-.%.<.3.2.6.6.6.6.6.4.k.S.q.7.6.6.5.6.6.6.6.6.6.6.6.6.7.7.6.6.7.6.0.t.q.z.D.Z.l.i.a.s.Z.J.'       ",
"X w | O.=.-.O.#.<.5.-.;.,.&.1.1.4.5.-.=.6.6.6.6.6.6.7.9.8.6.6.6.6.6.6.6.6.6.6.6.6.6.6.6.6.6.6.6.y.v.u.0.z.j.g.C.F.G.H.L.&..     ",
"1 o.$.+.#.+.+.O.#.<.=.*.,.#.#.#.1.:.@.*.5.6.6.6.6.6.5.6.6.5.6.6.6.6.6.6.6.6.6.6.6.6.6.6.6.6.6.6.7.u.M.t.q.j.j.d.G.K.G.L.v.2     ",
"h ;.O.-.-.+.+.+.+.#.@.@.=.:.@.+.1.7.:.-.5.6.6.6.6.6.6.6.6.6.6.6.6.6.6.6.6.6.6.6.6.6.6.6.6.6.6.6.5.e.N.t.6.w.q.y.D.J.G.G.U.R     ",
" .*.O.@.#.+.+.O.O.+.O.O.@.&.>.#.$.n.v.3.6.6.6.6.6.6.6.6.6.6.6.6.6.6.6.6.6.6.6.6.6.6.6.6.6.6.6.6.6.8.y.9.k.M.d.0.f.D.J.J.K.X.    ",
"+.X.O.O.+.+.O.o.X.O.O.O.+.@.=.@.O.9.9.<.3.:.5.6.6.5.6.6.6.8.V.J.k.6.6.6.6.6.6.6.6.6.6.6.6.6.6.6.6.6.5.6.i.g.k.g.t.Z.l.V.C.`     ",
"@.O.+.+.+.O.O.o.o.O.+.+.+.+.+.&.@.o.O.=.2.@.;.5.6.5.6.6.6.9.B.J.l.6.6.6.6.6.6.6.6.6.6.6.6.6.6.6.6.6.6.7.6.5.u.f.q.g.q.x.d.H     ",
"#.O.+.+.@.O.$.6.e.=.O.+.+.+.@.1.&.%.$.=.1.@.*.2.7.6.6.6.6.6.6.6.6.6.6.6.6.6.6.6.6.6.6.6.6.6.6.6.6.w.g.%.6.e.7.6.5.7.i.z.A.{     ",
"#.O.+.+.+.O.>.b.Z.>. .O.O.@.&.3.&.:.-.=.2.*.1.5.6.6.6.6.6.6.6.6.6.6.6.6.6.6.6.6.6.7.7.2.1.6.6.6.6.r.c.K 4.d.6.5.7.9.c.f.c.P     ",
"#.O.+.+.+.O.%.<.A S ` +.O.%.<.4.&.:.:.=.2.2.6.6.6.6.6.6.6.6.6.6.6.6.6.6.6.6.6.6.6.6.3.%.%.2.5.5.7.:.K I <.w.6.5.7.6.w.c.D.'     ",
"#.O.+.+.+.O.&.2.T K ` +.X.+.*.1.&.#.@.+.$.*.3.6.7.6.6.6.4.6.4.5.6.6.6.6.6.5.5.4.5.1.=.1.1.6.:.>.6.e.A.m.I.c.5.6.6.6.6.0.r.R     ",
"#.O.+.+.+.o.1.J.h.#.| O.X.O.#.1.&.o.O.&.<.1.4.6.5.5.6.4.&.&.$.*.,.7.3.&.=.2.7.>.>.4.<.=.%.<.3.3.6.9.g.d.h.y.7.7.6.6.6.6.7.! o   ",
"#.O.+.+.O.+.=.a.r.*.O.O.o.O.@.*.@.o.*.1.5.7.4.:.*.1.5.1.#.-.:.$.;.7.5.:.@.*.2.-.*.6.3.@.+.,.1.=.:.6.5.6.5.6.6.6.6.6.6.6.6.2.A + ",
"#._ | +.+.+.O.o.O.+.+.+.+.+.+.O.O.*.2.6.6.6.5.%.*.2.3.:.>.4.1.$.=.>.,.5.-.#.<.1.,.3.;.@.=.:.&.$.,.5.,.:.:.3.7.6.6.6.6.6.6.8.-.; ",
"{ U ] }  .+.+.+.+.+.+.+.+.+.+.+.O.>.4.1.2.4.1.-.<.7.<.&.,.:.$.$.#.@.*.1.,.#.=.3.5.<.+.O.:.%.#.-.2.3.+.&.-.;.1.6.6.6.6.6.6.8.>.> ",
"I Y ` ^ ( O.@.+.+.+.+.+.+.+.+.O.O.>.;.@.-.3.=.3.5.3.;.@.%.$.@.;.;.;.>.#.O.#.&.1.5.>.@.+.+.#.:.:.%.<.=.2.3.&.-.6.5.6.6.6.6.6.q.g ",
"R ' ! ) ..X...+.+.+.+.+.+.+.+.O.O.-.=.&.5.7.2.5.6.:.#.%.3.2.%.$.;.:.@.X.+.,.2.3.>.#.@.@.+.;.-.O.+.*.3.6.-.#.;.5.3.4.6.6.6.6.9.} ",
"T {  .~ ( ] ! ..+.+.#.%.#.+.+.o.o.#.+.=.6.3.=.2.7.;.*.,.%.#.@.+.+.+.O.O.X.#.$.%.#.%.2.1.$.#.#.O.%.<.*.2.4.3.4.2.%.%.3.6.6.6.6.$.",
"T { / P P ^ ` Q ..@.k.T.x.@.+.O.O.+.o.=.1.%.@.%.&.@.=.<.+.O.O.o.O.+.O.o.+.+.+.+.+.@.&.$.@.;.2.=.&.2.#.%.3.,.%.=.<.1.3.7.7.7.7.%.",
"K R L E Q P E I  .+.7.j.w.+.O.+.+.O.O.#.*.O.+.+.+.O.$.&.+.O.+.9.M.d.+.O.+.+.+.+.+.+.+.O.O.&.-.%.@.-.1.n.J.&.! >.7.4.:.2.5.6.7.%.",
"! ^ G R E H L ( ..' { o.X.+.o.+.+.O.O.o.+.O.O.+.+.+.O.O.+.O.+.k.z.u.p.#.+.+.+.+.+.+.+.+.+.O.o.O.o.@.q.Y.j.E Q 6.7.3.%.*.2.7.6.#.",
"v ' G H H L Q ] ..( / | o.@.o.O.O.o.X.O.+.+.+.+.+.+.+.+.+.+.O.6.Q E d.#.+.+.+.+.+.+.+.+.+.+.+.+.+.@.<.2.G m ] 4.<.>.$.o.-.2.6.@.",
"6 Q G H G W [ Y | X.Q / o. .O.+.<.6.;.o.O.+.+.+.+.+.+.+.+.+.+.o.U F { O.+.+.+.+.+.+.+.O.+.+.+.+.O.+.X.C G Y } ,.&.$.$.$.%.:.w.| ",
": J K H H E ] P |  .! ( ] ! X.%.K.|.x.O.+.@.+.+.+.+.+.+.+.+.#.n.k.0.d.$.+.+.+.+.O.O.@.:.#.+.+.+.O.+.O...X...o.*.3.4.5.4.2.5.7.i ",
". > G H J J U P { ~ _ X.o. .X.$.K.{.v.$.o.O.O.+.+.+.+.+.+.+.+.;.:.*.=.+.+.+.+.+.+.O.,.G.2.o.+.+.+.+.+.+.+.+.+.%.4.6.5.=.,.q.&.* ",
"  X m L J H G J T _ ^ ) o.{ ~ ..#._ 9.v. .~ ..+.@.+.+.+.+.@.+.o.O.+.O.+.+.+.+.+.O.O.$.7.&.O.+.+.+.+.+.+.+.+.*.>.*.*.<.*.<.:.u X ",
"    9 L J H H J H E ( / ! ~ ) ^ J g ] p.} U | O.O.o.O.O.-.m.D.7.o.+.+.+.+.+.+.+.+.+.+.O.+.+.+.+.+.+.+.+.+.+.%.;.-.@.&.:.6.! .   ",
"      3 R K H H H H E / ^ ) | P n p I t.u._ ( X.' ^ ' X.=.x.N.6.O.+.+.+.+.+.+.+.+.+.+.+.+.+.+.+.+.+.+.+.+.O.o.%.3.>.$.<.7.T .   ",
"      . G I H H H J G E ` { ..Y / ] *.i.d.] I ( ^ P ~ ..' ` _ o.O.+.O.+.+.O.+.+.+.+.+.+.O.+.+.@.+.+.+.O.O.4.7.$.>.,.;.;.,.I .   ",
"        B I H H H H H G K ^ } R f.H.k.+.I Y J H ^ ^ ! _ E J H ` O...{ { X.O.| [  .O.+.O.O.} ..o.O.+.O.o.o.j.k.O.@.#.:.*.&.B     ",
"        j E J H H H H H R | { I W ! ` _ U ' U J K / ` R ` I I _ X.' Y W ..O.^ I ~ | o.o. .W _ +.o.X...X.o.#.$.+.+.+.@.@.K $     ",
"        + N R H G H H H J P L K ( E L L K Y ` U J ( ' K I P _ Q ` o.} } O.o...Q J W o...Q P ( +.} T Y } X.O.O.+.+.+.O.%.S       ",
"          @ M R K H H H H G H J I L J H G K Y J !  .X.} ' P U L / o.} ! | ~ ] ! J R | ! ' {  .o.X.| ' Q { O.o.O.+.+.&.' -       ",
"            + F E F G J G H H H H H H H G L / I T ! Q ~ W J G H Y _ [ Y { T U ( ] / E I [ +.] Q Q /  .T ` ] ' O.+.O.*.n         ",
"              @ M ~ G H G H H H H H H H G L ~ U H H J L Q J J E T Y / _ ..) / |  .Q L ~ /  .[ / / ^ ^ L Q T U ` o.$.' <         ",
"                + k D ! H H G G H H H H H H H H R U J I / L K ' / H U _ ` ..@.| / R I _ ~ } } } O...^ Q P G G Y *.| 1           ",
"                  . + k E ! ` U J H H H H H G H ^ Q H J J H J ^ W J K Y E ` { ! Q ' K P ) [ ^ ~ { { { { W Y ^ ' ..0             ",
"                      o : < g R P G H H H H H G J K G H H H J H H G Y } [ T P L W _ J H J K / ( J J J K ` #.K 3 -               ",
"                              6 U P G G H H H H H G H H H H I K H H K I P J H G K P H G F H L P J G J T ..G #                   ",
"                                w / U P H H H H H H H G H U g.#.H J H G H H H H H H H H H H H H K I R n w $                     ",
"                                  w B T L J H H J H H H H L %.( ;.6.J H H H H H H H H H H J K J ~ Y x #                         ",
"                                      & r P Q J J H H H H H F G $.:.H H H H J H G K K J U P a t 9 O                             ",
"                                          , C Y ~ F F F F G J F D D H G F F F D E I D Z Z 8                                     ",
"                                            . - E { [ ] _ ^ W L v z ^ [ { { { ] V & o o X                                       "
};
