/* XPM */
static char *_09ee080507c4073fa341f07189fe751mWdj4EbLYheCPAhz[] = {
/* columns rows colors chars-per-pixel */
"64 64 256 2 ",
"   c black",
".  c #010101",
"X  c #020202",
"o  c gray1",
"O  c #040404",
"+  c gray2",
"@  c #060606",
"#  c #070707",
"$  c gray3",
"%  c #090909",
"&  c gray4",
"*  c #0B0B0B",
"=  c #0C0C0C",
"-  c gray5",
";  c #0E0E0E",
":  c gray6",
">  c #101010",
",  c #111111",
"<  c gray7",
"1  c #131313",
"2  c gray8",
"3  c #151515",
"4  c #161616",
"5  c gray9",
"6  c #181818",
"7  c #191919",
"8  c gray10",
"9  c #1B1B1B",
"0  c gray11",
"q  c #1D1D1D",
"w  c #1E1E1E",
"e  c gray12",
"r  c #202020",
"t  c gray13",
"y  c #222222",
"u  c #232323",
"i  c gray14",
"p  c #252525",
"a  c gray15",
"s  c #272727",
"d  c #282828",
"f  c gray16",
"g  c #2A2A2A",
"h  c gray17",
"j  c #2C2C2C",
"k  c #2D2D2D",
"l  c gray18",
"z  c #2F2F2F",
"x  c gray19",
"c  c #313131",
"v  c #323232",
"b  c gray20",
"n  c #343434",
"m  c #353535",
"M  c gray21",
"N  c #373737",
"B  c gray22",
"V  c #393939",
"C  c #3A3A3A",
"Z  c gray23",
"A  c #3C3C3C",
"S  c gray24",
"D  c #3E3E3E",
"F  c #3F3F3F",
"G  c gray25",
"H  c #414141",
"J  c gray26",
"K  c #434343",
"L  c #444444",
"P  c gray27",
"I  c #464646",
"U  c gray28",
"Y  c #484848",
"T  c #494949",
"R  c gray29",
"E  c #4B4B4B",
"W  c #4C4C4C",
"Q  c gray30",
"!  c #4E4E4E",
"~  c gray31",
"^  c #505050",
"/  c #515151",
"(  c gray32",
")  c #535353",
"_  c gray33",
"`  c #555555",
"'  c #565656",
"]  c gray34",
"[  c #585858",
"{  c gray35",
"}  c #5A5A5A",
"|  c #5B5B5B",
" . c gray36",
".. c #5D5D5D",
"X. c gray37",
"o. c #5F5F5F",
"O. c #606060",
"+. c gray38",
"@. c #626262",
"#. c gray39",
"$. c #646464",
"%. c #656565",
"&. c gray40",
"*. c #676767",
"=. c #686868",
"-. c DimGray",
";. c #6A6A6A",
":. c gray42",
">. c #6C6C6C",
",. c #6D6D6D",
"<. c gray43",
"1. c #6F6F6F",
"2. c gray44",
"3. c #717171",
"4. c #727272",
"5. c gray45",
"6. c #747474",
"7. c gray46",
"8. c #767676",
"9. c #777777",
"0. c gray47",
"q. c #797979",
"w. c gray48",
"e. c #7B7B7B",
"r. c #7C7C7C",
"t. c gray49",
"y. c #7E7E7E",
"u. c gray50",
"i. c #808080",
"p. c #818181",
"a. c gray51",
"s. c #838383",
"d. c #848484",
"f. c gray52",
"g. c #868686",
"h. c gray53",
"j. c #888888",
"k. c #898989",
"l. c gray54",
"z. c #8B8B8B",
"x. c gray55",
"c. c #8D8D8D",
"v. c #8E8E8E",
"b. c gray56",
"n. c #909090",
"m. c gray57",
"M. c #929292",
"N. c #939393",
"B. c gray58",
"V. c #959595",
"C. c gray59",
"Z. c #979797",
"A. c #989898",
"S. c gray60",
"D. c #9A9A9A",
"F. c #9B9B9B",
"G. c gray61",
"H. c #9D9D9D",
"J. c gray62",
"K. c #9F9F9F",
"L. c #A0A0A0",
"P. c gray63",
"I. c #A2A2A2",
"U. c gray64",
"Y. c #A4A4A4",
"T. c #A5A5A5",
"R. c gray65",
"E. c #A7A7A7",
"W. c gray66",
"Q. c #A9A9A9",
"!. c #AAAAAA",
"~. c gray67",
"^. c #ACACAC",
"/. c gray68",
"(. c #AEAEAE",
"). c #AFAFAF",
"_. c gray69",
"`. c #B1B1B1",
"'. c #B2B2B2",
"]. c gray70",
"[. c #B4B4B4",
"{. c gray71",
"}. c #B6B6B6",
"|. c #B7B7B7",
" X c gray72",
".X c #B9B9B9",
"XX c gray73",
"oX c #BBBBBB",
"OX c #BCBCBC",
"+X c gray74",
"@X c gray",
"#X c gray75",
"$X c #C0C0C0",
"%X c #C1C1C1",
"&X c gray76",
"*X c #C3C3C3",
"=X c gray77",
"-X c #C5C5C5",
";X c #C6C6C6",
":X c gray78",
">X c #C8C8C8",
",X c gray79",
"<X c #CACACA",
"1X c #CBCBCB",
"2X c gray80",
"3X c #CDCDCD",
"4X c #CECECE",
"5X c gray81",
"6X c #D0D0D0",
"7X c gray82",
"8X c #D2D2D2",
"9X c LightGray",
"0X c gray83",
"qX c #D5D5D5",
"wX c gray84",
"eX c #D7D7D7",
"rX c #D8D8D8",
"tX c gray85",
"yX c #DADADA",
"uX c gray86",
"iX c gainsboro",
"pX c #DDDDDD",
"aX c gray87",
"sX c #DFDFDF",
"dX c gray88",
"fX c #E1E1E1",
"gX c #E2E2E2",
"hX c gray89",
"jX c #E4E4E4",
"kX c gray90",
"lX c #E6E6E6",
"zX c #E7E7E7",
"xX c gray91",
"cX c #E9E9E9",
"vX c #EAEAEA",
"bX c gray92",
"nX c #ECECEC",
"mX c gray93",
"MX c #EEEEEE",
"NX c #EFEFEF",
"BX c gray94",
"VX c #F1F1F1",
"CX c gray95",
"ZX c #F3F3F3",
"AX c #F4F4F4",
"SX c gray96",
"DX c #F6F6F6",
"FX c gray97",
"GX c #F8F8F8",
"HX c #F9F9F9",
"JX c gray98",
"KX c #FBFBFB",
"LX c gray99",
"PX c #FDFDFD",
"IX c #FEFEFE",
"UX c white",
/* pixels */
"B.c.n.v.b.l.b.b.c.n.N.V.N.V.M.z.b.N.m.k.v.m.S.v.B.M.C.M.N.J.B.q.8.4.8.B.N.s.m.I.V.s.l.m.z.g.c.A.M.b.A.G.1.&.X.X.O.X._ ` ] O.u.c.",
"B.v.v.b.v.z.M.b.n.N.C.b.B.N.C.l.N.M.N.b.b.V.A.G.S.z.V.S.W.G.y.2.8.1.0.j.z.K.J.G.V.x.N.V.N.C.S.S.M.B.F.A.<.,.-.....#.o.*.4.y.h.p.",
"x.l.c.G.M.b.n.m.n.V.S.h.N.A.V.j.n.x.b.n.C.S.C.V.Z.C.J.Y.T.K.N.s.d.i.V.C.V.A.x.x.v.m.M.h.V.Z.A.D.G.K.J.m.w.h.e.:.O.*.,.r.d.z.g.j.",
"p.x.z.k.v.V.v.d.j.Z.A.v.n.A.b.h.v.v.v.n.Z.K.H.F.S.D.^.(.Y.(.R.S.G.V.A.m.j.s.M.D.A.N.S.C.D.L.S.S.C.G.H.M.d.y.u.<.o.O.4.8.4.i.i.u.",
"f.b.j.s.m.B.c.j.B.Z.N.x.x.b.k.r.x.n.V.V.S.b.A.V.m.L.).|.{.(.Z.V.n.n.b.m.n.l.z.Z.D.N.N.m.V.R.R.P.S.Z.B.C.z.w.8.| o. .#...$.3.0.3.",
"M.d.u.M.B.N.K.N.z.h.l.g.6.8.a.d.k.C.H.V.l.g.t.t.C._.).U.G.F.N.Z.C.V.D.N.x.z.z.N.Z.L.J.Z.m.F.T.Y.Z.n.v.k.9.O.=.+.>.1.*.+.>.=.#.{ ",
"b.t.n.S.m.v.B.l.j.w.:.-.X.o.1.r.e.M.G.N.c.d.d.n.P.Y.G.m.B.B.x.c.N.S.F.B.B.S.S.H.J.C.H.G.A.M.Z.v.M.f.v.j.3.o.%.,.1.4.5.4.<.&.X.` ",
"M.B.F.Z.A.M.l.b.p.@.| +.>.*.@.+.8.C.F.x.g.t.x.V.L.F.B.C.C.b.c.c.B.L.S.S.K.C.N.B.B.N.D.n.b.f.d.u.C.r.k.v.e.>.w.0.5.y.5.9.>.1.,.X.",
"H.I.S.B.M.x.h.y.$.[ ..&.$.$.O.o.t.A.V.M.z.p.B.D.Z.v.m.S.V.B.x.j.m.Z.S.C.M.C.Z.A.Z.c.x.v.k.f.y.d.d.p.i.l.s.r.y.d.b.k.h.v.x.e.t.,.",
"V.F.V.v.x.c.a.o.'  ...[ #.+.+.&.l.z.j.M.A.H.v.p.g.N.K.D.m.N.v.z.F.D.Z.v.B.m.A.G.n.c.S.Z.k.s.d.f.d.f.j.d.,.d.z.i.c.C.A.c.c.s.g.9.",
"n.C.c.v.n.b.5.' (  .#.#.q.5.a.J.S.r.j.Z.U.V.9.8.N.A.B.F.D.B.A.F.J.S.A.D.N.D.E.~.L.G.S.M.g.a.h.l.y.d.l.r.r.z.j.z.h.s.s.*.j.b.D.v.",
"C.k.h.v.z.u...) ..*.@.w.<.} -.Z.x.5.9.p.f.x.C.b.B.N.R.P.v.B.Z.A.J.D.Q.Y.b.Y.L.^.I.b.V.x.p.l.v.N.z.b.d.q.d.r.u.z.Z.N.z.n.q.J.H.S.",
"k.k.x.x.w.+. .X...+.+.2...{ &.h.0.<.5.i.v.H.G.k.B.S.J.P.Z.S.V.m.A.J.T.n.j.F.L.R.l.f.c.j.b.n.v.x.h.d.3.;.4.9.w.r.i.g.f.c.8.c.y.e.",
"h.p.h.p.%.+.#...+.7.>.$.+.@.7.4.>.1.w.D.E.Z.c.M.J.K.B.Z.M.z.b.N.G.F.T.P.Z.K.I.N.Z.V.l.x.b.v.x.s.k.y.e.8.8.u.i.g.k.a.l.q.%.,.<.<.",
"9.4.6.-.#.:.X.X.&.t.-.O.*.u.f.3.u.r.r.k.A.J.H.J.Y.L.k.j.t.h.V.A.Z.A.B.V.v.M.v.M.A.N.l.x.z.V.G.A.k.p.a.r.9.8.A.j.x.j.y.&.7.e.i.u.",
"*.@.o.:.;.;.@.%.4.m.0.1.h.V.f.p.M.c.h.b.I.W.U.L.W.U.h.u.g.n.F.H.N.k.0.e.r.v.B.A.Z.m.k.V.v.x.S.D.d.u.i.g.w.y.l.0.f.f.6.0.u.u.a.w.",
"$.O.1.;.-.@.@.*.z.M.k.p.d.f.l.g.M.n.k.V.L._.E.I._.^.J.K.T.A.K.S.F.S.H.n.V.V.D.z.x.b.l.n.z.j.i.b.i.p.g.v.B.z.y.y.i.>.r.7.7.7.9.0.",
"-.-.&.X.$. .*.d.d.r.5.8.s.m.m.m.G.F.A.P./.+X^.~.XX'.{.E.T.T.R.E.(.^.Y.!.G.Z.M.j.z.c.k.c.f.5.p.d.p.i.q.x.v.k.g.0.d.6.<.2.>.,.,.8.",
"| ] / _ O.*.5.9.3.:.9.s.i.x.V.T.E.E.!.`.$X,X].>XuX5XXXE.W.R.P.Y.H.U.P.R.P.Y.N.f.v.N.n.j.6.e.0.u.k.t.r.b.l.s.>.5.w.,.+.-.=.5.3.:.",
"R T Y ^ X.X.:.:.&.1.l.B.b.Z.].=X}._._._.XX*X$X6XqX:X>X/.!.H.m.h.y.v.b.J.F.A.m.P.I.A.k.r.i.p.d.b.h.f.a.d.,.;.3.<.8.g.d.u.<.0.$.@.",
"P T U ! ] $.7.<.8.5.t.F.U.J.^.).).`.].T.I.&X$X<X$XOX;X~.N.r.y.<.w.y.n.P.J.J.D.n.g.a.e.y.f.h.h.z.f.p.e.<.#.i.e.8.7.6.k.b.e.d.r.6.",
"R ( ` ! ] +.=.:.1.4.c.'.K.l.D.N.A.Q.@XXXE.{.'..X*X+X.XS.e.2.,.t.x.m.S./.W.~.k.0.y.y.i.i.g.i.p.f.7.<.2.0.5.g.g.d.r.q.0.f.0.u.p.a.",
") _ _ ] ' [ X.+.5.N.F.L.M.p.y.y.x.(.oX/.!.).`.oX<X>Xv.,.i.>.y.N.H.L.E.~.Y.E.t.z.f.c.C.f.p.u.u.2.1.8.u.d.9.7.n.N.s.p.4.0.q.6.5.e.",
"] ` ^ _ ) ( ..:.n.V.l.4.&.o.$.<.a.!.&X.XXX-X@X.X~.(.e.t.z.v.l.b.L./.^.!.~.C.r.g.z.M.A.D.b.M.u.1.r.g.p.h.a.5.q.s.d.a.s.g.p.6.7.s.",
"` ^ '  .{ ' 4.v.N.a.5...{ } #.1.u.'.*X:X1X1X[.OXR.v.d.I.B.K.F.B.P.l.G./.Q.B.0.7.y.s.p.B.B.p.e.s.g.m.b.9.-.%.1.p.q.8.t.y.r.6.d.d.",
"Q } *.-.:.+.6.g.t.4.{ ( ] ] +.&.e..X,X:X|.R.(. X.Xa.u.n.n.z.M.M.F.K.L.^.G.t.,.0.s.h.e.t.g.B.v.j.y.k.g.7.8.y.u.s.e.r.0.r.4.,.9.5.",
"..@.X.%.@.} t.t.7.@.' ] ` ' X.=.j.&X@X[.`.A.Q.!.(.P.b.j.l.p.s.p.c.F.^.Q.g.O.5.d.a.s.y.e.k.z.V.A.m.N.n.j.g.N.G.p.g.i.1.o.W o.[ [ ",
"^ _ *.| | 6.M.M.s. ._ ] ` ! o.8.b.[.J.Z.T.K.$XF.P. XS.g.a.8.h.B.F.Q.W.m.7.t.j.k.d.h.a.d.s.u.z.f.S.A.A.z.b.n.L.m.x.y.T l K $.` O.",
"W }  .( +.s.B.u.{ _ / [ ( R ..y.Y.V.n.J.Z.P.*XB.Y.Y.K.G.V.c.T.E.Q.Y.M.d.p.N.k.g.0.F.b.g.i.y.a.x.V.E.Q.Z.j.h.G.f.v.o.C ) &.4.5.5.",
"| +._ ] X.7.q.6.' ) W ) ] | 2.A.Q.v.m.!.F.C.'.P.R.A.W.E.W.|.2X/.C.l.k.a.p.j.d.g.C.V.k.r.g.d.i.j.x.T.A.k.p.B.^.S.u.H b =.t.y.r.e.",
" ...#.$.%.6.7.&.) ` P Q o.:.x.R.v.r.M.C.v.f.F.K.H.C.H.C.V.P.W.m.h.q.s.u.r.0.a.C.N.V.s.u.s.d.f.h.s.c.h.n.c.G.^.y.S w H ,.F.k.p.f.",
"} @.$.X.$.w.6.:.[ ! ~ } 6.M.k.7.t.l.C.h.f.z.x.S.m.c.A.f.f.C.M.0.w.e.s.q.8.t.l.z.g.g.j.x.l.k.j.j.s.d.B.B.b.D.@Xp.T D ;.i.^.p.x.g.",
"X.&.o.+.*.;.:.@.#.<.0.u.h.N.d.3.t.p.l.7.y.z.y.s.h.H.K.b.B.E.C.w.p.f.u.g.d.d.s.p.f.a.b.v.p.s.k.s.} w.k.m.f.S.(.>. .3.8.m.N.9.i.e.",
"| [ ' $.@.$.*.$.g.4.w.4.<.#. .>.f.t.g.q.a.j.m.Z.M.V.Z.v.Z.G.A.m.s.k.j.s.l.s.a.j.a.u.f.j.h.8.x.X.3.B.g.A.a.i.2.2.c.n.B.s.2.p.7.<.",
"Q ^ {  .#.=. .6.4.%.=.-.*.{ [ $.e.9.g.w.j.N.K.}.E.l.z.S.C.h.k.B.v.l.g.r.t.g.z.g.i.i.u.g.j.;.C.,.p.N ^ N.U.k.3.N.S.p.0.6.y.A.g.t.",
"^ ) '  .X.o._ $.>.#...@.{ ^ { 2.x.M.m.p.B.A.H.J.B.g.g.G.N.u.r.t.v.N.p.r.y.k.s.j.w.d.b.H.q.>.p.e.%.E 7.v.Q.k.p.x.c.i.<.y.0.0.J._ ",
"/ ( ' o.} ! ( =.O.{ o. .W ~ ] 2.y.l.z.p.s.i.n.g.s.k.M.c.v.g.y.g.B.m.g.s.k.j.u.u.q.a.M.F._ r.5.h.A.e.d.n.f.z.j.9.0.5.2.3.5.d.B.s.",
"X...` _ / ) ` $.' ]  ./ ~ ' =.5.w.z.i.7.i.w.m.f.i.k.c.l.l.x.0.f.b.v.c.x.g.a.x.m.x.V.m.0.*.p.e.v.M.h.G.D.a.U.u.5.5.%.#.@.:.1.e.&.",
":.O.W H T ! `  .[ _ } ' [ #.4.e.t.f.r.8.q.9.d.j.d.f.d.g.t.s.p.n.c.n.F.m.w.y.h.d.z.B.M.d.h.i.c.m.i.5.e.g.B.j.2.e.9.1.8.:.9.q.e.;.",
"..T R U K K  .-.| } -.;.>.,.r.s.j.h.9.0.z.i.d.r.e.i.z.d.j.M.g.:.5.i.a.h.s.r.q.p.v.j.z.c.f.M.T.z.e.4.g.q.r.e.9.q.7.5.w.4.-.%.8.3.",
"| F L W Z S ^ *.+.<.w.3.X.<.t.c.i.:.O.&.c.f.h.u.t.f.z.k.F.g.o.=.u.d.f.b.y.,.w.p.g.e.h.x.z.b.M.s.5.8.y.q.t.5.:.5.1.>.3.;.{ 4.1.*.",
"[ J F F S F U -.+.2.r.e.4.t.8.4.:.-.w.w.k.G.V.b.z.Z.j.B.s.=.5.f.S.b.z.l.&.9.p.r.p.s.n.c.d.y.v.0.1.r.w.0.&.;.r.e.6.q.;.0.0.0.1.:.",
"_ T H L K ! $.6.;.%.u.s.w.r.3.2.*.#.,.y.q.v.k.x.N.F.M.B.d.i.k.k.B.V.c.p.u.f.d.l.v.A.d.a.9.:.2.o.1.7.7.7.*.e.s.f.y.p.t.g.e.1.2.&.",
" .! J P T ` 3.8.&.&.:.&.u.3.;.3.:.%.+.5.6.f.f.N.N.B.M.m.N.m.p.p.B.F.g.C.l.i.s.V.N.h.:.;. .o.$.$.+.6.1.,.&.r.z.K.K.z.y.t.,.4.>.2.",
"| ( Q Q [ %.,.;.+.} / ' l.p.<.#.@.%.&.4.e.f.f.f.j.D.c.g.k.i.y.s.c.v.v.a.7.r.f.n.v.%.Y ..o.&.:.,.0.a.u.p.1.d.P.U.D.z.y.8.>.l.7.5.",
"..' ' { #.>.%.X.] ! W  .u.0.<.&.;.-.*.2.t.p.u.u.b.M.t.a.p.y.l.x.B.W.S.q.j.z.k.t.j.' | +.1.7.0.e.s.d.u.k.9.x.z.r.l.5.9.9.3.e.1.$.",
" .}  .X.@.=.o.[ ' ( ( @.6.7.3.;.:.<.2.8.d.d.i.z.y.t.8.l.l.v.M.b.C.Y.A.M.p.a.j.5.u./ *.4.u.a.a.p.d.r.9.i.p.u.a.;.r.1.q.-.+.>.;.-.",
"| } @.O. .&.} ] ] ( [ :.t.8.>.;.1.4.9.t.B.C.c.z.5.6.e.l.N.z.-.u.P.n.b.m.p.z.,.:.p.q.t.w.d.i.w.u.z.i.0.g.8.9.3.:.0.>.,.;.%.=.%.$.",
"@.+.&.#.@.;.X.| ] ) >.9.q.1.-.:.3.&.5.q.A.v.q.e.g.c.b.v.0.0.7.n.Z.z.G.S.j.e.>.0.u.f.x.a.i.r.y.d.k.w.,.k.w.=.#.:.4.&.#.;.;.&.#.%.",
"....| X.O.#.}  .} #.r.8.;.$.=.>.*.| O.>.e.8.y.s.4.K.a./ I 0.0.h.B.F.B.z.b.d.k.u.r.:.f.g.s.a.i.a.i.1.0.f.X.=.>.-.-.@.#.=.$.o...#.",
"' _ ] | +.#.O.*.=.2.4.,...| ;.:.[ *.<.:.;.2.y.b.D.5.H n ;.w.p.m.z.T.D.C.D.m.v.f.w.<.y.y.x.z.a.0.3.,.k.r.+.-.:.=.@.O.-.=.%.$.O.&.",
"{ ] &.$.o.$.&.2.2.1.&.} X.&.7.] | e.0.7.8.w.y.B.y.v R 4.i.u.h.V.z.K.[./.I.c.m.y.X.>.8.i.l.g.0.<.:.u.m.-.` *.=.>.#.X.o.%.=.#.o.*.",
"o.X.3.3.=...-.1.$.*.*.+.%.:.@.{ y.a.y.i.h.p.k.J.! P 1.u.y.f.m.K.v.g.Y.).{.K.m.y.*.1.0.9.u.a.q.8.9.V.r...$.&.#.&.o.~ | $...+.#.=.",
"#.*.e.6.>.;.:.| { >.:.o.O.=.[ 5.a.y.u.f.m.g.c.l.I X.w.s.s.p.h.D.t.4.b.W.I.E.N.j.i.p.s.p.c.A.M.x.v.7.+.&.,.&.#.o.+.@.*.$.#.;.#.@.",
";.7.0.:.>.0.1.@.<.8.1.$.,...:.u.u.e.q.g.l.e.N.g.+.7.y.i.f.a.j.m.<.w.C.Y.I.F.x.j.y.t.{ ,.N.x.z.a.i.*.1.1.>.;.*.$.=.=.-.2.<.&.$.*.",
"<.6.q.3.>.8.1.8.8.9.7.6.y.<.s.y.i.9.r.l.f.t.Z.j.*.w.u.y.z.c.m.c.0.Z.W.~.I.M.a.6.e.:.K 7.h.j.7.%.7.p.B.9.7.0.5.-.,.:.6.3.1.:.&.#.",
"2.<.7.<.>.0.q.r.0.t.u.r.w.[ $.p.t.i.g.g.F.S.F.V.h.z.u.i.k.b.g.7.u.l.M.I.F.h.e.w.p.4.;.u.c.+.K { i.r.g.0.t.r.h.5.7.8.<.h K 9.#...",
"4.9.4.<.,.1.e.i.i.i.j.a.G S $.a.t.y.e.e.a.g.D.3.1.h.y.u.c.e.4.8.x.H.B.N.c.d.j.f.p.h.8.#.I v B *.>.0.q.6.>.d.f.:.>.q.` g o.M.$. .",
"8.e.w.4.;.3.0.r.s.f.c.O.F 5.y.c.q.2.8.q.e.b.4.y | q.f.s.t.;.5.y.n.H.Z.m.v.u.r.d.z.q.N - u ] -.5.1.x.:.@.w.i.5.$.*.7.2.w.N.f.| :.",
"w.e.0.4.6.d.t.w.g.k.j.7.<.f.b.C.5.6.q.u.j.j.n J r.i.d.*.#.,.0.a.j.c.x.C.c.8.5.h.n.X.p R w.h.0.7.6.c.,.( &.q.-.1.2.6.y.:.h.+.#.,.",
"p.6.7.7.6.r.t.y.y.u.s.j.x.Z.F.u.a.d.k.f.c.@.N :.d.r.r.=.1.t.p.j.s.M.j.f.h.u.u.n.z.D ! j.v.u.3.7.7.N.-.D *.0.3.;.3.1.i.[ h.+.=.:.",
"i.5.4.8.9.p.u.r.u.i.g.b.K.G.s.i.z.g.t.f.k.;.+.4.q.y.0.4.h.j.x.Z.m.z.d.i.h.h.x.M.g.%.n.p.k.u.7.8.p.S.+._ 7.t.:.] *.4.s.u.-.@.2.2.",
"g.0.w.q.f.j.w.7.r.d.a.t.j.s.j.h.9.y.h.k.&.W ..w.s.0.5.i.c.B.A.u.^ ^  .,.B.x.s.n.m.z.S.M.p.9.3.4.Z.a.I ..9.8.-.,.2.e.;.=.X.%.=.%.",
"y.4.0.t.s.c.t.4.r.d.2.6.r.0.h.d.f.V.b.<.( D } =.9.e.t.s.l.n.p.i 2 K ^ 9.S.a.y.f.h.u.t.A.f.4.:.u.G.{ F %.q.0.=.3.<.<.&.<.%.&.&.*."
};
