/* XPM */
static char *_91c809a3ab1493acb1eb4959ad27063qWqaCsqSGpgkcckP[] = {
/* columns rows colors chars-per-pixel */
"64 64 149 2 ",
"   c #030303",
".  c #070708",
"X  c #0C0C0B",
"o  c #11100F",
"O  c #0F0F10",
"+  c #141413",
"@  c #181817",
"#  c #1B1B1B",
"$  c #20201E",
"%  c #1F1E20",
"&  c #242424",
"*  c #282726",
"=  c #282827",
"-  c #282728",
";  c #2C2C2C",
":  c #30302F",
">  c #333332",
",  c #383737",
"<  c #383837",
"1  c #3C3C3B",
"2  c #403F3D",
"3  c #41403F",
"4  c #454443",
"5  c #484746",
"6  c #494846",
"7  c #474748",
"8  c #4C4C4B",
"9  c #504F4D",
"0  c #51504E",
"q  c #545452",
"w  c #585756",
"e  c #595957",
"r  c #5C5C5A",
"t  c #605F5D",
"y  c #62615E",
"u  c #656462",
"i  c #686765",
"p  c #6A6966",
"a  c #6D6C6A",
"s  c #706F6C",
"d  c #6F706E",
"f  c #71716E",
"g  c #757472",
"h  c #787774",
"j  c #7A7976",
"k  c #7D7C7A",
"l  c #807F7C",
"z  c #82817E",
"x  c #858482",
"c  c #888784",
"v  c #8A8986",
"b  c #8D8C8A",
"n  c #918F8B",
"m  c #908F8D",
"M  c #908F8C",
"N  c #8F908B",
"B  c #91908C",
"V  c #91908D",
"C  c #92918D",
"Z  c #91908E",
"A  c #92918E",
"S  c #93928E",
"D  c #92918E",
"F  c #949391",
"G  c #959490",
"H  c #959491",
"J  c #969591",
"K  c #979691",
"L  c #959592",
"P  c #969593",
"I  c #979692",
"U  c #979793",
"Y  c #979794",
"T  c #959492",
"R  c #989592",
"E  c #989793",
"W  c #999793",
"Q  c #989795",
"!  c #989793",
"~  c #979896",
"^  c #999894",
"/  c #9A9995",
"(  c #9A9A95",
")  c #999896",
"_  c #9B9A96",
"`  c #9C9A96",
"'  c #9A9996",
"]  c #9B9A98",
"[  c #9C9B99",
"{  c #9C9B98",
"}  c #9E9B98",
"|  c #9D9C98",
" . c #9E9D98",
".. c #9F9C99",
"X. c #9E9D99",
"o. c #9D9C9A",
"O. c #9E9D9B",
"+. c #9F9E9A",
"@. c #9F9E9B",
"#. c #9F9F9B",
"$. c #9F9E9C",
"%. c #9D9C9A",
"&. c #A09F9B",
"*. c #A19E9B",
"=. c #A0A09C",
"-. c #A1A09C",
";. c #A2A19D",
":. c #A3A19D",
">. c #A3A29D",
",. c #A1A09F",
"<. c #A4A39F",
"1. c #A2A19E",
"2. c #A4A3A1",
"3. c #A5A4A0",
"4. c #A6A4A0",
"5. c #A6A5A1",
"6. c #A6A6A1",
"7. c #A7A6A2",
"8. c #A5A4A2",
"9. c #A8A7A3",
"0. c #A9A7A4",
"q. c #A9A8A3",
"w. c #A9A8A4",
"e. c #ACABA7",
"r. c #AAA9A6",
"t. c #ADACA8",
"y. c #AEADA9",
"u. c #ADADAA",
"i. c #B0AFAC",
"p. c #B0AFAC",
"a. c #B3B2AE",
"s. c #B3B2B0",
"d. c #B5B4B1",
"f. c #B8B7B3",
"g. c #BBB9B6",
"h. c #BDBCB9",
"j. c #C2BEBB",
"k. c #C2C1BE",
"l. c #C5C4C1",
"z. c #C8C7C4",
"x. c #CAC9C6",
"c. c #CECDC9",
"v. c #D2D2CD",
"b. c #D5D4D1",
"n. c #D8D7D3",
"m. c #D9D8D5",
"M. c #DEDDD9",
"N. c #EEEDEA",
"B. c #F8F7F3",
/* pixels */
". . .     .   .   .   .   .   .   .   .   .   .   .   .   .   .   .   .   .   .   .   .   .   .   .   .   .   .   .   .   .   . ",
"                                                                                                                                ",
"                                                                                                                                ",
"                                                                                                                                ",
"                                                                                                                                ",
"                                                                                                                                ",
"                                                                                                                                ",
".                                                                                                                               ",
"                                                                                                                                ",
"                                                                                                                              . ",
"                                                                                                                                ",
"                                                                                                                                ",
"                                            .               .         .               .                                         ",
"                                                                                                  .                             ",
"                                X o = $ ; 1 6 7 e p a a s i a i i 8 w q w 1 w e r 9 1 > ; @ +                     .             ",
".     .               X + > : q z h f v v x H E b ` #.( n n o.o.( b 2.s.<.#.5.( k F *.o.] l l d a u < ; $ X               . . . ",
"        . O % 3 y s l l l l z z  .9 , l z z z z j h b b b b n E W b h t a z n z g v a j b F Q 7.q.5.#.#.*.c z w 1 * o           ",
"1 X < u u u h l z 9 q z z i l z z z z z z  .q.z 5 * 1 v 5 u a 8 v :.a : 8 l *.z k b a 8 b u w Q B B &.>.b &./ t.<.&.n a w 8 1 & ",
"a > h b g a g u e p z z z z 3 e >.q. . .z z  .q.j p q i x b b k f w s R C y l l y q w c L b j g j < 3 s G e.&.S b *.<.*.#.>.( #.",
"H ( b z 6 y a x p l l z z z l l q.q.z z z z z z ( E B h k n b z *.l h R R G l a a i u.u.q g ] p w a <   6 *.*.<.*.S *.G x l n n ",
"z z y f k a B h 3 9 y z  . .z z f.4.z q.z z z z v c v S F b ] F G W W G n G G z f p ` q.E l h Q x x 6 + 5 b E W *.R *.R l R 0.d.",
"y y s f g B ( x l z p z z z l 4.>.z q.z z  .>.z E B B b n ] b b G *.:.G W G n n z z f z b n l ( b g u a q < e c *.*.i f E b ` *.",
"f y 5 q y r ( ( q.z z q.z z z z z z z z z z z z y B B b k l ,.2.l , 3 *.R z y R G S v n j j c z z g g k e X   @ f 0.s f *.*.*.o.",
"W z i t c b n x z  .q.f.j.z z z z z z z z z z z < k #.c k 7 2.z.a   : p.*.b n G G W / S n n n n n v F k a 4 . + . # s <.n *.S *.",
"l i z >.} q.R z y z q.z l z z z z s z z l z l z l y >.t j g b m j z -.G n n R G D *.0.W E W W &.#.S W E k e e p u q + w t.0.*.2.",
"3 z k.p.l G *.p.z l z z l l p z z o z z l z z z z n 0 z 8.Z Z P n G n z z y.*.9 : 2 t ` *.` ` *.#.( ( H B i 8 q t b i @ v 0.*.*.",
"n k.>.z 3 n k.j...z z z l l l l z z z z K z z z n n z n L b b L C z z y / N.g.8 % .   % d.*.*.*.&.o.( B N H j < : 2 i # . e *.*.",
"M.k.z z   @ e.>.R z z l l l l l z z z z z z  . .n C C C b v F n G a z z y b y.z s o # p j.*.W *.<.&.#.( ( H | 5 # 8 w *.g - x 2.",
"v.k.W z 3 g z j.z z z K l z z l z z z p z z z z n c b Z F F B F n G b z z h s j v x R p.<.E ` ` &.` H F ` S ` h > - q B 2.8 k 0.",
"l z z  .K  .>.>.:.z z ` l z l z z z z z l y  .z n S Z Z P Z n b G z z n b G b v b n D D ( H H ( >.( ` ` E F H y u k v j 8 y b P ",
"g l p y.q.q.z z k.` z z l e z l z z z z z z z  .v v n F F Z b n C C n C n n n n v v n C S S E E ( ` ( H S B g q y p q a w j r.2.",
"i z z l k.a.` >.n.a.z z l l l z z z z z z z z z b n A n v v F z l G n n z R n n n *.R W S S S W F ` E H v v u q h k >   - x p.p.",
"l l h n j.a.9 2 t C f.R C c z z i k k d x c Z v b c g Z k c ~ k h n b h j z C z k k Z k ~ ,.Z ) ,.] L k k g O.9 O - k > . 9 u.) ",
"z n 9 j.B.n.w     l j.*.q.<.h q.0 k l g x x j Z b m p F L r b k b z W p h W :.C > 7 0 O - u ~ ,.*.7.>.x j r t 7 7 9 Z i O 4 z j ",
"i l i d.j.q.z z t.k.*.*.d.e.b b v F k x Z b j Z b z ~ v k 3 x j l h p b y.e.*.n Z g r q % ; % d i.8.F ) v p u 8 g r F j > k j i ",
"s i i 9 ; l l *.a.*.n W j.G x v c c l g x l P v m z k ~ l g b k l z 9 n *.e.q.C b j k d : & O   u l.2.x i x j c d 9 u Z a l v i ",
"g S *.> t z *.R G g W p.b c S f.c Z ,.a Z c b v m b z k z k x a j b x Q h a.<.E b x y L F 3 . @   y g.,.d & > i i x u v o.g w l ",
"t p l t *.z l n j.<.z R i j q.d.Z F b ~ g P Z b ~ b c b x z x j y h q 0.v.q.E n z c & 7 u.,.u , u , r [ o.x % 7 7 l x l h F i 3 ",
"2 t a h l n z *.q.q.*.n c #.&.*.,.v o.P x F u.8.~ v v z Z Z x j k t $ l p.r.z l c z t q v c c 0 7 > p ,.2.l.,.0 g O.l x Z k z q ",
"9 y s g y i R W q.n g z j a.z.o.n P u.Z O.8.u.F ,.F o.~ 0 d p k B ` p k c g g b 2.,.] ] ~ u b h > d 2.~ u.s.,.u t j k F Z g 0 g ",
"* , g g p s n :.x l a u f <.M.*.x n 8.Q r.s.Q v b ,.Z ,.g % r l i h H &.n x u x v F F u.2.2.Z b F d.~ o.8.r.~ 8.b t b P ] v a d ",
"t , q q 9 C s z #.b h s l f k v Q o.A 0.,.s.m ] j c ~ ~ s.,.g d g q h n n ] *.b b v m ,.[ j v F z l ,.Z x j P ,.o.,.O.g Z j g F ",
"q g l p q s l t f z a o.H f l l b v P z p k s P 2.,.o.Z b ~ ,.b n 6 a b c x ) ) x c c m o.~ L k k g b F g h F P c F F d x ,.x l ",
"$ 9 z l K h h z h s y | c y n ( k v u u d v x h ~ s.~ Z d d d k 2.v Q c L F F >.o.k g h.v - g r.Z x v o.l b ~ P z l b Z O.o.l ; ",
", + 0 , 3 z ` z c z j n i r s S h x g 8 4 g x k d k k d b b r 7 k a v a a b b [ ] o.v h.l.O - s.O.,.O.,.u.Z b F g c r j 8.,.O.Z ",
"5 < f y @ o l >.B S n c l l S h x k h g p g k k d a u r k b k k a u g g g k h c e k P x l.a b F d b.b % , O.2.~ c Z b g u b r.u.",
"- # q z C 8 o C 9.q.S B z z E k l l a g v z v x x x k g d b u Z v g w < d c l a g x u + 3 b o.Z r b.l.7 . , f.o.o.~ Z F g a b f.",
"      . , p   q c <.q.b ` S n n b n Z [ o.P P v ~ o.k ,.Z b x x F b g 8 a g o.a x o.k q < u x c ~ b d.,.1 l f.o.x b F v ] v g r.",
"          + & < b v v H ` H b k b ,.~ ,.g b ~ m Z r.Z ~ 2.~ b k c b s x g 7 F b Z 2.x v u w e d 7 r v F g j.h.] b k l b r.] j m ",
"  # 6 -     . + c 0.H B h c c k x c k Z O O - a L [ O.~ r.2.b c j k w a i 6 v g g v v x k 7 h 8 & % t ,.~ 7.h.( c n 7 p m s.0.L ",
"X > 7 -         & b a.B j h >.a.,.k k b : . . > ~ ~ Z 8.~ ~ b b b x a t b h v ( g 1 o.d p u p j ; . + ~ b L g.r.F m a 4 < b x.r.",
"  1 -         .   @ =.2.z c a.t.z.~ g Z w . . 3 8.Z ~ ~ c c b x b x a w j b b d.,.8 k L g x u j h ; . t g x r.] r.m v q   w ~ u.",
"  & #               u z N h.a.g x.l.Z k k + . u d.Z ~ L z c c k l k a a r k o.r.2.b x b c x x x k 8 . 3 p j v x 2.a d c 4 0 0 ~ ",
".     .       . .   0 x i g.l.~ ~ z.~ b d . . t u.[ ~ L Z v c k j d k w u l F s.N b b v v v b b F z u 4 e ,.c a ~ 0 7 r 7 ; w y ",
"X     X @ #   @ 3   8 [ ~ d.r.7.2.l.O.z k . - ,.L z L b b Z x b l c m r - #.v o.m v m x b b N v c m m j q F >.x b x z p a 0 r a ",
"      # - > : X <   & j L L 2.F b.z.u.v k u d 2.~ b m ~ b b L x F b v v 0 ] d.v v v b b k b v v b b c v h k F x c ~ Z Z k r u b ",
"    .   @ & ; . d % . a ] w x u.g.l.k.~ d o.F ,.p q ~ k b ,.P j b b v j y F g.v v x b v v v v v b v v c c z b b z Z L b b k u u.",
"    O @ 1   : - g <   q [ 1 a j c ,.o.~ c k 8.r.~ t z y o.u.,.v Z c l k k v O.v v v b v v c v x l b v b k l b b z c L Z b k j w ",
"  . . @ ;   ; 3 F : - j g.q 0 h x g ~ b b b s.,.m h r 3 x x ~ r.m d x k g F b b v v b v b W S v v B L c c c c b z x b b Z k b k ",
"  . # & O . 7 > v 4 w u.Z l v u ,.w 7 g d 0 i.~ c g 0 u a 9 h i.v r g b d x x Z v v v l x W ( S i.v b 2.x b z z Z 8 k Z Z Z b u ",
"@ X X X   . % 3 b X x u.d g ,.b F d q c l w r.x z h d t l u l P b 0 a k k g p Z H N x i h x b x 5.t.H c.,.b L b F x j F b c ,.3 ",
"5 . .   . .   u a . Z 8.y g u.,.b p k k d L L x k k c a j k P Z v d p Z k j w a d 2.] i @ 4 a h x _ h.g.u.r.[ b b Z ~ b F x b c ",
"&       .   O u w 0 v v d c d.O.b L l d d v L c j d x c x b ~ 2.z x p x ,.z r 8 6 k ~ x 3 O @ e l d 5.h.,.Z s.F k c Z Z Z Z c Z ",
". .   . . . O > d l v d t c h.8.b ~ F k d l z L z t a c x P ~ o.v l l g l Z g 0 a u < r l 0   > r k z h.d.k O.O.~ Z Z b Z Z Z b "
};
