/* XPM */
static char *_c9cb3e34899401ba0c49f00d1386f18KAy77jZ8kjwyFDuk[] = {
/* columns rows colors chars-per-pixel */
"64 64 145 2 ",
"   c #181511",
".  c #221D1A",
"X  c #25221E",
"o  c #28241F",
"O  c #272421",
"+  c #2A2622",
"@  c #2D2A25",
"#  c #2F2C29",
"$  c #302C27",
"%  c #312E2A",
"&  c #35322D",
"*  c #38342F",
"=  c #373431",
"-  c #3A3632",
";  c #3D3A35",
":  c #3E3C38",
">  c #403C37",
",  c #423E3A",
"<  c #45423D",
"1  c #48433F",
"2  c #474440",
"3  c #4A4642",
"4  c #4D4945",
"5  c #4F4C49",
"6  c #504B46",
"7  c #524E4A",
"8  c #55514D",
"9  c #58534F",
"0  c #575450",
"q  c #5A5652",
"w  c #5D5955",
"e  c #5F5C59",
"r  c #615A56",
"t  c #635E5A",
"y  c #65615D",
"u  c #69625E",
"i  c #676461",
"p  c #6A6662",
"a  c #6D6965",
"s  c #6F6C68",
"d  c #706764",
"f  c #716A66",
"g  c #736D6A",
"h  c #796F6C",
"j  c #76716D",
"k  c #79726E",
"l  c #777471",
"z  c #7B7572",
"x  c #7D7975",
"c  c #7F7C78",
"v  c #817774",
"b  c #817A76",
"n  c #837E7A",
"m  c #897F7B",
"M  c #84807C",
"N  c #87817D",
"B  c #86817E",
"V  c #87837F",
"C  c #87847F",
"Z  c #86817D",
"A  c #88837F",
"S  c #89827E",
"D  c #868380",
"F  c #8A8581",
"G  c #8A8582",
"H  c #888782",
"J  c #8B8783",
"K  c #8F8681",
"L  c #8C8682",
"P  c #8C8784",
"I  c #8B8582",
"U  c #8D8A86",
"Y  c #8E8985",
"T  c #8F8C89",
"R  c #8F8D8A",
"E  c #8F8B88",
"W  c #908782",
"Q  c #908783",
"!  c #908986",
"~  c #958B85",
"^  c #928B86",
"/  c #928D88",
"(  c #958E8B",
")  c #938D8A",
"_  c #988E89",
"`  c #998F8B",
"'  c #95908C",
"]  c #97918D",
"[  c #95918D",
"{  c #98938F",
"}  c #99928D",
"|  c #969490",
" . c #979491",
".. c #989691",
"X. c #999691",
"o. c #9B9692",
"O. c #9C9691",
"+. c #9C9592",
"@. c #9B9592",
"#. c #9F9993",
"$. c #9C9994",
"%. c #9D9A95",
"&. c #9E9995",
"*. c #9F9D9A",
"=. c #A19593",
"-. c #A09895",
";. c #A19895",
":. c #A09995",
">. c #A09996",
",. c #A19A96",
"<. c #A09C98",
"1. c #A19C98",
"2. c #A19D99",
"3. c #A29E9A",
"4. c #A49D9A",
"5. c #A49E9A",
"6. c #A89E9A",
"7. c #A6A19D",
"8. c #A6A19E",
"9. c #A6A29E",
"0. c #A8A29C",
"q. c #AAA29D",
"w. c #B0A69E",
"e. c #A6A2A0",
"r. c #A7A3A1",
"t. c #A7A3A0",
"y. c #ACA5A2",
"u. c #ADA8A4",
"i. c #AEAAA5",
"p. c #AFABA7",
"a. c #AFACA8",
"s. c #B2AAA6",
"d. c #B1AEAA",
"f. c #B5AEAA",
"g. c #B8AFAB",
"h. c #B7B2AE",
"j. c #B5B1AD",
"k. c #B8B2AE",
"l. c #B9B4B0",
"z. c #BDB8B4",
"x. c #BFBAB6",
"c. c #C1B6AF",
"v. c #C2BCB6",
"b. c #C9BDBB",
"n. c #CBC5C1",
/* pixels */
"x p 7 1 8 7 k k w < < 4 q q M j g c i t m y t d 7 d k 7 - 2 7 4 6 3 : 0 x Q i 2 w C j s y j [ j l M a a y * % 8 1 w S #.M a w a ",
"M H y i q u a a p 3 , y a a x e w t j b P ~ r r h h m t w p p q 7 d d P 6.8 * 4 | j y M M C u g 8 7 x a u w 1 6 p y g z a w ; y ",
"w j x 8 p b j a j a j Z $.{ r q i 0 i z m ` z z x w f g x g i p t h t t r , ; d i.C 3...c M u b j u c 0.#.M q a k g h k u 1 w 1 ",
"0 2 e g x M $.u 4 Z e.9.d.{ 8 8 6 g m z z Z p q u ; + a ;.L z b F q O = , q Z 4.i.z.l.C x M ..$.0.j C u r j y 8 d M u 6 u u 8 8 ",
"e e < x ! I 2.x 9 r j u g 9 u 9 i b ( >.h m &.m d y t r > u S d r q t w w I h.;.e g r 1 R 9.R %.<.U / l z z u y b k y y 8 j 6 w ",
"4 9 7 a ' / r 8 a y > - 6 1 5 a c G ! ^ p h +.B x / g 7 & - 3 - & 7 7 6 q x &.a < ; < ; 6 1 C i...x 7.M w M a a g u a M C e 8 < ",
"y n M Y z a j a 8 a q 6 7 w e 9 q g y p d G d m } k 2 > q 6 , % 3 6 1 i c Z ~ s a e w 4 , 8 4 x w x C a w C b y y w u x j y M 4 ",
"H p z ' g p 7 9 8 > < 3 < : ; 8 d y d q b h Q 6.p p n g 6 ; > ; < u x 3 a i z x 8 x M e 8 w ; p x x - e q < u M u 6 8 q 8 f j 8 ",
"Z a t z t 9 e 0 k z d r r 1 1 y 9 r r r v v ` v y t C c x f f g g 4 $ 4 n S { q.g x ) w 5 5 j n a q y j 6 7 c M z z 7 u k S g , ",
"4 0 g n z %.c ' ~ S _ O.} h ~ M p u 3 t d 9 q t S ' f S ! x Z } I 4 2 2 7 2 4 u n ' r.q p w 5 9 < ; 7 1 f j y 1 a g u d p p l p ",
"@ i Z +.n k / / b S _ S z M / g h t t d r 6 r =.! ;.S b I ' 9.+.b k p u f , * = r x i g ' n x I / / y j u u y 9 3 q a g 9 1 k q ",
"2 i n H a 1 , < y g z v u z c g 9 t t p r 9 v ` ;.+.M g 5 j ' C 4 < k q 9 q 1 % @ . : [ j.x u x u l %.M w w j z y g u g * > } } ",
"w e M P c l l s q q a / _ b u M p 3 9 +.+.k d h p b 3 ; @ 3 ' 9 7 , 4 w y r , , % 1 % > t + > r < < z Y C y q y k g g } k _ d ~ ",
"H H M ' l e c l w 8 i / Y { $./ Y S ` n g ! h 3 z d p 6 t e k z 8 t t a b t r 5 t b h t v n h 9 u | y w S u j w k 6.} v S y.m ; ",
"..9.$.j : @ ; t 8 8 z X.H $.[ 7.5.Y b y f p p q w t ! m x ' r 4 a w # + y w 2 6 t r d p v c.d + 7 z w y e y u g } 0.0.m 0.q.S e ",
"3 x z - 4 w a q 5 g q 4 j H %.<.( x z r 7 r q l l 0 7 F 0.z 7 , - 0 4 7 0 3 7 h q 1 t p q.6.d p w y y a q q p n ~ j S } W ~ y.x ",
"8 * 1 < , u 1 < ! n q a y u n ' H w z I g f u r q 8 7 t h ; < 1 8 w I z u 9 v g 7 y q a } m S } u 8 u a n 1.' u e z u k _ S w.1 ",
"; & ; 1 = ; 1 x ( i b n 9 ; X 0 a y M n M ! { m t r 9 6 7 t g ! Y i 4 < * 9 u u 1 8 u 1 * > - > q M ..x k M k u p e w r M w.u q ",
"4 ; 4 7 1 8 a j 2 ; 9 +.s # & ; 2 5 a w x g y Y x  .x g ` g.g.=.f.2.n a r w r 9 9 e g 9 X * , < r k j C b w c f u u k M 4 ; 1 8 ",
"< < 5 1 y a w 8 2 ; ; d t w y t 7 q y q e S $.k m ! 4. .F v 7 $ , c *.I n a q y k k c Z y 8 * r C k r u S t j u y u f 9 g e 1 1 ",
"a s u l j j y r 2 7 7 * t F l p ; e g z M ' / 9.e.R z &.s X @ % @ # c M z j 9 t g k Y u w e w j u r u a S } z g r g w Y #.M 8 8 ",
"9.9.%.M C x a 6 - 4 w 2 = t 8 @ - w j &.j.s.h.&.i i z 4.n 4 < 8 3 - q a 3 w a q y k a W $...C U u > 1 t v r 9 a _ { u z C y 8 M ",
"g M U x ..C * 6 1 > < @ % , @ 3 j H +.Z ' X.' n 8 : p y 7 e , 5 : - a e : r y S ' a 1 r j k q - 4 < 7 u q * * a j M c 9 y z S ..",
"M C [ 0.d.%.M u < , 4 t 4 3 p / r.n 2 4 m } n t t q 2 & t s r , 4 y u - < 3 w y g M k 1 @ & ; # - w u 8 y g k u r r M H z y.w.w.",
"C b M $.$.7.k q w 9 y 1 t p i t n b t w , r g 2 r 7 , g r ~ z e w e @ & 3 , w M p f u 7 2 4 9 a d r z h 6 h S r g _ X.;.( } g.5.",
"u - @ w z g u c j u w y 0 0 8 w y j f t 6 8 7 , - > 3 t 9 8 , 6 < = - 2 4 s l M ( n k n y e c c q f n f y 7 6 i x / +.~ +.=.=.u ",
"@ $ ; < f n C S l j e 9 8 8 t y d t < ; 8 p 6 > 1 9 t t 7 > % o @ ; < ; 9 x L M s.y. .j g y Y n x q q +.v l +.m k :.d.6.s.v.a o ",
"5 w y y j y x S e u a u b 8 % @ 9 t q 7 3 4 7 t r 6 h v d > r r 0 < 0 u f x z ~ b t s  .n . X - 6 q u z q 6 t 4.j.n.v.j.u.$.; ; ",
"- 7 f u y 8 v m y w u j 3 X - , 7 6 ; , 7 q r q u r 8 4 3 * , 6 , 6 7 r y j n S , < t H g 7 4 * q d r 9 g s m y. .v t p S l 4 1 ",
"0 y g r u y 6 < 9 q d t q q q 2 9 9 7 6 r f t v m u , 6 1 7 t 7 6 t j y y d ' } y c E | ( v v z h G +.g b , t =.f $ O % % y r 4 ",
"y x u M k : - 1 q 9 u t r a 8 & , * % 7 r r S G v v d r q u ! z b v m k u g Y z H  .) t 7 r y q , _ s.b.g = w S , % = e e , e w ",
"M Y M u * < 6 7 q g u 1 7 & - q q > p p n ~ w * r m m d p d t w r S #.M g x j 8 a p 2 @ O % @ 4 y ` 6.g.H z g b 0 7 5 w l p w 3 ",
"h = % + , 7 6 4 q z w i 2 2 < , 7 g m x S u u z h m h z W G d q g } c p R M a j / c 4 0 e < 5 t x j x g C M j z z C p 7 g j y a ",
"O O , i n ` b z z s w w i ; 4 , : y 4 4 f g u g Q y 1 7 d S =.4.i._ w s a l j M { a y s e 0 t u x a 8 u a 1 < r / c a n C z 5 , ",
"6 g S m S ` x z g f D z i s w w a t n i i L S k d z m d 3 h b.f.$.j j a a y y 1 < g a 5 < 0 a a 8 p u j w > < ; w z C ..g < $ > ",
"F v z > X u n a c g c n g z i t < : ; q S b I { z d r t ( g.+.;.q.' C c a g u e e j x y s g M a ; 5 5 1 8 e 8 p w g u 1 @ ; , 1 ",
"w i % , 5 3 g i c p # 5 x g a w z i 7 8 i : ; k l a d v 5.f $ $ 6 / M x g b 9 7 1 # 3 u e 0 3 u : X = < 4 8 a a l c < = 1 1 q y ",
"7 s 2 0 9 : 3 y w y : l 5.a n i 5 M a u 7 ; 7 j m s n ` u O 6 , * < n Y c y 8 4 1 4 8 w 5 s p w 0 < = , e 0 C g w t 8 < 8 s a a ",
"e D s i : 1 j e 0 y c *.q * 7 y l s 5 8 r y j Y l ~ +.` , 8 l f u 4 M { 7.u a w w w < p U ' 8 + = s e 8 5 C C a x a w t s l c q ",
"2 i s n S x M 7 ; < r u # &   q j.g w j a r w - k ~ r d 3 9 i 9 w g x b j s u 8 w e j w < 8 & - 8 1 e i q y z w 1 j x j a x t.C ",
"& & 8 M M g y < 6 z q < 4 y 5 w I Z 6 6 q 9 w p < , O t a q , , u d u 1 - f u w 8 u j 1 & & 4 e p & ; < j C z 9 t w s C t s 1 1 ",
"3 5 - 1 5 1 8 4 u u u k a 0 0 < 9 f.H z k w l j q 8 4 q i g b L v j 1 4 q f M M g w r w 5 * ; 8 e 0 1 < a e y 8 1 e g l l a 1 2 ",
"w e e 3 w 1 ; 8 y j r g w + # < < g M w w 5 0 j s g ! r * q L n y < 1 9 y / Y g x S C x t i > > a 8 j s 1 t g 8 1 1 < y s < s y ",
"H 2.' i 4 1 9 < 1 8 r 7 & = 4 y 8 g < $ ; y j H x F g j q , @ @ - > 9 u w z x u f 0.C g } Y H H 0 l ..x 1 q j l 8 < y x g 8 0 e ",
"5 - 8 g e y e w y 8 6 1 4 w x / %.z , < 5 1 e a j : # ; 0 a w < ; 1 k f y - 7 y 8 M / &.f.y.%.$.j 1 5 8 s C C x f x r a s s , 1 ",
"i u g M j 7.{ x C p w 4 n ( n x.j.j i / M 8 a j 0 X # , , t g i 8 < y u f y 6 y g u / S < n 0.Y c c e i C C p c a z X.M M l C a ",
"0.s.{ n ' $.e g u 3 p 3 6 j } 1.Z / S 0.9.$.s p w 2 ; ; 4 g z l u w ; 8 w 7 y f x { j 1 > 8 u g s j w w z 1 - - - y #.C 1 q j C ",
"z z 8 1 g : $ u e 6 e u 3 + < 4 n 9 < q $.j.{ M g g w 2 t n j S g < y 9 < g v r k } 8 * y : & a x l w w s g 1 8 M } C > o $ & a ",
"- + X % - r r 2 2 2 8 7 4 , 8 l 1 * i e n q./ / c c j i I } t 2 t / S 1 7 g f t y e 2 1 & < a Z c l l j k M C j j C 1 - 1 0 t p ",
"4 < 2 ; < k m p 8 r y 6 4 t g g 0 i j 3 a r g b w p j n M & % # , S p z ` S 9 7 9 8 l p w M 9.&.j a j C C C a < 6 u > 1 y 1 s c ",
"3 2 2 2 < S g 7 q 5 2 , , z g r Z s a 9 H 9 a u < t k } s y c s z ( 5.y.&.g 8 7 7 < 5 c [ a.v.n 2 4 j C C g q y a j j t 8 y a C ",
"5 8 - 9 S G & % 5 7 2 i w t j j i 4 a Y z < 3 q a a r 4 7 i ' P I j u k z a k y < = 1 w e e 6 = < 5 y j C c t a M C C x 9 q C ..",
"n s i ^ 5.t % % w t q g j 0 5 - & > 4 6 % - f L m z 2 X @ + * 9 2 + + + : u C y 9 0 , X @ # = 8 e ..i.0.c y a C ..M < , 1 j c 9 ",
"I z Y 6.f , q 7 1 7 i s y < ; , 3 g y % @ ; , i b 1 X & , : < 5 < : 1 2 > 9 j j M ' M y w w g / c $.j.C c y 8 j ..0 < & @ < s z ",
"; - 2 1 6 : q g 6 t x q @ # 3 w p t 7 % < 7 , = 6 < ; 8 8 w i 7 7 8 q q a g C a 1.{ c g p t y c 5 i s i i x y 4 j j y & w t C ..",
"< = & - u F x q t b t 7 3 3 t a q * , , 9 4 7 3 w i i j i a w < e a y u a ! u v ' 7 : - , p i 2 i i 8 y e w w y y 9 1 1 q x x 1 ",
"e y y 5 > 4 * , m b p p a h q 4 ; 6 7 p z v i i e z | x 0 < < w 9 s j R C y 5 ' 8 = = % - 8 y - 1 < 1 k u y y 9 1 b C 8 p j q , ",
"x B z t y r h B >.y.l # 4 4 : 6 r w h j ^ ~ g t e 5 x i 0 < = 8 e i a e ; ; j z 3 = w 5 7 7 q a 7 1 1 u u ; @ < > w i w g < @ $ ",
"; , z n G N n y.4.F p 4 3 5 & , , 4 9 S F @ 3 n e > 0 l 3 : 5 a p y & + : p H q w z & ; % i ^ i f f a k f u y y 8 > > q 1 $ $ & ",
"g l S P &.n x y.} h s 4 4 B h p r 2 a l w w 5 5 3 0 5 s c D x x s < : 4 g z W 2 n 9.4 4 & z c i g x u M f 7 y k q 1 1 1 1 $ > 1 ",
"m p g c t t B } i 0 e s h q d q q g f r u H H u 0 y w 3 S Z z 8 , & 8 q q i S 9 u _ j 5 u C u 8 @ 9 / g u q 1 9 7 9 r < o # = , ",
" .F e 3 y d N ) B w & t l t 0 < 7 q z h C z z Y < , 5 5 7 4 * + o , > < r - & t ~ S r y 8 = = 1 y 1 y 7 q q 1 1 C M y M x j s s ",
"q x w 7 k z w y P : @ @ < q < 5 < r y c Z c [ U w r y z H 0.j e w q 9 9 9 , # q } k < * o @ ; M 0.~ 1 9 1 1 < k u u M M j / [ $.",
", - 8 w w t q 0 g , # # < e i 7 y n Z e q j U z x ' M y & 1 s x x n t p - , 1 3 < . X - ; ; & 1 y r q u M f g k u f C f x C c p "
};
