/* XPM */
static char *_6ee7fd0fa9c4180d5f7538a7abe54favWM3KOW4Zgyep7dC[] = {
/* columns rows colors chars-per-pixel */
"64 64 256 2 ",
"   c black",
".  c #010101",
"X  c #020202",
"o  c gray1",
"O  c #040404",
"+  c gray2",
"@  c #060606",
"#  c #070707",
"$  c gray3",
"%  c #090909",
"&  c gray4",
"*  c #0B0B0B",
"=  c #0C0C0C",
"-  c gray5",
";  c #0E0E0E",
":  c gray6",
">  c #101010",
",  c #111111",
"<  c gray7",
"1  c #131313",
"2  c gray8",
"3  c #151515",
"4  c #161616",
"5  c gray9",
"6  c #181818",
"7  c #191919",
"8  c gray10",
"9  c #1B1B1B",
"0  c gray11",
"q  c #1D1D1D",
"w  c #1E1E1E",
"e  c gray12",
"r  c #202020",
"t  c gray13",
"y  c #222222",
"u  c #232323",
"i  c gray14",
"p  c #252525",
"a  c gray15",
"s  c #272727",
"d  c #282828",
"f  c gray16",
"g  c #2A2A2A",
"h  c gray17",
"j  c #2C2C2C",
"k  c #2D2D2D",
"l  c gray18",
"z  c #2F2F2F",
"x  c gray19",
"c  c #313131",
"v  c #323232",
"b  c gray20",
"n  c #343434",
"m  c #353535",
"M  c gray21",
"N  c #373737",
"B  c gray22",
"V  c #393939",
"C  c #3A3A3A",
"Z  c gray23",
"A  c #3C3C3C",
"S  c gray24",
"D  c #3E3E3E",
"F  c #3F3F3F",
"G  c gray25",
"H  c #414141",
"J  c gray26",
"K  c #434343",
"L  c #444444",
"P  c gray27",
"I  c #464646",
"U  c gray28",
"Y  c #484848",
"T  c #494949",
"R  c gray29",
"E  c #4B4B4B",
"W  c #4C4C4C",
"Q  c gray30",
"!  c #4E4E4E",
"~  c gray31",
"^  c #505050",
"/  c #515151",
"(  c gray32",
")  c #535353",
"_  c gray33",
"`  c #555555",
"'  c #565656",
"]  c gray34",
"[  c #585858",
"{  c gray35",
"}  c #5A5A5A",
"|  c #5B5B5B",
" . c gray36",
".. c #5D5D5D",
"X. c gray37",
"o. c #5F5F5F",
"O. c #606060",
"+. c gray38",
"@. c #626262",
"#. c gray39",
"$. c #646464",
"%. c #656565",
"&. c gray40",
"*. c #676767",
"=. c #686868",
"-. c DimGray",
";. c #6A6A6A",
":. c gray42",
">. c #6C6C6C",
",. c #6D6D6D",
"<. c gray43",
"1. c #6F6F6F",
"2. c gray44",
"3. c #717171",
"4. c #727272",
"5. c gray45",
"6. c #747474",
"7. c gray46",
"8. c #767676",
"9. c #777777",
"0. c gray47",
"q. c #797979",
"w. c gray48",
"e. c #7B7B7B",
"r. c #7C7C7C",
"t. c gray49",
"y. c #7E7E7E",
"u. c gray50",
"i. c #808080",
"p. c #818181",
"a. c gray51",
"s. c #838383",
"d. c #848484",
"f. c gray52",
"g. c #868686",
"h. c gray53",
"j. c #888888",
"k. c #898989",
"l. c gray54",
"z. c #8B8B8B",
"x. c gray55",
"c. c #8D8D8D",
"v. c #8E8E8E",
"b. c gray56",
"n. c #909090",
"m. c gray57",
"M. c #929292",
"N. c #939393",
"B. c gray58",
"V. c #959595",
"C. c gray59",
"Z. c #979797",
"A. c #989898",
"S. c gray60",
"D. c #9A9A9A",
"F. c #9B9B9B",
"G. c gray61",
"H. c #9D9D9D",
"J. c gray62",
"K. c #9F9F9F",
"L. c #A0A0A0",
"P. c gray63",
"I. c #A2A2A2",
"U. c gray64",
"Y. c #A4A4A4",
"T. c #A5A5A5",
"R. c gray65",
"E. c #A7A7A7",
"W. c gray66",
"Q. c #A9A9A9",
"!. c #AAAAAA",
"~. c gray67",
"^. c #ACACAC",
"/. c gray68",
"(. c #AEAEAE",
"). c #AFAFAF",
"_. c gray69",
"`. c #B1B1B1",
"'. c #B2B2B2",
"]. c gray70",
"[. c #B4B4B4",
"{. c gray71",
"}. c #B6B6B6",
"|. c #B7B7B7",
" X c gray72",
".X c #B9B9B9",
"XX c gray73",
"oX c #BBBBBB",
"OX c #BCBCBC",
"+X c gray74",
"@X c gray",
"#X c gray75",
"$X c #C0C0C0",
"%X c #C1C1C1",
"&X c gray76",
"*X c #C3C3C3",
"=X c gray77",
"-X c #C5C5C5",
";X c #C6C6C6",
":X c gray78",
">X c #C8C8C8",
",X c gray79",
"<X c #CACACA",
"1X c #CBCBCB",
"2X c gray80",
"3X c #CDCDCD",
"4X c #CECECE",
"5X c gray81",
"6X c #D0D0D0",
"7X c gray82",
"8X c #D2D2D2",
"9X c LightGray",
"0X c gray83",
"qX c #D5D5D5",
"wX c gray84",
"eX c #D7D7D7",
"rX c #D8D8D8",
"tX c gray85",
"yX c #DADADA",
"uX c gray86",
"iX c gainsboro",
"pX c #DDDDDD",
"aX c gray87",
"sX c #DFDFDF",
"dX c gray88",
"fX c #E1E1E1",
"gX c #E2E2E2",
"hX c gray89",
"jX c #E4E4E4",
"kX c gray90",
"lX c #E6E6E6",
"zX c #E7E7E7",
"xX c gray91",
"cX c #E9E9E9",
"vX c #EAEAEA",
"bX c gray92",
"nX c #ECECEC",
"mX c gray93",
"MX c #EEEEEE",
"NX c #EFEFEF",
"BX c gray94",
"VX c #F1F1F1",
"CX c gray95",
"ZX c #F3F3F3",
"AX c #F4F4F4",
"SX c gray96",
"DX c #F6F6F6",
"FX c gray97",
"GX c #F8F8F8",
"HX c #F9F9F9",
"JX c gray98",
"KX c #FBFBFB",
"LX c gray99",
"PX c #FDFDFD",
"IX c #FEFEFE",
"UX c white",
/* pixels */
" .] ^ { ] ..I D ) { ^ R ` / X...{ P ! ' _ / / ^ ] R W } ) ^ ! ' ..%.=.#.#.>.&.O.@.| ! O./ c P ` ' | .._ Y } Q X.` o.%./ Y ) { Y ",
"| ' {  .=.%...} +.] { / [ I F ) } ] ! ^ ` ~ Q ] ( } { _ ( ( ] ` }  . .>.2.5.<.%.+.X.] { ~ U ~ ) / ~ Y [ ` @.} $.*.-.,.%.( | +.o.",
"$.O.#.&.;.;.3.-.o.) ` ..! P D I ] ( ( ^ _ { ( / ] ) ` ( { ) H K / F U [ O.-.<.| I _ }  .O.&.( / / ) ( | ] ] ) ] &.>.2.,.-.#.*.=.",
"2.-.%.$.~ &.2.%.Q Y T { X.+._ ) ) / ' E ] +.[ E ' ( ( _ ~ ' Y Y ' ` } C c A ^ ! L ..>.X.K _ / ` ^ _ | / ` } ! ) $.5.9.2.1. ._ ) ",
"4.,.-.} ( *. .^ N Z P ` &.,.*.$.~ ^ [ T ) o.q.e.J P ' Y Y [ =.+.%.;.] L C C U O.@.#.O.O.#.' { ^ A Q ~ ^ _ W I L ( %.1.2. .*.{ L ",
"2.:.{ X.-.X.] _ E ! R ] ]  .#.' I m F X.[ ] *.q.>...} ~ ' ] H Z ! *._ ^ ] ^ ^ ,.1.$.' } ] ] I Q ..) ' ` ~ V N D U X.&.6.,.[ / { ",
"..{ | [ O.Q ] $.+.|  .| [ [ ) ` ! Q T ) H / [ >.7.%.} ] ` P W K H ] { { $.O.| +.o.} Q ~ ~ { _ Q { ~ F ' ' ) [ [ } O.{ :.&.F C D ",
"[ U R W ! [ ~ ^ &.>.} B F ! U [ o.o.+.O.X.} ..o./ E E ~  .o. ...` ..-.,.,.&.1.*.` ~ { ( Q ` O.X.) { ' ) #.:.;.;.O.' ] %./ ' ) W ",
"] { ~ F A ( ^ ~ | { ` K P ' ( / @.=.$.+.| Q S D  ./ ~ ` / ..*.:.o.W { } >.=.+.) U J P _ ` ` T ~ ^ ' _ ! R @.@.X.) ` _ / +.;.*...",
"] =.+.| Q ] ^ ~ ' ( #.O.+..._ ) ! ' X.R L G K L ^ U ! } ) ` ] ` U ( ) ` { / ( K V N M H _ L / E ^ K ^ { D / } A I ^ ^ { &.:.-.$.",
"} } ;.<.%...^ _ ~ ( ' ^ | ! ( ! ! ` [ ] ! ~ ) ^ / *..._ ^ ^ ' ` { ~ Z |  .( ` W E ' ) / ] U ( ] ' / ]  .( [ | o.#.E T } ~ ~ L / ",
") ( ` } X.L Y ] ) ^ ' _ _ P R { U [ o.| | | @.$._ | ( W } Q ~ ` / Y P ` ~ _ O.} ..O.| } -.-.[ ) ` / ) X...| _ _ _  .| ^ ( _ ) ' ",
"G { Q _ Q { _ ~ U ` T | }  .' } | ( [ -.=.&.-.<.%.) / _ { ( W T { -.%. .( ) o.*.-.:.X.o.$...( ) ] ( / ) ^ ! ~ ` _ [ ( ) ` ~ W / ",
" ./ } X.' #.X.} ` _ ` } ~ ' ` ` ` W H O.<.:.>.o...' _ ' ` } ) { ' o.$.o.) ) ^ 2.2.6.-...` ' [ ` ^ ] _ ` ! n J [ ~ U J ~ T ' P D ",
" ..._ T P J W  .^ C A ! { _ T Y J Z M A } %.G b S _ ^ / ! ! ) X.} D m W ) ) ]  .-.&.O.` Y ! G R T ] ' ..O.] ^ ] ..K B ~ Q [  .' ",
") ' H S S S C Q @.' I E } | X.` T J I L T ..` ^ ^ { ( E I ] _ A Y ` R _ Q _ ' ~ ) T L ! ) ^ ] } } [ R ^ O.*.O.L ! #.+. .( / { ) ",
"` T L K J J I I } *.] [ ~ ` ,. .' ` _ ^ ( O.&.&.@.T P _  .{ ] P T *.=.] ( E W [ J ( '  .E I } [ / J V Z ) o.] ( ( { } Q Q ) ) W ",
"| ( _ ^ / ` Q I  .:.=.@.Q J | $.=.-.&.} ] $.;.#.J m v C ~ _ ..$.X...' ~ ( W _ _ K I | ` ] | _ ' L B D H J } ' ..' _ ' { ` D / { ",
"{ { | o.%.@.] ! | ,.{ / ` _ W o.-.:.>.&.$.! ` ] U P K P W ^ ( ` Q W / ! ~ [ X.O.#...{ T ) ' / ' ) W T I U ^ ' Q !  .~ Q O.*. .] ",
"$.%.*.:.:.-.%.o.#. ._ [ / ] ( / &.>.:.O./ E _ } }  .] ~ ^ } L ) ] W {  .( Q Y ) X...] ( ' ) R @.@.+.o...^ ) ( ` ! $. .U J ! R ~ ",
" .;.<.2.6.4.1.%.+.| [ ~ _ J H ! ) ' ( ( R L Q ( :.>.-.o._ O.' R W _ ( ~ X.E M R _ ` ' { ) I m ` $.%.&.;.+.! M R ] ^ Y G K R K R ",
"/ +.,.0.q.8.8.;.~ R _ U  .| | / / ^ { ` ] } T T 8.0.1.>.' ) _ } Q Q _ _ o.O.[ +.+.} } ' ] | ! _ =.3.,.,.<.` L { ] U H T } { T I ",
"! ` %.6.r.p.o.*.| ' / { ] ( |  ._ E R ^ { @.| [ _ ;.>.] ` ) I } }  .W W ( *.2.O.&.-.` ..{ ..#...] X.{ { / [ ..{ Q E [ #.#.{ _ W ",
"` Q '  .>.6.1.] L R { R ( / / Q J H F A T $.7.*.^ / $.$. ...( ! ! ` / ` W ] [ ] ;.7.:.} ) ( ` ) _ R ) ( / / ` [ ' [ -.=.| ' | o.",
"I ~ ^ ' ' ;.X.F F U { [ #.>.} T E T L H U  .7.;.;.@.} [ ^ ` ^ ) W W ~ ` ) ] W X.T o.>.I Q ] [ ) ' ] ` ^ _ [ Y ] $.<.6.>.:.*.O.#.",
"~ R ( ( [  .` Q _ { ] I ^ :.o.] ( ( / / ]  .| +.{ S A ! ( _ Q ' ` ( ` ` ( } ` _ ..O.] +.o._ E ( { [ ( ) _ ^ E ' =.6.<.3.<.:.-.<.",
"Z _ ) ^ ] ` ..%.%.&.] V W #.} [ ]  .} | o.' ] / K K H K { ( U ` [ G Q ) W T { E [ ( ^  .T C A Z F [ ) T ) Q ! _ @.<.,.<.2.1.5.8.",
"Q ) ! D J ~  .@.$. .{ ( o.*.o.$.=.*.*.$.%.O.E '  .o.o.( ..! ~ ] ` ! ( { ( L ) L ( ] ( { R P L P E | _ ` { ( ` ! [ O.O.=.3.;.O.o.",
"&.{ W ] ] ] ^ Y ^ ( { } ' | :.,.,.3.2.*.=.*.E ( -.*.<.%.X.{ / _ } O.` ] ' ] ^  .{ ] Y [ } }  ..._  .) Y ~ ^ ` ! ! S G ) | R F Z ",
"_ L ~ O.] ' ) [ ) ^ ` [ ~ / +.>.<.<.,.=.*...W ( { O.@.} ) W / [ ^ F H ~ ` ! ) J S ( / &.-.;.<.;. .@.] { } ` ] { ~ D ( ] J D A J ",
") ` / ] Y I ^ ^ ) ^ E _ T Q / ' 1.2.<.;.&.] ) ` W ~ I _ ` _ ..( ` J A E Q D ` I G ! ] ..>.5.5.6.:.( H O.W B D { X.` +.O.E P J P ",
"..' [ ' J n N P [ ] { } R [ _ /  .;.$._ ! _ [ ] ` } ^ ( ' P D ' O.+...| | { *.%.#.+.Q U .. .$. .{ ( / ] K P D T $.*.;.X.^ '  .] ",
"] X.[ R F V N C Q | _ ) )  .' G N ^ @.` I ^ ^ ( ( Q _ ' } I P ..$.-.>.=.| ! T $. ._ [ W _ ( W ^ Q ] X.#.#.%.o.' ) #.$._ / _ X.&.",
"Y W ..{ ' ( ~ ! ' | W D { [ X.~ Y G ` | ( ) ) Q W Q _ ) ( ;.,.{ Z A G T  .] U G ) ` ` ( ` { _ ) _ ^ U _ *.>.-.X.^ { X.} O.&.+.] ",
"V F  .$.=.:.X.{ ] ! ' +.` Q #.|  .' X.+.:.@.{ +.{ ' ( Q J ) ..Q J Z S J ~ @.) R } E F C L } H K { Q / ' ' [ _ G ! ) | ..=.*.I n ",
"K W { o.1.7.:.:...( { ^ ~ _ ..-.=.@.o._ R Z A W X.( U ` { _ ` ^ ) Q P U E _ )  .} ~ Y ! ] R ' { Q ] ( ^ ( } L V ! Q ` #.$. .U H ",
"| ^ [ ..Q )  . .! { ~ B J R ) [  .%.^ D P U L H Q *.O.E / ) ( ) O.%.X.] +.X.U ) } ..o.$.L B Y } / ' ( ^ _ U %.O.| [ ~ | =.%. .o.",
"@.o. .] G C G [ E ( o.@.o...] Q ~ ) Y K T ! R T Y _ @.` ) _ %.<.4.3.<. .+.{ } ) ' &.#.O.T _ ..{ ^ ' ( W ..W X.$.} _ ( ( | :.,.<.",
"| O.O.[ [ O.@.W Z _ ..` [ ' [ G S ] } { ` E / ) ( _ { ) / I / O.3.4.4.&.' U ) W / ) +.*...X.D D W _ E ) _ o.^ ^ / E Y { [ | -.>.",
"=.@.! ^ >.<.0.} P / { [ Q (  .) ^ *.%.O.O.@.*.*.&...{ [ ( ' ( / | #.=.o.Q ( / I Q ' ^ X.;.! C b B T } / R ( J Y ( ]  . .[ / ! ' ",
"[ ' ' E o.3.:.$.&...` _ ' Q ^ O.%.#.[ } -.<.7.9.@.@.) ] W ) Q Q _ ~ T ) E _ ` } ..+.) / ] T ! W T / ( _ ` +.%.| ' %.$.:.S E P | ",
") I ( } @.E Y ` [ ) W ] ) ) ) / W ( X.X.>.7.p.g.e.8.^ Y ` [ _ _ Y } [ ` _ ] / E :.>.=.@. .+.=.&.O.X.R [ ~ T S N H ' 2.7. .+.[ ( ",
"R  .{ #.<._ / } ` _ ` ! Q ^ / W ~ ` :.,.1.6.;.t.5.J P ' ^ ~ / _ ^ ( I ! ' ` { ' o.X. .( } %.>.=.<.X.P Q Y P L F H ( } 2.0.&.` G ",
"} / / ~ | <.=.' ( ~ Y Y ) ~ H ^ ` _ } :.;.-.=.#.) F H / _ U ! ' } Q H G T  .%.&.[ ) ^ Y T  .:.<.>.+.O.+.X.W P E ! ^ X.o.#.` ..' ",
"^ F K F G ! / } _ ! ' ' [ ~ ` Q ` K E ~ I T K ! ] O.O.{ } ' W I Q T W H D R [ } ! J ` | / ! / / ` } [ | O.} O. ./ { | ~ C / [ } ",
"_ ~ T P D F Y ( ) ) ' E ^ _ ' H ( ) ` ` ` ( ~ ^ ` $.#.L T X.! ` / ' | } Q ^ [ ~ _ E ( ' } { _ W / ( ! G X.:.<.<.#.X.~ ` ( ] W R ",
"( ' ~ W K D Y ! ^ ( J Q ) Q ..O.{ ` ^ Q _ ) ! A M J [ ..} [ #.<.+.} %.-.;.*.O.' | ] ~ ] ` W ] ' ) | ) D P >.2.1.#.} / ` ` ( { ] ",
"_ ` | | | ^ Q X.[ ]  .{ / / ^ P H ~ [ W ) ] ] R T L W _ W { Q _ &.%.=.#.-.O.E U ' &.+.( | ` ' ) ! } &.....' ....A L R ^ _ ` T Y ",
"o.@.$.$.#.@._ ) U K ) ^ ~ _ | Y Z P / ) E / ..| X.( | ) S ] ` R o.:.<.<.o.F B V Z E +.[ ` ' / ) ' D R $...U W } X.O.] ( P U  .W ",
";.;.;.&.$.%.X.Q F C L ' F ` #.{ { [ o.o. .' +.,.>.X./ } ..) { | / ^ | +.J Z G S A F P ( I _ / ) Y U S Q  .@.o.^ ) ) X.] Y S / %.",
"4.3.1.<.=.+.,.-.' / ^ [ ..} X.*.=.@.[ Q P L R ^ >.U b U ) / Q [ ^ H ' _ E _ ] ` E R ^ +.%.} ~ ~ ..X.( ' _ ' | ' / ` | R H _ ) ..",
"1.3.3.-.-.&.=.,.*.;.@.W Y ) `  .o.o.X.T D C F J ) } ^ ) [ ~ T I ] ..| [ ..*.X. .{ / ! ` +._ ~ T %.:.$.$.~ ! ^ P ` ! [ [ ^ [ +./ ",
"3.2.1.=.=.O...X.X.o.^ [ ` / _ ( ` I ^ ! / ) / ~ [ &.%.@._ } ' ~ ' ` ] o.&.&.@.*.-.O.[ ` [ ' ] K / ` } ! ' P ! Q Q ~ _ -.-.*.{ ~ ",
"{ +.O.$.$.+._ ~ ( _ ` ` ` ^ ! A ^ ~ .. .O.$.} ] { Q Q ' ( ` ! { ' G G O.-.%.&.-.*.#...X.Q ^ #.%. .Q Q Q [ R / o.X.` _ _ } ~ ! ` ",
"J [ ` ` Q / / ! ( { _ Y ' ~ .. .$.} =.,.2.,.+.#.#. .W [ ~ ) / ' ^ L C Q 2.<.;.<.4.1.+.` } T C S W { ^ / { +...[ Q { ' D ` W ' ( ",
"U W ` ) / ) E _ ] R ! L ~ ' T ~ #.-.4.6.7.4.:.=.{ [ Q U _ _ ` ` X.../ W ' &.1.<.5.-._ ! _ P U L ' ` ^ ^ / ` ' P B G { ' o.) ` ` ",
"..) ( Q { / G C ! ` @.+.[ | T E J I _ O.O.&.} X.W { ' ` W Y H `  .;.=.o.~ T ` ! [ X.]  .'  .{ / _ ) ] T L E ) P Y K ^ ..#.@.~ ! ",
"#.+.| ' } #.#._ ~ E E ( ! ( @.! C B H ^ Q Q ^ | -.$.^ / ] | ` ] ^  .@.*. .L Z I ! ( [ | @.-.;.=. .W / X.~ W  . .X.' { #.;.| ( ^ ",
">.#.W ] 2.*.=.3.! U E _ [ ` ) ] / ~ | ( W '  .;.o.] { ` ' [ [ ` _ ! R ^ +.:.=.;.~ ' } / B Z ~ +.) U ^ / { ] O.;.$.%.$.+.+.( _  .",
"[ {  .Q *.6.=.$.O.%.[ ( [ ^ Y >.>.;.+. .) U ! O.E U E / H Y ^ F n v W ^ W ` / #.5.w.>.} E K L W _ } / ) } _ ) o.^ ] $.{ ] ^ ^ ! ",
"n C _ #...5.%.! / [ / ` ! | ..+.O.} { ( W U ^ ( o. .W ' X.] ( { ~ ! ^ W ^ _ [ @.*.=.3.&.@. . . .Q Q ~ ] K m V ^ -.@.+.[ ~ } R G ",
"E E ! $.{ ] ..| H ^ O.( E / _ W ( / ] O.:.;.` o.&.) U H Q o...-.-.#.] ' ' ~ _ ] O.@.' $.-.=.%.) ) ) { ! F M M J <.;.Y ~ ( ] W E ",
"$.( ' ..R V H +.O...[ U S S [ ( _ P C C | 2.#...I P ] @.^ U { / o.) ` ' ~ / K E _ _ T / ] _ ) E { ! T ` ( ( ! / | ) / ) / [ X.o.",
"%.X.o...Q [ } | _ ) ' ~ ` ^ `  .Y n b m J ..@.I V N H ! &.[ O.} _ ..I ' / ~ D ' ` ^ H W [ [ ^ _ Q [ ' O.#.*.@.' { / ] } / Y ..*."
};
