/* XPM */
static char *ed619ad07acc43a6bd665b6951b91673cGwQUGoitOueSnwB[] = {
/* columns rows colors chars-per-pixel */
"64 64 231 2 ",
"   c #020203",
".  c #05030A",
"X  c #09060B",
"o  c #0C0A0D",
"O  c #080607",
"+  c #120C0E",
"@  c #18100F",
"#  c #090710",
"$  c #0D0B13",
"%  c #0E0F18",
"&  c #050913",
"*  c #120E14",
"=  c #110F18",
"-  c #1A0F13",
";  c #141016",
":  c #1C1314",
">  c #15121A",
",  c #1B161B",
"<  c #1D191E",
"1  c #0F1019",
"2  c #221616",
"3  c #251917",
"4  c #22171A",
"5  c #241A1C",
"6  c #2A1D1D",
"7  c #301F1E",
"8  c #2D201E",
"9  c #30211E",
"0  c #1D1A21",
"q  c #171720",
"w  c #241D21",
"e  c #291E20",
"r  c #262023",
"t  c #2C2223",
"y  c #2C2629",
"u  c #2C282C",
"i  c #332523",
"p  c #392624",
"a  c #352926",
"s  c #3B2A26",
"d  c #312629",
"f  c #342A2A",
"g  c #3B2D2B",
"h  c #3D312D",
"j  c #382E31",
"k  c #363135",
"l  c #3D3333",
"z  c #422F2A",
"x  c #412D27",
"c  c #44322D",
"v  c #4B352E",
"b  c #433533",
"n  c #4A3631",
"m  c #463935",
"M  c #4B3B34",
"N  c #443B3C",
"B  c #4C3D39",
"V  c #533C34",
"C  c #593E34",
"Z  c #523E39",
"A  c #553B35",
"S  c #51382D",
"D  c #4D413B",
"F  c #4F4136",
"G  c #544136",
"H  c #5C4337",
"J  c #54423B",
"K  c #5B453B",
"L  c #5C493D",
"P  c #56483E",
"I  c #62463B",
"U  c #634A3E",
"Y  c #6B4D3E",
"T  c #4A3F40",
"R  c #4E4444",
"E  c #554641",
"W  c #5B4641",
"Q  c #5D4B42",
"!  c #574A48",
"~  c #5C5454",
"^  c #634D42",
"/  c #694E41",
"(  c #634F48",
")  c #655144",
"_  c #6B5345",
"`  c #65534B",
"'  c #6B554A",
"]  c #6D594C",
"[  c #6C5846",
"{  c #735646",
"}  c #725649",
"|  c #735B4C",
" . c #7A5C4C",
".. c #765947",
"X. c #6C5B52",
"o. c #675B58",
"O. c #745D52",
"+. c #7A5E51",
"@. c #745F59",
"#. c #704F42",
"$. c #74614E",
"%. c #7C614E",
"&. c #6E625E",
"*. c #746152",
"=. c #7C6353",
"-. c #7C6955",
";. c #74635A",
":. c #7C655A",
">. c #7D6A5A",
",. c #776A5E",
"<. c #7B6C65",
"1. c #7C7268",
"2. c #825E4D",
"3. c #81614E",
"4. c #826454",
"5. c #836956",
"6. c #8A6A57",
"7. c #826758",
"8. c #846C5B",
"9. c #8A6C5B",
"0. c #896755",
"q. c #916E5A",
"w. c #87725C",
"e. c #8B725D",
"r. c #91715E",
"t. c #836C62",
"y. c #8B6F62",
"u. c #867363",
"i. c #8C7463",
"p. c #8C7965",
"a. c #8D7B6B",
"s. c #86766B",
"d. c #927563",
"f. c #937A65",
"g. c #947C6B",
"h. c #9A7D69",
"j. c #997B67",
"k. c #887B75",
"l. c #937D71",
"z. c #A17D69",
"x. c #94816C",
"c. c #9B826D",
"v. c #9C896E",
"b. c #978366",
"n. c #8C8174",
"m. c #958373",
"M. c #9C8573",
"N. c #9C8A74",
"B. c #94857C",
"V. c #9A8979",
"C. c #A1846D",
"Z. c #A38672",
"A. c #A28C75",
"S. c #A28C7A",
"D. c #A98D78",
"F. c #A5937B",
"G. c #AA937B",
"H. c #AC9A7F",
"J. c #A69376",
"K. c #B0977B",
"L. c #978B87",
"P. c #9D9286",
"I. c #978D8A",
"U. c #A59483",
"Y. c #AB9582",
"T. c #AC9C83",
"R. c #AC9D8A",
"E. c #A2958A",
"W. c #B29A84",
"Q. c #B49E8A",
"!. c #A29796",
"~. c #A78E80",
"^. c #AEA18B",
"/. c #AEA187",
"(. c #B3A286",
"). c #B4A38C",
"_. c #B9A78C",
"`. c #B4A492",
"'. c #BBAC93",
"]. c #BCAC9A",
"[. c #B7A799",
"{. c #BEB195",
"}. c #BEB39C",
"|. c #A7A19C",
" X c #BDB3A7",
".X c #B8B5B2",
"XX c #B3AEA8",
"oX c #C4B59C",
"OX c #C4BB9E",
"+X c #C5B599",
"@X c #C1A38B",
"#X c #C5B3A2",
"$X c #C4BAA2",
"%X c #CABCA2",
"&X c #C9BDAB",
"*X c #C8B8A6",
"=X c #C6BDB2",
"-X c #D2BEA4",
";X c #CBC2A5",
":X c #CCC4AC",
">X c #CEC8AE",
",X c #D1C6AB",
"<X c #D3CAAD",
"1X c #CDC4B3",
"2X c #CCC7B3",
"3X c #D2CBB3",
"4X c #D4CDBB",
"5X c #D7C9B7",
"6X c #D6D2BC",
"7X c #DBD5BB",
"8X c #D8D7BB",
"9X c #E0D4BD",
"0X c #CFCBC6",
"qX c #DDD6C5",
"wX c #DCDBC2",
"eX c #DDDBCB",
"rX c #E2DCC5",
"tX c #E2DECA",
"yX c #E5D3C1",
"uX c #E4DFDA",
"iX c #E7E2CB",
"pX c #EAE8D6",
"aX c #F3E6D8",
"sX c #E3DBE0",
"dX c #F1ECE8",
"fX c #F3F5E5",
"gX c #F6F8EC",
"hX c #FAFBF4",
"jX c #FFFFFD",
"kX c #F7F6F7",
"lX c #EFEEE1",
/* pixels */
"                              O + : p M m n C W p z 5 : M m d c p W t.| } A p p S 2 : : 6 A Y Y H C C A v 9 9 8 : 3 @ O         ",
"                  8 n Z V c _  .V.7. .d.h.4.^ C ( ^ C Z ^ 9.d.q.2.q.2./ n i z v z K C I Y v v U v p x x A x S v x 3 2 @ O       ",
"      O     6 n U 4.9./ n W y.I h g z A I ( ) P 7.| Z 9./ I / } } ..^ U n  .I 6 3 p A S 9 3 v S 3 S I I I S v s 9 3 : @ @ O     ",
"s c a 9 i i n 4.5.4.4.{ K | _ A A n W A 3 c  .d.t.z / #.../ I I A / 4.x s A I 2...C v A z p p s 9 x S 3. .H n a 3 9 @ + o O O   ",
"S 3   8 9.h.d.v : + p 8.2...y.K @ : M :.Z i ^ +./ +.^ C K U K I s ^ 7.e 4 7 I 0.q.Y x 4 7 #.A 5 x s s S S 3 p Y 2.c : : 9 8 + O ",
"; h `  .A.h.j.} ( :.Y.g.+.../ l t m | M d M C ^ K Z  .} ^ { ' ^ / I U ^ / C O.3 4 s U Y z 4 n 2.Y A z + X X X   : 9 V c g 3 + @ ",
"U _ Z.I ^ =.{ } C ^ ( ' i.Z s i.D.h. .m 5 Z / g - c ^ } / ' } } 2._ 9.O.+.h.4./ / K n s z z n z.3.I I A 9 5 + + * 2 _ n 2 6 5 : ",
"<.).j.} K +.' O.z s s <.' - B B s.W.4.9.6.I P G g g M Z s d ^ I / +.7.g p 6.4.z V 2.U A e C c } q.Y s 7 v Y A c K z I K 5 8 6 3 ",
"Z ` `.D.Y.#Xj.@.( O.i.<.w X E Y.'.`.`.M.^ _ G O.) Q ] U L ^ _ _ } U 4.+.^ +.} n K { ^ U A 7 n z g i n v I K A v v V c H v a 3 : ",
"s 4 K G u.S.:.+.Z : - X # $ d O.w.w.t.] o.B X.*.M Q W L | ^ P _ _ ' _ / y.M ^ 9.2.} q...#.{ #.A I v t v V K U a V I h c s a 8 : ",
"5 @   * O.j.d.+./ b 5 E d e J m.` M ' *.=.` -.f M P =.$.' } | ) ' =.4.^ ..4...^ K n 2.( ^ 0.#.A K 2./ Y U v K V H K n v S K M : ",
"+ X N >.9.4.d.' W ` s.' O.;.Q g.X.b < r X.S.S.] W *.Q L ' ) ] J W G A ] b ^ d.} c d g I y.0.O.} v A ....A  .A t c H Q a G 8.v a ",
"K W z.#X=X[.} .   . ` j.Z.Y.7.E P.D l F ;.p.U.:.B P h y l D h < w t t w 0 % 0 h m B @.} q.0.2.0.4.^ ......{  .I C I U L P ^ } *.",
"5 i n a.l.B.` W ' ' ^ ^ L u.>.Q < m u.a.8.p.=.B t h y > r f h y t w B y w t , % # # , d A T z.q...q.3.../ ..0.+.} K K  .G p Y  .",
"! ! o.V.| W i.L a.s.:.g m l.N.` < ,.>.:Xa.u.F.'.G.*.Q y D J h Q > 1 > > > > q > q > = = $ = d b m } 4.7.| ' +.5.3... ._ / _ M G ",
"w * B.Q.R.W.d.+.i.` ' ` w.| P n n.pX$XN.D $.i.x.(.w.*.` B 8.] P j 0 > 1 > > > > q > > > > > = = q e d b W } 4.d.4.d.6.6.+./ P ) ",
"    7 4 * f ( d.G m 8.^ B g.;.n.;X6X:Xu.` D D [ u.i.=.) J [ | _ [ ) h g < % > ; > > 1 > > > q > w w w d g 4 A ' 7.8.+.d.6.} ( _ ",
"X a W X X 5 =.9.l.c.' B ` <.wXfX$X_.N.N.x.s.` D E F.8.] [ [ U ) _ [ ) ) L g > % 1 1 > > > > > > w g & w T w e ( ' ^ Z +.O.}  .' ",
"S.d.A X 4 G ( G 9.7.L D O.$XlXeX}.`.J.v.F./.x.[ ) [ i.*.| :.=.=.Y Q %.Y ) _ K g y < % > > > > > w Z d w Z w , j } | :.' | [ B | ",
"' ( 7 w 5 e / g P Q.c k.].5.R.A.'.2Xv.`.N.-.,.$.$.| =.| | B a.&X7.} _ _ ) Y Y _ _ K f > > q q 0 f A g j I T e Z W A g.Z.C.g.J V ",
"  : + e 5 , + o.yX9.@.:.5X0Xm.a.^.:X$XN.] -.X.8.] ] *.Q l 5 V.n.d n.N.Y / U / ^ U U _ h % ; , , i } b K _ c q ( j.-.i.8.Z.V.:.4.",
": d a 4 . X   < I.i.g.i.( pXjX`. X:X`.$XF.w.>.-.$.=.Q G D D @.J M L } { { _ / / Y I Y K r < w 0 M Z ^ +.z.T q = B X.g.S.W.i.O.j.",
": : 6 : X $ : 5 g 4 j f = y 0XpXwXqX$XU.U.V.p.w.=.| _ | _ <.` ' =.| _ _ _ _ ) Y U Y v h h r h g q q Z Z X.l.B.` r f m 8.].G.) | ",
".       * : e ( t.' y = > # |.jXXXpX2X}.{.).N.c.8.e.*.=.i. .+.%.|  ..._ _  .[ =._ %.) G a m ) J b w q w % > o.].' B P W _ g.S.| ",
"X   o   5 p . $ t O.W b ;.% k R !.jX2XV.n._./.H.N.J.Q.G.M.i.d.=.*.d.A.M.9.4.%.9.9._ K =.%.B V i.M.6.` D W J t E 8.] ^ ' O.8.Y.U.",
"g + X X y.:.# # 4 p , d -.m < ; 8 s.0X3X2X}._.N.(.M.).).j.S.x.8.4.d.w.:.r.C.w.K +.W X.| 5.m P 7.[ | ..| ' j.h.| P G E b ' R ;.[.",
"b M   X h @.o $ $ X X.S.n ] ! 1 r 0 0 N 1.s.1.n.<.1.U.[.W.S.l.M.8.8.:.g.U.a.l.u.E g.Q.S.=.} 7.G.i.^ M.a.B ^ 7.w.W ` i.E q = = E ",
"M : X X .   X $ * = ; T J a.*.d 0 > q 1 r u r 8 % = 0 k R E b j d h u.^ , * % 0 q w b u.| B J w.=.U f.N.| M N w.J 1X1Xl q 0 q $ ",
"t.z 7 X o * $ $ = * ; . % ` m ) 0 1 0 < > 0 r > q q q > % = = q & ` &Xe * q > > q > $ , m.] F b O.' f.M.x.' y Q M L.pX~ q q > w ",
"=.:   O       . . * > m b 5 m M D u 0 Q f y > q > > > , , ; q = w yX&.. > = = > > > q # <.W.w.7.g < h E p.=.) ) b h +.s.N B ( :.",
"h.n N T f ! ~ J ( | ^ f.v.m.| e.w.e.y F l > > > > > > > ; > > % l .X# : : = > = = ; = X <.`.M.9.F.i.-.J ^ ) M J M Q J ' M n ( ^ ",
"R.S.l.@.M ` Z.-XG.8.8.:.w.J._.b.p.i.] h > 1 > 1 ; > ; ; ; ; ; ; = B.k X * = - = = = , t * t N ^ X.N.'.c.[ ` ' ^ m M B ' M q b Z ",
"@._ +   . . y.#Xp.7.i.| e.b.J.b.[ [ b.F F F a @ ; ; ; = * = = ; # 7 k.T w w 4 - , = l [.j ; * J 9.[ 9.h.=.Q D Q -.] b J ' f * d ",
"K     X . d  .X.i.G.f.+XJ.+XA.%.b.L P [ F Y $.a % ; * ; $ * * * - # + j W T e w , : $ N ! m ' [ ) L G P P Q f % f J A g b g d w ",
"1.e N 6 c g # X ; V.iX<X7X<X>XJ.w.-.h $.h L L F 8 < = $ < * ; * * * * X + - $ + * $ = X & w ( 4.l d M G F h M t w % q y ; $ : w ",
"T f X.#XyXf # , X ` OXV.`.rXpX:XH.b.h P y F F h G h a t 5 : * @ + + + + * + * * * * * % d M Z Z.=.g h M J b l , r > ; = ; = * * ",
"      k.aXo.# $ f =.%.w , B ^.F.,.n.w.w.$.G U P L L G L o $ % $ + $ + + + + + # * = * * n  .g ' f.5.) n g b J t % ; ; ; = * * $ ",
"X X X + z R.i.z G `.4Xk u l w.Q   1 y y [ -.Y U U L G 0.S 5 $ $ + + + + + + + + o * ; * v G P L c $.d.-.j h [ t % ; = = = = $ * ",
"  X   X + D.c.^ Q -.=X].=XlXfX X,.x.1.l -.b.$.U L H 9 Y ..G * * $ # # + + + # + X = % 5 j.J > _  .8 w | e.M ) r $ * = = = = $ * ",
"O     X - Z.Z.9.O.@.*X(.{.%X4XoX_.v.>.$.v.v.-.U Y Y P h [ < o % * * + + + + # * 5 * * = 9.i.. r _.-.# t C.%.c ; $ o # X X # X X ",
"      X X t z ` l.h.iXtX7X,X+XH.J.N.b.$.b./.-.L U U Y G G c : * * * * o $ @ $ : 8 ; ; o  .c.5 ; ' G.) ] i. .^ K c g a d 6 i f s ",
"n 3 . X X   .   # d P.gXkXaXOXp.w.v.{.v.F.v.H.H.p.[ ) ) $.Y b ; = * * * + $ $ $ @ t < ; Q Z.} | H K n ..d./ ^ / ^ U U G ^ V P U ",
"p :     O O X o = X b qXgXfXfX3Xv.P J.H.(.$.F 1.(./.b.U J.G.[ K 5 # # X o * @ ; s t < ; t n +.9.7.U _ 4._ / U P I K U d C P Z ' ",
"o O 7.5   X X o $ $ d W.[.3X4XjXlX}.J.F.{.-.P U ] b.w.J.OX+Xr.G.:.t t t 8 8 U S v a a 8 t 5 ( e.e.5.9.9._ _ ^ ^ H G M g w 4 = ; ",
"i 5 h.C : . X X o $ $ X.p.x.a.}.hXfXwXOXH.H.-.$.P F $.w.;Xw.h [ H.d.D.j.q.Y L ..[ $.8 ^ L g h K } ) 5.C.} ^ I ^ } P A y X # # $ ",
"A Z S.0.2   X X o X e M L L F ` (.8XfXiX8X{.b.b.-.G N.H.J.$.P 9 Q Q i.b.0.j..._ %.4.c G _ m n ^ ) _ A | l.Z.9.Q :.j.d.w $ * # $ ",
"n X ` #X`     X o   G G P M > l *.F.8X8XwX>X;XOX8X>X<XOXv.F m P B 7.P w.f.%.w.6.c.[ _ K J G g Z B ' m w > ! @.' K.oX`.w # * * X ",
"2 z 6 t.#X` t   X + w p n , 0 8 & u 1.^.OX/.3X>X>XgXfX{.J.$.y P V ) 8.I v L %. .r.8.I  .g > % = = d 5 % = # X 4 &XqX#X4 # # + # ",
"+ o + 7 O.+.,   X   X 5 : 5 f K b ; y r X.(.'./.F.iXpX/.-.P u y m l ^ m < < ) } 4.) _ D.^ # > ; * = = = = = = X !.jX.X$ $ # X # ",
"^ -   : 0.2 + : X - 9 n + i K g G m B < m f.b.w.$.F.iXN.L F P F P G c = ; ; , ) 6._ ..-XR.# * = * ; * = = * - & f gXkXu # = X # ",
"n K - ) r.S C C @ i i 2 * 5 c : 5 t a P v.w.$.$.) $.{.v.[ [ P [ Y G q : ; ; ; > J ) r.+X9XX.i $ = * = = = * * * X t.jXXX  X * X ",
"n ^ 3 *.d.#.#.S c n 7 X X 3 s w ; d i.H.+XA.6.$.-.` $.b.-.$.[ $.-.j = > > > > > ; < Z.9X,X:.' b * = # $ % = * * $   k.jXXX:     ",
"s p n z 7 Z +.I z A c 3 * 6 * 4 w 5 &XpX<XJ.x.v.-.n.,.w.b.H.x.L 8.F r < % ; > > > * t.iX%X| ' | t * f y = * * # $ *   o.kXkXI.k ",
"p - c 7     7 A H I c 9 z / 5 + 5 a 1XhXrXv.s.U.H.$.m.J.H.;XOXx.U Y ) ) j ; > > > > } pX,X/ / ^ Q M Z +.Z $ * # $ X $   d !.sXdX",
"/ C A i e 6 2 p I I V s c U e X g l wXgXpX(.w.w.N.-.` ,.'.8X;Xw.) ) ) _ _ w ; > > < ^ '.iXQ.u._ K t # , E d . + X X $ *     = T ",
"C A A Z n S 7 6 x v p s K Z n g f i 1XfXiX;XT.=.-.-.[ [ b.>X>X/.] ) [ ) ' B > > 1 5 c M ;.P.l.R.i.L t # t W j = < * . # $ $   . ",
"C n p A s 3 9   6 z p S C 6 d g 4 z &XhX<X{.2X}.OX$.[ -.b.'./.b.$.) ) ` [ ) F , d -.i.L h 4 ( ] ~.l.2.d d f T A f ( e . . . : 5 ",
"d i 6 / v :     @ 7 : I I _ 6 * = . P.jXfXiXpXgXfX>X(.v.H.{.OX/.-.L ) L X.! ] l h Q.$X*.| L Q Q  .7.@.+.n b n T W +.t.z h * : ^ ",
"X     z C @   O O 9 3 - n V 6 X e : , a. X2XiXjXgXrX/.'.;X{./.'.F.w.-.$.$.Q D l ) V.6XU.t.i.] ^ ( +.( T @.b A m / ' ( m b g > e ",
"      6 ..v @   : - 9 s n C 6 : o : $ 6 c ^ ^.pXfXfX_.{.8X8X{.'._.H.x.N.V.! ! D :.Y.}.`.g.V.g.-.b y.l.$ b b j z ` 7.} d = 4 * d ",
"      o 3 a _ s @ @ : 2 Z I v   c 5 . L c ,.p.].tXpXpX8XwX8X>XwX:XOX_./.N.1.L *.` V.oX;.Z ( t.X.T ( =X:.# & > # t 7.' #.c d e g ",
"            9 v : 3     4 g n 4 5 A o ; * J =.-.n.;XwX8X>X>X$X8XOX>X6X2X{.N.&.-.m.$XR.@.W T t.t.( j s.[.k.j # $ = W T T M f w j ",
"O       @ p x : 2       + 3 + 4 : 4 n X t K K ^ < n.wX8X_././.{.$X}.}.:X8X].>.b.N.4X&Xp.g.@.O.y.' T s.( ! t.d # * n +.( e d d d ",
"      8 I I s A 3         - 6 O g X e . V Z G ' f h _.rX>X}. XN.E./.{.:X2X6XF./.F.&XeXU.P.~.t.~.y.( V.#Xd.O.O.T # 4 T b b z f d "
};
