/* XPM */
static char *_89ed44d20bb4222b8be9ccc8b9ba7e7YgAxIlqUUnSfTECU[] = {
/* columns rows colors chars-per-pixel */
"64 64 240 2 ",
"   c None",
".  c #030302",
"X  c #0A0504",
"o  c #0E0A05",
"O  c #0B070A",
"+  c #0C0A0B",
"@  c #060508",
"#  c #110703",
"$  c #140A05",
"%  c #1A0C05",
"&  c #12060C",
"*  c #130C0A",
"=  c #1A0E0A",
"-  c #1C130C",
";  c #17110C",
":  c #0E0917",
">  c #140C12",
",  c #1B0C15",
"<  c #1C0B1B",
"1  c #130818",
"2  c #131113",
"3  c #1C1413",
"4  c #1B131A",
"5  c #1B1919",
"6  c #0F100E",
"7  c #210C08",
"8  c #23150B",
"9  c #29160B",
"0  c #241A0C",
"q  c #2B1B0C",
"w  c #271807",
"e  c #301D0E",
"r  c #210C1C",
"t  c #231512",
"y  c #251A12",
"u  c #2B1C13",
"i  c #24131C",
"p  c #251A1A",
"a  c #2B1C1B",
"s  c #29171F",
"d  c #341E18",
"f  c #2C200D",
"g  c #34220C",
"h  c #3B250D",
"j  c #3A290D",
"k  c #2D2214",
"l  c #2B231B",
"z  c #2F2912",
"x  c #332313",
"c  c #3B2413",
"v  c #3B2A13",
"b  c #34241C",
"n  c #3B2B1A",
"m  c #37291A",
"M  c #3C311C",
"N  c #150B23",
"B  c #1D0D22",
"V  c #180D2A",
"C  c #1E1A22",
"Z  c #170E37",
"A  c #1E1137",
"S  c #0D0924",
"D  c #240E23",
"F  c #220F29",
"G  c #241225",
"H  c #24102A",
"J  c #2B132D",
"K  c #291925",
"L  c #331A27",
"P  c #2E1433",
"I  c #271539",
"U  c #321533",
"Y  c #3A193E",
"T  c #351838",
"R  c #2C2324",
"E  c #2A242A",
"W  c #32232A",
"Q  c #382727",
"!  c #3D362A",
"~  c #2C2432",
"^  c #372936",
"/  c #373437",
"(  c #432C0E",
")  c #422B13",
"_  c #4C2D13",
"`  c #432B19",
"'  c #443214",
"]  c #4C3315",
"[  c #4D3B15",
"{  c #44331D",
"}  c #4C3419",
"|  c #4E3C1C",
" . c #543516",
".. c #533A15",
"X. c #54351A",
"o. c #543B1B",
"O. c #5B3B1B",
"+. c #5A3816",
"@. c #40300F",
"#. c #633C1A",
"$. c #421D2F",
"%. c #462B28",
"&. c #4C3523",
"*. c #483727",
"=. c #513C25",
"-. c #553B2C",
";. c #533525",
":. c #452933",
">. c #463634",
",. c #533B37",
"<. c #522632",
"1. c #653830",
"2. c #5C441B",
"3. c #594418",
"4. c #64431C",
"5. c #644B1C",
"6. c #6A4B1D",
"7. c #69441D",
"8. c #75561D",
"9. c #6B521D",
"0. c #4B412A",
"q. c #594528",
"w. c #5E4B33",
"e. c #58453A",
"r. c #454C3A",
"t. c #644423",
"y. c #6C4C24",
"u. c #674A29",
"i. c #724D23",
"p. c #7A552A",
"a. c #775627",
"s. c #674B35",
"d. c #6C5433",
"f. c #685637",
"g. c #7A5A36",
"h. c #6C5330",
"j. c #786336",
"k. c #7F6322",
"l. c #181144",
"z. c #291648",
"x. c #381A45",
"c. c #341B57",
"v. c #3D2645",
"b. c #3D3B44",
"n. c #392C63",
"m. c #1F3142",
"M. c #451E4B",
"N. c #431F55",
"B. c #45224B",
"V. c #4A2252",
"C. c #4A2757",
"Z. c #562759",
"A. c #513648",
"S. c #663256",
"D. c #4B2766",
"F. c #5A2B6C",
"G. c #572864",
"H. c #58307C",
"J. c #672D6B",
"K. c #69326E",
"L. c #693279",
"P. c #672D6E",
"I. c #324248",
"U. c #494744",
"Y. c #4E4F49",
"T. c #695647",
"R. c #765947",
"E. c #6B504F",
"W. c #776145",
"Q. c #796959",
"!. c #765372",
"~. c #426777",
"^. c #835A29",
"/. c #87652A",
"(. c #8B6334",
"). c #8A653A",
"_. c #966A38",
"`. c #93712B",
"'. c #A6793D",
"]. c #835950",
"[. c #88674A",
"{. c #887648",
"}. c #957547",
"|. c #847454",
" X c #9B7A58",
".X c #946F55",
"XX c #AB7D4E",
"oX c #8B736B",
"OX c #A17E60",
"+X c #938137",
"@X c #AB8B3A",
"#X c #9C8559",
"$X c #B58645",
"%X c #A4865A",
"&X c #B59258",
"*X c #AC945F",
"=X c #B7AA4F",
"-X c #9A8764",
";X c #9A9079",
":X c #A98964",
">X c #B89867",
",X c #AE9471",
"<X c #BAA772",
"1X c #C49853",
"2X c #C1924A",
"3X c #CDA550",
"4X c #C5A369",
"5X c #C7AB77",
"6X c #CCB77B",
"7X c #D8BA7A",
"8X c #D9AD79",
"9X c #C69E71",
"0X c #EACA70",
"qX c #5C2E85",
"wX c #67338A",
"eX c #683493",
"rX c #7B3A8E",
"tX c #256B92",
"yX c #843E97",
"uX c #8B5091",
"iX c #2E8EB3",
"pX c #288EC3",
"aX c #1998D0",
"sX c #1FCFFE",
"dX c #AB9D9E",
"fX c #CFB387",
"gX c #CFBBA7",
"hX c #DAC789",
"jX c #DACB97",
"kX c #C6C19C",
"lX c #E6C786",
"zX c #E7D596",
"xX c #ECCD91",
"cX c #F2E69C",
"vX c #F5E8A9",
"bX c #F1E4B2",
"nX c #E1D1B3",
"mX c #FBF8C9",
"MX c #FEF7D7",
"NX c #EAE6D7",
/* pixels */
"                                              ~ E                                                                               ",
"                                            Y.R.R.Q.|.s.                                                                        ",
"                                            Q.>X>X6XhX8X4X XT.                                                                  ",
"                                            ,.OX>XlXxXlX0XcXhX%XQ.A.                                                            ",
"                                              R.9X7X7X7X7X0XcXlXzXkX;XoXE.M.Z.F.L.                                              ",
"                                              R e.R. X5X7X6X6XvXjXmXmXmXgX!.Z.Z.K.L.                                            ",
"                                              + X 3 { g.*XhX6XcX6XhXmXMXmXNXdX!.F.Z.V.                                          ",
"                                          p * X o = 8 m q.g.%X7XzXhXjXbXbXMXMXNXuXM.T ~                                         ",
"                                    C.K.^ p * $ * % = * & = *.}.>X5XfXzXvXMXMXbXnXoXx.F                                         ",
"                                  v.V.C., * & * 0 - 8 x n = % u -.[.%XxXzXbXvXxXxXxX].P                                         ",
"                                L M.M.c.> & o - 2.' 7._.&X(. .h t L -.[. X5XzXbXxX8X].v.                                        ",
"                                x.M.M.T H + o * v ] i.'.1X3X`.`.o.u d ;.-.R.oXfX5X-XA.~                                         ",
"                                V.T P F V < & , m ] #.^.2X0X0X'./.3.x L d W ^ R.Q.U.U.                                          ",
"                                x.P F F B D r d %.$.<.1.].,X8X:X/.8...d p ,.E.R.E.E.>.                                          ",
"                              i P F H B B D L Q $.$.Z.J.J.K.S.S.h.8.^.+.u %.%.;.,.-.,.                                          ",
"                            y % , B B < B P Q s s M.J.yXyXK.Z.Y ;.4.7.9.` a s L Q >.%.                                          ",
"                          R m % $ & & , C   ^ J T Z.yXuXyXL.T J %.u.q.7.2.- 3 l Q :.>.R                                         ",
"                        R ; $ $ $ $ * 4     C , & 1 U Z.P.G.x.U $.t.t.[ g - - ; - u l K                                         ",
"                        3 $ $ # $ = 3       2 . . . . + V Y Y U ` /./.2.] 0 0 { *.y w.>.                                        ",
"                        $ o o # % =         ^ + @ . . + O : D U d ^.`.a.t.g.q.q.*.{ Y.                                          ",
"                      ~ $ X $ $ =         oXoX/ + + p 3 + . & d c { &.q.q.q.M M M q.>.C.                                        ",
"                      p % o % % =       A.E.:.< & 3 e.].s.%.a - x n v M n l z l l / Z.wX                                        ",
"                      = $ # $ G T C.V.V.Z.J.J X X a 1.[.XX.XR.` q x k k u k k l ~ I.wXrXC.                                      ",
"                    E $ # X o T F.F.F.P.J.S.r X . p E.]. XOX.XR.b a b l 3 t p K l.Z D.wX                                        ",
"                    E * # $ $ , G.eXwXwXwXV.& & X & :.R..X:XOX X,.W W 4 . & V A l.l.n.H.                                        ",
"                  G.G - $ $ $ % b.qXeXeXeXD.< < F 1 > ! ].%X:X Xs.%.R 6 @ V I A l.l.c.v.                                        ",
"                C.V., % # # % 3     H.eXeXqXz.I z.z.N : / :X4X5X-X-X|.0.t A Z A l.Z N k !                                       ",
"              b.B.T * $ # % $ 4       D.wXqXc.Z I z.I F G R.4X:X-XcX<Xf.q.^ N S V S 5 5.d.%.                                    ",
"              ^ B.L * % % % $ 4       4 P x.l.Z Z Z z.x.J W %X4X<XjX#X(.'.^.*.i 6 . f `.`.9.{                                   ",
"              ^ v.U = 7 % * # O     p # & & : V N 1 1 < < < -.*XzX,Xg.^.XX'.g.w.I.C f k.k.a.5.=.                                ",
"              b.^ B.T r > > , , G   = 7 y # X - = > : < r r i u.#Xg.p.^.(.j.j.{.Y.I.k [ 5.8.9.2.                                ",
"                T x.C.C.T 1 < B   R 7 8 u * o x u o O < G J r %.u.d.s.p.^.d.j.f.tXiXU.3.2.9.9.2.                                ",
"                L D U V.Y J F G   t % 9 e 8 $ h q + 6 5       l *.w.w. . .q.h.U.aXsXpXY.0.o.u.-.                                ",
"                ^ s D D D D B 4   = 9 ( h % - h g - 3           Q 0.w.} e ! 0./ tXaXpX~.>.%.>.u.`.                              ",
"                C 2 L <.%.d ; 2 W c h  .c 6 g j g q               M 0.=.v f z M E m./ r.r.^ U ` j.>.                            ",
"                R Q u.[.g.q.- o l ] (  .v 3 j ( h k p             l m n m x z z l l z M ! / x.Q q.f.{.                          ",
"            n %.} X.7.^.^.7.w X % g j ( g 0 v j h e a               u a x l u y y k z m m ^ N.:.W.<X=Xj.                        ",
"            )  .3._ _ +.7.+.h h q w f j - f @.j f m                     l p > + * 3 b Q Y V.N.$.R.d.=.m                         ",
"          _ _ 2.o.g 8 e ) ( ] 6.3.w g w - j g f k Q                       4 < < D V L U J r D U :.=.c 9                         ",
"          e +.6. .} 8 x g ) +.a...f f f ; f 0 3 l                       3 X & , F F F G r r r U ^ =.M                           ",
"          c ] ' [ v x v ] g ] #.#.g 0 8 0 - -                           y % w 9 r D D D F H D J L *.0.                          ",
"          h g ' [ 0 q v ( e g _ ..( v ' x u l R                       y u 9 9 9 9 i s J D D J D G W                             ",
"          h ' [ m y - u e 3 - y k v =.t.{ - 3 - R                     9 e q 8 9 9 a d K K K B K L E                             ",
"          ' [ [ l y = - 3 ; + - R Q =.=.M k -                         9 9 = * = u b Q d p R 5 K ~ W E                           ",
"          _ ] [ f 0 - - 6 + @ 2 / ! 0.0.z f                           u 8 $ . X i a b a 3 p R 2 5 E W                           ",
"          ) v 3.z 0 y y 2 + @ 2                                       9 9 - $ . X s l ; + > K R K E                             ",
"          g g 3.[ g y 0 ; @ 6                                         9 9 q 9 X . & p t - - 3 a 4                               ",
"          k f [ 3.' - $ . . +                                           9 q 9 . . . * t p y y 6 @                               ",
"        u u e v 3.[ - . . .                                               u u = . . . X - u 0 o . -                             ",
"      R x v e j [ @.n - + 6                                                 p t % X o $ o $ $ X . = m                           ",
"    R &.o.v j v [ M n a 6 2                                                   3 0 - - q f $ o o @ o m -.                        ",
"    u ;.a.5.' ..5.] n u 6 2                                                       9 8 0 h f w o . & x &.s.t.                    ",
"    g g t._.i.6.k.5.` u @ 4                                                         t y 9 q k v 0 - f { k.a.^.                  ",
"  m ......(.`./.`./.y.v . + C                                                           u c x 2.9.3.+X=X+X'.2X@X_.              ",
"R u u ] +.a.'.'.'.@X$Xy.3 * 5                                                             c ] ] 3.a.@X3X).$X3XXX(.*.            ",
"E k v x ] O.p._.$X_.g.u.m 3 5                                                             ` O.7.a./././.(.$X}.(.} >             ",
"  >.c g ( _ X.O.i.a.y.q.) 8 &                                                             ) ]  .#.i.a.y.p.g.t.v o 3 *.=.        ",
"    q q e  .#.O.}  .]  .X.} =.!                                                             0 c h ) _ ] ` x 3 O + { }.1X}.T.    ",
"        c #.(.>X5X<XT.M a.9.f.Q.Q.                                                          9 9 e ` ..) - o + 6 m -.{.lX6X}.h.  ",
"          ;.p. X5XzXdX^     0.-X6X                                                          0 9 u x ] ( - x i.`.(.t.-.|.5X&X(.h.",
"            -.s.[.>X:Xb.      U.Q.e.                                                            8 0 k v q.^.XX&X4X[.^ 0.w.W.f.  ",
"                -.s.T.>.                                                                            5 { a.(._.>X7XjX            ",
"                                                                                                          g.d.d.W.-X;X          ",
"                                                                                                                  T.Q.T.        "
};
