/* XPM */
static char *result[] = {
/* columns rows colors chars-per-pixel */
"64 64 254 2 ",
"   c #173600",
".  c #0F520A",
"X  c #315914",
"o  c #096801",
"O  c #136E03",
"+  c #167801",
"@  c #2B7211",
"#  c #2D6A2E",
"$  c #406D08",
"%  c #48732B",
"&  c #337353",
"*  c #3A7B65",
"=  c #447452",
"-  c #407D68",
";  c #1C8603",
":  c #0D9000",
">  c #2C8D08",
",  c #269807",
"<  c #16B003",
"1  c #30AD0D",
"2  c #2D9C28",
"3  c #578F02",
"4  c #4CAE17",
"5  c #5C9525",
"6  c #4EB52F",
"7  c #18C405",
"8  c #2AD211",
"9  c #31E419",
"0  c #36DC2C",
"q  c #58C92C",
"w  c #4AEC33",
"e  c #35995A",
"r  c #6B944D",
"t  c #4B9071",
"y  c #4A9375",
"u  c #56A47B",
"i  c #66A565",
"p  c #64DC5D",
"a  c #59F746",
"s  c #80AB5C",
"d  c #AABC71",
"f  c #ACCD74",
"g  c #A9C478",
"h  c #B6CA76",
"j  c #B7D57B",
"k  c #B1DC7C",
"l  c #C5DA7C",
"z  c #C8D879",
"x  c #D2DE7A",
"c  c #C4E06F",
"v  c #C9E37B",
"b  c #D8E77C",
"n  c #57998A",
"m  c #5BA386",
"M  c #5EA99E",
"N  c #67B48C",
"B  c #69B088",
"V  c #68A994",
"C  c #6AB697",
"Z  c #74B99A",
"A  c #77BCA5",
"S  c #6FBAB7",
"D  c #55C28C",
"F  c #77C697",
"G  c #7DC5A5",
"H  c #76CAAD",
"J  c #77C2C3",
"K  c #99AAA2",
"L  c #8FAEB2",
"P  c #ABB8B4",
"I  c #C0BCA9",
"U  c #90CF94",
"Y  c #A9CB87",
"T  c #B2CA86",
"R  c #ABD688",
"E  c #BBD885",
"W  c #A9D696",
"Q  c #BAE890",
"!  c #83CAAA",
"~  c #85D5A8",
"^  c #8FD3B3",
"/  c #96D9BA",
"(  c #ABD1A8",
")  c #A4D9B9",
"_  c #95E9B2",
"`  c #98E7B9",
"'  c #A4E7BA",
"]  c #B1EEB1",
"[  c #B6E8BB",
"{  c #C6DA87",
"}  c #CBDC93",
"|  c #C8E786",
" . c #CBEC85",
".. c #D7EC84",
"X. c #CBF188",
"o. c #D8F687",
"O. c #C6F192",
"+. c #DCFE94",
"@. c #E5EC85",
"#. c #E6F687",
"$. c #EAFB87",
"%. c #ECFB8A",
"&. c #F8FD86",
"*. c #F3FD8B",
"=. c #FDFE8D",
"-. c #E7FE96",
";. c #ECFF9B",
":. c #F2FE94",
">. c #FDFE92",
",. c #F3FF9B",
"<. c #FCFF9B",
"1. c #C6D6AC",
"2. c #C8EBAF",
"3. c #EEFEA6",
"4. c #F3FFA3",
"5. c #F9FFA4",
"6. c #99ACC8",
"7. c #ABB4D1",
"8. c #C5B9D6",
"9. c #CEBDE1",
"0. c #8FCCCC",
"q. c #99D6C7",
"w. c #98D6D8",
"e. c #A9D9C6",
"r. c #B4DBC9",
"t. c #B1C7D1",
"y. c #A8DBD7",
"u. c #B7D8D7",
"i. c #9CE5C2",
"p. c #9FF1C5",
"a. c #A4E4C4",
"s. c #A4EBC3",
"d. c #ABECC4",
"f. c #A8E6C9",
"g. c #ABECCB",
"h. c #B7E9C8",
"j. c #A4F2C3",
"k. c #ACF4C4",
"l. c #ABF9C6",
"z. c #ABF6C9",
"x. c #B2F4C4",
"c. c #BBF5C6",
"v. c #B4FAC5",
"b. c #B6F7C8",
"n. c #BBF4CC",
"m. c #B4FBCA",
"M. c #BCFCCB",
"N. c #AEECD1",
"B. c #B9E6D4",
"V. c #B9F7D5",
"C. c #92D6E3",
"Z. c #B3CEE9",
"A. c #A9DBE6",
"S. c #B8DBE6",
"D. c #B8DAF9",
"F. c #9AE3EF",
"G. c #AEE3E7",
"H. c #BBE5E8",
"J. c #BAF8E7",
"K. c #A9E4F9",
"L. c #B8E6FA",
"P. c #BCF2F9",
"I. c #C7D9CD",
"U. c #D7CCDB",
"Y. c #C7DBD6",
"T. c #D8D9DA",
"R. c #E2D8DB",
"E. c #C8E9C8",
"W. c #D9E4CC",
"Q. c #D2EDCD",
"!. c #C2F5C6",
"~. c #C4F5CA",
"^. c #CBF5CC",
"/. c #C3FCCB",
"(. c #CAFBCC",
"). c #D5F8CC",
"_. c #DAFBCD",
"`. c #C8E7D9",
"'. c #D6E8D8",
"]. c #CDF4D3",
"[. c #C4FDD2",
"{. c #CDFBD4",
"}. c #C6F6D8",
"|. c #D4F4D5",
" X c #D3FAD4",
".X c #D7F8D7",
"XX c #DDFCD3",
"oX c #D5F3DB",
"OX c #DAF4DC",
"+X c #DAFADC",
"@X c #E1FBCD",
"#X c #E8FCD7",
"$X c #F2FFD5",
"%X c #F3FDDC",
"&X c #FDFEDC",
"*X c #CBCEE9",
"=X c #DBC7E7",
"-X c #DAD8E5",
";X c #CDCAF3",
":X c #CADAFA",
">X c #D9D9F6",
",X c #E1CBE5",
"<X c #E6D8E5",
"1X c #EBDCEC",
"2X c #F5DBEA",
"3X c #F3DEEC",
"4X c #E5DBF6",
"5X c #EBDCF3",
"6X c #F3DEF1",
"7X c #C7E8E6",
"8X c #D8E9E5",
"9X c #C7F6E8",
"0X c #DEF5E4",
"qX c #DDF9E2",
"wX c #D6F6EA",
"eX c #C7E8FB",
"rX c #D9E6F8",
"tX c #CCF6F6",
"yX c #DBFAF4",
"uX c #D9F6F9",
"iX c #E6E6E7",
"pX c #E3ECE3",
"aX c #ECE4EC",
"sX c #E5EBEA",
"dX c #EBEBED",
"fX c #F3E2ED",
"gX c #F5EBEE",
"hX c #FBE8EE",
"jX c #E2F9E5",
"kX c #E5F7E8",
"lX c #E4F4EB",
"zX c #EAF3EE",
"xX c #FEFFE4",
"cX c #F8FAEA",
"vX c #E8E7F7",
"bX c #EDEBF3",
"nX c #F4E4F3",
"mX c #F4ECF3",
"MX c #FAECF3",
"NX c #F8E6F8",
"BX c #F5ECFB",
"VX c #FCECFB",
"CX c #ECF4F3",
"ZX c #E4FAF3",
"AX c #ECF4FB",
"SX c #E7F8F8",
"DX c #F2F2F5",
"FX c #FCF3F5",
"GX c #F3FBF4",
"HX c #FDFBF5",
"JX c #F4F5FA",
"KX c #FCF4FB",
"LX c #F5FBFC",
"PX c #FDFDFD",
/* pixels */
"{.M.M.M.v.k.d.' / f. X&XxXHXxXxX@X X/.XX#XXX X{./.c.c.d.c.c.c./.}./.n.}.wX9XtXPXHXPXPXPXPXPXPXSXJ.V.z.n.d.d.s.i./ / ` a.s.] E g ",
"(.M.M./.v.[ k.e.q.f.c.kXxXxXHXxX@X)./.XX#XXX X{.M.c.c.[ h.n.!.~.{.[.M..XwXtXwXHXPXHXHXPXPXPXPXPXyXV.n.g.b.k.d.p.i./ / ' ( f h c ",
"[.M./.M.x.d.g./ d.V.f.{.xXxXxXxX#X_./._.#XXX(..X!.c.c.[ n.!.~.(.].[.n.9XwXtXyXHXPXHXPXHXPXPXPXPXPXlXV.d.h.g.s.s.q.` / R j f c b ",
"[.M./.[ k.x.d./ b.[.k.}.cXxXxXxX$X_.(.(.@X_.^.+X^.~.c.h.n.~.~.(.{.}.~.}.yXwXZXHXHXHXHXPXPXPXPXPXPXPX[.g.d.b.k.i./ R j z c b $.$.",
"M./.!.] l.M.a.q.[.{.qXPXjX&XxXxX%X)./.(.@X_.{..X(.!.c.[ ~.~.(.).{.{.V.{.yXwXGXHXHXHXPXHXPXPXPXPXPXyXg.x.d.V.] ] Q v v +.o.o.:.%.",
"M.[.M.v.v.z.i.f.[.ZXPXPXZX$XxXxX#XXX/.(._.).(.XX^.^.E.[ ~.^.Q. X|.{.].wXyXwXGXHXHXHXHXHXPXPXPXPXPXm.f.d.d.' |  .o.o.+.+.o.-.:.$.",
"[.[.v.v.v.z.a.g.LXPXPXPXZX#XxXxX#XXX!.!.XX_.(.+X!.^.E.[ }.^. X X X}.~.wXZXwXcXHXHXHXPXHXHXPXPXPX9Xp.d.s.d.O.+.-.+.+.-.+.+.;.*.$.",
"/.M.v.v.m.j.N.SXPXPXPXPXZX#XxXxXxXXX!.!._._.).+X^.^.E.h.^. X X X.XqX].qXZXwXyXHXHXHXHXHXHXHXPXPX}.p.a.a.2.-.-.-.;.-.-.o.-.:.%.&.",
"[.M.v.v.m.f.9XPXPXPXPXPXPX%X&XxX%XXX!.2.XX X^.+X{.].E.E.]. X XOX+X.X|.wXZXqXyXHXHXGXGXcXHXPXPXPX}.j.' ] +.;.;.3.;.-.-.+.-.:.*.&.",
"(.v.v.M.m.s.tXLXPXPXPXPXPXkX&XxX%X@X!.h.XX_.^.qX~.{.E.2.]. X.X+XqXoX].qXZXyXGXGXjX9XJ.J.GXPXPXPXV.i.a.] ;.;.3.3.3.-.-.-.:.*.&.&.",
"/.m.v.M.M.q.9XLXPXPXPXPXPXcX&XxX%XXXE.E.XX).^.#X^.|.E.E.|..X.X+XoXqXoX0XZXZXcXwX9XyXyX9X9XPXPXPXyX` i.] 3.3.4.4.;.;.;.-.;.=.&.=.",
"/.v.l.M.M./ y.LXPXPXPXPXPX%X&X&X%XXX2.h.@X_.E.+X].|.Q.E..X.XOX+XqXqXoXlXZXZXqXwXlXHXPXZXJ.LXPXPXPXN.i.2.4.4.5.4.3.;.;.-.:.=.=.=.",
"/.] m.M.M.a.q.SXPXPXPXPXLX%X&X&X%X@X2.E.@XQ.^.+X].OXQ.E.OX+X+XqXjXqXOXsXlXwXwXZXFXHXHXGXtXGXPXPXPXPXq.] 4.4.4.4.<.,.-.,.:.>.=.=.",
"[.l.M.M.M.a.^ `.PXPXPXPXqX#X&XxX%X@Xh.E.XX).^.jX].'.|.Q.OXOXjX0XjX0XOXkXjX9XyXHXcXJ.CXHXZXHXPXPXPXPXZX).3.4.3.5.5.<.;.,.<.=.=.>.",
"M.x.k./.n.f.s.}.PXPXPXPX+X$X&X&X%XQ.[ E.XX|.E.qX|.OX|.W.0XqXqXjXjXjX0XpXyXqXSXGXoX9X9XCXyXHXPXPXPXPXPXPX$X,.3.5.5.<.;.,.>.>.=.>.",
"/.l.k./.b.a.j.+XPXPXPXGXXX%X%X&X#X_.r.E..XQ.Q.0X|.OXQ.Q.jX0XjXkXlXlX0XpXjXyXPXlX8XuXyXlXyXFXPXPXPXPXPXPX3.,.4.5.5.<.;.,.>.=.>.=.",
"M.z.v.M.b.' d. XPXPXPXqX).#X$X&X#XQ.E.E.|.|.Q.jXoX0XoXQ.pXjXkXkXZXlX'.pXZXZXPXlXgXyXtXyXZXFXPXPXPXPXPXZX+.4.4.5.<.<.;.<.=.=.>.=.",
"M.m.v./.M.a.n.(.GXPXGX}.).#X$X%X@XQ.r.E.|.Q.Q.kXoX0X'.W.pXjXkXkXkXCXpX#XSXGXHXCXcXyXyX7XlXHXPXPXPXPXLX[ X.4.;.5.<.>.;.>.=.=.>.=.",
"m.m.m.M.M.a.b.(.GXGXf.c.(.XX#XcX@XQ.I.Q.oXQ.W.jX'.0XpXW.jXlXkXZXZXZXpXpXSXGXHXAXmXLXSXwXSXFXPXPXPXPXN.' ..#.:.<.<.,.:.>.=.>.>.=.",
"M.m.z.M.M.' h.!.8Xy.[ b./.@X#X#X#XE.I.^.OX'.Q.lXoX#XpXW.kXkXCXlXkXCXsXpXAXLXHXJXsXZXZXwXJXFXPXPXGXN.p.' l ..%.<.<.*.:.*.>.=.=.=.",
"b.m.v.M./.' h.(.) ^ r.h.~.XX#X#X'.Q.E.Q.'.'.'.kX8X0X0XW.zXZXzXzXCXZXpXiXSXPXPXFXDXAXSXDXFXFXPX`.p.p.j.) { b &.=.*.%.%.=.=.>.>.=.",
"m.v.m.v.M.k.[ /.h.0.r.h.~.XXOX.X@XE.W.'.OX'.W.sX'.kX8XR.zXlXCXCXCXGXiXdXAXGXHXFXhXHXHXhXFXFX8X` l.z.i.' z b $.&.*.#.%.*.>.>.>.=.",
"M.m.x.m.M.x.d./.h./ f.h.^..X X|.'.E.'.Q.'.'.T.0X8XlXpXR.zXzXzXzXCXCXiXfXJXKXHXFXhXHXKXhXFXMXV.l.l.s.q.T z b &.=.@.@.%.*.>.>.>.=.",
"M.m.m.m./.x.[ (.^./ r.h.^.^.^.|.Q.T.'.'.8XT.'.lXOXpXpXR.zXCXCXDXCXGXaXaXJXKXPXFXhXPXFXFXFXdXn.z.j.i./ h z b &.=.@...%.*.>.>.=.=.",
"m.l.z.b.M.M.c./.^.e.e.h.n.`.^.'.'.I.R.'.8X'.T.sX0XdXpXR.zXmXDXCXCXJXaXaXJXFXHXKXhXKXKXhXMX'.n.g.i.e.( T z @.&.=.b x %.*.=.>.=.>.",
"M.m.z.m.M.!.b.!.^.h.e.r.h.E.B.`.`.I.'.'.pX'.R.dX8XdXiXR.dXCXgXCXDXDX3XaXJXJXKXMXhXKXKXMXfX`.n.s.f./ d z z @.=.=.@.x $.%.>.>.>.=.",
"M.v.z.v.M.M.M.!.^.N.e.r.u.B.g.`.'.I.T.U.8XT.T.dXpXiXdXR.mXDXmXmXzXJXaX3XJXKXHXMX2XKXFXhXY.`.h.a.f.) T z x @.&.=.b z #.*.>.>.>.=.",
"M.m.l.z.M.M.M.!.^.E.N.f.e.V.V.`.Y.U.'.T.8X<XR.bXiXdXfX<XdXgXmXmXmXmX3X2XAXmXPXMXhXFXFXaXI.'.B.e.g.' T { { @.=.>.@.z #.&.=.=.=.=.",
"M.m.z.z.m.M.v.!.(.E.N.r.B.V.u.'.T.U.R.-XsXR.R.bXsXaXaXR.hXmXgXgXmXDX3X3XDXmXKXFX2XKXKXU.I.T.B.f.g.( Q j { @.=.=.@.l #.&.=.>.=.=.",
"V.m.l.z.v.M.M.M.(.}.N.B.V.y.B.`.T.U.T.<XiXiXR.bXiXaX2X<XgXnXgXmXmXmX2X6XmXCXKXMX3XzX8XT.Y.`.I.f.e.R Q { } #.=.=...z o.$.&.=.>.&.",
"[.m.l.l.m.M.M.!./.B.V.J.u.r.`.'.T.U.T.T.iX<X<XbXsXaXaX2XhXmXhXgXgXmX2X3XbXmXFXhX1X0X0XT.T.T.I.g./ R X.E } $.=.>.@.l #.*.&.=.=.=.",
"[.m.l.j.l.m.b.M.!.h.J.B.e.y.B.Y.T.U.-X<XsX<X<XaXiX5XaX<XfXmXhXgXhXDX2X3XbXdXKXaX1XdX8XT.Y.T.u.B.) R O.E } #.=.>...v o.*.&.=.=.&.",
"[.m.j.l.l.k.M.M.b.N.N.B.e.u.B.`.-XU.<X<XdX<X<XbXdX1XfX<XFXgXgXgXmXMX2X3XbXgXDXaX<XkXpXR.U.T.Y.h.) R O.E } @.=.=.#.j ..%.&.=.=.&.",
"V.m.l.' z.v.M.c.a.N.B.r.u.t.`.T.R.U.-X<XdX1X<XnXaX1X3X2XgXhXgXMXgXmX2XhXnXgXDXaX<XkXpXR.U.-XY.f.e.W Q E } ..&.=.*.l ..*.*.&.=.=.",
"m.m.z.s.z.j.M.s.j.N.u.r.u.t.B.8X-X=X=X1XdXaX1XmXbX5XfX3XMXMXgXMXgXDX2X2XfXmXDXaX1XdXpX,XU.<XY.B.) K Q O.{ ..*.=.%.l v $.*.&.=.&.",
"l.V.l.j.j.l.j.d.j.f.B.u.u.t.u.-X<X=X,XaXmX1X3XmXaX5X2XfXgXDXgXMXFXFXfXfX6XmXJXgX1XzXdXR.U.<X`.B.r.( Q Q E { #.*.#.{ z %.#.%.=.*.",
"l.m.l.p.j.j.k.k.g.N.B.u.`.t.u.8XT.,X,X5XCXaX2XmXmX4X6X3XMXmXVXDXMXKXfX3X6XNXJXfX1XzXdXR.=X<X`.B.B.r.W Q R { #.*.$. .z ..@.$.=.%.",
"' l.l.' ` j.j.k.s.f.B.Y.'.u.t.8X<X,X,X5XDXaX1XJXbX5X4XhXmXFXKXKXFXKXfXhX5XBXDXDX2XzXgX,X,X<X8X`.B.`.( Q R j o.%.%...l b b $.=.*.",
"' l.l.p.i.p.j.j.' a.u.`.8XY.t.8X<X,X=X5XmXfX3XJXmX4X5XhXDXFXKXKXJXKXhX6X5XBXJXgXfXDXdX,X<X1X8X`.`.}.( W Q k v %.#...l b b b *.#.",
"_ _ l.` ` ' ` j.s.e.B.`.`.`.Z.-X<X4X=X3XJXmXfXJXBX4X4XhXKXJXKXKXJXKXmXnX4XDXGXgX2XDXzX,X<X<X8X`.`..X`.) U f R o.#.@.b v b o.$.$.",
"_ ' _ _ _ ` ` s.' d.B.`.Y.8Xt.8X5X1X=X5XLXmXnXLXJX4X4XMXKXKXJXKXKXHXMXnX4XJXLXmX3XJXgX=X<X1X8X`.7XoX'.wX) Y j X.o...v l z ..#.$.",
"_ _ _ _ _ _ ` ` s.s.N.`.B.8XS.8X1X4X=X5XLXnXhXJXJXrX>XVXKXLXPXKXLXLXMXnX>XCXLXMXnXJXDX=X4X1XiX`.oXoX`.9XV.[ g E X.X.v z z b $.$.",
"_ _ _ _ _ ~ / ` ' f.g.Y.7X8Xu.-X1X5X;X,XGXmXnXJXAX4X4XMXLXHXPXJXJXPXVX5X>XvXJXJX3XJXmX=X4X3XiX7X7XoX7XV.J.V.T h X.X. .h z v ..$.",
"U ~ _ ~ ~ ! ^ ^ ` ' y.B.Z.8XS.8XaX4X;X4XPXBXNXPXJX>X>XFXKXPXJXPXPXPXFX5X>XJXLXNXnXKXmX;X5X6XsXY.8X7XH.V.9XtX] j X... .h h z b $.",
"F U F ~ H ! ~ ^ / ` a.B.u.8XS.8XnX5X>X;XPXNXMXPXJXrX>XVXJXLXPXPXPXPXKX5X:XJXLXKXfXPXvX;X5XnXdX7XwX7X7XJ.9XSX2.j X.X...j h z x #.",
"F F ~ H ~ H G ! ^ ` a.y.Z.7X7XeXmX5X>X;XPXJXNXPXLXrX:XVXPXPXPXPXPXLXKX4X:XJXPXKXnXPXvX;X6XNXaX7XwX`.7X7XtXPX} E ..X.| j h z x b ",
"i F F F G G A G ! ^ / y.u.H.7X*XVXvX>X;XPXBXmXPXJXrX:XKXJXPXLXPXPXLXKXvX:XJXPXJXnXPXvX;XnXnXbXS.wXH.9XJ.yXPX1.j | X...l h h z b ",
"u N N F F F Z A G ~ / q.G.H.7XS.BXnX4XD.PXVXBXPXPXrX:XVXPXPXPXPXPXPXKX>XeXLXPXKXNXPXrX;X5X6X-XS.wXH.7XP.GXPX1.h  .X.X.v d h j b ",
"u u m V N F C Z A ! ^ 0.y.B.7XA.BXVX4XD.JXVXVXPXLXrX:XKXPXPXPXPXPXPXJX>XeXLXPXKXNXPXrX;X6XNX8.I Y.7XP.wXPXPX1.j X.| X.v j g z v ",
"t i u u C C C V C G ! ^ A.A.7XD.vXNXvXD.LXBXVXPXLXuXD.VXPXPXPXPXPXPXKXrXeXLXPXKXNXPXeX;XNXVXY.t.P P P.JXPXPX2.j | |  . .j d h z ",
"- - t m = = N V V Z ! 0.w.C.7XA.vXVXvXD.AXKXBXPXJXAXL.BXPXPXPXPXPXPXKXrXeXAXPXJXNXPXeX>XBXVX6.t.1.K P.PXPXPXkXY | E | %.| h g z ",
"t - t # . * N B V V Z A q.A.H.D.vXBXBXD.SXVXVXPXLXuXL.BXPXPXPXPXPXPXPX:XeXLXKXPXNXPXL.>XBXVX7.t.7.L eXPXPXHXHX} E X.f # g v d h ",
"= = O # t u m m m V V A 0.A.H.G.>XVXvXD.uXKXVXPXLXAXL.BXPXPXPXPXPXPXKXeXeXLXPXKXVXPXD.rXNXBXD.tXF.F.P.PXPXPXHX$XQ r   %  .| f d ",
"% > @ t t t y n m V V A J C.G.H.:XVXBXD.uXKXNXPXPXuXK.BXPXPXPXPXPXPXKXD.eXPXPXPXNXLXL.vXNXvXL.eXF.w.H.PXPX1.K fX% . % { | | h d ",
"4 $ * & . * t y u n n Z S w.w.H.D.nXnXL.eXKXNXPXLXSXK.AXPXPXPXPXPXPXPXL.tXJXPXKXVXSXK.vXVX>XD.eXF.C.L.PXPXi = K . # O.g j | R g ",
"3 X $ X & * t t t n n V S C.0.S.D.NXBXeXeXVXVXPXLXSXK.vXPXPXPXPXPXPXKXD.tXLXPXKXVXSXL.BXKX>XZ.eXF.F.P.HXKX#   @ O r O.E T E j g ",
"$ $ # & * * * y t & n M S C.C.Z.Z.vXBXrXL.JXBXPXLXSXK.AXPXPXPXPXPXPXPXL.uXPXPXKXVXuXL.AXKX:XS.P.F.J G.LXK . . , + Y E i r g j E ",
"3 4 & & & & * e # O * n M C.A.:XZ.BXBXrXP.PXKXPXPXSXL.AXPXPXPXPXPXPXKXL.uXPXJXKXVXuXeXBXJXrX:XL.6.n P.U.@ , O , X i + . r T T r ",
"> . & 2 . . * . : 7 & y M w.7XrXeXAXJXvXtXKXKXPXPXAXeXAXPXPXPXPXPXPXPXeXSXPXPXPXVXuXeXBXKXrXrXA.C.C.w.e ; ; ; , . ; o 5 f s @ ; ",
"o o : < o : o o 8 8 e S i.y.wXuXrXJXJXJXuXPXJXPXPXPXSXLXPXPXPXPXPXPXPXAXAXPXPXPXKXSXSXKXPXuXrXH.C.S M i 8 1 1 , 1 @ O + ; O ; 8 ",
": 7 7 + < < : < 9 9 e H q.B.yXlXAXSXPXJXSXPXPXPXPXLXSXPXPXPXPXPXPXPXPXAXPXPXPXPXKXAXLXPXJXAXSX8XS.e.0.N 6 , ; + > , 8 4 1 1 ; , ",
"7 7 < 7 0 : : < 9 9 0 D 0.V.wXwXCXSXJXPXAXLXPXPXPXPXSXLXPXPXPXPXPXPXHXAXPXPXPXPXKXLXLXPXLXAXZXwX7Xq.S p 6 O ; 1 q q 4 2 , , ; , ",
"w a a 9 : : < 7 9 9 8 D H i.y.y.:X-XrXiXSXrXrXZXuXvXvXvXCXvXrXvXbXAXvXvXvXnXvXvX,X5X-X;X*X7Xy.w.q.H t 2 4 > O 4 q p q , @ 1 8 1 ",
"a w w 0 7 < w 9 a a 0 a p u D H H L 6.0.y.6.6.7.7.7.7.7.t.7.*X=X9.9.*X8.=X9.7.8.8.6.6.6.L A F D u i 2     X @ + @ $ 4 1 ; $ 4 p "
};
