/* XPM */
static char *result[] = {
/* columns rows colors chars-per-pixel */
"64 64 62 1 ",
"  c #010101",
". c #331111",
"X c #222200",
"o c #332200",
"O c #332211",
"+ c #111122",
"@ c #661111",
"# c #442211",
"$ c #443311",
"% c #443322",
"& c #553322",
"* c #554411",
"= c #554422",
"- c #444433",
"; c #554433",
": c #664422",
"> c #665522",
", c #665533",
"< c #776633",
"1 c #555544",
"2 c #555555",
"3 c #664444",
"4 c #776644",
"5 c #776666",
"6 c #887733",
"7 c #994444",
"8 c #885544",
"9 c #BB5555",
"0 c #886644",
"q c #997744",
"w c #886655",
"e c #997755",
"r c #887766",
"t c #DD7777",
"y c #998855",
"u c #998866",
"i c #888877",
"p c #AA8866",
"a c #AA8877",
"s c #CC9977",
"d c #888888",
"f c #AA8888",
"g c #BB9988",
"h c #BBAA99",
"j c #AAAAAA",
"k c #BBBBAA",
"l c #FF9999",
"z c #CCAA88",
"x c #CCBB88",
"c c #CCAA99",
"v c #FFBBBB",
"b c #EECCAA",
"n c #EEDDAA",
"m c gray80",
"M c #FFDDCC",
"N c #FFEEDD",
"B c #EEEEEE",
"V c #FFEEEE",
"C c #FFFFEE",
"Z c #EEEEFF",
"A c white",
"S c None",
/* pixels */
"SSSSSSSSSSSSSSSSSSSSSSSSSSSS        SSSSSSSSSSSSSSSSSSSSSSSSSSSS",
"SSSSSSSSSSSSSSSSSSSSSSSSS   pppxxxxx  SSSSSSSSSSSSSSSSSSSSSSSSSS",
"SSSSSSSSSSSSSSSSSSSSSSS  ppppxxNNNNxxx SSSSSSSSSSSSSSSSSSSSSSSSS",
"SSSSSSSSSSSSSSSSSSSSSS <pppxxnnnnnNNNxx   SSSSSSSSSSSSSSSSSSSSSS",
"SSSSSSSSSSSSSSSSSSSSS <pppxxnnxxnnnnNNxxxx   SSSSSSSSSSSSSSSSSSS",
"SSSSSSSSSSSSSSSSSSSSS pppxxnnxnnnNNNNNpxxxxxx  SSSSSSSSSSSSSSSSS",
"SSSSSSSSSSSSSSSSSSSS <pppxnnxnnnNNNNNNNpxxnnnnn SSSSSSSSSSSSSSSS",
"SSSSSSSSSSSSSSSSSSSS pppxxnxnnnNNnnnNNxqxnnNNNnn SSSSSSSSSSSSSSS",
"SSSSSSSSSSSSSSSSSSS <pppxnxxnnnNnnnpppnqpxxxNNNNn SSSSSSSSSSSSSS",
"SSSSSSSSSSSSSSSSSSS <pppxnxnnnNnnnp***6pppppxNNNN SSSSSSSSSSSSSS",
"SSSSSSSSSSSSSSSSSS <<pppxxxnnnNnnn>>>>*ppnNNNxNNNN SSSSSSSSSSSSS",
"SSSSSSSSSSSSSSSSSS <pppxxxnnnnnnnx>>>>*pxxxxnNNNNN SSSSSSSSSSSSS",
"SSSSSSSSSSSSSSSSS <<pppxxxnxnnnnnx>>>>*x**qxxnNNnNN SSSSSSSSSSSS",
"SSSSSSSSSSSSSSSSS <ppppxxxnxnnnnxx>>>>*>>>*qxnnNnNN SSSSSSSSSSSS",
"SSSSSSSSSSSSSSSS <<pppxxxnxnnnnnxx>ppp=>>>>*xxnnNxN SSSSSSSSSSSS",
"SSSSSSSSSSSSSSSS <ppppxxxnxnnnnnxx>bbbbp>>>*xxnnNxnN SSSSSSSSSSS",
"SSSSSSSSSSSSSSS <ppppxxxnxnnnnnxxx>bbbbbbp>*xxnnNxnN SSSSSSSSSSS",
"SSSSSSSSSSSSS pppppxxxxxxnnnnnxxnxybu:0ecbp>xnnnnpxn SSSSSSSSSSS",
"SSSSSSSSSSS  ppppxxpxxxxnnnnnnxnnybbNNNNNN>pxnnnxpxn SSSSSSSSSSS",
"SSSSSSSSSS pppppxppxxxxnnnnnnnnnxybNNNNNNN>pxnnnxpxn SSSSSSSSSSS",
"SSSSSSSSS ppp<<pppxxxxnnnnnnnxnnxybNNNNNNN>pxnnxpxxx SSSSSSSSSSS",
"SSSSSSSSS p<<ppppxxxnnnnnnnnxnnxybNbooo4gN>pxxqqpxxx SSSSSSSSSSS",
"SSSSSSSS p<<pppxxnnnnnnnnnxxxnnxybN3oooo4gb>xqNN%px SSSSSSSSSSSS",
"SSSSSSSS <<<ppxnnnnNnnnnxxxxnnxybNNVZ AZVNN>pqNNN%x SSSSSSSSSSSS",
"SSSSSSSS <<ppxnnNNNnnnxxxxxnxxybNNNNA dZNNN>pqssN%p SSSSSSSSSSSS",
"SSSSSSSS <<ppxnNNnnnxxxxxnnx>>bNNNNNA  ACCNzqbbNN%p SSSSSSSSSSSS",
"SSSSSSSSS <ppxnNnnxpxnnnnxp%%bNNNNNNA  ACCNbqbbNN=p SSSSSSSSSSSS",
"SSSSSSSSS <<pxxNnxpxxxxx%%%  NNNNNNNA  ACCNNaNNN%pn SSSSSSSSSSSS",
"SSSSSSSSSS <ppxxnxpxx%%%&ww%%NNNNNNNbrrACCNNN7l%pnnN SSSSSSSSSSS",
"SSSSSSSSSSS <ppxxxpx%***%zzbNNNNNNNNNNCCCCNNN77ppnnN SSSSSSSSSSS",
"SSSSSSSSSSSS ppppxxp%***%wzbNNNNNNNNNCCCCNN%%%pnpxnNN SSSSSSSSSS",
"SSSSSSSSSSSSS  ppppxp%***%zzbNNVNNNNNCCNNb%;;;pnxpnnN SSSSSSSSSS",
"SSSSSSSSSSSSSSS  <pppp<***%pzzb8gVNNNNNbw%;;;;;pnpnnNN SSSSSSSSS",
"SSSSSSSSSSSSSSSSS <<ppp<***%,zbbbbbbbbw%%%;;<;;pnpnnNN SSSSSSSSS",
"SSSSSSSSSSSSSSSSS <<<<pp<**%5%%%%%%%%%@kkB%;;<;pnpnnNN SSSSSSSSS",
"SSSSSSSSSSSSSSSS p<<<<<pp<%555&kkkkkfl@kBAB%;;<pxpnnNN SSSSSSSSS",
"SSSSSSSSSSSSSSSS pp<<<<<pp%5j7lhBBBhl@5kBAAB%<<ppxnNN SSSSSSSSSS",
"SSSSSSSSSSSSSS  xpxp<<<<<p%jj7lllllll@5kBBAA%<>>>> NN SSSSSSSSSS",
"SSSSSSSSSSSS  pxxpxp<<<<<p%jj7777777t775kkBA%>BAAAA  SSSSSSSSSSS",
"SSSSSSSSSSS ppxxpxxp<<<<<p<%j@@@@@77tt@%%15B%kBBAAA SSSSSSSSSSSS",
"SSSSSSSSSS ppxxxxxxp<p<<<<%s%@7777tttl7%MMM%ikBBBAAA SSSSSSSSSSS",
"SSSSSSSSSS pxxpxxxxp<p<<<%sss.777tllll9%MMM%ikBBBAAA SSSSSSSSSSS",
"SSSSSSSSSS pxpxxxxp<pp<<%sbs%.77ttll%%%bMMM%iikBBAAA SSSSSSSSSSS",
"SSSSSSSSSS pxpxxxxp<p<<%sbbb%B%777%%k%bMMM%%%ikBBAAA SSSSSSSSSSS",
"SSSSSSSSSS pppxxxpppp<%sbbb%BBB%%%kk%bMMMM%A%%kk22iA SSSSSSSSSSS",
"SSSSSSSSSSS ppxxxpppp<%bbMM%BBBBBkk%bMMMM%AAA%$2iik SSSSSSSSSSSS",
"SSSSSSS SSSSS pxxppp%sbbMMMM%BBkkk%bMMMMM%AAAA9vv#i SSSSSSSSSSSS",
"SSSSSSS   SS pXppxp%%sbbMMMM%AAkk%sbMMMMMM%AAAA9vv#i SSSSSSSSSSS",
"SSSSSSSS p  pp$<pp%k%sbbMMMM%AAkk%sbMMMMMM%AAAA9vv#kk SSSSSSSSSS",
"SSSSSSSS ppp<O*<<p%k+ssbMMMM%AAkk%sbMMMMMM%AAAA9lvv#kB SSSSSSSSS",
"SSSSSSSSS p<<<<<< kkk-sssbbs%AAkk%sbbMMMM%BAAAA9llvv#kB SSSSSSSS",
"SSSSSSSSSS ppp<< 7kkkk%ssss%AAAkk%ssbbbbb%BAAAA9llvv#kBB SSSSSSS",
"SSSSSSSSSSS   pp 7kkkkk%%%%AAAABkk%sssssOBAAAAA9lllvv#kB SSSSSSS",
"SSSSSSSSSSSSSS   7kkkmmmmBAAAAAABkk%%%&%BAAAAB9llllvv#% SSSSSSSS",
"SSSSSSSSSSSSSSS 97kkkmmmmBAAAAAAAAAAAAAAAAAABk9vllllvv SSSSSSSSS",
"SSSSSSSSSSSSSSS 977kkmmmmmBAAAAAAAAAAAAAAABBk9tvvvllvv SSSSSSSSS",
"SSSSSSSSSSSSSSS 977kkkmmmmmBBAAAAAAAAAAABBBk9ttvvvvlvvt SSSSSSSS",
"SSSSSSSSSSSSSS 99777kkkmmmmmmBBAAAAAABBBBkkt9tlvvvvvvvt SSSSSSSS",
"SSSSSSSSSSSSSS 997777kkkkkmmmmmBBBBBBBkkk99lttlvvvvvvvt SSSSSSSS",
"SSSSSSSSSSSSSS 997777777kkkkkkkkkkkk99999tvvttlvvvvvvvvt SSSSSSS",
"SSSSSSSSSSSSSS 997777777777777777777ttvvvvvvvtlvvvvvvvvt SSSSSSS",
"SSSSSSSSSSSSSS 9997779999999999999ttvvvvvvvvvvvvvvvvvvvt SSSSSSS",
"SSSSSSSSSSSSSS 999979999999999999ttvvvvvvvvvvvvvvvvvvvvt SSSSSSS",
"SSSSSSSSSSSSSS                                           SSSSSSS"
};
