/* XPM */
static char *result[] = {
/* columns rows colors chars-per-pixel */
"64 64 37 1 ",
"  c #010101",
". c #111111",
"X c #221122",
"o c #222222",
"O c #553300",
"+ c #553322",
"@ c #663322",
"# c #554422",
"$ c #774433",
"% c #331144",
"& c #222244",
"* c #333355",
"= c #551166",
"- c #554477",
"; c #555577",
": c #CC2200",
"> c #FF2200",
", c #996600",
"< c #FF5533",
"1 c #AA6644",
"2 c #AA7755",
"3 c #BB9900",
"4 c #DDBB00",
"5 c #FFDD22",
"6 c #DD8855",
"7 c #DD9966",
"8 c #EEAA77",
"9 c #FFEE66",
"0 c #666688",
"q c #776699",
"w c #9988BB",
"e c #FFCC99",
"r c #BBAACC",
"t c #FFEECC",
"y c #DDDDFF",
"u c white",
"i c None",
/* pixels */
"iiiiiiiiiiiiiiiiiiiiiiiiiiiii         iiiiiiiiiiiiiiiiiiiiiiiiii",
"iiiiiiiiiiiiiiiiiiiiiiiiii   qqqqqqqqq   iiiiiiiiiiiiiiiiiiiiiii",
"iiiiiiiiiiiiiiiiiiiiiiii  qqqwwwqqqqqwwww  iiiiiiiiiiiiiiiiiiiii",
"iiiiiiiiiiiiiiiiiiiii  qqqwwww0wwwwqwwwqqwww iiiiiiiiiiiiiiiiiii",
"iiiiiiiiiiiiiiiiiiii qqqwwwwwww0qwwwwwwqqwww iiiiiiiiiiiiiiiiiii",
"iiiiiiiiiiiiiiiiiii qqwwwwwwwwww0qwwwwwwqqwww iiiiiiiiiiiiiiiiii",
"iiiiiiiiiiiiiiiii qqwwwwwwqqqwwwww-qqqqwwqqqww iiiiiiiiiiiiiiiii",
"iiiiiiiiiiiiiii qwwwwwwwwqqqqqqqq----qqqq--q----qq iiiiiiiiiiiii",
"iiiiiiiiiiiiii qwwwwwwwwwqqqqqqq---------qq-q-----q iiiiiiiiiiii",
"iiiiiiiiiiiiii qqqqqqwwwwwqqqqqq--------------q-&---- iiiiiiiiii",
"iiiiiiiiiiiii qqqqqqqqqqwwwwqqqq---------------q-&---- iiiiiiiii",
"iiiiiiiiiiiii --   qqqqqqqqqqqqqq---------------q-&-- iiiiiiiiii",
"iiiiiiiiiiiii -      -qqqqqqqqqqqq------  -------q-& iiiiiiiiiii",
"iiiiiiiiiiiii         -----qqqqqqqq---    --------- iiiiiiiiiiii",
"iiiiiiiiiiiii          &&----qqqq---     -- -------& iiiiiiiiiii",
"iiiiiiiiiiiiii  11      8111&&&&&            ------& iiiiiiiiiii",
"iiiiiiiiiiiiiii 8 yyy    888111          &&&-------& iiiiiiiiiii",
"iiiiiiiiiiiiiii   u  y   8888         88877 &&&---&& iiiiiiiiiii",
"iiiiiiiiiiiiii   u uu y  8888      11111187   &&&&&&- iiiiiiiiii",
"iiiiiiiiiiiiii  eu u  uy 88888   81eee8888877  eee&--- iiiiiiiii",
"iiiiiiiiiiiiii  eu    uu88eeee888          7  8e88e&-- iiiiiiiii",
"iiiiiiiiiiiii   eu  - uueeettee8        eee7  8811e&-& iiiiiiiii",
"iiiiiiiiiiii    eu -q uutttttttteeeeeeee8877  1188e&&&iiiiiiiiii",
"iiiiiiiiiii     eu   uuttttteeeettteeee88777  1888e&&- iiiiiiiii",
"iiiiiiiiii      ettttttttteeee      88888777  181e7&-- iiiiiiiii",
"iiiiiiiiiiiii    etttteeee       oo   88877   11e77&-- iiiiiiiii",
"iiiiiiiiiiii     eeee             oo   777   eee77&&-- iiiiiiiii",
"iiiiiiiiiii  oo   e                  o       8877&&&-- iiiiiiiii",
"iiiiiiiiiii ooo       o      ttt8    o        88&&&&-- iiiiiiiii",
"iiiiiiiiii  ooooo   o      tt118                &&&--& iiiiiiiii",
"iiiiiiiiii  o oo  oo     tt1188                 &&&--& iiiiiiiii",
"iiiiiiiiii     ooo     tt1188                6e8  &--& iiiiiiiii",
"iiiiiiiiii i    oo      888                 86ee86 &-& iiiiiiiii",
"iiiiiiiiiiii    o   o                      6ee6ee8 &&  iiiiiiiii",
"iiiiiiiiiiii  i     oo        o  o       6ee68ee886 iiiiiiiiiiii",
"iiiiiiiiiiii ii     oooo     oooooo      86eeee8886 iiiiiiiiiiii",
"iiiiiiiiiiiiiiiii    o      o ooo  o     e86ee88866 iiiiiiiiiiii",
"iiiiiiiiiiiiiiiii    o  o   o oo    o    8eee8886661  iiiiiiiiii",
"iiiiiiiiiiiiiiii      o oooo   o          88888666188# iiiiiiiii",
"iiiiiiiiiiiiii e#         o              && 666666#1#1# iiiiiiii",
"iiiiiiiiiii#i # #    q        ;         &&&    866#6111# iiiiiii",
"iiiiiiiiiiii# 8#8## qr q      ;;   ;   &&& 9O,, 8#6#188# iiiiiii",
"iiiiiiiiiii# ###e#8# r rrq    ;;;; ;;  &;& 5O9, 1#111### iiiiiii",
"iiiiiiiiiii e6#6#e866 rrrrqq  q;;; q;;;;;& 3O4, #81###6 iiiiiiii",
"iiiiiiiiii e#e##88666 qqqqrrrrrrrrqqq;;;; 9O9,, #1##1  iiiiiiiii",
"iiiiiiiii eee88886666 <<<<qqqqqqqqqqqqq;; 3O,,,      iiiiiiiiiii",
"iiiiiiii eee88866666 ><<>><<<<<<<<<<qqqq; 5O,99OO,, iiiiiiiiiiii",
"iiiiiii eee88666     :<>>>>>>>>>>>>>>>>:; 3O943OO,3 iiiiiiiiiiii",
"iiiiiii ee88886 iiii >><<<<>>>>:::::::::: 9O44,O,,3 iiiiiiiiiiii",
"iiiiiii 8886686 iii %::::::::>>>>>>>>>::: 3O,93O,34 iiiiiiiiiiii",
"iiiiiiii 886666 iii %>>>>>>>>>:::::::::::: O943O,3 iiiiiiiiiiiii",
"iiiiiiiii 8666 iii <%:::::::::::::%%%%%%%% O44,O4, iiiiiiiiiiiii",
"iiiiiiiiii    iiii <:%%%%%%%%%%%%%******XX O,,9O43 iiiiiiiiiiiii",
"iiiiiiiiiiiiiiiii <<:%X************;;****XX 993,O3 iiiiiiiiiiiii",
"iiiiiiiiiiiiiiiii <::%X*;;;***.***;;;****XX 943,,3 iiiiiiiiiiiii",
"iiiiiiiiiiiiiiii <<::%XX*;***XXX.*******XXXX ,,33 iiiiiiiiiiiiii",
"iiiiiiiiiiiiiiii <<::%=XX***XXXXX.*XXXXXXXXXX    iiiiiiiiiiiiiii",
"iiiiiiiiiiiiiiiii    == XXXXXXXXX  XXXXXXXXX  iiiiiiiiiiiiiiiiii",
"iiiiiiiiiiiiiiiiiiiii  i qqqXXXX ii  qqqqqq iiiiiiiiiiiiiiiiiiii",
"iiiiiiiiiiiiiiiiiiiiiiii rrqqqq iiii rrrrqq iiiiiiiiiiiiiiiiiiii",
"iiiiiiiiiiiiiiiiiiii    qqqqqq iiiii qqqqqq@ iiiiiiiiiiiiiiiiiii",
"iiiiiiiiiiiiiiiiiii 2222$$$$$++ iii 22222$$$+ iiiiiiiiiiiiiiiiii",
"iiiiiiiiiiiiiiiiiii 22$$$$$++++ iii 222$$$$$+ iiiiiiiiiiiiiiiiii",
"iiiiiiiiiiiiiiiiiii            iiii           iiiiiiiiiiiiiiiiii"
};
