/* XPM */
static char *result[] = {
/* columns rows colors chars-per-pixel */
"64 64 256 2 ",
"   c #1C0A01",
".  c #160601",
"X  c #1D1208",
"o  c #230C01",
"O  c #270C02",
"+  c #241203",
"@  c #2B1401",
"#  c #2C1A04",
"$  c #2C1B0B",
"%  c #26150B",
"&  c #331601",
"*  c #341B02",
"=  c #3B1C01",
"-  c #361B08",
";  c #2A1A12",
":  c #321D14",
">  c #310F00",
",  c #3D2203",
"<  c #35220C",
"1  c #3A230A",
"2  c #342313",
"3  c #3B2413",
"4  c #3A2818",
"5  c #2F2213",
"6  c #3C2C24",
"7  c #421D03",
"8  c #432303",
"9  c #4A2501",
"0  c #4B2B03",
"q  c #442A0C",
"w  c #4B2C0C",
"e  c #442708",
"r  c #512D03",
"t  c #542F0C",
"y  c #4D310B",
"u  c #533203",
"i  c #58360B",
"p  c #432B13",
"a  c #4A2D13",
"s  c #442D1B",
"d  c #472B18",
"f  c #4D3414",
"g  c #4B331B",
"h  c #46331A",
"j  c #533414",
"k  c #5D3C14",
"l  c #51351A",
"z  c #533B1D",
"x  c #5B3C1C",
"c  c #563914",
"v  c #623B0C",
"b  c #633C16",
"n  c #412E24",
"m  c #4B3423",
"M  c #473526",
"N  c #543C24",
"B  c #563B27",
"V  c #4B3B31",
"C  c #623E23",
"Z  c #5C421A",
"A  c #59420E",
"S  c #64441C",
"D  c #6C4A1D",
"F  c #684417",
"G  c #724B1C",
"H  c #754A16",
"J  c #724A15",
"K  c #5C442C",
"L  c #5A4326",
"P  c #594636",
"I  c #644422",
"U  c #6B4B23",
"Y  c #6C4C2B",
"T  c #654829",
"R  c #724D26",
"E  c #6C5228",
"W  c #745224",
"Q  c #7B5324",
"!  c #74532B",
"~  c #7A552A",
"^  c #7C592C",
"/  c #77592C",
"(  c #664D35",
")  c #6C5437",
"_  c #735433",
"`  c #7C5B34",
"'  c #775939",
"]  c #744E31",
"[  c #7C6339",
"{  c #7C6229",
"}  c #785C44",
"|  c #6C5741",
" . c #7A6244",
".. c #5F4F42",
"X. c #845A29",
"o. c #835D32",
"O. c #855D37",
"+. c #88632D",
"@. c #846334",
"#. c #8C6535",
"$. c #84633B",
"%. c #8C6A3D",
"&. c #8B6739",
"*. c #946C3B",
"=. c #966A38",
"-. c #9C733C",
";. c #96713D",
":. c #97692E",
">. c #A4753D",
",. c #A36B38",
"<. c #80571F",
"1. c #8C6B42",
"2. c #876746",
"3. c #916C43",
"4. c #966E49",
"5. c #8A7149",
"6. c #947244",
"7. c #9C7543",
"8. c #9C7A4C",
"9. c #98754A",
"0. c #8B7353",
"q. c #9B7A55",
"w. c #967856",
"e. c #876B54",
"r. c #A47A44",
"t. c #A47D4B",
"y. c #A77A47",
"u. c #A57D55",
"i. c #AE7C44",
"p. c #997F61",
"a. c #865B42",
"s. c #AF843E",
"d. c #9A8257",
"f. c #9C804E",
"g. c #AC834D",
"h. c #A88248",
"j. c #B3844D",
"k. c #B48B4C",
"l. c #B78849",
"z. c #BC914F",
"x. c #AB8353",
"c. c #A88659",
"v. c #B48C53",
"b. c #B38C5A",
"n. c #BB8D5A",
"m. c #B78A55",
"M. c #BA9358",
"N. c #9B8362",
"B. c #A78966",
"V. c #B58C63",
"C. c #B49263",
"Z. c #BB9462",
"A. c #BB9869",
"S. c #B79A74",
"D. c #A9946D",
"F. c #BBA178",
"G. c #BEA06E",
"H. c #C29354",
"J. c #C4945A",
"K. c #CB9C5D",
"L. c #C89A58",
"P. c #CB984F",
"I. c #D7A55A",
"U. c #CAA05D",
"Y. c #C39364",
"T. c #C39B64",
"R. c #C59C6A",
"E. c #CA9D6B",
"W. c #CA9C64",
"Q. c #C29C75",
"!. c #CE9B62",
"~. c #CBA36D",
"^. c #CBA466",
"/. c #D3A364",
"(. c #D7A76B",
"). c #D9B36D",
"_. c #CBA474",
"`. c #CDAA7C",
"'. c #C6A577",
"]. c #D4AB75",
"[. c #DCAD72",
"{. c #D5AC7B",
"}. c #DAAE7A",
"|. c #D2A676",
" X c #DBB473",
".X c #DBB37C",
"XX c #D7B478",
"oX c #C9B17F",
"OX c #E3B475",
"+X c #E4B57B",
"@X c #E5BA7C",
"#X c #ECBB7C",
"$X c #EAB977",
"%X c #E7B473",
"&X c #EBC17C",
"*X c #F1C17A",
"=X c #B69C83",
"-X c #C7AA84",
";X c #D3AC82",
":X c #DCB583",
">X c #D9B787",
",X c #DABA94",
"<X c #CDB592",
"1X c #E4BB84",
"2X c #EBBC82",
"3X c #E3BC8B",
"4X c #E5B887",
"5X c #F2BE84",
"6X c #E4BE94",
"7X c #DABFA1",
"8X c #E3BEA1",
"9X c #DDC297",
"0X c #DCC28C",
"qX c #ECC284",
"wX c #EAC38B",
"eX c #E9C78D",
"rX c #F3C384",
"tX c #F3C48B",
"yX c #F5CB8C",
"uX c #FBCC8A",
"iX c #F8CA86",
"pX c #FDD18C",
"aX c #E5C394",
"sX c #ECC493",
"dX c #EBCA9B",
"fX c #E9C898",
"gX c #F3CB94",
"hX c #F3CD9B",
"jX c #F7CB94",
"kX c #F4D394",
"lX c #FCD294",
"zX c #F5D29C",
"xX c #FCD49B",
"cX c #FADA9D",
"vX c #EED295",
"bX c #FDE19E",
"nX c #E9CBA5",
"mX c #F2CDA4",
"MX c #EDD4A5",
"NX c #F4D4A3",
"BX c #FCD5A3",
"VX c #FDDBA3",
"CX c #F4D4AB",
"ZX c #FDDCAB",
"AX c #F6D9AA",
"SX c #FDDDB3",
"DX c #F6DCB5",
"FX c #EED4B3",
"GX c #FEE3AC",
"HX c #FEE2A4",
"JX c #FEE3B3",
"KX c #FEE4BB",
"LX c #FDE8B5",
"PX c #DEC8A1",
"IX c #FFEBC2",
"UX c #F8DEC3",
/* pixels */
">X;XQ.6X{.|.E.g.t.g.~.wX.XXX:X3XjX4XhX}.x.`.C.k 8 j a j z Z E S [ W 8.'.Q.`.{.r.m.7.r.7.#.+.D u A { [ E _ ! ! ! ! U ! E [ A DX-X",
">X6X4X4X4X3XhXxXxXxXeXyXwXqXgXxXjXBXjXBX:XsXS.A.` _ e.2.2.S.,X0X,X0XaX,X6X3X>X:X3X:XwX>X~.'.M.1.f.>X0XoX6X,XMXnXCXCXCXSXAXLXMXMX",
"BXmXmXBXxXjXgXxXxXjXyXcXgXjXVXxXxX6XZXsXVXwXNX>X,X,X6X6X9XAXAX9XJX9XnXMXBXdXsXhXhXgXhXsX0XfXNXfX>XdXPXdXSXnXCXDXnXFXmXmXLXFXLXLX",
"hXmXBXjXgXjXxXxXkXcXvXzXxXjXwXjXBXxXjXxXVXzXZXdXmX6XSXSXAXLXMXGXJXJXJXAXZXAXhXBXBXhXhXmXZXZXZXBXJXDXKXMXmXSXSXSXKXSXSXUXJXLXLXDX",
"VXZXsXhXBXjXxXxXcXgXhXxXzXxXxXxXgXxXxXZXjX6XZXBXBXZXBXNXZXJXJXLXLXMXGXLXZXJXZXzXBXZXZXxXmXmXmXSXJX,X;Xc.! c.C.Q.'.;X6X3XfXdXmXJX",
"v x.7.x..X.X_.M.hXJXGXhXjXgXtXhXxXVX6XjXBXZXBXBX6XhXhXVXZXdX0Xd.E [ d.0XJXZXBXLXSXBXZXZXmXSXSXmX'.@.W @.~ A._.A.Z.b.u.v.Y.R.`.|.",
"F 6X>X3XsXT.g.*.*._.3XZXBXBXBXxXjXtXxX6X{.b.4.,.X.:.=.:.t.&.` I E E E f.oXeXhXgXBXhXBXBX5XmX4XE.c.r.*.;.v ;.R.~.{.E.{.}..X].].2X",
"k SXmXsX:Xb.x.X.6._.Z.|.Y.n.m.j.i.i.>.G Q =.y.u.i.j.y.-.x.D E [ [ E i [ C._.wX:X5X4X5X5X5X4XY.i.g.b.x.#.r +.Z.~.Y.R.~.W.E.J.J.2X",
"x SXmXaX6XY.7.v g.gX3X4X.X/./.H.z.k.-.J X.Y.E.E.E.W.4X6X>X` O.0.[ E A %.C.~.@XqX2X+X#XqX5X4X!.n.b.b.t.+.0 @.b.Z.Z.A._.T.~.K.:.rX",
"i mXdX3X].u.i.<.*.3XhX2X[.(.P.I.H.z.h.<.7.Y.Y.E.|.].}.}.;Xa.] } ) E Z %.Z.A..X2XtX#X#XrX5X5XY.j.g.g.g.3.k 6.C.A.A.'.R.R.x.X.*.tX",
"t 6X3X3X4Xy.r.<.=.xX.X+X).P.I.P.P.H.,.H =.V.V.Y.E.|.Y.Z.u.C ] ' ` ! D %.Y.T.2XyX5X$X$X5X%X%Xj.i.x.x.c.5.u ! w.w.5.q.2.$.X.R u n.",
"9 6XsX3X1X;.X.H H .X X+XI.P.P.P.H.I.s.+.#.r.u.y.4.m.3.Q b 8 j I I D D &.R.W.1XtX5X#X5X5X5X4Xn.4.9.q.u.2., , - @ @ > = = 9 t = b ",
"r 6X3X{.H.<.H <.t y.;X[.I.P.P.I.P.!.>.X.<.G X.Q X.X.b 7 = 9 > = k i U ;.E.W.(.qX5X$X5X2X5X}.n.y.8.w.0.] - O O O . o @ & > 7 7 w ",
"b Q.{.].4.X.=.X.b ,.n.[.).I.I.P.P.!.>.>.4.r.u.3.X.b R t.V.A.c.9.&.U ^ t.~.W.W.#XtX2X5X2X4XY.i.u.q.w.} B @ %   % . ; o : - d ] w.",
"b V.;X{.i.=.u.u.,.O.4.Y.!.(.I.I.!.!.j.y.i.|.dXmX,XY.Z.mXNXdXGXdX`.c.3.y.T.T.T.[.5X+X5X:XY.,.X.a.1.Y z q : : ; . . . : 4 : - p.<X",
"b ;X3XQ.Y.u.Y.Q.u.,.,.Y.Y.(.P.I.(.j.>.=.=.Z.4XZXSXZXmXhXNXZXBXLXZX:Xm.t.v.J.W./.[./.E.Y.y.C t X.I j g d 6 : ; X . % % % $ % } 7X",
"I >XmXQ.:XA.4.u.u.4.u.Y.u.i.J.n.u.=.#.=.=.u.~.+X}.|.Y.T.].wXvXeXBXwXv.r.m.!.!.!.[.J.J.n.u.~ w L B M N M 3 $ ; % X . % % > # 2.nX",
"> R b.:XV.u.q.a.a.a.a.,.4.y.*.*.*.*.*.*.r.j.}.xX2X|.~.[.@X2XiXlXVXjXb.-.n.E.!.!.[.J.n.b.b.o.w B L L m p 3 : 2 : :   % % - - ) PX",
"t b o.c.4.~ a.} ] ] i Q <.X.O.%.` 1.1.#.*.T.6XtX1X2XyXjX.X/. XyXyXtXj.,.k.!.!.K.%XH.n.M.u.] e a 4 Z h 4 - 3 n n 6 . % % @ & T ,X",
";XQ.] b ` ] Y C C ] ] Q U ~ a.2.` 2.U A c.4XZXjXlXxXjXrX#X&X*X&X#XOXi.>.m./.%X(.[.K.j.M.u.R j a 4 p 3 3 : : M n : . O O O & b ,X",
"6X;X! 0 = x j j = Y S F S k w B c A 8 W aXZXNXVXpXkXjXyX$X$X#X#XOX%Xi.i.J.(.OXOX[.+Xj.n.b.! j y Z h h p * 2 V n : % o o & = k 6X",
"ZX,X1._ & & > C 4.S.c.Q.6.b & - , # Z <XJXGXzXkXcXlXpXrX*X#X$X%X$X$XH.>.!.[./.(.%X5Xz.n.m.^ b c Z y l g # - M n ; % O o & 7 C >X",
"mXQ.` ` T q e w.;XZXZXsX'.q.7 7 q , B.LXMXvXGXkXcXcXuX$X$X$X%X$X$X$X>.>.[.5XOX+X&XOXJ.z.j.#.^ ` E S L x e 1 s s 6 O O > > e 4.6X",
"BXE.` ` Y j j 4._.wXjX].b.V.4.C , E F.dXNXeXcXHXlXcXpXiX*X$X%X%XiX%Xi.l.OXlX#X@XrX@X/.k.k.=.#.g.c.9.$.~ S l N m m O o O & l V.nX",
"wX~.W E T Z q %.].).kX[.i.Y.Q.4.Z $.fXaXGXzXqXyX@XyXyXrX#X#X5X5X#X!.i.,.(.xXrX#XiXOXU.l.z.h.r.Y.:X:X'.q.] i L B n O $ @ - } <XmX",
"eX^.D W E Z , +.XXiXuXW.i.Y.u.u.&.^ fX4XwXkXlXkXqXyXOXL.J.$XuX+X!.i.-.=.XXxXyXqXpX).P.s.H.H.m.+XgXxXwX~.#.U Y B n > o @ g B.nXUX",
"&XA.F U Z Z 0 @.2X%X#X/.,.Y.Y.u.o.&.R.JXyXyXlXlXuX(./.[.(.J.J.(.i.i.,.=.~.cXxXlXpX&XI.l.z.L.h.$XgXjX1X].u.o.! _ l O @ : : =XUXFX",
"qXM.Z / ( A , +.|.[.5XH.,.J.m.4.O.Q b.J.tXlXlXuX#X!./.[.4X5X!.=.,.i.t.=.T.VXlXlX*X&XU.l.z.K.j.4XlXxXyX4XV.#.] ] d > o - n ..e.<X",
"XXC.S I ( K , %.gXjX5Xm.,.n.i.t.G b ;.E.(.(.*XpX%X/.$X5X2X5X|.i.i.r.-.Q n.VXlXlXpXiXL.s.k.k.r.~.jXkXVXgXV.4.3.a.C d d > O - p | ",
"`.c.] ( ) Z # / ;X}.4Xu.O.u.t.7.<.v y.|.(.!.$X#X/.I.%X#X4X5XW.>.u.r.-.*.T.VXxXpXiX&Xz.l.M.-.+.;.c.'.fXBX|.V.4.e.C d m n p - o o ",
"q.2.Y B ( M < L >X6X6X,.a.u.Y.4.~ t m.4X2XOX%X%XI.%X5X5X%X4X!.>.m.y.-.:.v.jXlXpXlX&XH.z.T.;.U D ^ 1.x.'.;X=Xu.S.e.B d p - d p d ",
"] x K K | L < f p.A.u.O.H u.4.u.O.9 u.4XqX$X$X(./.[.#X(.H.m.j.r.Z.r.;.Q t.xXxXlXqX@XL.h.7.F i S %.$.! $.u.u.p.p.a.B m d : d d d ",
"' B B ( B M < l 2.w.` D , D %.6.~ r 4.|.2X&X*X).(.:XXXx.;.+.{ f.x.t.4.G Z.BXVXqX.XXXM.^ D 0 c I 4.5.5.O.I E ' } ) K B - - l q x ",
"B n B n 4 p 1 K p.p.B.1.D [ D [ b 9 4.Q.@XrX$XOX1X{.c.%./ u A [ 2.q.q.t 4.>XhXwX{._.6.e q ' w.j x Y w.B.Y T ) ) T g d p 7 a ' q.",
"..> p N L < + q 0.-XB.8.%.5.5.E b 7 *.E.#XyX).OXT.b.%.S u u 1 1 = a ) N e I $.6.Q.`.O.& z _ ) a 7 8 N 0.N.N. .L p g = & x 2.-XnX",
"} m 4 p - < 1 , e 2.D.d.%.[ E i k 9 &.|..XyX XXXb.%.W K Z E [ E ( N + O d a e T C ' q o l l = = 7 w j t Z x f f = # = , y / d.C.",
"} m & & * a L K 7 w ` ` A y i i r 8 O.4X[.@XXX^.8.i 9 l ) E | ..P 4 + % : m ( q ( e O > e e , * 8 T T = # & , * * j d.oXC.f.6.{ ",
"} d & a  .e._ _ ' t 8 0 D 8.C.%.v 9 ^ 3X}.+X(.k.&.& & & Z L L h 2 5 % $ o   3 ( p * , ( p.D.-X9X,XQ.S.,X,XB.Y Z B.dXMXMX0X0XXXoX",
"2.j e e.-XS.w.5.$.U u 9.>XAXMXG.@.u W 4XOX1XW.y.=.r ] _ { P 1 < $ 4 5 4 4 h + + * f B.9XnXnXAXfXnXCXCXdXx.[ 6.>XSXLXAXMXMXbXHXHX",
"} c e B.-X;XS.u.! ! F `.JXzXXXC.g.v Q 4X+X2XJ.j.=.U q.F.D.N., < 5 $ 4 + < h , # N.-XnXDXNXmXMXcXSXNXNX-X! E '.LXVXdXHXLXHXcXkXbX",
"$.9 8 A.;X'.A.8.Q U i E.ZX:X^.M.f.v X.}.2X2XH.H.4.v 4.S.D.'.Z 4 h < . # 3 < [ PXDXJXMXvXkXHXHXHXGXHX^.+.u %.vXaXGXGXGXVXVXvXGXHX",
"$.t 0 ~.;X`.A.*.Q o.F A.VXaX0XZ.t.F O.|.5X4Xu.i.X.R c.F.d.F.f 1 z M # h N.<XKXLXMXJXLXGXbXbXbXbXvXf.F A u %.C.XX.XgXkXbXcXkXZXeX",
"W 9 i |..X{.~.*.Q W i ;XhX>X:Xb.7.i Q ;X5X4XJ.Y.^ ! d.S.d.F.Z f 3 s # 0.KXKXIXLXLXHXbXkXvXvXXXXXc.[ D A A ~.1X.XqXXX).XX^.'.x.;.",
"W 0 i }.{.[.R.#.^ Q F aX,X>XwXA.*.i ~ ,X6X;Xu.c.$._ q.F.F.D.4 z N m , w.DXDXLXNXvX0XXX).@X XM.r.{ { F u J .XeXqXyX).^.M.k.h.W i ",
"W i F :X].].T.#.W W F dXMXfX-XA.4.w ] 8X8Xw.i ] j q K p.p.D.- n P m # w.JXJXAX>XXX].).).&X).v.;.8.1.U A D }.cXpX&X&XL.z.v.v.x./ ",
"W A J XX]..X~.#./ D k <X9X>XG.C.4.O a e.2.C x ) 3 o   $ 3 P O n V m # 5.JXJXvX>X0XiXkXpXkX Xh.*.%.9.W u J .XlXuXiX&XU.k.v.c.g./ ",
"/ U W .X}..XT.&./ D c N.5.w.c.w.T O B ( ( ) ( p     . . . + ; V n 3 < d.JXHXcXeX XiXpXpXpX&XM.7.3.2.U i F @XlXiXiX).I.z.J.T.g.o.",
"! D G {.XXXXZ.*./ E , N.w.d.5.) 1 . $ 3 V B < $ 6 n X 2   . % 6 n h + 5.LXGXkX@X&XpXpX*X*X Xj.*.3.4.R v F .XlXpX*X&XU.s.h.v.7.D ",
"] b X.}.(.).M.@.[ L f  .N.D.L X . X . ; ..n X M P 6 ; X # 2   % M h < d.LXHXbX).&XiXuXuXuX#XH.y.9.9.O.v i ~.lXjXrXOX/.L.k.k.-.+.",
"a.b 3.(. X^.'.@.A ) 1 N. .P 5 # : X % % . 5 6 6 6 6 . X , +   M X # # 5.LXHXbX). XpXpXuXtX2XH.=.8.2.! r D :XtXlXtX$X/.l.l.v.h.+.",
"a.b #.~.^.(.M.Q S Y a K L L X # 6 . % 6 % 5 M M 4 X h ' ) L d & ) L # [ MXbXvX^. XpXpXpXiX5XH.=.9.2.1.t r Z.4XgXrX$X/.l.k.k.k.+.",
"9.G *.!. X).M.W U Y * g L 4 # < : : ; ; + s L + + L -XDXDXIXFX=X<X| 1 [ LXLXvX).&X*XuXuXuX$XH.>.9.O.` t = 4.hXxXqX#X/.z.z.h.k.{ ",
"O.b 7.^. X).v.Q U T 1 N K 6 < # : % 4 s 1 # f f  .9XDXAXMX0XnX8XN.L # $.LXHXkXU.).pX*XbXuX$XJ.-.t.9.` I & w V.mXwX@XU.z.k.:.v.@.",
"i u 6.XX^.XXv./ ] T & K P L < # 4 X ; @ f ) D.-XPXLXnXNXGXNX6XD.L 1 * %.AXcXkXL.).*XpX*XuX*XK.>.8.9._ I = = O.`.}.).z.z.k.f.M.%.",
"8 i v.XX~..XZ.` U C < ( P L 5 5 5 + 1 # E -XLXLXDXJXJXVXAXZXQ.' w c , 1.MXcXbXU.I.*X*XpXuXrX^.>.4.4.' x & 7 O.3.E.M.z.M.k.c.C.@.",
", E A.`.oX.Xb.` T B 5 P P L X 5 4 # < 1 F.GX0XHXGXLXVXGXGXdXV.T x ! 0 6.AXvXvXs.I.*X*XbXlXqX/.t.o.2._ a > 7 ' b |.v.k.k.s.v.C.6.",
"e ! B.,X`.<Xu.I ' B m M ..V 6 5 O @ O [ 0XzX@XbXHXVXHXHXvX_.9.F R R u $.ZXwX_.-.L.$XpXuXyXyX(.7.&.` ] T & O } S C.~.M.M.Z.x.c.O.",
"q , Y u.-XQ.5.I d d : V P 2 . $ 3 - * 5.dXkXvXkXzXzXzXeXZ.t.9.[ 2.S 0 ` AXfX^.r.~.qXlXxXxXtXZ.+.` 2.) l o & 2.N c.'.M.b.b.c.2.S ",
"K x = q > 7 = a l g p . $ 4 4 < : O q 2.oXeXvXkXxXkXeXL.h.v.c./ ` ^ 0 ! CXfXC.;.h.h.k.T.|.~.7.` O.a.B - o -  .L B.'.A.c.3.` b e ",
"N N d l ] B T f - - o - # 4 < # - d e 4.v.).&XkXlXjXXXM.M.v.f.E W E , k S.A.c.@.Q J H +.*.#.O.$. .( - o o O z h e.B.q.2.S e x f ",
"K ) P ( ( K z @ 1 1 * > # Z Z 4 l 7 j u.k.z.$X*XlXlX+Xv.k.h.;./ / Z , 0 E I U k W J ^ o.~ ` O.' ( 1 o   X X X 5 ( | T l a q L B ",
"3 K |  .) K L T 5.e.= = T B.oX-Xw.x b u.k.s.).*XpXlX Xj.v.g.6./ A I , q e = i Z ` / @.@.O.O.O.( p O + o 5 ; X $ 4 P M p g V s h ",
"X < 6 K ( Z  .-XDX<XT 8 9.S.oX].u.U u L.l.s.%X$XjX5XE.m.v.8.%./ Z Z 0 f g ' S.S.C.q.! ! Y ' T l @ # $ + X X X . X 4 4 6 4 6 2 $ ",
"# L < # < 1 0.F.fX-Xc T B.;X>X{.x.o.F h.P.s.I.iXuX5X(.m.g.x.6.L Z A f K 0.<X7X7XdX,Xo.k 0 x q > . + $ X X X X X X . % $ + % 5 . "
};
