/* XPM */
static char *result[] = {
/* columns rows colors chars-per-pixel */
"64 64 256 2 ",
"   c #243D10",
".  c #195914",
"X  c #24440B",
"o  c #29450F",
"O  c #264A0B",
"+  c #294C0B",
"@  c #2A520C",
"#  c #32550E",
"$  c #2A4613",
"%  c #314F19",
"&  c #2D5412",
"*  c #345817",
"=  c #1E6811",
"-  c #1C6B11",
";  c #25670F",
":  c #246611",
">  c #3A6817",
",  c #277715",
"<  c #387614",
"1  c #2A5923",
"2  c #395A23",
"3  c #2E6B27",
"4  c #396627",
"5  c #3C6D34",
"6  c #425C10",
"7  c #4C6B11",
"8  c #576A12",
"9  c #487714",
"0  c #597914",
"q  c #647614",
"w  c #707716",
"e  c #44672A",
"r  c #497527",
"t  c #4B7234",
"y  c #487538",
"u  c #537A36",
"i  c #446E41",
"p  c #4A7744",
"a  c #547C47",
"s  c #577D53",
"d  c #2E8619",
"f  c #32951B",
"g  c #3A9C26",
"h  c #4B8F1A",
"j  c #598616",
"k  c #678616",
"l  c #788719",
"z  c #679419",
"x  c #7A951A",
"c  c #49A91D",
"v  c #63A61F",
"b  c #538E33",
"n  c #598836",
"m  c #63963B",
"M  c #7C9C3C",
"N  c #51AD25",
"B  c #6CA739",
"V  c #76C73D",
"C  c #588647",
"Z  c #598553",
"A  c #5C9651",
"S  c #689748",
"D  c #6B904E",
"F  c #63895B",
"G  c #67995A",
"H  c #50A34E",
"J  c #6CA445",
"K  c #74AA49",
"L  c #78B84A",
"P  c #65AC51",
"I  c #77A856",
"U  c #7AB656",
"Y  c #688C64",
"T  c #6D9466",
"R  c #73966B",
"E  c #799973",
"W  c #74A66A",
"Q  c #7AA873",
"!  c #76C252",
"~  c #858A1A",
"^  c #86951B",
"/  c #8B9A1C",
"(  c #969B1D",
")  c #A2991F",
"_  c #8BA21C",
"`  c #99A71D",
"'  c #9BA41E",
"]  c #A4AB1E",
"[  c #B3AC1F",
"{  c #A5B11E",
"}  c #919B24",
"|  c #A99D22",
" . c #9AA821",
".. c #92B02E",
"X. c #A8A821",
"o. c #B5AA23",
"O. c #A7B624",
"+. c #ACB321",
"@. c #B3B322",
"#. c #B8BB24",
"$. c #C4B624",
"%. c #92C92F",
"&. c #B6C62A",
"*. c #B4D02F",
"=. c #C7C526",
"-. c #D0D22F",
";. c #CAD833",
":. c #CEE738",
">. c #E5EC3C",
",. c #8CB347",
"<. c #84BC5A",
"1. c #829E7C",
"2. c #88BB66",
"3. c #84A67C",
"4. c #89B974",
"5. c #83C44C",
"6. c #87C659",
"7. c #99CB50",
"8. c #AECE48",
"9. c #8BC468",
"0. c #94CA68",
"q. c #99D46A",
"w. c #8DC671",
"e. c #9ACC74",
"r. c #98C878",
"t. c #9CD476",
"y. c #A1CB7D",
"u. c #A3D47C",
"i. c #A5DA78",
"p. c #A9E479",
"a. c #D0E25C",
"s. c #DAEC58",
"d. c #EBF14B",
"f. c #F0F772",
"g. c #7E9B81",
"h. c #8BA788",
"j. c #8DA48C",
"k. c #92AB8E",
"l. c #8CB485",
"z. c #93B68B",
"x. c #9AAD97",
"c. c #99B697",
"v. c #A2AF9F",
"b. c #A2BA9C",
"n. c #A7BAA4",
"m. c #ACBCAB",
"M. c #ACB9AC",
"N. c #B1BEB1",
"B. c #9BCA85",
"V. c #9BC893",
"C. c #A4CC87",
"Z. c #A9CD8C",
"A. c #A5D583",
"S. c #A8D785",
"D. c #ACDC84",
"F. c #ACD48B",
"G. c #ADDA8A",
"H. c #B1DA87",
"J. c #B2DD8C",
"K. c #A9CB97",
"L. c #ACD593",
"P. c #B4DC94",
"I. c #B3D49A",
"U. c #B6DA98",
"Y. c #ADE287",
"T. c #B6E88B",
"R. c #B4E393",
"E. c #BAE997",
"W. c #B8EC95",
"Q. c #BBE39C",
"!. c #ACC7A7",
"~. c #AECFAC",
"^. c #B2CAAA",
"/. c #B8D9A4",
"(. c #BCDCAC",
"). c #B8C7B5",
"_. c #BDCCBC",
"`. c #BCD6B7",
"'. c #BDE3A4",
"]. c #BDE9A6",
"[. c #D9EE80",
"{. c #C2EB98",
"}. c #C3ED9C",
"|. c #C3F297",
" X c #EFF78D",
".X c #C2DDAB",
"XX c #C3CDBC",
"oX c #C5DBB9",
"OX c #D1DDB2",
"+X c #C2E3A5",
"@X c #C3EDA3",
"#X c #C4E4AC",
"$X c #C4EBAA",
"%X c #C9E8A9",
"&X c #CAEDAC",
"*X c #C8F3A7",
"=X c #D2F0AD",
"-X c #C6E2B4",
";X c #CAE4B4",
":X c #C6E9B5",
">X c #CBEBB4",
",X c #CCE4BC",
"<X c #CDEBBB",
"1X c #D4EAB8",
"2X c #D2ECBD",
"3X c #C6F2B4",
"4X c #CEF2B3",
"5X c #D3F3B4",
"6X c #D4F2BB",
"7X c #D4F8BA",
"8X c #F1F7B3",
"9X c #C2CEC1",
"0X c #C8D6C4",
"qX c #CDDCCB",
"wX c #D2DBCB",
"eX c #CEDCD1",
"rX c #D3DDD3",
"tX c #D9DDD9",
"yX c #E0DFDE",
"uX c #CDE6C3",
"iX c #D5E7C7",
"pX c #D3ECC2",
"aX c #D5ECCB",
"sX c #DAEECC",
"dX c #D9F5C5",
"fX c #DDF3CC",
"gX c #D9E4D4",
"hX c #DCEDD3",
"jX c #DDE4DC",
"kX c #DDEBDC",
"lX c #DDF3D4",
"zX c #DEF4D8",
"xX c #E2EAC9",
"cX c #E3F7CC",
"vX c #F9FCC9",
"bX c #E2EAD8",
"nX c #E1ECDD",
"mX c #E2F4D4",
"MX c #E4F4DB",
"NX c #E7F9D9",
"BX c #F5FBD6",
"VX c #DFE9E0",
"CX c #E5EDE3",
"ZX c #E7EBE5",
"AX c #E5F3E2",
"SX c #EAF5E3",
"DX c #ECFAE4",
"FX c #EDF3EC",
"GX c #EDFAEA",
"HX c #F4F9E9",
"JX c #F2FCED",
"KX c #EEF5F1",
"LX c #F5FCF3",
"PX c #F5F9F5",
"IX c #FAFDF5",
"UX c #FCFEFB",
/* pixels */
"( ( l w | o.^ ^ ` ) l q k j j < d g c w.IXkXA G G G W W Q Q Q Q E T H b p b Z Z Z Z Z Z s p p i 5 i i i i i 5 5 3 . 1 ..8.,.7.} ",
"' / w w ) o.^ ( ` ( l k 0 j j ; d f c y.UXkXT Q Q Q 3.l.l.l.k.l.l.Q W G H G G G G F F F F Z s p i p p p i i y 5 1 1 1 1 J %...,.",
"( ~ q w | X.^ ` ` ^ w 0 k j 9 < c f v I.UXqXQ l.l.z.V.c.b.V.b.b.V.z.l.l.Q Q 3.3.E E E R Y Y F s s s s s p p y 4 4 5 1 1 2 8.,.,.",
"( l 8 ~ o.( ^ _ ( l q j k 0 < < h f N I.UX0Xl.V.V.!.!.~.~.~.~.~.~.!.V.V.V.c.c.z.h.h.h.g.g.E Y F F Y F s s a y 5 5 5 5 1 $ ,.8...",
"x 0 8 ~ X.( ^ ` / k 0 j j 9 < < h c V OXUX`.!.~.`.`.).`.`.`.`.`.`.).).~.~.!.n.b.c.x.x.k.h.g.E Y R Y Y Y Z s y p C 5 5 3 1 m a.M ",
"k 8 8 w ] ( / _ / q 0 j j < < d f N ! xXPX!.`.`.`.0XqXuXeXeXeXuXqX0XuXoX`._.~.~.!.n.c.c.x.j.h.h.g.g.R Y Z Z Z s p y 5 5 p p 7...",
"k 0 0 ~ ( / ^ _ ~ 0 j j 9 < ; < d N 4.PXjX`.0XuXeXhXgXkXkXkXgXkXeXgXeXeXeX0X9X9X_.^.m.n.n.x.x.j.j.g.g.R Y Y Y Z C C C C C 4 M ..",
"0 0 q ~ ' ^ x _ l 0 j 9 < < < , c V .XPXuXqXgXgXVXVXVXAXAXAXCXVXzXVXkXkXeXeXeXeX9X9X_.).m.M.n.x.x.j.j.g.E E R R Z Z Z C y 4 n 7.",
"7 0 q ^ ` x x x k k 9 < > < , , N e.CXZXwXhXVXAXCXSXAXFXFXFXKXSXAXAXCXVXnXnXtXrXrX0X0X_.).N.M.M.v.x.x.k.h.1.E E Q T Z C 5 b Z ,.",
"7 q 8 ^ _ x z x j j 9 ; ; < , f ! OXZXuXkXkXhXzXlXlXlXmXSXSXJXKXKXKXKXAXCXCXCXjXjXrXeX0X9X).).N.M.n.v.x.x.k.h.3.j.Q G b C A T K ",
"7 0 q ^ _ z z k j 9 ; ; , ; , v P.ZXqXuXhXaXaXpX<X<X:X>X>X2XpXdXfXMXDXKXFXFXSXCXCXjXtXeXeX9X_.).N.m.M.n.v.x.x.k.h.h.W T R E E I ",
"9 7 8 ~ x j z j j ; ; ; , , g w.bXgXoXpXpX<X>X>X3X].#X$X>X&X&X&X&X*X@X3XfXAXZXSXCXjXZXtXrXeX0X_.).).N.m.m.n.v.z.h.k.k.h.1.1.E D ",
"9 6 q ^ k j j j , - . = , d U 1XmX/.].:X>X>X$X+X+X#X.X#X<X2X2X2X<X<X&XW.T.E.@X2XnXCXCXjXjXrXrX0XXX).!.N.M.m.b.c.b.v.v.x.k.1.1.D ",
"7 6 w ^ j h j < ; . . - d L =XxX(.Q.'.#X$X$X+X#X'..X-X;X;X2XsXfXfXdXpX2XW.T.T.p.R.<XlXCXnXjXrXrX0X9X^.!.N.M.b.n.b.m.v.v.k.1.1.T ",
"7 6 ~ x 9 h < ; = . . d K {.OX.XQ.E.E.@X$X@X@X}.#X%X;X;X1X,X1X1XsXsXxXfXdX@XY.i.i.i.R.<XbXyXjXtXeXwX).K.K.^.M.N.N.M.M.n.x.3.1.D ",
"6 q ^ k < h , = = . , P #X%X.X#X].].$X*X}.*X5X4X*X+X/..X+X.X;X1XpXdXhXsXmXcX@XT.p.i.t.i.].gXVXtXtXrX0XL.C.!.XXXXN.N.N.M.n.k.3.1.",
"# w ~ 9 < , = = - , H ].6X(.-X>X&X*X*X5XcXDXcX}.T.J.H.F.C.e.y.u.J.{.;XsXhXhXxX%XY.i.q.q.t.R.pXkXtXrXrXI.B.V.~.`._.).N.N.N.v.c.h.",
"8 ~ k , d - - - , H (.zX(.(.:X>X4X5XNXLXHX7XW.p.D.F.I.L.I.Z.Z.e.2.e.u.{.pXsXmXmX%XY.i.q.q.t.G.:XjXyXgX0XA.B.B.~.)._.9XN.N.M.n.x.",
"8 ~ 7 - , - , d H /.NX.X(.].3X<XfXLXUXHX=Xp.p.H.S.Z.Z.K.K.Z.b.H.C.0.2.e.S.%XhXmXbX{.Y.i.0.0.q.Y.#XjXjXrXS.w.r.B.!.).9X).).N.m.v.",
"q q ; - - , d b K.GXxXI.(.:XlXGXIXLXNXW.p.J.u.F.Z.Z.K./.K.Z.y.z.Z.Z.0.0.0.q.U.dXhX,XP.G.i.6.0.t.R.-XVXjXI.w.w.r.V.^._.9XXX).b.z.",
"k , - d , d g w.hXIXOX/.#XhXKXIXIXBX{.H.T.H.F.C.y.y.z.Z.y.C.B.C.C.Z.K.r.<.2.0.P.sXMX1XJ.H.0.0.7.D.].iXCXuX0.9.r.V.~.).XXXX).n.3.",
"9 - - f d f P 3XIXHX/.(.sXFXPXPXIX5Xp.{.{.S.y.r.2.<.,.I I I U 2.r.C.Z.Z.r.<.7.0.J.sXmX#XS.u.0.0.q.@X+X>XgXS.9.w.r.K.K._.).XX!.4.",
": - f f g N Y.zXUXbX^.iXCXFXJXJX=XT.=X{.p.y.2.2.I I C n u n n m I <.0.r.Z.0.<.0.q.Q.hXaXH.H.u.0.q.Q.$XR.pX/.! 9.2.4.l./._.XX).b.",
", f c c c 5.=XGXUX1X`.bXZXKXLXdXW.5X%Xi.0.e.2.2.I D u e * * e r u m S <.r.Z.w.0.A.u.%XbX+XH.J.u.i.R.dXQ.W.-X6.! U U 4.K.0X9X_.!.",
"d v N c %.s.8XIXIXOXqXjXFXKXSX=X5X@Xi.0.2.4.y.y.2.D t 2 % $ % % * r n m U C.C.e.e.u.H.1XsXH.J.J.J.i.fX&Xp.].q.! U U w.K.`.0X_.^.",
"c h h %.:.f.8XUXBXXXrXjXZXKXpX=X5Xp.q.0.<.2.2.r.,.s i 2 $ % o $ $ & > r m 6.H.y.0.e.H..XsXQ.F.J.H.i.W.W.p.Y.W.! U U 4.V.~.0X_.).",
"h c %.:.d.f.vXIXxX).rXjXZXMX>X6X{.q.q.q.,.I I 1.D s e 2 o   X     o @ e n K 0.L.y.u.P.Q.,X&XD.J.Y.i.p.].Y.p.Y.q.! L U w.I.oX9X~.",
"v %.:.>.d.f.vXIX1XXXrXkXSXhX<X1XP.u.u.<.S m a D s a e % O   X X   X o * r S 6.L.U.P.;X%X;X;XH.F.H.q.p.4XW.p.Y.t.! U U 4.I.0X0X_.",
"_ *.:.d.d.f.vXIXOXOXrXCXZX,X6X2X.X{.u.K n u t a u u e %         X X o * r S <.D.;X>XfXiX2X.XU.F.J.u.T.#X$XY.P.S.! U Q w.~.uX0X9X",
"` *.;.>.d. XvXIXOXXXrXbXhX,XpXsXcXOXt.S t 2 e i s a t % o   X   X X o * r S 9.A.2XNXSXSXiX.XU.P.J.J.{.%XU.U.P.P.w.L 9.r.(.qXeX0X",
"_ O.&.d.d. XvXIXOXXXrXtXuX;X1X1X1XR.6.m e % 2 e } a e % o X X X X X + * t G t.$XdXJXLXSXmX,XU.I.U.Q.,X,X#X(./.Q.e.<.9.B.,XtXeX0X",
"] _ O.;.d. XvXUXxX9XrXbX,X;X;XU.U.e.K u % $ % e i e 2 % o X X X X X & * r S 9.G.2XNXGXSXaXOX.XU.U.U.2X,X-X-X(.'.B.9.B./.iXtXrXeX",
"` ^  .;.d.f.vXUXxXXXtXgX;X;X%XU.G.! S e     $ % 2 * # + X X X X O X + * e C <.0.Q.<XlXlXuX(.I.I.J.U.pX#X,XoXoX.XA.w.A.`.hXyXjXeX",
"/ ^ ..*.d.f.vXIXnXXXrXgX.X%X.XR.u.K u % $   % $ % % o X O X O O O O @ @ > t D 2.e.P.2X-XoXU.I.I.F.#XpX.X,XuXuX#XG.r.L.uXVXCXtXrX",
"/ ~ _ *.d.f.vXIXFXXXrXqX.X#X+XP.t.K u %     o o   o X X X X O O O O O @ * > u S <.e.'.(./.I.Z.J.J.2XiX.X,XoXoX-XG.r./.zXCXCXCXtX",
"~ /  .&.:.f.8XIXHXXXwXwX.X;XOXU.t.K u %     o $ X X X X O O O O O + + @ @ # e u J <.u.I.K.F.F.L.R.aXpXOX,XoX-X].G.t.:XAXZXyXCXtX",
"^ ' ` O.>.f.8XIXIXXXwXwX/.;X;XU.D.L u %     $ $ + $ $ o O O O + + @ + @ @ # > r m U t.L.Z.Z.F.J.+XnXpXoXOX-X.X'.R.S.iXSXZXZXyXtX",
"~ '  . .-.f. XHXUXwXwXOX(.#X;XQ.u.U n *   % % 2 * * * & O O @ O @ O @ @ + @ # e b U t.C.Z.F.P.U.2XMXiX,X;XoX#X].Y.'.MXZXFXZXZXtX",
"^ ]  .O.:.d. XBXUXwXrXoX.X;X,X{.u.L n e % e t u t r 2 * & @ + @ + @ @ @ @ @ > j m 6.A.Z.Z.P.U.+XlXmXiX,X,X#X'.$XR.<XAXKXFXCXCXgX",
"( X.( O.-.d. XBXIXZXwXoX(.OX,XU.A.U m t e u C D S n u e * @ + @ + @ @ @ @ # r b K t.Z.Z.P.U.+X2XMXnXaX,X-X#X#X+X].AXFXFXKXZXkXgX",
"` o.( @.-.d.f.xXIXZXwXwX.X;X,X+XS.0.S m C I D 2.<.I D u > * # # @ # # & * r b K 6.S.Z.L.U.+X&XmXSXmXpX,X:X].$X@XdXGXKXFXFXZXZXhX",
"] X.( #.-.d.a.8XHXPXwXOX.X%X1X+XG.u.<.K K I 4.r.w.2.D u e * * # * # # > 7 b J 6.S.F.L.I.'.%XpXDXMXfX,X;X#X].*X4XGXLXGXKXFXSXCXgX",
"X.| ] { -.-.a. XBXUXbXwX%X;X1X,XL.S.e.6.2.0.r.y.A.2.I D r > > * > > > r b B <.D.U.L.L.U./.>XMXHXMXhX,X<X%X$X$XlXJXGXLXKXSXFXCXhX",
"X.| o.X.#.-.-. XvXIXPXOX;X;X<XpX.XH.F.r.e.e.C.C.r.w.I S u 4 > 4 r b h b J 6.A.L.U.I.U.U.{.xXSXMXmXaX<X>X*X@XdXGXKXGXDXAXAXAXVXhX",
"o.| @. .#.8.=. X8XHXUXtX;X;X;XdX.XP.F.F.y.e.C.C.e.9.I n u h r j b m B L 6.A.F.I.I.I.H.T.%XmXSXMXxXpX5X&X*X4XGXPXLXGXDXzXzXzXlXuX",
"$.$.o.X.O.X.#.s. XBXUXZX;X,X;X2X2XU.P.J.J.Q.u.u.e.6.K m b b m B B L 0.u.S.L.I.P.J.i.D.E.dXSXMXmXsX2X4X&X*XzXIXUXLXGXDXAXzXlXdX].",
"o.o.o.X.O.} #.:.s.xXHXUX1X;X<X>XsX%XJ.J.U.&X=XJ.t.6.L B B B 5.6.q.u.A.S.C.H.S.D.u.D.}.pXbXMXmXsXfX6X5X>XzXIXUXPXPXPXKXGXzXzXuXL.",
"| $.o.@...l O.=.>. XBXUXMX.X1X;XiX2X{.J.R.{.6X2XT.q.! %.! B 5.5.5.5.6.0.e.R.U.Y.{.2XxXMXMXmXcX2X6X5X4XmXPXUXUXUXUXPXKXKXKXzX].A.",
"| $.o.@.` l / #.;.d.[.FXUXwX.X1X,X2X%XT.E.}.=X5XdX%Xi.7.6.5.5.! 5.5.6.q.i.Q.4X1XmXmXMXmXmXpX1X5X6X*XlXIXUXUXUXUXUXPXIXKXSXMX:XL.",
"} $.| #.` l  .O.O.;.d.8XHXUX,X+X<X<X1X+XT.Q.{.{.}.=X4X*XT.p.i.q.q.q.i.R.@X6XmXNXMXMXmXmXdX2X3X4X*XdXHXUXUXUXUXUXUXPXPXLXHXMX:X/.",
"_ o.X.#.' l ( ] O.&.;.a.8XUXIXOX+X1X&X&X{.W.T.W.T.W.@X4X6X6X6X=X=X*X6XdXcXmXNXmXmXmXcX6X5X>X4X*XfXIXUXUXUXUXUXUXUXPXIXPXGXkX:X(.",
"o.@.X.#.] / / ( O. ...&.a.BXUXUX2X+X%X%X&XcX5XT.p.T.T.}.*X=X6X6XcXdXcXmXmXmXNXcXcXdX7X=X*X*X4XcXIXUXUXUXUXUXUXUXUXPXPXPXFXzXaXuX",
"#.@.{ $. .` ( ~ / ^ x ..*.[.IXUXUXnX}.@X}.=XDXDX7X|.{.W.{.@X*X*X&X5X=X5X5X7XdX5X=X*X|.*X5XcXLXUXUXUXUXJXUXUXUXUXUXIXPXJXAXkXlXaX",
"#.o.+.#.{ { ] ^ _ z x _ O.8.8XUXUXUXuXR.}.|.|.mXIXIXNX7X5X7X@X|.|.T.{.|.|.|.|.|.|.=XdXNXJXUXUXUXUXUXHXLXUXUXIXUXPXPXLXGXMXzXaXaX",
"o.@.+.=.` { @._ x x z x ..*.a.BXUXUXFXU.W.E.}.|.=XcXIXUXIXDXmX5X=X}.W.|.}.4X5X7XGXIXUXUXUXUXUXUXUXHXJXUXUXUXUXPXIXLXKXGXAXkXaXuX",
"X.o.+.=.{ { o.] ^ ` x x x %.:. XUXUXUX-XE.Q.E.}.|.W.|.7XBXIXUXUXIXHXHXNXHXIXIXUXUXUXUXUXUXUXIXDXNXLXUXIXUXPXUXIXLXJXDXAXAXzXgXuX",
"] +.#.=.{ { { { ` { _ / _ ..*.s.NXUXUXsX/.Q.E.E.*XW.W.T.W.4XcXNXDXUXIXUXUXUXUXUXUXUXUXUXLXDXcXNXGXUXUXUXIXUXPXJXDXMXlXzXkXzXhXuX",
"( [ #.=.{ +.[ #.{ [ ` / ` ` *.:. XUXUXGX.X#X].].E.*X|.].|.W.W.W.*X7XNXLXUXUXUXUXLXDXNXNXdXcXNXJXUXUXUXUXUXUXLXGXlXzXlXaXaXhXaXiX",
"~ [ [ =.{ +.+.{ { { ] ( _ { %.;.s.BXUXPXoX,X:X'.].].].].*X@X].*X*X].*X7XdX7XdXdX7X7X7XdXcXNXJXLXIXUXUXUXUXLXGXzXfXaXaXaXuXuXuXuX",
"( [ { &.{ #.{ ` =.X.] ` / ` { ;.d.8XUXKXrXiXuX:X'.W.Y.W.T.W.W.].].|.*X*X*X*X*X4X7XdXdXzXNXIXIXLXLXLXPXUXLXKXDXDXMXaXuX<XuX-X(.(.",
") $.$.=.+.{ #.#.-.] ] { / ` O.*.>. XLXHXwXjXgXaXpX:X'.R.G.Y.Y.Y.R.R.W.].].3X7XdXzXzXNXJXUXIXUXIXJXJXJXJXGXDXzXMXAXaXuXuX(.-X`./.",
"| =.$.=.+.{ #.#.-.+.` { / _ O.=.>.d.HXLX0XVXVXVXzXhXdXpX3X:X].$X].3X3X6X7XdXdXzXGXGXLXIXUXUXUXPXJXDXAXzXlXzXzXzXzXzXaX].'.(.(./.",
"[ =.[ [ { { [ $.-.$.] { /  .{ O.-.d.8XIXwXtXyXCXAXFXAXAXzXlXfXlXfXfXNXlXzXNXDXDXUXUXUXUXUXUXUXLXGXAX3X].uXaXaXaXaXlXaXuX(./.K.I.",
"[ =.@.=.#.{ [ =.-.[ ] { ' / .._ ..;.[.UXtX0XtXCXZXZXFXKXKXGXDXAXDXDXGXGXGXGXLXLXPXPXUXUXPXUXLXGXAXzX].].R.].].:X:X<XuXpX`.(.L.V."
};
