/* XPM */
static char *result[] = {
/* columns rows colors chars-per-pixel */
"64 64 41 1 ",
"  c #010101",
". c #111111",
"X c #332222",
"o c gray20",
"O c #552200",
"+ c #663300",
"@ c #773300",
"# c #444444",
"$ c #555555",
"% c gray40",
"& c #880000",
"* c #990000",
"= c #BB0000",
"- c #883300",
"; c #DD0000",
": c #884400",
"> c #994400",
", c #AA6600",
"< c #BB7700",
"1 c #997744",
"2 c #887766",
"3 c #BB8800",
"4 c #DD9900",
"5 c #FFAA00",
"6 c #FFBB00",
"7 c #FFCC00",
"8 c #FFDD00",
"9 c #BBAA66",
"0 c #EEAA44",
"q c #FFBB66",
"w c #888888",
"e c #AA9988",
"r c #BBBB99",
"t c #BBBBBB",
"y c #FFDDAA",
"u c #FFDDBB",
"i c #DDDDCC",
"p c #FFEEDD",
"a c #CCEEFF",
"s c white",
"d c None",
/* pixels */
"ddddddddddddddddddddddddddddddd         dddddddddddddddddddddddd",
"dddddddddddddddddddddddddddddd @::@@++OO ddddddddddddddddddddddd",
"ddddddddddddddddddddddddddd  .@>>@+OOOOOO dddddddddddddddddddddd",
"dddddddddddddddddddddddd   +O.:>>@+OO.OOOO ddddddddddddddddddddd",
"dddddddddddddddddddddd  ++++OO:>:@+OO.O+OOO dddddddddddddddddddd",
"ddddddddddddddddddddd ::++@+O.>>@+OO.O++OOO.  dddddddddddddddddd",
"ddddddddddddddddddddd >:+@@+O.>>@+OO.O++OOO.OO ddddddddddddddddd",
"dddddddddddddddddd @>.>++@+O.@>:@+..O+@+OO.OOOO.   ddddddddddddd",
"dddddddddddddddddd @::>+@@+O.->-+O..O+@+OO.OOOO.OOO dddddddddddd",
"ddddddddddddddddd @:.>@@@++O.>:@+O.O+:@+O.OOOOO.OOO dddddddddddd",
"dddddddddddddddd .:@.>@@@+O.@>@@O..O+:@+O.OO+OOO.OOO ddddddddddd",
"ddddddddddddddd @.:@.:@@@+..::@+O..O+:++O.O++OOO.OOO ddddddddddd",
"ddddddddddddddd @.:+.:@@+O..::@+.0.O+:+OO..++OOO.OOO ddddddddddd",
"ddddddddddddddd +.@+.@@@+O..:@@+.0.+@:+OO..O++OO.OOO. dddddddddd",
"dddddddddddddd ++.@+.@@@+.0.:@+O.0.+@@+O.0.O++OO.OOO. dddddddddd",
"ddddddddddddd @+O.@+.@@++.0.@@+.0qq.@@+O.0.O++OO.OOO.O ddddddddd",
"ddddddddddddd @+O.@+.@@+O.0.@@+.0qq.@++O.0.O++OO.OOO.O ddddddddd",
"dddddddddddd @+O.@@+.@@+.00.@@+.0qy.@++O.0.O++OO.OOO.OO dddddddd",
"ddddddddddd +O.@.@+O..+O.00.@+.0qyy.@+O.0qq.O+OO.OOOO.OOO dddddd",
"dddddddddd ++ .@.@+O..O.0qq.@+.0qyy.@+O.qqq.O+OO.OOOO.OOOO ddddd",
"ddddddddd @O d ..@+O..O.0qq.++.qqyu.@+O.qyq.O+OO.OOOO.OOOOO  ddd",
"dddddddd @  d .0.+O.O.O...q.++.qyuu.++.qqyq.O+O..OOOO..OOOOOO   ",
"ddddddd @ ddd 0X.+O.O.......O.qqyuu.+O.qyyq..OO.O.OOO..  OOO   d",
"ddddd    dddd qy.+O.O..0....O.qqyup.+O.qy....OO.O.OOO. dd   dddd",
"ddddddddddddd yy.OO.O.......O..qyup.+O.q.....OO.O.OO.0 ddddddddd",
"ddddddddddddd qy.OO.O..a...OO...qqy.+.q....0.O.O.0.O.0 ddddddddd",
"dddddddddddddd q.O.q..aaaa.O.....qq.+....00..O.O.0.O. dddddddddd",
"ddddddddddddddd .O.q..Xssa.O..000qq0.......aa...00.O ddddddddddd",
"dddddddddddddddd ..q..qXXss..a..qqq.....@@.ss...0..O ddddddddddd",
"dddddddddddddddd .  ..qyyXX.XXXqyyqq.aa...ssX.0.  .O ddddddddddd",
"dddddddddddddddd  dd .qyuuu.qqyuuuyy.yXXXXXX0.0 dd  dddddddddddd",
"dddddddddddddddd  dd .ypp=p.qyuppuyyyyyyyqqq00 dddd dddddddddddd",
"ddddddddddddddddd ddd up=uuyqupppuuuuypyqqq000 dddd dddddddddddd",
"ddddddddddddddddd dddd *=ppuyupppppXuyyqqq000 dddddddddddddddddd",
"ddddddddddddddddd ddd O.*ppuuuppXXXuuyqqq00  ddddddd  dddddddddd",
"dddddddddddddddddddd @OO..yyyuuuuuuyyqqq0  dddddddd s7 ddddddddd",
"ddddddddddddddddddd @OOOOO...yyyyyyqqq.. ddddddddd .775 dddddddd",
"ddddddddddddddddd  @OO+OOO.**...qqq...4 ddddd   d i.5575 ddddddd",
"dddddddddddddd   @@OO+OOO.==**&&....&.4. ddd py. ir2.54< ddddddd",
"dddddddddddd  >>:OO++OOO.=;==**&&.3.&.3.& d py.iroo2.<< dddddddd",
"dddddddd  >>:++++OOOOO d ;===*&..&&..3.&&.9.y.oo2er  ddddddddddd",
"ddddddd >>:+++OOOOOO  d =;==*&**&.&&.....99.y.o$e. ddddddddddddd",
"ddddd ::++OOOO    ddddd ====;=*&&.=*4&.111.yq..00 dddddddddddddd",
"dddd @+O  ddddddddddddd .==;=*&====*6**.qqq..$.. ddddddddddddddd",
"ddd @+O ddddddddddddddd .====*===;=*=4*.00.$$$$$ ddddddddddddddd",
"ddd +O dddddddddddddddd .*=====;;====4*&..0.$$$ dddddddddddddddd",
"dd +  dddddddddddddddd =..*======;=666*&..00.. ddddddddddddddddd",
"dd  dddddddddddddddddd ==.***========6*&.000q dddddddddddddddddd",
"d  ddddddddddddddddddd ===...***=====6*&..00q dddddddddddddddddd",
"  ddddddddddddddddddd .====*&...**==6=*&.#.. ddddddddddddddddddd",
" ddddddddddddddddddd %.==*==*&&&..**4**&.#..* dddddddddddddddddd",
"dddddddddddddddddd  %.==*.;==**&3&.4*&&.##.*.*  dddddddddddddddd",
"dddddddddddddddd  %%$.**.;=====*3&&.*&&.#$.&*.** ddddddddddddddd",
"ddddddddddddd   %%$oo.*.;===6===4*&..&.##$$.&&&& ddddddddddddddd",
"dddddddddd   w%%$oooo..;=======6=**.#..#$$$..   dddddddddddddddd",
"ddd       www$$oooo .==;====;76==**.####$$$$ ddddddddddddddddddd",
"dd s7.$tww$$$ooooo d =;====87===**.##$#$$#$$ ddddddddddddddddddd",
"dd 57.$$$ooooooo  d =====77====**.##$$#$$#$$$ dddddddddddddddddd",
"dd 44<<<oooo  dddd ====7===**..##$$$$$#$$##$$ dddddddddddddddddd",
"ddd <,,,    dddddd ==77===*..###$$$$$##$###$$$ ddddddddddddddddd",
"dddd    dddddddddd =7===**.#####$$$$$##$###$$$ ddddddddddddddddd",
"ddddddddddddddddd =7===**.##$$$$$$$$##$$#o##$$$ dddddddddddddddd",
"ddddddddddddddddd 6****   $$$$$$$$#oo###ooo#$$$$ ddddddddddddddd",
"dddddddddddddddddd     ddd                      dddddddddddddddd"
};
