/* XPM */
static char *result[] = {
/* columns rows colors chars-per-pixel */
"64 64 256 2 ",
"   c #221C00",
".  c #271A00",
"X  c #262102",
"o  c #2B2503",
"O  c #2E2904",
"+  c #2B260A",
"@  c #2E2A0B",
"#  c #322C05",
"$  c #332D0C",
"%  c #372B06",
"&  c #343105",
"*  c #3A3304",
"=  c #35310C",
"-  c #3A340C",
";  c #3D3A0C",
":  c #353805",
">  c #332E11",
",  c #382F10",
"<  c #363213",
"1  c #3A3413",
"2  c #3D3A14",
"3  c #3A3519",
"4  c #3E3A1A",
"5  c #373119",
"6  c #2E2E0D",
"7  c #1F1A00",
"8  c #443A05",
"9  c #433B0C",
"0  c #44390B",
"q  c #433C13",
"w  c #433D1A",
"e  c #473B15",
"r  c #523D0E",
"t  c #453E21",
"y  c #37550B",
"u  c #395B17",
"i  c #364B0D",
"p  c #296915",
"a  c #37661A",
"s  c #297918",
"d  c #34761B",
"f  c #32690E",
"g  c #397924",
"h  c #347222",
"j  c #1A6D09",
"k  c #49420C",
"l  c #55470C",
"z  c #454115",
"x  c #4B4314",
"c  c #46411C",
"v  c #4B451C",
"b  c #4D4A1C",
"n  c #4B4A16",
"m  c #534413",
"M  c #544B15",
"N  c #52461A",
"B  c #534C1C",
"V  c #5A4D1B",
"C  c #5B4D13",
"Z  c #49581A",
"A  c #55521C",
"S  c #5C531C",
"D  c #565515",
"F  c #44530E",
"G  c #63551D",
"H  c #675A1D",
"J  c #664F1B",
"K  c #48671B",
"L  c #58651B",
"P  c #4C731D",
"I  c #4C4522",
"U  c #4E4A23",
"Y  c #464222",
"T  c #534C23",
"R  c #544D2A",
"E  c #584D23",
"W  c #4C5C21",
"Q  c #545223",
"!  c #5B5424",
"~  c #56522B",
"^  c #5B542B",
"/  c #5D5A2B",
"(  c #595B25",
")  c #5C5632",
"_  c #5C5931",
"`  c #574E31",
"'  c #625622",
"]  c #645A24",
"[  c #6A5C24",
"{  c #635B2B",
"}  c #6A5E2A",
"|  c #675627",
" . c #625C33",
".. c #665C36",
"X. c #4A6925",
"o. c #576928",
"O. c #487728",
"+. c #57752A",
"@. c #587A32",
"#. c #4D7830",
"$. c #64612E",
"%. c #6C622D",
"&. c #696727",
"*. c #73652C",
"=. c #78692C",
"-. c #67762C",
";. c #656233",
":. c #6B6434",
">. c #6B643C",
",. c #6D693A",
"<. c #696836",
"1. c #716631",
"2. c #746A34",
"3. c #7B6D34",
"4. c #746B3A",
"5. c #7A6E3B",
"6. c #6B7638",
"7. c #7D7235",
"8. c #7D733C",
"9. c #767739",
"0. c #74752F",
"q. c #6D6742",
"w. c #766C43",
"e. c #7C7341",
"r. c #7B7647",
"t. c #857317",
"y. c #816C32",
"u. c #827236",
"i. c #84753B",
"p. c #857A3C",
"a. c #8C7A3C",
"s. c #8A7535",
"d. c #947C3B",
"f. c #806B2B",
"g. c #857B44",
"h. c #8C7D41",
"j. c #847846",
"k. c #927D41",
"l. c #887C56",
"z. c #32881A",
"x. c #2D8422",
"c. c #388727",
"v. c #39972A",
"b. c #3D8E32",
"n. c #3DA42E",
"m. c #4F8A19",
"M. c #468729",
"N. c #4A9728",
"B. c #4B8934",
"V. c #588837",
"C. c #4A9737",
"Z. c #58993A",
"A. c #598E2B",
"S. c #669C2A",
"D. c #769528",
"F. c #658539",
"G. c #67983C",
"H. c #748B34",
"J. c #49A437",
"K. c #58A638",
"L. c #5CB437",
"P. c #57AA2F",
"I. c #68A838",
"U. c #75A839",
"Y. c #67B63B",
"T. c #6EAE35",
"R. c #658A19",
"E. c #70C63A",
"W. c #5A9845",
"Q. c #509941",
"!. c #788A43",
"~. c #689A47",
"^. c #779746",
"/. c #6E9349",
"(. c #59A845",
"). c #59B846",
"_. c #59B24F",
"`. c #67A749",
"'. c #78AC47",
"]. c #67B748",
"[. c #78B846",
"{. c #75AA58",
"}. c #69B756",
"|. c #76B859",
" X c #65A853",
".X c #7AB966",
"XX c #59C749",
"oX c #4DC549",
"OX c #67C748",
"+X c #78C649",
"@X c #68C656",
"#X c #7BC252",
"$X c #77C759",
"%X c #6ED156",
"&X c #73D358",
"*X c #7FD045",
"=X c #79C867",
"-X c #79D567",
";X c #78CD6E",
":X c #78E063",
">X c #8B8633",
",X c #8CA538",
"<X c #8B8548",
"1X c #928244",
"2X c #988848",
"3X c #89974A",
"4X c #98934C",
"5X c #968953",
"6X c #989754",
"7X c #8A8F53",
"8X c #A38B48",
"9X c #A49856",
"0X c #A6934F",
"qX c #87A946",
"wX c #87B849",
"eX c #94BA4C",
"rX c #87A855",
"tX c #88BA54",
"yX c #96AE55",
"uX c #A7A65C",
"iX c #A1B248",
"pX c #A99B65",
"aX c #8DAC62",
"sX c #AAA967",
"dX c #9E9864",
"fX c #88C44D",
"gX c #93C34E",
"hX c #83C454",
"jX c #85CA54",
"kX c #8CCA54",
"lX c #8AC857",
"zX c #98C857",
"xX c #88D558",
"cX c #9CD45C",
"vX c #96D959",
"bX c #88D74D",
"nX c #A4D25C",
"mX c #98E25A",
"MX c #84CC65",
"NX c #9DCA64",
"BX c #88D767",
"VX c #97D967",
"CX c #86DA74",
"ZX c #8CD673",
"AX c #A7D867",
"SX c #ADDA6F",
"DX c #99E779",
"FX c #99E363",
"GX c #A9E477",
"HX c #B7E67A",
"JX c #A8E468",
"KX c #A3E05E",
"LX c #C3E87E",
"PX c #AFF387",
"IX c #95F084",
"UX c #C6ED86",
/* pixels */
"'.Z.N.L.oXoXXXn.P.P.'.SXUXUXyXtXU.G.rXAX|.`.I..X].G.A.A.S.A.N.N.m.m.m.Z.lXHXHXeX,XeXgXzXzXnXSXHXzX[.U.S.S.U.,X,XD.,XiX,X>X>Xt.t.",
"[.I.].XXXXXXXXXX].Y.eXLXUXUXAXtXtXNXNXNX'.G.`.|.`.I.G.G.'.jX+X].P.Y.I.wXSXPXSXNXNXnXzXgXgXzXKXAXfXU.U.U.lXgXU.S.m.R.D.>X>X>X>Xt.",
"zXjXxX&XXXXXXX&X*XxXAXSXUXHXAXeXNXNXNXqXU.`.I.'.I.'.'.U.tXVXVXVXxXvXMXVXGXHXSXAXAXzXgXgXgXwXgXgXwXtXkXkXvXlXT.S.S.S.T.U.R.,XR.>X",
"GXAXVXjXE.%XE.bXVXJXSXAXSXAXzXNXzXeXqXU.'.qXU.`.I.'.'.wXwXhXxXVXVXVXAXGXGXHXSXnXnXKXcXcXnXgXkXgXjXkXkXfX[.T.S.T.T.[.T.T.T.T.T.,X",
"JXJXbXbX*XE.E.mXKXJXKXzXzXgXeXgXzXqXeXqXyXwXU.wXI.'.[.tXjXtXhX#XMXjXVXGXGXPXSXVXVXJXJXFXmXcXvXkXvXjXfX[.T.T.I.+X+X+X[.Y.*XgXfXvX",
"nXAXnXbXE.E.E.bXKXKXKXzXzXeXwXfXeXeXeXeXeXeXwXfXI.[.#X#XhX#X#X#X#XlXVXPXPXGXVXGXVXFXxXxXfXY.T.E.+X+X+XhXjXhXhXVXlXhX+X+X*X*XbXvX",
"nXnXKXvX*XE.*XmXvXKXcXzXzXkXkXzXlXeXNXeXeXeXzXhXY.fX+X+X#X#X|.#X$XlXZXPXPXZXMXBXFXxX+X+XE.P.Y.Y.P.P.E.fXjXlXlXBXMXjXlXjXkXfXgXvX",
",X*XKXmXbX*X*XKXbX*X[.T.+XhXhXjXtXzXSXAXAXgXzXlXVX&X+X$X&X$X].|.`.C.`.$X$X$X-XBX&X:X%XXXL.E.Y.L.P.Y.+X+X+XhXjX$XlXlXzXVXAXAXnXcX",
"S.I.xXFXbXxXxXxXfXP.P.Y.[.|.].].|.AXGXPXGXAXVXjXjX-X-X-XDXDX=X$XN.z.b.z.s s b.).).XXXX%X%XXX).&XOXL.Y.OX+XBXVXFXVX#XwXGXPXAX,XT.",
"K.N.I.xXxXxXBX&XP.m.J.].$XK.C.Z.MXVXGXPXDXGXVX$XJ.(.XX%XIXIX=X].v.j c.C.x.x.x.v.v.x.n.oXXXXX@X%X%X%X%XOX%XxXDXPXDX[.K.[.fXwXwXhX",
"].c.m.].&X=X;X).z.z.P._.J.g p c.`.=XIXIXZXDXMXBX].K.n.J.@X:XCX=X].x.j s J.;X;X;X_.v.v.v.n.).@XXX&X:X&X-X&X).@XDXCXY.N.m.N.K.I.+X",
"MXN.s C.|.#X_.b.z.J.@XC.c.p j p c. XMX;XCX$XK.(.}.$X_._.J.Q.`.$XMX;X_.s s x.(.}.:X;X@Xn.v.v.C.).%X&X@X&X&X).J.K.J.J.).@X|.$XK.N.",
"ZX Xd d  X XQ.s s }..Xb.p j p p p c.Q.}.;X@XQ.s c.`.=XMX].c.M.N.Q.=XZX XC.g h b._.;X;X}.J.v.s v.J.(.(.).@X@X].v.s z.(.@X=XCXMX=X",
".X=XB.s B.Q.h p b.;X_.s p h h u h b.x.b._.}..XW.c.d M.`.|.(.M.s c.C.}.ZX XC.c.g g Q.|.=X|.(.M.g s x.b.C.Z.(.].K.z.z.s c.C.|..XZX",
" X=XW.h h B.h h Q.;Xb.h g #.#.u g W.Q.x.b.J. XMX`.V.C.~.'.{.~.m.N.M.O.`.{.|.W.B.g h B.W.}.}.(.C.g d d O.M.B.Z.G.K.C.d p p #.B.W.",
"#.{.~.h h #.h h  X;Xh h  XW.#.u #.Q._.(.b.b.(..X|.'.~.Z.G.`.`.~.`.Z.M.d W.{.`.V.d p p d V.~.~. X~.O.a P V.G.V.M.M.V.#.h p a h u ",
"#.Q.W.X.K O.K O.`.V.d B..XW.a a V.#.~.{.(.B.B.(.tXV.V.M.+.G.G././.{.V.g g Z.W.V.a i u V.V.O.O.G.{.{.!.o.F.rXrXH.F.@.#.X.a a u g ",
"q.@.#.Z X.@.L K @.P V.W..XW.p u W./.W..X{.B.f ~.{.G.P K y K /./.@./.V.#.u a @.!.F.H.!.rX^.+.K K /.aXaX^.H.,XyXyX/.6.X.W u u u #.",
"{.F.o.X.+.-.L K +.V.~.`.{.#.a a @./.@.{.{.B.f A.rXtXR.K y y A./.W 6.@.X.y i +.+.!.6XsXsX7X0.K y o.!.6XyX>X<X9X<XH.<.W i W X.Y #.",
"7X7X!.-.-.-.&.&.3XrXF.~.{.X.X.X.X.W.@./.{.B.P A.G.rXG.+.A.L L H.$.o.Z W i y o.-.9.5XsXpX7XH.o.F L 9.4X9XiX4X4Xd.k.4.^ : U _ Z U ",
"7X6X6X<X7.7.>X<X3XsX/./.^.O.X.+.o.X.K +.rXF.P A.3X,X^.3XrXrX-.-.Q z i ; i D H.7X>X7.2XpX<X0.&.Z &.>X>X9XuX0X8Xd.y.1.N . I _ Q  .",
"4X4X6X2X>X1X2X2X2XyX3XV./.O.+.X.K X.Z Z rX!.K -.3XqX3X3XsXuX3X0.A : O & : D 9.pXpX<X4X5X7.&.&.D S p.p.a.0X8Xs.J | } r % c ~ ^ ;.",
"g.p.h.<Xk.k.1Xd.s.9.!.+.+.X.o.o.Z Z K o.7XH.Z L H.3X4X3XuXyX4X0.! 0 A 7X<X&.*.9XsX9X8Xh.&.D &.Z D 9.1X1Xd.f.[ J r r 0 0 v !  .,.",
"3.2.3.h.k.i.d.h.y.*.1.9.o.Z o.Z Z z ( 6.7X-.L L L 0.3X4X6X9X6X&.B ! 4.dX<X[ =.0XpX9X2X1X7.l D D &.0.>X<X=.H C C N r O - x b ~ ;.",
"G V %.*.h.i.y.f.J J 4.e.o.Z <.Z n n 6.!.7X2.&.D D 0.<X4X6XpX5X[ 9 E j.pX5Xu.*.0X0X8X8Xs.f.G D D <.9.9.*.} C m *.5.} n * * ; ; z ",
"! S A S } } J J J J } <.$.( <.b z n 5.l.7X3.2.&.D &.8.<Xg.5Xj.V % N j.l.2Xi.=.8X0Xd.d.d.s.H l n o.6.9.$.C r } k.pXj.! 0 # & & : ",
"{ { B n B ' J r r r S ^ o. .,.B n A 4.8.j.%.*.*.S S 4.4.e.4.| r o r 4.l.1Xk.s.8X8Xd.s.s.s.G 8 * T ;.:.B 8 m j.pXdXj.} M & # : & ",
" .,./ A V E E r r m S B ;.$.,.! A S $.5.1.[ ] } H M B S  .| e % . % ^ j.k.a.s.8X8Xd.s.y.u.] k * c Q T 0 0 } 5XpXk.y.5.[ 8 * 0 * ",
"! ;._ ( ^ B E N N V ! B / ( ;.! b A ' } H [ [ ' A n ; z x c , . . . e } j.k.k.0X8Xs.f.f.*.| x # 2 i 2 9 ! 5XpXpX2Xi.i.%.8 * q 9 ",
"E ~ _ Q _ Q ' V N N V b B b Q B n D D l l G | S S M 9 q - q % o o   % B 5.k.0X8Xt.=.J [ } ..E = 6 : = 9 ' 2XpX0X1X7.=.S 8 ; w e ",
"E T R b W Q T ! N N N Q Q Q A B D D S C G G } [ ( ! b ; = 1 1 3 6   o * ' 1.i.*.l l l m N ^ R 4 6 : - ; n %.h.1Xh.p.2.C 0 q e w ",
"E v c ; 2 z x T E V E { $.<./ ( B D *.p.a.3.3.3.7.:.( ; 2 w I I 4 @ X O ; r S C J G G ' n T R R i 2 0 i 8 l 3.2X1X<X7.V 0 e e e ",
"e ; = & O & % ; v e !  .{ { >.| M G i.<X2Xp.p.h.g.8.( q ; v ~ R Y < = # # 8 [ i.h.g.j.} ' e B _ Q b n n k 8 =.4X2X2Xh.*.m 9 9 0 ",
"e * ; = O O X O & = E ^ T N | ' E G 2.=.7.=.p.<X<X8.] k ; v ( Q U < q ; * ! <X5X6Xg.3.} ' m N T ^ Q A A l 8 =.0X2X1Xk.u.G m m 0 ",
"9 0 Q ^ n ; : - # : Q { I e t N m G 2.[ 1.H 2.8.9.<./ 9 : v U ~ U = c ; 0 ' 5Xj.5X3.%.5.e.{ B B Q / ! S l k =.0Xd.a.d.g.} V M 0 ",
"9 x 4.r.1.{ ! / e 0 v ! V e 0 r 8 | i.2.=.$.%.2.:.! Q 9 - v v Q U 2 T z 9 $.g.4.3.G ' 2.8.{ n r B S ( H G l 3.2Xa.=.7.7.} ' ' N ",
"0 x e.l.l.8.4.1.B * * x e e 0 e r } 5.2.1.%.%.2.| B I ; = U v T v z n 9 * $.3.2.7.$.[ 3.8.} n k l V G %.*.H i.1Xa.[ } 1.} ] { T ",
"r n 5.j.<Xl.j.:.} x # 0 q 0 q t } 5.1.*.%.1.%. . .T e - - v v v U b z * ; %.%.3.2.] S &.%.' x 8 l S H =.u.y.h.h.u.H C ] ' ! ! N ",
"r N 5.e.g.g.8.:.4.| 9 0 % 0 e ..j.8.2.:.%.1.} ! ^ v e - q v T v z & & # : ] { 1.1.S M ] ] ! M l C H =.3.a.s.1Xh.3.J C S Q A b z ",
"8 N j.8.j.8.1.} 5.2.N * % 0 t >.8.:.} G ! S E N v q - q v ^ / Q n & : O * ] %.1.5.] M ' ' G A G H =.s.s.d.p.1Xi.7.G M B V b b z ",
"8 N e.e.*.} ] m } ..| % o - I q.4.] ] A M k n x e q = 0 v  .>.;./ A B n B %.:.%.1.} S } ! S ' [ *.s.k.k.k.u.=.3.*.{ m 0 ! B z z ",
"8 V 4.3.:.} ! 9 { .. .- o % I >.4.%.S k k 9 n B B x q q v / ,.<.<.{ $./ { :.%./ :.:.] %.] ' ' ] *.a.1Xh.u.*.' | ' ! n * c U T c ",
"0 ! 8.:.} ! m * | ...., % % I ..;.} A x k n S ^ Q v z z U / ,.,.4.$.$./ { { ! T { ;.^ { | { } 1.=.s.2Xh.=.[ V E V ! e & : z Q U ",
"M { w.{ T x 0 - ` ....0 % . w  ./ Q B k B ] :.:.{ T c 9 z ~ :.,.,.( n B Q ! B n E ! V Q ! ' ..2.=.s.k.y.[ ' ' ! B v = O X - U U ",
"{ <.,.Q n ; % - ` ....e % X 3 U ~ v b ; Q $.r.r.w.^ z - ; v ) :.<.! z z n z x x N v e B E B | :.u.s.a.2.] ' E N e 2 # # X - I v ",
":.>.o.z q $ # , t ` ` 5 > X = c U e c & B ^ r.7Xr./ 2 & % w ^ >.;.( k 9 z 2 e v v q 0 q e 0 { 2.3.p.i.1.' ! v - = = - $ O 2 2 # ",
";.( Q ; = @ # > w t t , > o @ 1 w 4 2 - z A <.w.<.Q 9 % $ e E ..! B * ; z v b U v - - % * 8 | } [ u.i.} | ! e % O O 1 O $ 2 = o ",
"Q Q U & o o . > + 5 > > > # @ $ w 3 $ = - T ! <.^ v 1 , $ - t I Q b : q ^ ^ R I w % 1 0 % - ! B M 1.2.{ ! B 1 O $ X 1 - c v z n ",
"z n 2 = 6 = < 3 1 > < < > + + o 5 5 @ = ; b b Q z 1 1 3 5 > 1 q e ; - c ..>.` w e - , - q z ! N 8 | 4. .^ I 1 % # , 0 I | :. .;.",
"1 2 = = = 4 c Y 4 3 5 3 $ @ + X @ > @ $ 1 v v b z 2 1 3 , $ > 1 2 & = c ) ..T w 1 , , 1 v !  .b 0 { >. .R I , o % e E } w.w.:.%.",
"2 - = $ 4 c Y Y Y 4 3 < @ + + X + 5 $ = - z i c 2 - = 1 1 $ $ < 1 & = c ` ` t 3 , , - e  . .{ e 0 ! :. .U t < . o t ..w.4.:.{ ! ",
"= 1 = = c Y c 4 4 3 > @ + @ @ + @ 5 < @ = ; - - = = $ = < = 1 4 q = $ 4 ` R w 3 , , w T >. .N : e ! ..) R I =   %  .j.w.{ ( A b ",
"6 : < 2 Y Y 4 4 5 > + + X 6 @ + > 5 5 @ @ & & # & = = = 2 w U R U 2 $ 1 I I 3 $ , q I ....T 0 % * N | ~ I w $   , q.l.w.E v z b ",
"6 1 4 4 Y 4 3 3 5 6 +     + > + > 5 5 > = & & & # : 1 q v ~  .q._ v # $ w t 1 $ % 1 ` .. .x - 9 * 9 I R t 4 $   e q.l.w.v 9 ; e ",
"= 2 i w i 3 5 1 5 6 + +   + 6 6 5 3 4 1 2 - 3 e q z U ~ ~  .>.q.) c @ # q w 1 $ $ 0 ) ) T c w v q 0 v R I w 1 O e >.j...e q : ; ",
"& 1 4 t t 4 5 < 5 6 6 + + + > > 3 5 3 = 2 < i U Q / ;.;.;. ._  .U 2 o o w t 1 o $ 1 ` T v e b N q - q w t 3 $ o , ) q.^ q 9 = = ",
"= 3 i 4 1 < > > 6 6 @ + 1 6 6 4 4 > > < = = U ;.;.;./  .$.^ ^ v 4 < + X < c 2 $ $ 1 ^ ~ 2 q B T e % = q < $ $ O q t e E w q q 1 ",
"4 4 t 1 < @ @ @ 6 6 < @ 3 < 6 3 1 > $ < = 1 R <.<.;./ Q b z c 1 = < > o o $ $ = o $ T U - 2 b T v - q w 1 $ @ X % e - e 1 q w $ ",
"2 2 1 = @ @ $ $ @ > 5 < 1 1 < 1 < $ $ $ O - b ( ( ! b n ; - = O o @ X X   O O = O = U U - - c U w e c w 1 = O o + e 0 e % q w 1 ",
"2 1 = = @ = > $ @ > 3 < < 1 < < - $ # $ o o = ; i z z k - & = o o +     o O O @ q 2 R U ; - q c w e c c 2 3 1 6 , t I N - 1 c 2 ",
"c c 1 = $ o > $ $ $ 3 1 < 2 3 1 1 O = 1 = & 6 : e b B b z 1 2 = 4 5 @   + X 2 v U 4 z z & = - - 9 e R U Y Y 4 1 0 I  .{ w q w 3 ",
"q c 1 - % X $ $ > $ - 2 2 4 4 q ; - i I U U v b Q ! ( $._ ~ _ ~ ` t 5 7 + @ _ >.) c 2 2 = = $ # - v R ) ~ U c c 1 I ..>.I v c < ",
"= q 1 2 - # 1 $ $ # 1 w w w 2 1 w v _  ._ ;.;. ./ $.$.$._ ;.q.q.` t @ 7 @ i q.q.>.U v v v c - $ - v ) ) ~ U v v w I >.>.U w c 1 ",
"# 2 1 c w - 3 $ , + 3 I v c - & i ( ,.q._ >.q.;.$.;./ ! ~ ) ) ` Y 5   7 + 4 q.q.q.~ ~ _ _ ~ v - 1 I ~ ` R I Y I I E >...c = 4 1 "
};
