/* XPM */
static char *result[] = {
/* columns rows colors chars-per-pixel */
"64 64 256 2 ",
"   c #040200",
".  c #0B0300",
"X  c #030B01",
"o  c #0C0A01",
"O  c #130400",
"+  c #1B0400",
"@  c #130B01",
"#  c #1C0C00",
"$  c #120F09",
"%  c #0A1003",
"&  c #141102",
"*  c #1B1203",
"=  c #1B160C",
"-  c #1E1812",
";  c #230D02",
":  c #260902",
">  c #231302",
",  c #2B1401",
"<  c #231B03",
"1  c #2A1B01",
"2  c #241C0C",
"3  c #2A1C0C",
"4  c #25150C",
"5  c #341801",
"6  c #251C14",
"7  c #330F00",
"8  c #2A2407",
"9  c #342309",
"0  c #2C2414",
"q  c #2A2518",
"w  c #332914",
"e  c #33261B",
"r  c #332C1B",
"t  c #3B2C1A",
"y  c #362914",
"u  c #3C321C",
"i  c #383618",
"p  c #31340E",
"a  c #352C22",
"s  c #3B2E22",
"d  c #342F29",
"f  c #3C3523",
"g  c #393727",
"h  c #3F3D30",
"j  c #1E2B0F",
"k  c #462A06",
"l  c #45351A",
"z  c #4B3813",
"x  c #4A3C24",
"c  c #443B2B",
"v  c #4C3C2B",
"b  c #463626",
"n  c #523C2A",
"m  c #493D31",
"M  c #523E33",
"N  c #432A23",
"B  c #384128",
"V  c #48451C",
"C  c #53481C",
"Z  c #4B442A",
"A  c #53432D",
"S  c #57472A",
"D  c #4C4433",
"F  c #4A4735",
"G  c #534433",
"H  c #554B34",
"J  c #5B4C34",
"K  c #5B4C3C",
"L  c #554838",
"P  c #5C5334",
"I  c #5B523B",
"U  c #565439",
"Y  c #51522E",
"T  c #614B35",
"R  c #645334",
"E  c #64543C",
"W  c #68583B",
"Q  c #6B5534",
"!  c #68623A",
"~  c #584D43",
"^  c #5D5343",
"/  c #5C5745",
"(  c #645443",
")  c #645944",
"_  c #6B5C44",
"`  c #6C5D4B",
"'  c #665A48",
"]  c #735D48",
"[  c #6C5E52",
"{  c #5B6343",
"}  c #6A6647",
"|  c #746245",
" . c #75634C",
".. c #7A634B",
"X. c #7C6A4D",
"o. c #796846",
"O. c #6C6654",
"+. c #746452",
"@. c #7C6653",
"#. c #7D6C53",
"$. c #7C6D5A",
"%. c #746B58",
"&. c #77765A",
"*. c #6D7756",
"=. c #7A7465",
"-. c #6F7764",
";. c #846C4E",
":. c #80644C",
">. c #836B53",
",. c #846B5B",
"<. c #866955",
"1. c #83745B",
"2. c #877658",
"3. c #917859",
"4. c #89744F",
"5. c #8C7C63",
"6. c #887967",
"7. c #8C7866",
"8. c #805D47",
"9. c #798873",
"0. c #97825C",
"q. c #86866A",
"w. c #96866A",
"e. c #8A8775",
"r. c #9C8B73",
"t. c #988978",
"y. c #9A9478",
"u. c #89946F",
"i. c #A28C74",
"p. c #A28D7A",
"a. c #A4947C",
"s. c #A89679",
"d. c #AE9571",
"f. c #94AF7C",
"g. c #B9A57E",
"h. c #938E82",
"j. c #9C9683",
"k. c #949088",
"l. c #A39382",
"z. c #AB9B83",
"x. c #A59B8A",
"c. c #A89B88",
"v. c #B29D85",
"b. c #A99D92",
"n. c #9CAA85",
"m. c #8FBB82",
"M. c #95BC85",
"N. c #9BBB86",
"B. c #95BD8A",
"V. c #9CBC8B",
"C. c #9AB584",
"Z. c #9DBE92",
"A. c #AAA489",
"S. c #B4A48B",
"D. c #B3A689",
"F. c #A3BC8C",
"G. c #A5B788",
"H. c #AEA392",
"J. c #ACA998",
"K. c #B1A394",
"L. c #B5AB9C",
"P. c #B8AB97",
"I. c #A4BD92",
"U. c #A9BA95",
"Y. c #B8B598",
"T. c #B1B98D",
"R. c #BAB7A5",
"E. c #B4B3A6",
"W. c #D5AC87",
"Q. c #DBB58B",
"!. c #C3AB98",
"~. c #C4B79B",
"^. c #DAB996",
"/. c #C5AB88",
"(. c #E4BA8E",
"). c #E4BC94",
"_. c #EABD94",
"`. c #E5BA97",
"'. c #C6B9A6",
"]. c #C4BDB4",
"[. c #CAB7A8",
"{. c #E0BBA0",
"}. c #9CC28C",
"|. c #96C189",
" X c #9CC492",
".X c #A3C28D",
"XX c #A8C495",
"oX c #B7C299",
"OX c #B6CAA7",
"+X c #B8CCAB",
"@X c #DEC19A",
"#X c #C3C69C",
"$X c #ECC394",
"%X c #EDCA96",
"&X c #EDC49A",
"*X c #EECB9C",
"=X c #E4C59B",
"-X c #F1C69B",
";X c #F3CB9C",
":X c #F4CA97",
">X c #F3D19C",
",X c #F8D19C",
"<X c #F1CA8F",
"1X c #CBC3AB",
"2X c #C8C4A9",
"3X c #D5C6AA",
"4X c #CBC6B7",
"5X c #D5C9B6",
"6X c #DDD3BC",
"7X c #C9D5AE",
"8X c #EDCCA3",
"9X c #E7C7A6",
"0X c #F4CCA2",
"qX c #F8CEA3",
"wX c #F1CFA9",
"eX c #F4D2A4",
"rX c #FAD3A4",
"tX c #F3D4AA",
"yX c #FCD7AB",
"uX c #E7D7B7",
"iX c #F7D7B5",
"pX c #E9CFAB",
"aX c #FFE0B6",
"sX c #CBCBC5",
"dX c #CDCCCC",
"fX c #C9C6C6",
"gX c #D1CECC",
"hX c #D2CEC4",
"jX c #D8D4C8",
"kX c #CCCCD2",
"lX c #CFCDD8",
"zX c #D2CDD4",
"xX c #D3D2D2",
"cX c #D9D6D7",
"vX c #CFD2D1",
"bX c #E4DBC7",
"nX c #F4DDCB",
"mX c #ECE4CC",
"MX c #EEE7C7",
"NX c #F3E8CB",
"BX c #EBE5D5",
"VX c #F5EAD6",
"CX c #FBF4D6",
"ZX c #F5F3DC",
"AX c #FBF6DB",
"SX c #FEFBDD",
"DX c #F6F5D8",
"FX c #FAF2CD",
"GX c #DBDCE1",
"HX c #E8E8E5",
"JX c #F6F5E2",
"KX c #FBF6E3",
"LX c #FEFDE4",
"PX c #FEFEEB",
"IX c #F7F8E7",
"UX c #FFFEF2",
/* pixels */
"z.3.9 c.LXPXPXLXPXMXx o.wXwX0X0XqXqX-X;X0XqX=X;X$X%X-X-X-X&X`.`.`.W.W.W.W.W.W.W.W.W._.^.g.Q o.T..XG.}.m.|.m.}..XG..X|.|..Xf.XX9.",
"S.w.y 6.KXLXPXLXLXLXJ 0.8XtXyXqX;X,X-X;X0XyX>X%X(.rX;X;X-X-X`.`.`.`.`.Q.Q.`.W.Q.`.(.`.`.).3.! g.oX.XM.|.|.|.f.f..Xf.m.f.}.}.N.9.",
"s.a.l z.LXKXDXPXAXAXS 0.iXqX_.qX,X,X:X;X%X%X%X$XrX_.-X;XqX-X_.-X_.`.`.`.`.`.(._.(._.`.`.=Xg.P y.G.G.|.}.M.M.G.F.f..X.X}.N..Xf.g.",
"S.a.x 1.SXLXKXSXLXCXS 4.iXiXqX-X<X<X<X,X;X*X*X$X:XqX-X-X-XqX-X_.-X_.`.`.`.`.Q.`.(._.-X=X^./.Q w.T.G.N.|. XV.V.C..Xf.N.}.N..Xf..X",
"D.z.J } VXLXLXKXKXFXQ w.tXyXyX;X0X0X0X*X*X8XtX).8X).0X_.0X_._._._.0X0X8X8X0X8XyX-X$X-X8X=X=X! 0.f.G.XX|.B.m.V..XF.B.B.B.}.|.N.XX",
"D.a.I I NXLXSXLXKXSXQ 3.iXiXyX0X&X&XwXtXtX=XpX8X9X9X8X8XqX-X-X_._._._._.`.&X-X-X-X$X-X0X=X*X0.! G.I..X}.B. XZ.V.V.}. X}.}.|.I.XX",
"a.z.q.i q.y.R.4X5XuXW ] !.iXwXwXnXiXiX5X!.@.J N ..9X^.iX0X-X:X_.qX;X-X&X).`.`.)._.(.&X8X*X=X/.! y.f.I..XB.V.C.F.G.C.N.M.}..XI.G.",
"A.D.a.E w r r 0 f q y 3 1 N 7.{.5X!.] , + + , + ; : z.9X9X-X,X:X;X(._.&X).&X;X$X_.$X$X&XeX*X).! P *.u.u.f.n.T.A.G.G.G.G.C.G.T.T.",
"D.a.S.A.c.6.=.=.s . . . O + , t + O + : ; ; O ; > : + W 9X0X,X$X-XqXqX-X-XqX0X0X;X%X$X;X*X*XwXd.9 8 8 8 8 8 < 8 1 9 p V V V C C ",
"S.Y.[.P.x.].].hXh . . = = . @ O O # N e ; 4 ; + + 3 : + pXwXrXrXqX-X-X;X0X-X-X-X;X;X;X>X*X%XtX=Xg.d.d.0.0.3.0.w.3.! R C V k V C ",
"u a.[.5X'.R.].].=.  = 6 d h O 2 v Z x A _  .( t N ( b : 9XiX_.;X;X;X;X-X-XqX;X%X%X;X%X;X>X*X*XyX;XqX=XtX>X=X8X8XrXwX8XpX>XtX>X>X",
"y } R.1X[.R.E.m . o - 6 F ~ D * Z Y } | >.,.+.7.+.6.+.9 5 9XiXyX-X,X,X-X-X;XqX;X%X,X%X%X%XeX*X-XtX%XyX*XeX*X*X8X>X;X8XeXtXtX>X>X",
"PXu H.2Xb.H.x.O . . 4 r m c F f S z S 4.;.8.7.<.,.@.7.+.+ iXwX*XqX*X;X;X;X&X*X>X:X*X>X%X<X>X>X>X;XrX(.eX&X>XeXeXtXeXwXeX%X>XtXaX",
"KXH H.1Xx.H.H.O O * 3 t m K ` > J x S 4.<.<.<.<.,.$.@.7.: d.iX8X,X;X*X*XqXqX;X;X>X%X>X>X%X%X>X>X>X*XrX;XqXrX*X8X*X>XeXeXeXtXeXyX",
"PXZ x.1XP.l.K e ~ ,.$.$.#.5.#.8 n J n <.;.8.<.,.,.,.7.n z pXwXqX>X>X*X%X;XrX;X&X>X%X%X>X>X%X>X%X;X,X$X;X-X;XqX0XeXqXrXqX,XrXyXaX",
"LXZ x.2Xb.S.~ O K ` } $.1.o.9 * M n k <.<.<.,.8.,.,.M : 5 iXiX:X>X%X%XeXeX8X*X*X*X>X>X%X>X>XeXeXrX;XrX-X0X_.0X&X0X&XqX-XeX>X>X>X",
"DXw c.5XK.H.K.. O c m [ ,.[ > 1 G M G T 7.$.+.,.$.+ > 3XS S Q /.Q.W.Q.%X9X^.{.9X>X:X;X0X9X9X^.9X9X3X=X`.{.^.^.^.Q.W.W.Q.{.`.{.{.",
"uXw l.1X~.b.L.L.O O d ~ L 4 . D n G s N ' ` %.G O @ 5XCX9X3.x z k 9 k k l 7 k k 5 k 9 : 7 , 1 : , , , 4 , , , 7 7 7 7 7 7 : : + ",
"ZXt ` 5XP.P.K.L.K.M . a ^ . O v n M G m g m @ f ].PXAXPXAXSXuX~.#X^.g.3XK.] I S C 1 ! uXbXmXBXBXBXmXmXmXNXNXNXVXVXNXnXnXVXnX[.l.",
"bX0 8 S.t.h.K.x.L.L.~ + [ =.t # c ^ b h O o e.jXPXKXPXPXLXLXAXKXSXFXSXSXSXKXSXSXw.S } SXPXKXUXUXPXPXPXPXPXPXPXPXKXPXUXUXUXUXUXUX",
"e @ < 0 4 < c b.H.H.L.O + + 0 # O @ O O o UXPXUXIXPXLXLXKXKXAXSXSXCXSXSXCXLXSXSX#Xp ! SXUXUXUXUXUXPXPXUXPXUXUXUXUXUXUXUXUXUXUXUX",
"f q.y.x.+.Z y x l.K.b.L.[ 7.K.6.' 4 KXPXVXPXPXKXLXJXPXLXLXCXPXCXDXmXy.A.O.U Y Z V 8 W T.KXUXUXUXPXPXPXLXIXPXPXPXIXIXIXPXUXIXIXUX",
"JXUXPXLXLXLXI 8 1.K.b.b.L.b.P.7.K 1 AXAXKXVXbXVXNX6X6XmXNX1.S y w w i r r w w < 1 9 y < t.KXPXUXLXLXLXLXLXLXLXLXPXIXLXPXLXLXIXIX",
"UXPXLXPXKXSXP.& +.P.K.b.P.L.K.6.J 1 R E P _ ) I U S P E l x 1 8 6XjXmXjXjX5XjXjXbXuXY.+.L bXPXJXAXKXSXLXLXSXSXAXSXSXSXSXSXKXKXKX",
"PXUXUXKXLXLXY.H I e.z.x.l.H.l.1.l > u Z r.Y.~.Y.1X2X3X3XP.2.1 w.bXBXHXHXHXvXvXcXzXcX5XL.4 %.JXLXSXSXLXAXSXSXCXMXMXNXFXuXuXtXuXuX",
"IXUXUXKXLXLXmXZ U O.%.%.$.O.^ f w A LXCXSXLXSXLXLXLXSXLXSX2X< 6.BXHXHXGXvXlXcXvXcXdXcX5X/ O.LXLXLXCXAXSXFX7Xd.w.s.y.0.d.u.g.d.d.",
"IXUXKXPXLXVXPX6XZ H U L / ' / Z 0 2XLXSXIXLXLXLXLXPXLXLXPXmX= *.jXBXHXlXkXkXlXlXlXzXzXhX{ { LXDXSXLXSXLX#X2.V i p V Y p V z V < ",
"UXIXPXKXPXPXLXPXPXPXPXJXLXPXPXZXVXJXPXPXPXPXJXPXPXPXLXPXJXJX8 f hXcXvXkXvXkXkXkXlXlXhXhXF } SXDXLXPXCXSXu.8 Z ! ! ! *.9.&.2.o.P ",
"IXUXKXPXKXUXKXPXPXLXKXPXPXPXLXLXPXIXPXZXPXIXPXIXIXJXPXPXLXPXg r jXhXgXvXfXsXvXkXzXzXzX].Y &.SXLXLXLXZXLXu.8 f.#X7X7X7X7X7X2X6.%.",
"6.UXUXPXPXLXPXPXPXPXIXPXPXLXIXIXIXIXIXPXDXIXLXLXIXLXLXLXKXVXi u 5XjXsXvXsXsXvXsXzXfXjX4XY y.SXPXLXPXLXSX! V T.oX7X+X+X+X+Xm o . ",
"= . JXPXZXLXLXIXIXUXPXIXIXLXLXSXSXLXSXLXLXSXLXSXSXLXCXSXLXSXu u hXcXdXkXvXvXsXsXzXzXxXsXg L.PXPXLXLXSXSX! ! oXoXI.OXXXOX-.X     ",
"F $ O %.].bXPXKXJXIXUXUXPXIXLXIXLXSXLXLXDXLXCXSXSXSXSXSXAXSXl u bXgXkXvXsXsXvXkXkXzXgXfXd R.UXPXLXSXLXCXY Y g.oXOXF.+X+Xg     $ ",
"6.y.y o @   O . $ $ d = q q g g &.jXLXLXSXLXCXAXKXSXAXAXKX2XH u hXhXcXkXzXdXfXsXkXgXxX].0 6XPXPXLXAXLXSXV ! oXXXOXOXOX9.  = - B ",
"a.r.i.1.1.#.J f 6 6 $ O   O   . o O.bX1XjX3X3XuX5X3XuX6X6Xr & i jXzXzXdXzXzXkXsXvXdXhXE.8 BXUXUXLXPXSXCX! o.oX7XOX+X9.X $ q u f ",
"#.@.#.3.#.o.( ( K m a q $ . o . * r i D Z U U Y W W y @ > * * * hXgXfXcXvXfXdXdXdXgXfXb.2 ZXUXUXPXLXSXFXZ ! oX7X+X9.X X   @ 0 q ",
">.>...1...+.$.` T 3 # O # w %.&.O.x o g H Y.6X5X5X6XY.H.A.j.j.= $.bXgXzXvXdXsXvXdXdXfXh.q PXUXIXLXPXAXFXJ *.+XjX-.X % X . @ q f ",
"2.>.,.,.$.@.t + O ; G w.a.A.D.a.e.4 o PXPXZXLXPXLXLXLXPXPXKXKXU c 4XcXgXfXvXcXsXgXcX].k.q PXJXUXPXPXLXVXH &.7X9.X %   . a 6 a s ",
">.@.<.] : + : n p.v.s.i.0.X.| #. .* D LXPXLXPXPXPXKXPXPXKXLXSX'.u P.jXgXvXsXsXxXzXvXgX=.D JXUXUXIXZXAXAXU =.h.X X X % $ q = 2 > ",
"l.l.,.; + : K.p.@.4.4.;.4.X.] ] $.t y PXLXPXPXJXLXPXLXKXLXAXLXNXU ) jXjXsXvXxXjXdXcXfX=.Z PXIXUXIXPXPXBX*   o   %   o - q O 4 ` ",
"7.t.O 4 M : N ,.7.2.4.4.Q ;.X.>.+.f 3 PXPXIXIXPXPXLXPXLXSXLXDXSX2X8 e.U.hXjXhXsXdXxXsXO./ IXUXIXIXPXLXjXo o   o   $ - 4 4 e z.t.",
"( ~ # L ~ M + N 7.X.W ..o.! R >. .A t SXPXLXPXLXIXLXLXLXSXSXSXFX7XW Y =.9.t.J.dXxXE.].' U IXPXIXPXIXKXBXf o   X   $ . = M t.p.l.",
"# . & f ~ ~ ~ O 5 5.4.R 4.] ]  . .t 0 KXLXPXPXLXLXLXLXSXSXSXSXSXuXA.H F ~ -.=.-.b.h.=.- ' PXLXUXPXKXPXBXD o .   - ~ %.7.t.7.S.r.",
"%.% % % & e s M > 9 1.W >.] ,. .b O @ LXLXLXDXLXLXSXLXSXSXSXSXSXSX6XBXJ.O.F Z f d a F q &.AXPXPXPXPXPXJXD @ - F B [ =.7.a.r.w.w.",
"U.E.*.X X & & c 0 * u $._ ; O O 4 0 2 PXPXPXLXIXSXLXSXSXSXSXSXSXSXSXLXPXLXDXjXU.h.PXLX~ y.LXPXJXPXIXUXBX# o - d ~ -.h.t.w.a.X.r.",
"OXU.OXXX{ X X B B u o O L r 6.x.b.%.  6XPXZXLXLXSXSXLXSXSXSXSXSXFXLXLXLXPXLXSXSXLXPXLXP &.CXPXPXIXUXUX. . $ a F ( =.7.v.s.!.D./.",
"Z.Z.Z.XXC.n.Y X = d r @ t.L.x.L.H.h.. 4XLXPXPXLXSXLXSXSXSXLXLXSXLXDXPXLXLXLXSXSXSXAXLXw.P SXLXPXUXUX. O O O d / 6.l.a.v.i.<.! X.",
" X X}.V.XXI.oXk.j   & o -.L.].L.J.h.. BXPXLXLXSXLXSXLXSXLXLXLXDXCXLXDXPXSXSXSXSXLXAXCX2Xi ! t.ZXUX$ $ O $ d q F / ( T Q ] S Z } ",
"|.m.}.}.M..XXXXXOXoXF     %.6.k.b.=.  PXPXPXLXLXSXLXLXSXLXLXAXSXLXLXLXJXLXSXSXSXSXLXSXMXy.i Z F $ . O a ~ O.=.6.e.w.r.d.w.2.2.2.",
"B.|.B.}.F..XI..XXXXXXXU.Y 8 o . $ # jXUXPXLXSXLXLXLXLXAXSXLXSXSXLXDXKXLXLXLXSXLXPXKXKXPXKXm * @ + 6 e D ' %.y.D.D.~.#X~.@X^.!./.",
"B.M.V.V.Z.F.V.V.XXV.XX.Xi } 6.'.mXUXPXLXLXLXPXLXLXLXPXLXLXLXLXLXAXPXLXKXLXLXLXLXJXUXKXUXUX6   O 4 6 t D #.E R 1.2.w.w.0.Q 4.3.2.",
"M.N.V.B.V.V.N.N.|..X.Xu.i Y mXKXUXKXPXPXPXPXLXLXLXJXLXIXPXLXDXmXPXKXPXLXLXLXLXPXLXPXUXPXxX@ $ . 2 0 c v r A l #.o.o.S Q T 3.] ;.",
"M.N.V.V.F.V.F.}..X X.XB.j q c %.=.H.L.6.A.L.H.j.e.e.-.O.F F r r Z Z H x.LXLXZXPXPXPXIXVX  . o o 6 G v L  . .+.| &.R P S Q W ;.] ",
"B.V.C.B.C.F.G.|.V.V.V.Z.B X X o O # . o   O * o . . o .   o . .     * . I 5XLXPXKXUX].o . .   - c ~ +.` +.] +.X. .| E P W ;.;.T ",
"V.B.V.V.V.N.|.}.}.V.I.Z.j % = * 6 6 4 e 0 0 o @ & @ - # q 0 q 2 r 3 O   * Z A.IXPXR..   .   6 6 e e e b e N E T P W J | n ..i.k ",
"B.B.C.N.C.N.N.f..XM.I.oXr X . 2 e s c v L v f f c f m c D D ~ ^ K G H y @ * U %.e 8 . o . . . . . O 4 O ; + O > O @ R l l <.a.S.",
"V.C.B.N.N.N.|.}.V.Z.I.Z.B o . 6 q 6 ~ ^ I ' K c v c c ~ ~ ( M n E E E W b o l Z ' ' # o $ [ 6.t.t.l.t.c.l.l.p.l.l.a.i.P.P.~.[.3X",
"}.N..X.Xm.f..Xf.N.F.U.U.h & @ r d ~ ~ F O./ ) E M M T 8.<.7.p.v... .] 3.r.5.w.5.$.6.%.* * v K h.R.[.[.l.l.v.l.K.S.'.'.[.~.S.P.r.",
"N..Xf.f.f..X.XF.oXI.U.J.0   e a ~ 6.j.b.y.+.$.1.K.!.P.!.K./.s.i.<.w.i.v.s.p.a.i.#.E | u 4 D m v 6.!.[.].].[.[.4X[.c.'.y. .G A A ",
"V.F..X.XN..Xf.C.XXU.A.{ = O 6 N ~ h.l.].Y.'.1X1Xv.z.7.p.7.d.i.p.s.i.:.W ] ..| | #.W E # x G v G M b v n l.!.!.,.@.K G v J A x L ",
"F.G..Xf..XN.G.XXU.U.9.g * o 4 q ( e.y.Y.[.'.~.i.i.i.s.i.l.8.:.:.] ,.<.] | | J x A l E 1 A A L n v G n M n M M M m L v K v A M x ",
"n.f.n.y.f.f.n.G.n.9.    o o e 6 I $.q.S.s.v.i.i.p.p.:.,.<.,.<.,.:.<.] E T S n R +.5._ 9 n L x ( b H Z n n n b v M m G v 3 y # ; ",
"/ { U { { *.9.*.F   $     O 6 b G ) 5.r.s.w.;.8.<.,.,.<.,.:.,.<.>.] n S W ..X.#.X.X.P y n J L ' _ Z H v G b M c b t O O y b +.a.",
"x.A.A.G.u.9.*.q X %   $ $ $ o L ( | | | o.4.T n T n b n n n n M N S n v W >.#.J E A A x A A G J ) ) H _ M b t # ; 4 =.l.z.l.a.!.",
"KXLXLXLXIXIXIXJ.        6   = / ] ....X.4.<.T T T T n M b ( ( ( ] _ A J J A J Z S J Z H J A v } Z l 8 + O ; ; p.c.K.t.c.K.c.[.~."
};
