/* XPM */
static char *result[] = {
/* columns rows colors chars-per-pixel */
"64 64 32 1 ",
"  c #010101",
". c #220000",
"X c #333300",
"o c #550000",
"O c #660000",
"+ c #442200",
"@ c #554433",
"# c #001144",
"$ c #775544",
"% c #881111",
"& c #991111",
"* c #997766",
"= c #888811",
"- c #AAAA33",
"; c #BBBB44",
": c #CC8855",
"> c #FFAA55",
", c #DD9966",
"< c #EEAA77",
"1 c #CCCC66",
"2 c #888888",
"3 c #AAAAAA",
"4 c #CC8888",
"5 c #FFBB88",
"6 c #FFCC99",
"7 c #FFEE99",
"8 c #FFDDAA",
"9 c #FFFFAA",
"0 c gray80",
"q c #FFEEDD",
"w c white",
"e c None",
/* pixels */
"eeeeeeeeeeeeeeeeeeeeeeeeeeeeeeeeeeeeeeeeeeeeeeeeeeeeeeeeeeeeeeee",
"eeeeeeeeeeeeeeeeeeeeeeeeeeeeeeeeeeeeeeeeeeeeeeeeeeeeeeeeeeeeeeee",
"eeeeeeeeeeeeeeeeeeeeeeeeeeeeeeeeeeeeeeeeeeeeeeeeeeeeeeeeeeeeeeee",
"eeeeeeeeeeeeeeeeeeeeeeeeeeeeeeeeeeeeeeeeeeeeeeeeeeeeeeeeeeeeeeee",
"eeeeeeeeeeeeeeeeeeeeeeeeeeeeeeeeeeeeeeeeeeeeeeeeeeeeeeeeeeeeeeee",
"eeeeeeeeeeeeeeeeeeeeeeeeeeeeeeeeeeeeeeeeeeeeeeeeeeeeeeeeeeeeeeee",
"eeeeeeeeeeeeeeeeeeeeeeeeeeeeeeeeeeeeeeeeeeeeeeeeeeeeeeeeeeeeeeee",
"eeeeeeeeeeeeeeeeeeeeeeeeeeeeeeeeeeeeeeeeeeeeeeeeeeeeeeeeeeeeeeee",
"eeeeeeeeeeeeeeeeeeeeeeeeeeeeeeeeeeeeeeeeeeeeeeeeeeeeeeeeeeeeeeee",
"eeeeeeeeeeeeeeeeeeeeeeeeeeeeeeeeeeeeeeeeeeeeeeeeeeee  eeeeeeeeee",
"eeeeeeeeeeeeeeeeeeeeeeeeeeeeeeeeeeeeeeeeeeeeeeeeeee 5< eeeeeeeee",
"eeeeeeeeeeeeeeeeeeeeeeeeeeeeeeeeeeeeeeeeeeeeeeeeee 5<<< eeeeeeee",
"eeeeeeeeeeeeeeeeeeeeeeeeeeeeeeeeeeeeeeeeeeeeeeeee 5<<<<< eeeeeee",
"eeeeeeeeeeeeeeeeeeeeeeeeeeeeeeeeeeeeeeeeeeeeeeeee 5<**<< eeeeeee",
"eeeeeeeeeeeeeeeeeeeeeeeeeeeeeeeeeeeeeeeeeeeeeeee 5<****< eeeeeee",
"eeeeeeeee   eeeeeeeeeeeeeeeeeeeeeeeeeeeeeeeeeee 5<<****< eeeeeee",
"eeeeeeee 555 eeeeeeeeeeeeeeeeeeeeeeeeeeeeeeeee 5<<<****< eeeeeee",
"eeeeeeee <55 eeeeeeeeeeeeeeeeeeeeeeeeeeeeeeeee 5<<<<**<< eeeeeee",
"eeeeeeee <<55 eeeeeeeeeeeeeeeeeeeeeeeeeeeeeee 5<<<<<<<<< eeeeeee",
"eeeeeeee <<$*5 eeeeeeeeeeeeeeeeeeeeeeeeeeeee 5<<<***<<<< eeeeeee",
"eeeeeeee <$$**5 eeeeeeeeeeeeeeeeeeeeeeeeeee 5<<<*****<<< eeeeeee",
"eeeeeeeee $$$$5 eeeeeeeeeeeeeeeeeeeeeeeeeee <<<<*<<**<<, eeeeeee",
"eeeeeeeee <$$<55 eeeeeeeeeeeeeeeeeeeeeeeee 5<<<<<<<<*<<, eeeeeee",
"eeeeeeeee ,<<$*55 eee  eeeeeeeeeeeeeeeeee 5<<<<<<<<<<<<, eeeeeee",
"eeeeeeeee ,<$$$*5 e  00   eeeeeeeeeeeeee 5<<<*****<<<<<, eeeeeee",
"eeeeeeeeee ,$$<<55 00  003 eeeeeeeeeeee 5<<<********<<,, eeeeeee",
"eeeeeeeeee ,,$<<<<5  33  33 eeeeeeeeeee 5<<**********<,,: eeeeee",
"eeeeeeeeeee      <<55 332  2 eeeeeeeee 5<<***<<<<****<,,: eeeeee",
"eeeeeeeee  000033  <55   22 2 eeeeeee 5<<<*<<<<<<<<**$,,: eeeeee",
"eeeeeeee 00      22 <55 e   2 eeeeee 5<<<**<<$$$$<<<*$,,: eeeeee",
"eeeeeee 0  333222   <<5  eee eeeeeee <<<<*<<$$$$$$<<*$,,: eeeeee",
"eeeeee 3333       $$ <<5      eeeee 5<<<<*<$$$$$$$$,,$,,: eeeeee",
"eeeeeee    eee ,<$$$$ <<  777  e   5<<<<<*<$$$$$$$$,,$,,: eeeeee",
"eeeeeeeeeeeeee ,,$$$$<  7www9 1  <<<<<<<<*<$$$$$$$$,,$,,: eeeeee",
"eeeeeeeeeeeeeee ,$$$$ 7  w79w 11;  <<<<<**<$$$$$$$$,$,,,: eeeeee",
"eeeeeeeeeeeeeee ,$$$$ 7w971w9w 11;; ,,,,$$<$$$$$$$$,$,,,: eeeeee",
"eeeeeeeeeeeeeeee ,$$ 799771771 1w;- , ,$$$,,$$$$$$,,$,,,: eeeeee",
"eeeeeeeeeeeeeeee :,$ 7X97111111;;--  8 $$,,,,$$$$,,$,,,,: eeeeee",
"eeeeeeeeeeeeeeeee :, 1 X771X11;--=X 86 $$,,$$,,,,,,,,,,,: eeeeee",
"eeeeeeeeeeeeeeeee :,  < X71XX;--==X86 $$,,,$$$$$$,,,,,,: eeeeeee",
"eeeeeeeeeeeeeeeee :, <<  X1X>XXX==X6> ,,,,$$,,,,,,,,,,,: eeeeeee",
"eeeeeeeeeeeeeeeeee :,,< #>XX >>>X=X> :,,,$$,,,,,,,,,,,: eeeeeeee",
"eeeeeeeeeeeeeeeeee :,, w 66X  6>X=X ::,,$$$,,,,,,,,,,: eeeeeeeee",
"eeeeeeeeeeeeeeeeee :,, # 86w# 6>XX :::@$$$,,,,,,,,::: eeeeeeeeee",
"eeeeeeeeeeeeeeeeeee :, qqq8#  6>X> :@@@@$,,,,,,,::   eeeeeeeeeee",
"eeeeeeeeeeeeeeeeeee :,, qqqq866>> @@@@@@::,,,,::  eeeeeeeeeeeeee",
"eeeeeeeeeeeeeeeeeeee ::: q8666>+++  @@@:::::::  eeeeeeeeeeeeeeee",
"eeeeeeeeeeeeeeeeeeeee  :: +++++8qqqq          eeeeeeeeeeeeeeeeee",
"eeeeeeeeeeeeeeeeeeeeeee  e %%OO+8888qqq86> ::  eeeeeeeeeeeeeeeee",
"eeeeeeeeeeeeeeeeeeeeeeee  w4&%%O++++6666> ::::: eeeeeeeeeeeeeeee",
"eeeeeeeeeeeeeeeeeeeeeee , %%%%OOooo.     :@@@:,,  eeeeeeeeeeeeee",
"eeeeeeeeeeeeeeeeeeeeee ,,:  oooooo.>    :@@@::,,,, eeeeeeeeeeeee",
"eeeeeeeeeeeeeeeeeeeeee <$@,:...oo.>>  :::@@::@,,,,, eeeeeeeeeeee",
"eeeeeeeeeeeeeeeeeeeeee <,@@,:  .o.>> e ::@::@,,,,,, eeeeeeeeeeee",
"eeeeeeeeeeeeeeeeeeeeee <$,@,: 6>.>6> ee ::::@,$$,,,, eeeeeeeeeee",
"eeeeeeeeeeeeeeeeeeeeee <<@,,: 86+66>   e :::@,$$,,,, eeeeeeeeeee",
"eeeeeeeeeeeeeeeeeeeeee <$,@, e 66 6>> > e ::$,,,,,,, eeeeeeeeeee",
"eeeeeeeeeeeeeeeeeeeeee <$,@, ee 66 >>> eee :$$,,,$,, eeeeeeeeeee",
"eeeeeeeeeeeeeeeeeeeeeee $$$, eee    >>> eee :$$$$,,, eeeeeeeeeee",
"eeeeeeeeeeeeeeeeeeeeeee <$, eeeeeeee  >> ee ::,,,,, eeeeeeeeeeee",
"eeeeeeeeeeeeeeeeeeeeeee <,, eeeeeeeeee  eeee ::,,, eeeeeeeeeeeee",
"eeeeeeeeeeeeeeeeeeeeeeee ,, eeeeeeeeeeeeeeeee :::: eeeeeeeeeeeee",
"eeeeeeeeeeeeeeeeeeeeeeeee  eeeeeeeeeeeeeeeeeee    eeeeeeeeeeeeee",
"eeeeeeeeeeeeeeeeeeeeeeeeeeeeeeeeeeeeeeeeeeeeeeeeeeeeeeeeeeeeeeee",
"eeeeeeeeeeeeeeeeeeeeeeeeeeeeeeeeeeeeeeeeeeeeeeeeeeeeeeeeeeeeeeee",
"eeeeeeeeeeeeeeeeeeeeeeeeeeeeeeeeeeeeeeeeeeeeeeeeeeeeeeeeeeeeeeee"
};
