/* XPM */
static char *c4f0b2452c1e42ff971333418d1ac0c5eWIteESQi5rhXB20[] = {
/* columns rows colors chars-per-pixel */
"64 49 240 2 ",
"   c None",
".  c #0A0906",
"X  c #140A05",
"o  c #150D0A",
"O  c #1A0E09",
"+  c #150805",
"@  c #1C110B",
"#  c #171514",
"$  c #190619",
"%  c #2D0D0A",
"&  c #280C06",
"*  c #22130C",
"=  c #2B120E",
"-  c #23180C",
";  c #33160C",
":  c #2C1C14",
">  c #271813",
",  c #3C1D14",
"<  c #3E1D19",
"1  c #341B17",
"2  c #2B0E17",
"3  c #29221F",
"4  c #322116",
"5  c #38261C",
"6  c #382917",
"7  c #3C1824",
"8  c #3F1532",
"9  c #282621",
"0  c #392B25",
"q  c #3C3227",
"w  c #4C190E",
"e  c #4C1E15",
"r  c #51181A",
"t  c #462719",
"y  c #522E1B",
"u  c #481925",
"i  c #4C1832",
"p  c #561C3A",
"a  c #4D1329",
"s  c #601E31",
"d  c #432522",
"f  c #432B24",
"g  c #4B2D23",
"h  c #472929",
"j  c #562D26",
"k  c #47372A",
"l  c #543224",
"z  c #5B3A2C",
"x  c #58372A",
"c  c #4D253B",
"v  c #592636",
"b  c #463A33",
"n  c #5B3633",
"m  c #543A32",
"M  c #5B3B31",
"N  c #57363A",
"B  c #663B29",
"V  c #733C2B",
"C  c #672737",
"Z  c #653939",
"A  c #733534",
"S  c #584537",
"D  c #5A513D",
"F  c #69462D",
"G  c #6C4333",
"H  c #64443A",
"J  c #684739",
"K  c #744234",
"L  c #7C4B3B",
"P  c #774838",
"I  c #7B543B",
"U  c #571D44",
"Y  c #531D4C",
"T  c #651D51",
"R  c #572447",
"E  c #4B2A57",
"W  c #522D5D",
"Q  c #572959",
"!  c #4E3359",
"~  c #58315A",
"^  c #472346",
"/  c #662749",
"(  c #6C3745",
")  c #773A48",
"_  c #632555",
"`  c #652A53",
"'  c #682758",
"]  c #722E57",
"[  c #7B3558",
"{  c #6F3350",
"}  c #552B62",
"|  c #5D2C6A",
" . c #582B63",
".. c #5C326B",
"X. c #5B3566",
"o. c #6B2B63",
"O. c #622D6D",
"+. c #672967",
"@. c #732B68",
"#. c #63336C",
"$. c #6C3569",
"%. c #74336C",
"&. c #733264",
"*. c #692D74",
"=. c #772C74",
"-. c #6B3474",
";. c #6B3974",
":. c #6D3379",
">. c #6E3B7C",
",. c #663773",
"<. c #733374",
"1. c #73347C",
"2. c #7C357B",
"3. c #743B7C",
"4. c #7A3B7D",
"5. c #763775",
"6. c #594944",
"7. c #554E46",
"8. c #684846",
"9. c #774948",
"0. c #675647",
"q. c #7C534B",
"w. c #775546",
"e. c #7A4859",
"r. c #665958",
"t. c #775A54",
"y. c #77665D",
"u. c #6C6358",
"i. c #6C4877",
"p. c #754577",
"a. c #725471",
"s. c #7D6E67",
"d. c #7B7062",
"f. c #854C39",
"g. c #88583D",
"h. c #804B2E",
"j. c #89623E",
"k. c #843E5C",
"l. c #874849",
"z. c #885A47",
"x. c #955D4C",
"c. c #914B54",
"v. c #8C5D53",
"b. c #885A55",
"n. c #955856",
"m. c #884854",
"M. c #8B644E",
"N. c #986549",
"B. c #896453",
"V. c #976757",
"C. c #987254",
"Z. c #A36949",
"A. c #A3714E",
"S. c #A56859",
"D. c #A97558",
"F. c #B07A59",
"G. c #8B4964",
"H. c #9B5B65",
"J. c #8F5272",
"K. c #8B6962",
"L. c #9A6C67",
"P. c #897867",
"I. c #9A766A",
"U. c #8B7E72",
"Y. c #A76B67",
"T. c #AC7464",
"R. c #A87767",
"E. c #B57C6A",
"W. c #B77A69",
"Q. c #B97C74",
"!. c #AD7371",
"~. c #A65D56",
"^. c #C57B68",
"/. c #938876",
"(. c #958B7C",
"). c #AA8169",
"_. c #B98769",
"`. c #A68A75",
"'. c #B78776",
"]. c #BD9479",
"[. c #C78A79",
"{. c #CC937B",
"}. c #C8977B",
"|. c #D49B7C",
" X c #CC8B6C",
".X c #FA9977",
"XX c #E28A72",
"oX c #D1A97C",
"OX c #763583",
"+X c #7A3484",
"@X c #753A81",
"#X c #7B3A82",
"$X c #7D3A8A",
"%X c #79378A",
"&X c #794484",
"*X c #7D5187",
"=X c #823A81",
"-X c #83578A",
";X c #84638A",
":X c #8C6693",
">X c #96729A",
",X c #967591",
"<X c #A9728E",
"1X c #9874A3",
"2X c #A67EA9",
"3X c #9B9086",
"4X c #A29888",
"5X c #AA8C8E",
"6X c #B2A593",
"7X c #B399B7",
"8X c #AC90B3",
"9X c #BEB2A5",
"0X c #C88C86",
"qX c #CC9584",
"wX c #CA9787",
"eX c #D29784",
"rX c #CA9591",
"tX c #D69C9F",
"yX c #D08A8E",
"uX c #EA9E8D",
"iX c #D7A689",
"pX c #D8A696",
"aX c #D1AC93",
"sX c #E9A98D",
"dX c #E8B597",
"fX c #EEAD8F",
"gX c #D7A9A2",
"hX c #C7B8A4",
"jX c #E6A8A5",
"kX c #E8B8A1",
"lX c #EFC59F",
"zX c #D7C8B5",
"xX c #CCC0B4",
"cX c #F9CFB1",
"vX c #F0C2A5",
"bX c #D9CFC7",
"nX c #E4DBCC",
"mX c #EBE5D5",
"MX c #F7E9D6",
"NX c #FAF5F5",
/* pixels */
"                                                                                                                                ",
"                                                  v.L.  I.B.B.                                                                  ",
"                                                  Y.S.n.0XqX[.'.R.M.                                                            ",
"                                                  ^.l.A Y.jXjXjXjXwXwX].                                                        ",
"                                                  !.m.s C G.G.H.<X<XtXdXiXpXpX                                                  ",
"                                                b.L.H.( / &.%.5.&.%.G.H.c.H.yXpXrXeXeX].                                        ",
"                                                r.v.L.c.s ' #X#X2.<.=.@.' T ] G.m.n.Y.rXgXgXrX                                  ",
"                                                0.L N.Y.C T <.*.#X+X+X$X=X<.<.%.o.' _ k.J.rXtXrXrXwX'.                          ",
"                                                r.F N.E.( R +.<.#X#X@XOXOX:.OXOX@X1.*.+./ [ &.e.!.pXrXqXiX                      ",
"                                                r.S V.!.) p +.1.3.3.@X1.:.-.,.>.@X$X+X1.$.%.$.` ] G.H.yXuXyX                    ",
"                                              4Xm x f.v.( U $.<.:.1.#XOXOX-.,.#.| *.:.O.~  . . .<.@.o.[ k.[ C )                 ",
"                      3Xy.t.S 6.t.s.y.u.r.r.r.8.Z L g.P C i _ <.1.+X%X%X$X1.O.| | } } | W Q O.>.@X#Xk.@.o./ _ p N (             ",
"                  6.0.m M J l k 0.8.m k q S D w.v.V.S.V.l.C / @.2.OX+X$X$XOXO.| } W ! X.X.,.;.3.3.&X&X&X-X:X2X5X,X8.N           ",
"                  k x f g H x z J J x g f H b.b.B.x.S.T.Y.l.C ` <.+XOX+X+X:.O...W E ! X.#.#.,.*X:X>X               b3Xs.t.      ",
"                  0 f , , z z F H Z x F F I z.B B L Z.D.W.W.l.p ] <.1.OX#X@X:.O.} ! ! ! p.:X2X                           XiX    ",
"                  5 d t % 6 g M l g B P f.L P B j L ~.D.F._.Y.Z / 5.<.3.:.-.,.,...X.a.*X8X                                      ",
"                    q h 7 ; t Z 5 6 9.V.S.~.x.z.y.C.T.F.A.F.R.L.( ` $.,.} | >.@Xi.:X7X                                          ",
"                        h : 6 H 5 t v.^.XXXX^.A.C.B.V.w.B z.D.R.b.C { ~ } ..&X-X8X                                              ",
"                          , l w.t d V. X.X.X.X XA.N.w.F t y M.'.0Xn.v Q  .>.1X                                                  ",
"t.w.8.                  l t D.[.x , l.E.XX.XfXfXiX].R.M.I g.A.}.0X^.c.( { >X                                                    ",
"t.q.P q.K.        6.; ; e f.eX XP ; n v.S.Q.eXdXcXcXlX}.).N.C._.0XqX[.Q.b.s.K.                                                  ",
"t.B.v.j j V.rX'.v.q.G V f.'.S.f.K , % g n J q.C.}.iXiX X X_.A.N.L z._.iX}.B.                                                    ",
"K.B.T.V w A !.yXrXeX0X'.'.Q.A e e , % % 1 d d l K g.A.A._.oX_.N.B y j.oXlXiX                                                    ",
"I.M.W.z.r a s c.^.^.[.Q.Y.9.h r h e 2 1 0 0 t t t B I L g.oX}.N.P F C.oXlXeX                                                    ",
"  V.E.Y.s p / / ) C / C v v v v 8.S 1 d m x g g n H j y P '.pXiX_.I F g._.{._.Z.N.                                              ",
"    W.5X( R $.%.' T _ _ U p p p p R u % g z S x n h d Z n B x.'.dXdXR.z.K S.|.|.F.N.                                            ",
"      eXb.i <.=.1.<.%.%.+.' ' _ U i u 2 % ; , 5 n d ; e P P w B }.vXkX'.K V A.fX}.D.f.                                          ",
"      uXR.u +.+X+X2.*.<.<.*.<.=.+.U i u % O ; 2 n 8.d < J B w x.wX)._.D.F.Z.f.F._.).I F                                         ",
"      fX{.Z Q 2.+X<.:.1.3.2.2.=.@.o.U a a 8 h h Z 8.h < B r P qX|.h.g.{.sX XN.g.C.).`.P.                                        ",
"      {.[.9.U <.1.1.1.@X@X2.=.=.5.$.o.T Y Y 8 7 N 8.m d x j K R.}.Z._.oX|.iX_.j.g.J `.hX                                        ",
"        Y.l.i +.1.*.OX1.1.#XJ.2.3.;.5.=.=.+. .^ 7 b N v n K K N._.sXdX XD.D.N.'.`.J D hX                                        ",
"        S.n.v ` :.*.:.:.>.3.OX=.<.O.+.2.k.OXY 2 2 : 1 1 n q.P F M.iXiX_.A.j.I aXcX6XD /.zX                                      ",
"        W.~.Z R -.,.>.,.#.#.,.<.-.| -.#X-.^ $ o + * = = f M l t S F C._.w.y D hXMXnX/.S /.6X                                    ",
"        ^.^.A c <.3.,... .} ~ #.-.:.;.3.^ $ . . o O - - 1 g x S y 6 I `.`.S 6 /.mXmXhXD q /.4X                                  ",
"        S.^.V.v Q 4.,.W } ! E ! ..>.*X>Xr.# . . + + X - : 1 h S q - k w.(.4XS 9 (.nXnX3Xk 6 D                                   ",
"          !.E.) p #.,.X.W ~ E E X.;X7X      9 @ * * X X 4 f 4 > 4 k k k 0.4X4X6 q d.xXzX/.k 6                                   ",
"          B.W.~.R R ..} } ~ E E *X7X          q * O O + X 4 5 5 3 D u.S q 0.6Xd.- : u.9XhX(.b                                   ",
"            T.'.9.R ..} Q #.~ i.8X              b 2 @ O X X @ k b 6 u.d.D 6 0.    - 5 u.bX                                      ",
"            V.5Xl.h W } | ;.#.:X                  7.: o @ X X @ q q 0 7.            q b                                         ",
"              R.V.v Y  .<.3.a.7X                      9 @ o X X O 5 S q                                                         ",
"                D.q.v o.;.3.:X                          q # o X X @ 3 S                                                         ",
"                I.I.( R &.5.>X                            7.# o X o # b                                                         ",
"                    l.v ` J.                                  3 . . . #                                                         ",
"                      C p a.                                    0 # # # #                                                       ",
"                      A u e.                                        9 #                                                         ",
"                      !.J q.                                                                                                    ",
"                      5XI.K.                                                                                                    ",
"                      !.5XI./.                                                                                                  ",
"                          L.t.                                                                                                  "
};
