/* XPM */
static char *result[] = {
/* columns rows colors chars-per-pixel */
"64 64 31 1 ",
"  c #010101",
". c #221100",
"X c #222222",
"o c #332222",
"O c #443311",
"+ c #444433",
"@ c #554433",
"# c #555533",
"$ c #444444",
"% c #555555",
"& c gray40",
"* c #777777",
"= c #883300",
"- c #886633",
"; c #DD6600",
": c #997744",
"> c #997755",
", c #888855",
"< c #888888",
"1 c gray60",
"2 c #AAAA88",
"3 c #BBBB99",
"4 c #AAAAAA",
"5 c #BBBBBB",
"6 c #DDCCAA",
"7 c gray80",
"8 c #DDDDDD",
"9 c #EEEEDD",
"0 c #EEEEEE",
"q c white",
"w c None",
/* pixels */
"wwwwwwwwwwwwwwwwwwwwwwwwwwwwwwwwwwwwwwwwwwwwwwwwwwwwwwww    wwww",
"wwwwwwwwwwwwwwwwwwwwwwwwwwwwwwwwwwwwwwwwwwwwwwwwwwww    >>>@ www",
"wwwwwwwwwwwwwwwwwwwwwwwwwwwwwwwwwwwwwwwwwwwwwwwww   >>>>@@@@ www",
"wwwwwwwwwwwwwwwwwwwwwwwwwwwwwwwwwwwwwwwwwwwww    >>>>@@@    wwww",
"wwwwwwwwwwwwwwwwwwwwwwwwwwwwww    wwwwwww    >>>>@@@@    wwwwwww",
"wwwwwwwwwwwwwwwwwwwwwwwwww    <<11 ww    >>>>@@@@    wwwwwwwwwww",
"wwwwwwwwwwwwwwwwwwwwww    <<1554&&&  >>>>@@@@    wwwwwwwwwwwwwww",
"wwwwwwwwwwwwwwwwwwwww $$44554<<<**&@@>@@@    wwwwwwwwwwwwwwwwwww",
"wwwwwwwwwwwwwwwwwwwww $X$1<<*<<***&@@@    wwwwwwwwwwwwwwwwwwwwww",
"wwwwwwwwwwwwwwwwwwww >@@X1<*****&&&   wwwwwwwwwwwwwwwwwwwwwwwwww",
"wwwwwwwwwwwwwwwwwwww >@@X1*****&&&% wwwwwwwwwwwwwwwwwwwwwwwwwwww",
"wwwwwwwwwwwwwwwwwwww @@XX1**&&&%%%% wwwwwwwwwwwwwwwwwwwwwwwwwwww",
"wwwwwwwwwwwwwwwwwwwww  X$$1*&&%%%%%% wwwwwwwwwwwwwwwwwwwwwwwwwww",
"wwwwwwwwwwwwwwwwwwwwww $$$1**&&&&&&&* wwwwwwwwwwwwwwwwwwwwwwwwww",
"wwwwwwwwwwwwwwwwwwwwwww $$1<****&***** wwwwwwwwwwwwwwwwwwwwwwwww",
"wwwwwwwwwwwwwwwwwwwwwww $$1<***********       wwwwwwwwwwwwwwwwww",
"wwwwwwwwwwwwwwwwwwwwwww $111<*************147 wwwwwwwwwwwwwwwwww",
"wwwwwwwwwwwwwwwwwwwwwww $541<<***********180q wwwwwwwwwwwwwwwwww",
"wwwwwwwwwwwwwwwwww wwww 55411<<****  ***10qq wwwwwwwwwwwwwwwwwww",
"wwwwwwwwwwwwwwwww ,  w 7554411<<** 6, <1qqq wwwwwwwwwwwwwwwwwwww",
"wwwwwwwwwwwwwwwww 6,  0885544111< 66,,  qqq   wwwwwwwwwwwwwwwwww",
"wwwwwwwwwwwwwww                          q ,, wwwwwwwwwwwwwwwwww",
"wwwwwwwww       :::-----::--::----------                  wwwwww",
"wwwwwwww ::---- :::----O:- -:::--------- O -:---OOOOO.. .. wwwww",
"wwwwwwww ::---- :   --O :- -:::-----:---O  -::--OOOOO.. .. wwwww",
"wwwwwwww : ---- ::---O   -- --::----::--OOO-::--OOOOO   .. wwwww",
"wwwwwwww  ----- ::--OO == -- --:-----::--OO--:--OOOOO.. .. wwwww",
"wwwwwwww :------ : -O =;;= -- --:----::--OO--:--OOOOO.  .. wwwww",
"wwwwwwww :---:--  -O =    = -O -:---O::--OOO-:--OOOOO.. .. wwwww",
"wwwwwwww  ---:-- --O  9993  -- -----O::-- OO----OOOOO..... wwwww",
"wwwwwwww :---:-- -O  qq9993  -O ----O::--O O----OOOOO..... wwwww",
"wwwwwwww :---:----O 9qq#2933 -- ---OO::-OOOO----OOOOO..... wwwww",
"wwwwwwwww --- :---O 9q# #933 -- ---O :--  OO---OOOOOO..... wwwww",
"wwwwwwwww --- :---O 99# #933 --O---O ----O O---OOOOO...O.. wwwww",
"wwwwwwwww --- :---O 992#2933 --O---  ---  OO---OOOOO...O. wwwwww",
"wwwwwwwww --- :---O  999933  --O---O ----O O---OOOOO...O. wwwwww",
"wwwwwwwwww --- ----O  3333  ---O--   ----O O--OOOOO.. O.. wwwwww",
"wwwwwwwwww --- -  -O =    = --- ---O ----- O--OOOO... O.  wwwwww",
"wwwwwwwwww ---  ----O =;;= ---- ---O :----O --OOO.... O.  wwwwww",
"wwwwwwwwww --- -- ---O == -:--- --OO :----O O-OO.... OO.  wwwwww",
"wwwwwwwwww ----  ----O   -:---O --O -:-----O OOO.... O.  wwwwwww",
"wwwwwwwwww - :- ------O -::---O --O -:-O-- -O ..... OO.  wwwwwww",
"wwwwwwwwwww -:-- -----O -:---O ---O ::-O-- --O ... OO. . wwwwwww",
"wwwwwwwwwww --:-- -----O::---O --OO :-O --O -O. . OO..  wwwwwwww",
"wwwwwwwwww -- :-- -----O:---OO --O -:-O --O -O. . O.. . wwwwwwww",
"wwwwwwwwww     :-O -----:--OO --O ---O   OOOO O. .. .... wwwwwww",
"wwwwwwwwww ---- -- -----:--OO -O ---OO .. OOO O. .. .... wwwwwww",
"wwwwwwwww -----O--O ------OO --O --OO -OO. OO....o .....o wwwwww",
"wwwwwwww -::---OO-O O-----O --O --OO ---OO. OO...o ....oo wwwwww",
"wwwwwww -:::---  OOOOO---OO -O --O -::--OOO. O. .o ....o+ wwwwww",
"wwwwwww -:::-- OO OOOO---O --O -OO :::-OO... O. o ....  +  wwwww",
"wwwwwww ---::---OOOOOOO--O --O -O -::-O      O. o ......  . wwww",
"wwwwwww  ---:---  OOO.O--O -O --O -::O---OOOO . o .....o+ . wwww",
"wwwwww -OO----- O. OO. --O--O -O -::-::-     O  o .....o+ .o www",
"wwwww - -OO ----OO. O. OOO--O -O ---:- -----OO. o ...o+++.o+ www",
"wwww ::-- -O ----O. OO OO.-OO -O -- ---:::---OO. ....o+ ..o+ www",
"wwww ------O O--OO..O.. O.OOO -O -- O -::----OO. ..o++ ..o+ wwww",
"wwwww - ---OO O-OO..... O. OOO O --O  -:----O O. ..   ...o+ wwww",
"wwwww - ----O OOOO..   ...  OO OO OOO ----- O .. .oo++ ..o+ wwww",
"wwwwww - ---O .OO... w    .        OO ----      .o++  ...o+ wwww",
"ww   ::-----O. wwwww O O.....o+ wwww ------    wwwww ...o ..  ww",
"w -::-----OO.. wwwww O. ....oo+ wwww -------OO. wwwww ......o+ w",
"w ----OOOO..  wwwwww O.....o++ wwwww --OOOOOO.. wwwww .....o++ w",
"ww          wwwwwwwww         wwwwwww          wwwwwww        ww"
};
