/* XPM */
static char *result[] = {
/* columns rows colors chars-per-pixel */
"64 64 247 2 ",
"   c #1D0100",
".  c #230300",
"X  c #2B0400",
"o  c #270900",
"O  c #2A0C01",
"+  c #310600",
"@  c #340B01",
"#  c #3B0D00",
"$  c #3B0400",
"%  c #2D1003",
"&  c #341303",
"*  c #3D1201",
"=  c #331409",
"-  c #3A140A",
";  c #3B1B0C",
":  c #371908",
">  c #3E1B12",
",  c #3E2212",
"<  c #440D00",
"1  c #441301",
"2  c #4B1500",
"3  c #441902",
"4  c #4D1B01",
"5  c #441C0C",
"6  c #4C1D0C",
"7  c #41160D",
"8  c #531C01",
"9  c #531C05",
"0  c #441D12",
"q  c #4A240A",
"w  c #542301",
"e  c #5B2403",
"r  c #54240B",
"t  c #5B260A",
"y  c #542A0E",
"u  c #5C2A0B",
"i  c #5C2B04",
"p  c #5E3104",
"a  c #452414",
"s  c #4D2413",
"d  c #4A2719",
"f  c #532512",
"g  c #542C14",
"h  c #5A2B13",
"j  c #552C1B",
"k  c #5A2D1B",
"l  c #552617",
"z  c #5D341B",
"x  c #583219",
"c  c #632B05",
"v  c #642C0B",
"b  c #682E0C",
"n  c #632707",
"m  c #6B320C",
"M  c #643309",
"N  c #72350C",
"B  c #74390E",
"V  c #783B0E",
"C  c #632E14",
"Z  c #642F18",
"A  c #653413",
"S  c #6C3513",
"D  c #6E3A15",
"F  c #63331C",
"G  c #6C361B",
"H  c #6C3B1B",
"J  c #643A1C",
"K  c #713511",
"L  c #733C14",
"P  c #743D1B",
"I  c #773B16",
"U  c #5B342A",
"Y  c #5B3523",
"T  c #552D21",
"R  c #633622",
"E  c #643B24",
"W  c #6B3C23",
"Q  c #683C2B",
"!  c #743D21",
"~  c #623C33",
"^  c #7B4314",
"/  c #73411B",
"(  c #7B441D",
")  c #784417",
"_  c #6E401E",
"`  c #6C442A",
"'  c #6C4225",
"]  c #754324",
"[  c #7B4523",
"{  c #7C4A24",
"}  c #724329",
"|  c #7B472B",
" . c #754A2A",
".. c #7B4C2B",
"X. c #774B26",
"o. c #7E522A",
"O. c #764A34",
"+. c #7B5336",
"@. c #6F4F36",
"#. c #7E5340",
"$. c #81461D",
"%. c #834A1C",
"&. c #84521E",
"*. c #824623",
"=. c #834C25",
"-. c #8A4D26",
";. c #844C2B",
":. c #894E2A",
">. c #824529",
",. c #84532C",
"<. c #8C532C",
"1. c #8B5628",
"2. c #91542D",
"3. c #955C2D",
"4. c #985C2C",
"5. c #864E31",
"6. c #835333",
"7. c #8B5532",
"8. c #8C5A33",
"9. c #8C563A",
"0. c #865A3A",
"q. c #8B5B3A",
"w. c #855739",
"e. c #925633",
"r. c #945C34",
"t. c #995C34",
"y. c #945D3A",
"u. c #9A5E3B",
"i. c #91543B",
"p. c #96622D",
"a. c #956334",
"s. c #9B6334",
"d. c #9E6A34",
"f. c #95623C",
"g. c #9C643C",
"h. c #9D6A3C",
"j. c #966A3D",
"k. c #8E6230",
"l. c #A26536",
"z. c #A36B36",
"x. c #A3663C",
"c. c #A46B3C",
"v. c #AA6C3C",
"b. c #AB6B37",
"n. c #A5723E",
"m. c #AC733D",
"M. c #AC793E",
"N. c #A77037",
"B. c #B2743E",
"V. c #B4793E",
"C. c #A25F32",
"Z. c #965E40",
"A. c #8F5D44",
"S. c #8C6344",
"D. c #936342",
"F. c #9B6642",
"G. c #9D6B43",
"H. c #9D6C4B",
"J. c #91654A",
"K. c #996C53",
"L. c #9C704F",
"P. c #A16543",
"I. c #A36C43",
"U. c #AA6D43",
"Y. c #A46C4A",
"T. c #AB6E4A",
"R. c #B06F45",
"E. c #A57244",
"W. c #AC7444",
"Q. c #AC7845",
"!. c #A5734A",
"~. c #AC744B",
"^. c #AD794B",
"/. c #A7784E",
"(. c #B27544",
"). c #BA7644",
"_. c #B47A45",
"`. c #BA7B44",
"'. c #B3764B",
"]. c #BA764B",
"[. c #B47B4B",
"{. c #BA7B4B",
"}. c #A67352",
"|. c #AC7452",
" X c #AD7A53",
".X c #AB7A5A",
"XX c #B37651",
"oX c #B47B53",
"OX c #BA7C52",
"+X c #B37D5A",
"@X c #B87B55",
"#X c #A46E51",
"$X c #C07B52",
"%X c #BB824D",
"&X c #B6804C",
"*X c #B68254",
"=X c #BB8354",
"-X c #B6825A",
";X c #BB845B",
":X c #BC8958",
">X c #AE8359",
",X c #BD8A63",
"<X c #BC906B",
"1X c #CB8B4E",
"2X c #C1864E",
"3X c #C28654",
"4X c #C48A55",
"5X c #CB8C53",
"6X c #C48C5C",
"7X c #CC8D59",
"8X c #C58559",
"9X c #D28E58",
"0X c #CC925B",
"qX c #CA925B",
"wX c #D39255",
"eX c #D3945C",
"rX c #D9965C",
"tX c #D59B5C",
"yX c #DB9A5D",
"uX c #DCA15E",
"iX c #C48C64",
"pX c #CC9463",
"aX c #C99769",
"sX c #D39561",
"dX c #D49B64",
"fX c #DB9B63",
"gX c #D39B6A",
"hX c #DB9E6A",
"jX c #D89663",
"kX c #D79C73",
"lX c #CA9471",
"zX c #E19E63",
"xX c #DDA364",
"cX c #DBA46A",
"vX c #D7A36A",
"bX c #D4A272",
"nX c #DAA473",
"mX c #DDAB74",
"MX c #DBAB7C",
"NX c #E2A365",
"BX c #E3A56A",
"VX c #E3A96B",
"CX c #E2A966",
"ZX c #E5AC7C",
"AX c #E3AA73",
"SX c #E5B27C",
"DX c #E3B180",
/* pixels */
"pXbXmXbXvXaX:Xj.k.k.k.&.&.o.1.p.d.1.&.%.&.4.E.:X6XkXkXkXkXkXpX8Xc.k.a.k.6.6.D..X<X>Xk.p q w p p ) 1.k.d.n.Q._._.&X4X6X4X=X=X[.Q.",
"dXvXvXvXcXSXSXSXmXmXmXnXcXmXvXtXaX6X4X:X4X4XqXpXgXgXkXkXnXcXhXkXZXvXgX-XL.w._ ] A p _ X.j.n.Q.>X%XqXaXgXgXdXgXdXdXgXdXdXdXdXsXdX",
"dXNXvXcXAXAXAXVXCXCXvXxXxXcXuXqXdXtX0X0X0X0XqXqXdXsXsXdXdXdXxXcXvXmXSXnXlX}._ i /.<XlXgXbXMXmXvXpXdXxXdXeXeXeXeXrX9X5X5XwX1X5X0X",
"zXBXVXVXNXxXxXNXVXVXCXcXBXVXVXxXxXtXtXwXtXuXuXuXxXfXdXxXvXuXuXxXxXvXmXbXbXaXf.X.,XMXDXDXbXbXaXgXcXfXtXtXeXwXrXyXzXwX1XwX5X1X1X5X",
"zXzXBXBXzXzXNXBXzXzXBXzXNXzXzXzXrXrXyXyXuXuXuXtXxXxXxXxXNXCXCXCXxXtXcXnXgXaXf.( lXnXgXSXZXZXkXZXcXrXwXwX5X1XwXwXyXwX1X1X1X5XwXwX",
"rXzXzXzXzXyXyXyXyXrXzXzXzXzXyXyXrXyXyXyXyXuXuXuXxXxXxXxXxXCXxXCXxXtXtXdXiX;Xr.=.aXnX6XpXjXZXZXBXdXwX1X1X1X1X5XwXrXwX1X1X1XwXwXwX",
"jXjXzXjXzXjXzXzXfXrXrXjXjXzXzXzXrX9XwXyXyXrXyXNXCXVXxXuXCXCXCXuXCXAXcXnXgX;X,.=.iXpX3X8X8X5X8X7X4X3X2X4X4X5X0XtXwXwX5X3X7XqXtXtX",
"jXzXfXzXjXzXfXjXzXfXjXhXzXhXjXzX9XrXyXzXyXyXyXNXBXxXyXfXxXVXCXxXxXSXpX=XoXI.L ( pXgX%X`.(.(.{.{.{.[.`.%X1XqX0XeX0X7X4XqXqXqXqXpX",
"hXfXjXjXdXfXfXyXfXjXzXsXhXjXeXjX9X9XzXzXjX9XfXyXxXfXxXmXcXCXCXvXmXSXiX/.oX;.t [ pXpX[._._.).%X_.[.[._.W.[.3X4X7XqX%X=X3X4X6X0XpX",
"BXhXjXjXfXjXfXfXsXrXjXsXdX9X3X8X8X8X8X9XjXrXeXdXxXdXvXvXvXvXuXtXmXbXiX}.w.t 2 X..X;X[.^.Q.W.{.~.[.[.[.[.{.%X8X8X_.[.[.=X=X=X6X6X",
"pXhXhXpXsXsX0X7X9X7X9X7X0X{.(.v.(.'.(.[.{.%X%X&X:X7XqXqXvXvXtX,X,X.XL.A.R g 3 f S./././.E.h./. X!.W.W.W.W.'.'.'.'.v.x.z.U.[.'.!.",
"x.@XpXpX6XOX%X4X6X3X;XpX'.%.%.t.f.a.r.j.s.g.s.s.I.!./.E.&X*X!.n..XS.J.@.k f * * g X.q.L..X.X X.X!.~.~.T.~.~.~.~.T.I.f.e.e.f.f.8.",
"Y.L.L. X>XG.,.,.8.a.q.0.y.G.H.6.......o...o...o.0.0.w.8.D.G.G.L.S. .+.Q j > O : 5 g E @.S.L.K.K.H.J.Z.q.9.y.A.f.H.A.8.6.q.q.} r ",
"j E ` ' ' z z z ` ` ' ` z x x x d k k g g x g g g g s y g f q y g ; d , d , = > d a q a Y E Q Q R R z h g h h k Z z x s s k Q ' ",
"          o O o o o o O   o .     . o . . . . . . . o X X X X o   . O                         . . o o . X . X . . . o . .       ",
": O % ; , ; , a a , d d , , = % = = - & a ; 0 > 0 0 d a 7 d d d , & & : o o o = : ; , % O   O % @ = - - ; ; : - & = ; = O o o o ",
"Y d q q s q y y y g F J k x s & @ + * g J z ' ' ` +.#.@.O.~  .@.@.@.@.Y & & % : Y T Y s q & & * q g z z z J z J z z z z z x x Y ",
"+.o... .o. .X. .....o....... .F f r H +.q.,.k.k.,.w.A.0.w.6.0.+.o.o.#.J.+.' q * x ` +.+.' u 3 3 J  .0.+.o.o.,.8.k.,.X.X. .o. .+.",
"F.g.F.F.G.G.j.E.h.g.F.g.F.G.F.8.;.H q.!./.E.!.n.h.j.G.G.H.G.j.j.j.k.j.G.L.H.6.F z X.q.H.H.w.D P j.G./.E.I.E.!.Q.E.n.d.d.c.j.j.j.",
"'.T.~.W.^.Q./.&X^.(.'.~.'.oX!.F.y./ G.'.&X&X&XQ.M.n.E.^.[.Q.E.M.n.n.h.c.E.Q.P.2.,.,.,.Y.+Xc.[ ,./.>X&X^.[._.(.`._.&XQ._.Q.E.c.n.",
"].'.'.W.[.W.Q._.(.(.(.(.[.OXW.g.y.P P.~.E.[.`.V.B.B.B._.&XM.M.M.N.d.N._.R.C.C.4.3.4.:.x.oXT.( =.~.{.'.'.'.`.`.`.).`.V.)._.V.B.(.",
"'.'.'.U.~.W.W.W.[.'.W.R.OX[.I.g.:.K g.].Q.%X`._.B.B.(.`.M.M.M.M.M.M.V.B.v.C.x.t.-.x.t.u.T.XXe.2.|.].'.].{.{.).).).).).).`.`.(.B.",
"|.|.|./.oX/.^.^.^.^.~.~.oX XG.r.P b y.XXXXOX{.(.R.(.).'.Q.M.W.Q.c.E.Q.I.U.U.R.2.2.T.P.P.P.Y.7.<.~.XXXX].].].].].).).).].$XOXR.v.",
"|.}.Y.H.}.!.!.!.I.G.g.g.!.Y.8.{ b n e.T.].].].R.R.'.W.W.W.W.!.!.!.I.G.h.P.u.u.2.*.u.P.P.D.y./ X.Y.XXXX].].].].OX$X$X@X].XXXXT.R.",
"5.5.5.| X./ / [ S M m D L S u e 8 8 m -.t.x.U.x.l.t.2.2.2.j.,.o.w.6.| [ =.;.=.*.I ( $.) m M i w ( ( -.e.t.x.x.x.C.b.P.P.P.Z.i.i.",
"2 < 1 8 w 4 w c c c b b n 8 e e n w c N B B V N N B L m p u 8 w 4 t w e n n c c c b b c M M M M m c c c b K I I N N n e 8 < < 9 ",
"b 8 8 I ( ( =.<.t.t.t.l.g.x.P.x.s.s.r.s.r.4.4.4.d.a.3.%.c e 4 2 t P D G ( <.x.(.'.[.{.{.{.=X:X:X:X;X:X*X[.W.x.3.-.-.[ P t < 9 G ",
"i.S S y.g.I.I.U.(.'.'.].{.OXOX].[.{._.Q.Q.c.z.c.d.c.~.Q.j.<.F 2 i 5.Z.U.T.T.(.(.(._._.`.{.{.[.[.&X^.&X%X%X[._.Q.U.P.P.r.G 8 h >.",
"P.*.{ !.W.Q.W.W.W.].{.].].).].(.(.(.(.(.(.W.Q.m.d.z.n.E.E.!.P.;.P Y.!.XXU.W.(.v.B.V._.(.).(.(.(.&X&X&X`.(.(._.M.[.[.[.E.e./ { F.",
"P.:.<.^.!.!.W.W.m.(.).).{.].OX{.{.%X].'.'.(.v.c.p.d.c.n.c.T.T.5.S Y.T.~.W.W.(.m.m.M.V.V.B.B.(.(.(.(.`.%X`.)._.B.m.W.W.I.a.,.8.Y.",
"g.{ { /.E./.Q.^.(.(.U.].{.{.'.'.).).].].U.'.'.W.l.z.W.W.I.Y.T.>.K #XT.!.n.E.Q.m.M.M.B.M.m.R.(.'.].].{.).).).).B._.).'.W.4.( { j.",
"D.P D G./.^.!.Q.W.W.'.{.[.(.).{.].].$XOXR.'.'.I.v.m.Q.W.W.U.T.>.G T.G.!.h.Q.M.n.M.M._.[.'.(.'.{.'.].].{.).).).B.W.'.'.W.1.D ( g.",
",.A S q.j.I./.^.~._.'.OX_.[.'.'.].].].].R.(.v.(.c.c.W.{.c.u.=.A S Y.F.!.'.^./.n.E.Q.Q.Q.[.~.oXXXoXXX{.{.].).{.(.W.~./.G.] w A A.",
"' u u  .;.y.F.U.~.~.~.OX'.oX[.].XX].T.T.R.(.U.c.v.U.~.~.7.I D v P Y.}.+X!.I.E.Q.E.Q.^./.!./.|.|.~.~.~.~.(.B.'.(.E.~.!.,.w * r A.",
"k 2 < 9 G >.;.! e.y.u.u.F.y.r.e.i.8.:.7.<.<.r.<.<.<.8.[ v 4 u u t >.9.Z.y.f.a.f.g.f.f.f.7.5.5.5.,.e.r.r.1.4.l.4.4.,.^ w 1 # 1 h ",
"A u w 9 9 t w t 8 n n n K b n n 8 8 n D S b D D ) { ( A v A X.! 9 t t b K =.( { ) ( P D e < $ 2 e L P V V V $.$.^ ^ N p e w t C ",
"!. X-X/.I.g.I.OXOXOXOX'.=X~.U.I.L D g.^.^.E.c.[.^.=X=X*XOXiXiX,X@X X~.{.{.=X=X:X=X:X/.!.8.m # w g. XoXoX~.W.{.%X[.:X:X:X=XoX.X,X",
";X;X*X[.=X^.W.W.W.W.U.W.W.I.c.g.-./ !.[.=X~.W.4X%X=X%XqX6X6XiX6X=X'.OX=X=X=X&X_._.&XW.^. Xr.c / .XiX;X*XOX'.=X%X_.=X[.*X;X=X+XoX",
"E.E.E.n.Q.W.m.c._._.(.W.c.c.c.c.2.$.I.'.(.v.B.`.).B.v.(.`.(.[.{.(.W.b.m.M.(._.M.Q.Q.E.&X X!.) {  X,X X X'.c.(.(.m.M.M.M.W.(.'.{.",
"W.Q.&XW.(._._.Q.Q.(._.W.s.d.g.g.1.-.'.=X{.v.(.).V.B.B.V.{.(.{.{._._.Q.B._.M.B.M._.Q.^.^.E.E.,.o. X,X X'.'.c.W.B.m.`.(.m.Q.Q.[.~.",
"n.Q.Q.M.(.M.c.(.[._.(.v.z.c.z.x.-.$.'.{.'.(.).(.B.V.B.).).{.v.).'.m.m.W.Q.M.M.(.Q.[.Q.!.E.E.w.{ -X-X!.Q.OXQ.v._.V.M.&XM.N.Q._._.",
"^.Q.E.W.W.m.M.(._.Q.(.Q.W.g.t.s.( $.OX[.~.v.B.%X_.B.B.B.).{.{.[.'.E.c.W.^._.m.v.Q._.Q.Q.!.!.,.( !.^.!.~.{.W.B.B.M.M.&X(.m.(.[.[.",
"^./.Q./.W.n.n.m.{.=X).~.W.c.1.I e N ~.OXoXQ.m._.M.v.M.{.(.[.[.I.-XE.G.E.I.E.'.'.[.~.~. X XI.=./ j./.oX^.[.W.)._._.(.&XQ.W.W.[.'.",
"H.I.Y.E.I.c.I.c.c.T.I.x.F.2.S e c L j.h.~.Q.I.Q.c.f.z.E.g.h.I.G.D.8.0.y.f.f.G.F.!.!.!.|.!.F.] A / 8.!.!.z.c.R.(.c.W.Q.E.~. X~. X",
"5.6.....w.5.;.,.:.<.e.e.>.n 9 n n S ,.i.F.f.<.-.=.X.-.9.r.6.| ] E E Q 5.O.| 6.i.9.i.9.9.;.| t 8 e D ,.1.*.*.*.I =.<.y.y.f.y.y.F.",
"1 < # 2 S S n b c m m K b n n K C K P I ( =.[ =.I m i i v t 8 * $ @ @ # < 1 1 1 2 8 e t t C r w i c m m K I N b b m v 9 1 $ $ 6 ",
"u 3 t ,.G.I.G.c.c.I.I.g.u.u.u.2.2.t.x.P.v.U.v.x.l.t.f.r.r.8.[ 8 * Y +.@.F r t G ;.;.7.r.F.!.|.,X,X+X;X+XXXXXT.T.|.9.! t 9 < < Z ",
"q.A X. X-X/.^.'.[.(.'.{.XX].U.l.R.R.].).R.(.v.z.s.l.[.W.I.I.F.A 4 ` 0.0.S.D.F.!.Y.g.r.8.=.=.=.3.I.T.+X8XiXiX,XlX#X[ 9 9 l 6 6 Q ",
"D.D o.-X;X X~.OXE.W.(.m.m.B.N.b.b.V.`.).).).'.R.l.d.x.'.T.T.#X] w } q.6.8.7.r.I.T.x.U.U.4.4.c.v.c.d.2.%.-.e.7.H 4 # 6 k F r 2 Z ",
"=./ <. X|.|.oXW.(.m.B.B.v.v.b.z.b.B.`.V.v.U.U.c.t.l.s.d.U.!.|.;.w H | { w.7.r.P.U.x.x.b.4.4.c.b.).{.{._.'.|.f.G l k U R R l < h ",
"( D ,. X+XT.@XU.'.W.(.(.W.v.x.b.b.B.`._.(.v.v.l.p.p.z.h.s.I.|.[ u H { ( ,.2.r.x.v.v.U.x.l.C.b.R.{._._.{.'.@X#XQ 6 j U k R l 1 h ",
"{ P [ +X+XY.XXXX~.W.U.m.v.b.x.z.v.m._.[.(.R.m.z.p.1.c.c.h.f.G.S 4 A | / { :.e.x.x.x.b.x.b.l.b.R.{.[.[.OXXX+X.XO.s k ~ U U 5 # f ",
"7.;.=..XT.Y.R.T.T.(.'.v.x.x.P.c.v.v.W.'.~.Q.M.z.z.d.p.a.^.a./ t 1 R 5.Q [ | 7.u.x.U.x.x.v.b.b.(.'.'.@XXX|.+X.X+.7 0 U ~ U d s Y ",
";.D b u.Z.P.P.U.x.c.U.z.x.I.I.P.~.T.~.'.Q.W.c.d.z.z.d.a.!.,.t 2 3 k Q Q Q O.6.i.F.I.x.x.x.d.d.I.T.~.|.Y..X.XK.F @ - d U j 5 5 r ",
"S 8 2 S *.*.*.%.-.-.-.2.2.:.:.;.5.5.9.r.r.2.1.1.3.1.1.2.[ v 8 2 $ - l 0 f k F W 6.q.f.D.G.j.j.F.H.H.#X}.K.9.E # X X @ > 0 3 3 3 ",
"w w n w 8 n N b N N N N N c e 8 2 8 e A m m V ^ ^ ^ B M e 8 2 h 5 # 7 $ + X @ & # 3 h J } } ' W | | O.9.F 1 # 5 7 - X X # * * 1 ",
",.a.G.g.x.I.v.v.v.v.c.4.<.%.m b 8 8 >.Z.P.P.v.N.z.s.3.-.;.7.5.5.9.6.] J h w 3 * X + + + # X X + 1 3 < @ 1 2 l k 6 l l l Z Z W [ ",
"E.~.W.c.U.U.'.[.(.W.Q.v.c.g.( S b G P.@XOX[.&X&XW.W.v.I.T.XX~.~.h.g.8.8.,.o./ z y r f s l 7 X # j z k f k s f s T l f l F ! 7.y.",
"n.Q.Q.W.'.[.{.{.)._._.W._.~.<./ S [ ~.OX).(.V.V.`.V.(._.[.[.W.U.W.m.l.m.Q.I.a.,...' F F k s $ # Y E R z W F R F R k f C P :.P.].",
"n.^.^.[.[.[._.(.)._.`.W.Q.W.r.) ( <.'.[._.`.&XV.`.V.B.m.(.Q.Q.M.(.v.l.v.{.Q.I.I.g.y.w.6.6.W 9 f Q O.W F G F G F Z Z Z ! 5.u.~.{.",
"n.Q.Q.Q.Q.(._._.B.`.`.(.W.W.g.( I :.~.~.V.`.V.V.V.B.m.m.W.Q.Q.Q.(.(.z.v.OXQ.W.~.Q.I.!.E.I.8.P L Z.J.5.| | ! D b Z G ! 9.P.T.'.{.",
"h.W.Q.E.^._.{.{.`._.V.(.W.~.c.=.K -.OX{.{._.`.`._._.W.W.W.Q.n.n.U.U.v.Q.OX^.Q.^.n.E.c.I.~.g.-.,.+X.XF.y.t.e.>.[ ! >.9.F.~.'.].(.",
"E.Q./.Q.^._.(.V._._.m.m.v.I.g.{ n [ T./.[.[.(.'.'.'.~.~.^.^.^.^.U.E.c./.Q.Q.~.E./.^.Q.I./.!.e.7.+X;XY.P.x.x.u.e.i.Z.F.Y.T.W.).(.",
"a.d.a.a.z.b.v.b.b.m.m.B.c.d.s.P w G u.T.{.[.W.(.U.I.x.I.c.h.h.h.E.c.n./.Q./.Q./.E.!.!.I./.I.;.( T.].U.U.T.R.U.P.P.T.Y.Y.T.T.OX{."
};
