/* XPM */
static char *result[] = {
/* columns rows colors chars-per-pixel */
"64 64 23 1 ",
"  c #010101",
". c #550022",
"X c #664400",
"o c #772244",
"O c #335577",
"+ c #885500",
"@ c #995500",
"# c #BB6600",
"$ c #CC7700",
"% c #993366",
"& c #DD8800",
"* c #FFBB00",
"= c #FFEE00",
"- c #CC5599",
"; c #6688AA",
": c #99AACC",
"> c #AABBDD",
", c #BBDDEE",
"< c #CCDDFF",
"1 c #DDEEFF",
"2 c #EEFFFF",
"3 c white",
"4 c None",
/* pixels */
"4444444444444444444444444444444444444444444444444444444444444444",
"4444444444444444444444444444444444444444444444444444444444444444",
"4444444444444444444444444444444444444444444444444444444444444444",
"4444444444444444444444444444444444444444444444444444444444444444",
"4444444444444444444444444444444444444444444444444444444444444444",
"4444444444444444444444444444444444444444444444444444444444444444",
"4444444444444444444444444444444444444444444444444444444444444444",
"4444444444444444444444444444444444444444444444444444444444444444",
"4444444444444444444444444444444444444444444444444444444444444444",
"4444444444444444444444444444444444444444444444444444444444444444",
"4444444444444444444444444444444444444444444444444444444444444444",
"4444444444444444444444444444444444444444444444444444444444444444",
"4444444444444444444444444444444444444444444444444444444444444444",
"4444444444444444444444444444444444444444444444444444444444444444",
"4444444444444444444444444444444444444444444444444444444444444444",
"4444444444444444444444444444444444444444444444444444444444444444",
"4444444444444444444444444444444444444444444444444444444444444444",
"4444444444444444444444444444444444444444444444444444444444444444",
"4444444444444444444444444444444444444444444444444444444444444444",
"444444444444444444444444444    444444    44444444444444444444444",
"44444444444444444444444444 ---- 4444 ---- 4444444444444444444444",
"4444444444444444444444444 -%%%%o 44 -%%%%o 444444444444444444444",
"4444444444444444444444444 -%  %%o  -%%  %% 444444444444444444444",
"444444444444444444444444 -% 44 -%%%%% 44 -o 44444444444444444444",
"444444444444444444444444 -% 44 -%%%%% 44 -o 44444444444444444444",
"444444444444444444444444 -%-  -%%-o%%-  -%o 44444444444444444444",
"4444444444444444444444444 o%--%%--oo%%--%% 444444444444444444444",
"4444444444444444444444444 o%%%%%--ooo%%%%o 444444444444444444444",
"44444444444444444444444444    %---ooo%    4444444444444444444444",
"444444444444444444444444444444        44444444444444444444444444",
"44444444444444444444444444444 *=*&##X# 4444444444444444444444444",
"44444444444444444444444444444 &*&$@+X+ 4444444444444444444444444",
"444444444444444444444444444444        44444444444444444444444444",
"4444444444444444444444444444444 .... 444444444444444444444444444",
"44444444444444444444444444444          4444444444444444444444444",
"444444444444444444444444444  22,:::::::  44444444444444444444444",
"44444444444444444444444444 22,,,,,,,,:::; 4444444444444444444444",
"444444444444444444444444  22111111,,,,:::; 444444444444444444444",
"4444444444444444444444  22111111111,,,,:::; 44444444444444444444",
"444444444444444444444 2211111111111,,,,,::; 44444444444444444444",
"4444444444444444444  111111111111,,,,,,,,:;; 4444444444444444444",
"4444444444444    4 2111OOOOO,,,,,,,,,,,,::;; 4444444444444444444",
"444444444444 ::;; 2111O333::OO,,,,,,,,,,,::; 4444444444444444444",
"44444444444 11:;;2111O32222::<O,,,,,,,,,,::;; 444444444444444444",
"4444444444 1111:211113222221:<O;,,,,,,,,,::;; 444444444444444444",
"4444444444 221:21111112221111:<O;:,,,,,,,::;; 444444444444444444",
"4444444444 22:311111111211111:<O;::,,,,,:::;> 444444444444444444",
"4444444444 2:32111:::1111111::<O;::,,,,,:::;> 444444444444444444",
"4444444444 :32111:   111,11:::O;;::,,,,::::;>    444444444444444",
"4444444444 321111:3  111,:::::O;:::,,,,:::;;>      4444  4444444",
"444444444 3211111:   1,,,,:::O;;:::,,,::::;;> 444      444444444",
"44444444 31111111:   ,,,,,,,,::::,,,,::::;;;> 444444444444444444",
"4444444 ,211111,,:   ,,,,,,,,,,,,,:::::::;;> 4444444444444444444",
"4444444 ,,,,,,,,,,222,,,,,,,,,,,:::::::::;;> 4444444444444444444",
"4444444 ,,,,,,,,,,,,,,,,,,,,,,::::::::::;;> 44444444444444444444",
"44444444 ,,,,,,,,,,,,,,,:::::::::::::::;;;> 44444444444444444444",
"444444444 ::::::::::::::::::::::::;;;;;;>  444444444444444444444",
"4444444444   ;;;;;;;;;;;;;;;;;;;;;;;;;>>  4444444444444444444444",
"4444444444444                           444444444444444444444444",
"4444444444444444444444444444444444444444444444444444444444444444",
"4444444444444444444444444444444444444444444444444444444444444444",
"4444444444444444444444444444444444444444444444444444444444444444",
"4444444444444444444444444444444444444444444444444444444444444444",
"4444444444444444444444444444444444444444444444444444444444444444"
};
