/* XPM */
static char *result[] = {
/* columns rows colors chars-per-pixel */
"64 64 56 1 ",
"  c #010101",
". c #330000",
"X c #112200",
"o c #332211",
"O c gray20",
"+ c #660000",
"@ c #442200",
"# c #552200",
"$ c #552211",
"% c #553311",
"& c #663300",
"* c #663311",
"= c #663322",
"- c #005511",
"; c #224411",
": c #664411",
"> c #447711",
", c #664422",
"< c #775533",
"1 c #776633",
"2 c #775544",
"3 c #990000",
"4 c #885511",
"5 c #AA6600",
"6 c #AA7711",
"7 c #884422",
"8 c #885522",
"9 c #996622",
"0 c #996644",
"q c #AA6644",
"w c #AA7744",
"e c #BB7744",
"r c #228833",
"t c #669922",
"y c #BB8833",
"u c #CC9933",
"i c #AACC33",
"p c #AA8855",
"a c #AA8866",
"s c #AA8877",
"d c #CCAA44",
"f c #EEAA77",
"g c gray60",
"h c #BBAA88",
"j c #FFBB99",
"k c #CCBBBB",
"l c #FFCC88",
"z c #FFCC99",
"x c #DDCCAA",
"c c #FFDDAA",
"v c #FFDDBB",
"b c #FFDDCC",
"n c #FFEECC",
"m c #FFEEDD",
"M c #FFFFEE",
"N c None",
/* pixels */
"NNNNNNNNNNNNNNNNNNNN       NNNNNNNNNNNNNNNNNNN    NNNNNNNNNNNNNN",
"NNNNNNNNNNNNNNNNNNN uuuuu44   NN      NNNNNN  uuuy NNNNNNNNNNNNN",
"NNNNNNNNNNNNNNNNNN uu66yyu$8qq  qqqq8*   NN uu666uy NNNNNNNNNNNN",
"NNNNNNNNNNNNNNNNNN u65555$8qqqqqqqqq88***  uu4444uu4 NNNNNNNNNNN",
"NNNNNNNNNNNNNNNNNN u65hm5$8qqqqqqqq888****$u44hhxxu4 NNNNNNNNNNN",
"NNNNNNNNNNNNNNNNNN uu5hm$8qqqqqqqq888*****$$4mmmmmu4 NNNNNNNNNNN",
"NNNNNNNNNNNNNNNNNNN u45$88qqqqqqqq88******$$4mmmmmu4 NNNNNNNNNNN",
"NNNNNNNNNNNNNNNNNNN 4u5$8qqqqqqqq888*******$$mmmmu64 NNNNNNNNNNN",
"NNNNNNNNNNN            $$$$$$$$*888********$$$muu64 NNNNNNNNNNNN",
"NNNNNNNN   qqqqqqqqqqq888888888$$$*********$$$$uu44 NNNNNNNNNNNN",
"NNNNNNN %%************************$$******$$$$$$44 NNNNNNNNNNNNN",
"NNNNNN %ppppppppp*******************$$***$$$$$$$$ NNNNNNNNNNNNNN",
"NNNNNN pp%%%%%%%%pp*******************$$$$$$$$$$$ NNNNNNNNNNNNNN",
"NNNNNN p%%%%%%OOOOoppp*******************$$$$$$$$ NNNNNNNNNNNNNN",
"NNNNNN p%%%%%OgOO   ooppp*******************$$$$$ NNNNNNNNNNNNNN",
"NNNNNNN p%%%yOO     oooooppp*******************$$ NNNNNNNNNNNNNN",
"NNNNNNNN %%yd      666666ooopppp******************  NNNNNNNNNNNN",
"NNNNNNNN yyddy    666ddd6666oooopppp****************   NNNNNNNNN",
"NNNNNNN ydddddy  66ddddddd664444oooopppp***************  NNNNNNN",
"NNNNNNN ydddddy666dddddddd6666644444oooopppp************* NNNNNN",
"NNNNNNN ddddddd66ddddddddddd66666666444&oooo111111111111  NNNNNN",
"NNNNNN 6ddddddddddydddddydydddd666666444&&&&ooooooo     NNNNNNNN",
"NNNNNN 6dddddd6ddddd6ddddddydd66d666664444&&&&&&&&& NNNNNNNNNNNN",
"NNNNNN 6dyydd666666666666d6u66d6666664644444&&&&&&& NNNNNNNNNNNN",
"NNNNNN 6ddd666444444444446666666664666444444&4&&&&& NNNNNNNNNNNN",
"NNNNNN 666666;;;;;oooooooo4466666666666444447&&&&&& NNNNNNNNNNNN",
"NNNNNN 66666;iiit>>-XXffffooo44666664644oooooo&&&&& NNNNNNNNNNNN",
"NNNNNN 6666;iiit>>XXfjjjfwzzzoo44466644o666666oo&& NNNNNNNNNNNNN",
"NNNNNN 6644;iit>>Xffjjzzzzzzwwwooo4444oyuuuu6664o& NNNNNNNNNNNNN",
"NNNNNNN 444;it>>Xfzzzzzzzzzwwffw@@oo4oyuuuuuu6644 NNNNNNNNNNNNNN",
"NNNNNNN 444;tt>Xwwwzzzzzzwwfff0@@,eeooyuuuuuu6664 NNNNNNNNNNNNNN",
"NNNNNNN 4444;t-zzzzwwzzzzzzf0,@,eeeeeouuuuuuu6644 NNNNNNNNNNNNNN",
"NNNNNNNN 444;r @@00jzzzzzzj,@@@@%@,ee:uuuuuu66644 NNNNNNNNNNNNNN",
"NNNNNNNNN 444  ee@@@wzzzzzzjjjjjfMMfe:uuuuuu66644 NNNNNNNNNNNNNN",
"NNNNNNNNNN 444 %%%%wzzzzbmmmmmmmzfffe:uuuuu666444 NNNNNNNNNNNNNN",
"NNNNNNNNNNN  4 ,MMzzzmmmmmmmmmmmmzff:uuuu66666444 NNNNNNNNNNNNNN",
"NNNNNNNNNNNNN   ezzmmmmmmaaaammmmmff:uuuu6666444 NNNNNNNNNNNNNNN",
"NNNNNNNNNNNNNNN ezcmmmba#sMs#ammmmff:uuuu6666444 NNNNNNNNNNNNNNN",
"NNNNNNNNNNN      zvme7#2Mk###<mmmmff:uuu6666444. NNNNNNNNNNNNNNN",
"NNNNNNNNNN 6u666 lvmma######=ammmff::u66644444... NNNNNNNNNNNNNN",
"NNNNNNNNN uuuuu66 lnmma<<<<<ammmffe:666644444.... NNNNNNNNNNNNNN",
"NNNNNNNN 6uuuuuu66 lnmmmmmmmmmjje&&&++44444....... NNNNNNNNNNNNN",
"NNNNNNNN uuuuuuu66   efffffffe&&&+3333++++++++.... NNNNNNNNNNNNN",
"NNNNNNNN uuuuuuu66 & &+&&&&&&&hhh+3333333+++++..... NNNNNNNNNNNN",
"NNNNNNNN 66uuu6666 & 3+hhhhhhhhh+3333333333++++.... NNNNNNNNNNNN",
"NNNNNNNN 466666666 & 3+hhhhhhhhh+33333333333+++++.. NNNNNNNNNNNN",
"NNNNNNNNN 4666666 & 3+hhhhhhhhhh+333333333333++++.. NNNNNNNNNNNN",
"NNNNNNNNNN 44444&&& ++xxhhhhhhhh+333333333333++... NNNNNNNNNNNNN",
"NNNNNNNNNNN  &&&&&& xmmmmhhhhxxxh+++++++++.....444 NNNNNNNNNNNNN",
"NNNNNNNNNNNNN      xxmmmmxxxxxxxhhhhhhh444444444444 NNNNNNNNNNNN",
"NNNNNNNNNNNNNNNNNN xmmmmmmmmmmxxxxhhh44ddddddd666444 NNNNNNNNNNN",
"NNNNNNNNNNNNNNNNNN xmmmmmmmmmmmxxxhh4dddddddddd666664 NNNNNNNNNN",
"NNNNNNNNNNNNNN     xmmmmmmmmmmmxxhh4dddddddd6d66666664 NNNNNNNNN",
"NNNNNNNNNNNN  ddd64xxmmmmmmmmmmxhh4ddddddddddd666666666 NNNNNNNN",
"NNNNNNNNNNN ddddd644xmmmmmmmmmxxh4dddddd6dd6d66666664666  NNNNNN",
"NNNNNNNNNN dddd66664xxmmmmmmmmxhh4dddddddddd66666664666666  NNNN",
"NNNNNNNNNN dddd66644xxmmmmmmmmxh4ddddddddddd6666646466666666  NN",
"NNNNNNNNNN ddd6uu464&xxxmmmmxxxh4dddddd6dd66666466446666666666 N",
"NNNNNNNNNN 6d6u66644&xxxxxxxxxxh4dddddddd6d66666644464666666669 ",
"NNNNNNNNNN ddd6664444&xxxxxxxxh46ddddddd6666664444&446664666669 ",
"NNNNNNNNNN 666666444444&&hhhhhh46666666666664444&& &44444444&&& ",
"NNNNNNNNNNN 664444444444&&&&hhh466666466664444&&&& &&&&44444&&& ",
"NNNNNNNNNNN  44444444&&&&&&&    96666664444&&&&&& &&&&&&&&&&&& N",
"NNNNNNNNNNNNN               NNNN                              NN"
};
