/* XPM */
static char *result[] = {
/* columns rows colors chars-per-pixel */
"64 64 193 2 ",
"   c #06348F",
".  c #0C3A8F",
"X  c #133E8D",
"o  c #043692",
"O  c #093795",
"+  c #073996",
"@  c #0B3B96",
"#  c #073A99",
"$  c #0D3E9B",
"%  c #123F95",
"&  c #103F9B",
"*  c #0F409C",
"=  c #134095",
"-  c #1B4594",
";  c #14439C",
":  c #19469B",
">  c #16489F",
",  c #1C499C",
"<  c #224B9D",
"1  c #25509F",
"2  c #365D9E",
"3  c #0F41A0",
"4  c #1445A2",
"5  c #1C4CA3",
"6  c #1D4EAA",
"7  c #224EA2",
"8  c #2552A5",
"9  c #2B55A4",
"0  c #2A58A6",
"q  c #2554A9",
"w  c #2A56AA",
"e  c #2D5AAC",
"r  c #3056A4",
"t  c #345CA4",
"y  c #325CAC",
"u  c #395CA7",
"i  c #305DB0",
"p  c #3C63A5",
"a  c #3661AF",
"s  c #3B63AC",
"d  c #3663B2",
"f  c #3B64B2",
"g  c #3E69B7",
"h  c #3867B9",
"j  c #446AAD",
"k  c #466AA8",
"l  c #4C73AD",
"z  c #5175AF",
"x  c #446BB3",
"c  c #496EB4",
"v  c #436DB9",
"b  c #4C72B4",
"n  c #4671BA",
"m  c #4C74BB",
"M  c #5275B4",
"N  c #5479B4",
"B  c #5C7EB4",
"V  c #5877B8",
"C  c #547ABB",
"Z  c #5B7DBA",
"A  c #4B72C0",
"S  c #557CC3",
"D  c #5B7EC2",
"F  c #5779C5",
"G  c #5F80B5",
"H  c #5E82BD",
"J  c #6484B5",
"K  c #6384BD",
"L  c #6B87BB",
"P  c #6688BA",
"I  c #6A8BBA",
"U  c #6983B6",
"Y  c #718AB6",
"T  c #7B95BC",
"R  c #5D82C3",
"E  c #5E84C9",
"W  c #6384C3",
"Q  c #6589C5",
"!  c #6B8CC4",
"~  c #6185CB",
"^  c #638ACC",
"/  c #6B8DCA",
"(  c #6987C3",
")  c #708FC8",
"_  c #708DC5",
"`  c #6D91CB",
"'  c #7393C6",
"]  c #7C94C3",
"[  c #7C9AC7",
"{  c #7494CC",
"}  c #7897CC",
"|  c #7798CE",
" . c #7D9BCD",
".. c #6F91D0",
"X. c #7493D2",
"o. c #7699D6",
"O. c #7C9CD3",
"+. c #749AD8",
"@. c #87A0BF",
"#. c #869DC5",
"$. c #839DCC",
"%. c #819DD1",
"&. c #87A1C6",
"*. c #86A2CB",
"=. c #8CA3CC",
"-. c #8AA3C2",
";. c #91A6CD",
":. c #94ACCD",
">. c #9AAFCE",
",. c #84A2D4",
"<. c #8CA5D2",
"1. c #8EA9D2",
"2. c #85A5D9",
"3. c #88A7DD",
"4. c #87ABDF",
"5. c #8AA9D9",
"6. c #90A7D2",
"7. c #94ABD5",
"8. c #99AED3",
"9. c #93ADD9",
"0. c #98AFD9",
"q. c #96B1D6",
"w. c #9CB2D4",
"e. c #94B1D9",
"r. c #9CB4DB",
"t. c #9EB8DD",
"y. c #A2B5D5",
"u. c #A5BAD6",
"i. c #A9BBD6",
"p. c #A2B7D9",
"a. c #A5BADB",
"s. c #ABBCDB",
"d. c #B0BFDC",
"f. c #8DA7E0",
"g. c #9CB3E3",
"h. c #97B8E5",
"j. c #A3BDE2",
"k. c #AABEE1",
"l. c #ADC1DD",
"z. c #B4C4DD",
"x. c #B7C9DF",
"c. c #BBCADE",
"v. c #ACC2E3",
"b. c #ABC5E8",
"n. c #B5C6E2",
"m. c #BAC6E2",
"M. c #B5C9E4",
"N. c #BCCBE4",
"B. c #B7C7E8",
"V. c #B6CBEA",
"C. c #BCCDEA",
"Z. c #BFD0E4",
"A. c #BDD1EB",
"S. c #C4CFDE",
"D. c #C7D0DF",
"F. c #C2CDE5",
"G. c #C4CEE9",
"H. c #C9CFEC",
"J. c #C4D2E6",
"K. c #C9D4E5",
"L. c #CDDAE6",
"P. c #C5D3EA",
"I. c #CAD5EB",
"U. c #CDDAEB",
"Y. c #D1DCE7",
"T. c #D1D7EC",
"R. c #D2DCED",
"E. c #D8DDEF",
"W. c #C0CEF3",
"Q. c #C3D1F4",
"!. c #CCDBF1",
"~. c #CFD4F1",
"^. c #D4DDF1",
"/. c #D9DDF1",
"(. c #D1D6F3",
"). c #D4E1ED",
"_. c #DBE3ED",
"`. c #DFE8ED",
"'. c #D5E1F2",
"]. c #DCE3F3",
"[. c #DDE9F2",
"{. c #DCE5F8",
"}. c #DFE8F9",
"|. c #D5E4F9",
" X c #E0E7EF",
".X c #E0E9EE",
"XX c #E1E6F4",
"oX c #E4EBF3",
"OX c #E8EEF6",
"+X c #E1E6F9",
"@X c #E4EAF9",
"#X c #EAEEF9",
"$X c #E9F0F5",
/* pixels */
"* * * * * * * * * * * * * * * * * * * * * * * * * * * * * * * * * * * * * * * * * * * * * * * * * * * * * * * * * * * * * * * * ",
"* * * * * * * * * * * * * * * * * * * * * * * * * * * * * * * * * * * * * * * * * * * * * * * * * * $ * * * * * * * * * * * * * ",
"* * * * * * * * * * $ * * * * * * * * * * * * * * * * * * * * * * * * * * * * * * * * * * * * * * * ; $ * * * * * * * * * * * * ",
"* * * * * * * * * * ; $ * * * * * * * * * * * * * * * * * * * * * * * * * * * * * * * * * * * * * * * * * * * * * * * * * * * * ",
"* * * * * * * * * * $ ; * * * * * * * * * * * * * * * * * * * * * * * * * * * * * * * * * * * * * * * * * * * * $ ; * * * * * * ",
"* * * * * * * * * * * * * * * * * * * * * * * * * * * * * * * * * * * * * * * * * * * * * * * $ * * * * * * * * * * * * * * * * ",
"* * * * ; * * * * * * * * * * * * * $ ; * * * * * * * * ; 4 $ $ * * $ * * * * * 3 * * * * * $ ; * * * * * $ * * * * * * * * * * ",
"* * * * $ * * * * * * * * * * * * * * * * * * * * * * * $ $ $ ; * * ; * * * * * $ ; * * * * * * * * * * * ; * * * * * * * * * * ",
"* * * * ; $ * * * * * * * * * * * * * * * * * * * * * * * * * * * * * * * * * $ 3 ; $ * * * * * * * * * * * * * * * * * * * * * ",
"* * * * $ * * * * * * * * * * * * * * * * * * * * * * * * * * * * * * * * * $ ; * * * * * * * * * * * * * * * * * * * * * * * * ",
"* * * * * * * * * * * * * * * * * * * * * * * * * * * * * * * * * * * * * * * * * * * * * * * * * * * * * * * * * * * * $ * $ 4 ",
"* * * * * * * * * * * * * * * * * * * * * * * * * * * * * * * * * * * * * * * * * * * * * * * * * * * * * * * * * * * * ; * * $ ",
"* * * * * * * * * * * * * * * * * * * * * * * * * * * * * * * * * * * * * * * * * * * * * * * * * * * * * * * * * * * * $ * * * ",
"* * * * $ ; * * * * * * * * * * * * * * * * * $ * * * * * * * * * * * * * * * * * * * * * * * * * * * * * * * * * * * * * * * * ",
"* * * * * * * * * * * * * * * * * * * * * * $ ; * * * * * * * * * * * * * * * * * * * * * * * * * * * * $ * * * * * * * * * * * ",
"* * * * * * * * * * * * * * * * * * * * * * $ ; * * * * * * * * * * * * * * * * * * * * * * * * * * * * ; * * * * * * * * * * * ",
"* * * * * * * * * * * * * * * * * * * * * * * * * * * $ $ ; * * * * * * * * * * * * * * * * * * * * * * * * * * * * * * * * * * ",
"* * * * * * * * * * * * * * * * * * * * * * * * * * * ; 3 $ * * * * * * * * * * * * * * * * * * * * * * * * * * * * * * * * * * ",
"* * * * $ * * ; * * * * * * * * * * * * * * * * * * * * * * * * * * * * * * * * * * * * * * * * * * * * ; $ * $ * * * * * * * * ",
"* * * * ; * 3 $ * * * * * * * * * * * * * * * * * * * * * * * * * * * * * * * * * * * * * * * * * * * * $ * * 4 * * * * * * * * ",
"* * * * $ * * * * * * * * * * * * $ * * * * * * * * * * * * * * * * * * * * * $ * * * * * * * * * * * * * * * $ * * * * * * * ; ",
"* * * * * * * * * * * * * * * * * * * * * * * * * * * * * * * * * * * * * * * ; * * * * * * * * * * * * * * * * * * * * * * * $ ",
"* * * * * * * * * * * * * * * * * * * * * * * * * * * * * * 3 * * * * * * * * * * * * * * * * * * * * * * * * * * * * * * * * * ",
"* * * * * * * * * * * * * * * * * * * * * * * * * * * * * * $ ; * * * * * * * * * * * * * * * * * * ; $ * * * * * * * * * * * * ",
"* * * * * * * * * * * * * * * * * * * * $ $ 4 ; 3 $ ; 3 4 $ $ $ $ * $ 3 $ * $ 3 $ * $ * $ * * $ * * * * * * * * * * * * 4 ; * 3 ",
"* * * * * * * * * * * * * * * * * * * * 4 $ $ $ $ 3 3 $ $ 3 4 $ 3 $ ; $ $ $ $ $ * $ 3 $ * $ $ 3 * * * * * * * * * * * * $ * ; * ",
"* * * * * * * * * * * * * * * * * 3 * 3 4 $ ; $ 3 $ $ $ ; $ $ * $ $ $ * $ $ ; $ $ 3 $ * * $ $ $ * * * * * * * * * * * * * * $ * ",
"* * * * * * * * * * * * * * * * * * * * $ 3 $ 4 $ ; $ * $ $ 3 $ ; 3 3 $ * 4 $ 3 * $ * $ $ 3 * * * * * * * * * * * * * * * * * * ",
"* * * * * * ; * * * * * * * * * $ $ 3 $ $ ; $ $ $ $ $ * $ 3 3 $ $ $ $ $ $ $ $ $ $ * $ 3 * $ $ * $ * $ * * $ * * * $ * * * * * * ",
"* $ * * * $ $ * $ $ * $ * $ * $ $ * $ * 3 $ 3 $ $ 3 * * * $ $ ; 4 $ 3 ; $ 4 ; $ 3 $ * $ $ * * $ = $ * $ $ * * $ $ * $ * $ * * * ",
"$ $ * $ $ * * $ * * $ = * $ * = 3 $ $ $ $ ; 3 $ $ $ $ & $ $ $ $ $ $ 3 $ $ $ 3 $ $ * $ 3 * $ $ * = $ * $ * $ $ * * * * $ * * * * ",
"* * $ * * $ $ * $ * * $ $ * $ * $ ; 3 $ $ $ $ $ $ $ $ $ $ $ $ $ $ $ $ $ $ $ $ $ * * $ $ * * * * $ * $ * $ = * $ * $ $ * $ $ * $ ",
"* * * * * * = * $ O & $ $ $ $ $ & $ $ & $ $ $ & $ $ 3 # $ $ $ $ $ $ * + * o * * $ $ $ & $ $ & & O & & & & & 3 $ $ 3 $ 3 3 & $ $ ",
"* * + * * * + * $ $ $ & $ $ & $ $ & $ & $ $ $ O $ $ $ 3 3 $ $ $ $ $ * * * * + * # $ O $ $ $ & O & & & & 3 $ $ $ & $ $ $ & & 3 3 ",
"# * * * * * * * $ $ O & $ $ $ $ & $ & & & & $ $ $ $ $ @ # $ $ @ + + * * + + * + $ $ $ & $ $ $ & O % O & $ $ $ 3 $ $ & $ $ & $ $ ",
"# * * * * o = = $ $ & & $ $ $ $ $ & 3 & 3 O $ # O $ $ # $ # @ $ * + o + * * * * # $ # O O # # # % O & O $ $ $ $ $ $ $ $ ; $ $ & ",
"* * * * * + * * $ @ $ @ $ $ $ & O # $ $ 3 # 3 # $ $ O $ + $ @ + O O O O # + + + O & O O O O $ O O O $ $ $ # $ $ % $ @ $ $ % $ & ",
"* + * + * * * o @ $ @ $ $ $ $ O $ 3 $ $ # # # 3 $ O O O + + @ @ O $ 4 ; # $ $ $ & % O & % % O % @ @ # * $ $ $ $ $ $ % % % $ $ & ",
"# # + * * + * + + $ $ @ # # # $ # 3 # # # 3 3 # 3 & & & = * @ $ o O % ; ; = = : & : % % & % O @ $ = + + # # $ $ @ @ $ @ $ * $ $ ",
"# * # + + * + $ + + # @ # $ # # # # # # # $ $ $ 4 4 4 4 : ; - - 7 < < 7 y d f f y y r 9 7 < , : ; * * + # # $ # @ @ $ $ $ $ $ $ ",
"* # $ $ + $ $ + $ + $ $ $ @ $ $ 3 # O O O $ 3 4 4 6 q q q q e 0 < r s v m m m x c c m m c x f d q 5 @ @ $ O # O # # * + * + * * ",
"* # $ $ * $ = $ $ + @ @ $ @ O $ O O O O O O 3 4 6 q e i d h g n ~ ~ ~ W ^ ..o.O.O.X...Q ~ D Z S d q > o # $ &   $ $ * * * + * * ",
"; ; ; > , 5 5 , 8 , : = = % % % 3 & & % % O & 7 8 w y f v m R R Q { } O.O.,.,.$.%.%.,.2.2.O.) Q n d h 5 & @ & & + . $ + * # * # ",
"q 0 0 e e y a y 0 e a h x g f y w 7 < < < 7 9 w y s x n C R Q ` }  .$.<.<.=.1.1.7.6.6.5.5.2.| _ E g v r 9 5 % & @ O * + * # 3 3 ",
"x x v c n b n m b j b l b j j s t p p s u r t u s x b Z K _ } %.<.1.7.8.8.w.w.y.p.p.q.0.9.6.$.} ` b c s r r < < - = = . * * * + ",
"Z D ~ D R Z H K H H H H K Q ! Q Q N k p k c M b M V B L L _ $.#.&.;.w.p.i.i.i.u.s.s.k.k.a.r.$.#._ H V j u s u s d e 8 > * * * * ",
"/ ) { { { { { } O.O.2.4.5.2. .} K { o.} W Z K Q / _ ' } $.$.#.6.y.i.l.z.n.N.F.J.P.P.C.n.k.w.;.$.%._ K Z D ~ D A m g a 7 5 > > * ",
"O.O.O.%.,.2.<.<.7.e.e.7.7.9.q.9.9.,.$.$.2.3.%.O.O.$.$.=.;.;.>.8.y.s.z.N.N.J.I.L.U.U.!.C.n.k.a.r.=.$.%.%.f.X.o.X.W S m h d e q 5 ",
"%.<.<.<.1.6.q.q.w.p.p.p.p.t.w.>.8.8.7.0.0.6.<.9.1.6.0.7.:.>.y.i.s.z.x.Z.J.L.U.L.).R.U.P.F.c.l.i.j.0.0.0.:.1.&.*.' ! C c f d w 6 ",
"0.0.7.6.7.8.q.q.w.w.y.p.s.s.l.u.s.a.a.k.p.k.k.a.a.a.a.i.u.l.i.s.z.x.N.Z.K.L.R.R.R.).R.L.J.c.z.z.d.k.k.a.y.>.:.=.*.[ ! N x d w q ",
"7.6.6.8.9.8.q.e.r.t.p.j.p.p.u.w.a.p.j.B.s.B.n.l.M.n.n.m.x.x.x.x.c.N.Z.P.L.U.R.R.R.R.U.U.J.F.n.n.n.B.B.d.l.l.u.:.6. .} Z b f < 5 ",
";.<.6.f.9.5.q.7.1.1.6.0.9.9.7.8.p.p.p.B.B.C.V.P.Z.Z.Z.J.K.J.D.D.J.J.J.P.K.P.U.T.U.U.U.I.K.F.Z.Z.m.C.G.m.z.z.l.t.r.<.2.W C f - , ",
"%.%.$.O. . . . .%.%.O.$.$.%.%.%.$.8.w.d.V.A.N.I.U.U.U.L.).L.Y.L.J.J.P.J.G.H.J.K.K.P.U.K.J.J.J.J.J.J.J.Z.Z.N.x.l.a.1.5.Q R x = = ",
"X.) ' ! ! ! ! ! ` ! ! ( ( K ( _ ] 8.w.p.C.P.P.U.'.)._._.`._.).).U.I.I.J.F.F.F.F.P.P.P.U.J.K.P.L.U.L.L.U.L.Z.x.M.v.q.4./ ~ s X X ",
"V B M z l l z z l l l l M N V B B #.$.;.n.B.P.P.R.E.].{.].].].'.T.U.P.F.F.F.F.F.G.P.I.U.U.K.U.U.U.U.R.U.U.J.Z.b.b.h.3./ ^ t % . ",
"V V N z M l l l l l l l z z V B Y Y #.;.n.B.I.T.R.].XXXX}.{.'.'.T.U.K.F.F.F.N.F.P.P.!.I.U.U.U.R.^.'.'.).!.P.M.l.k.5.O.E F < . @ ",
"( L L Z B B J K P P P P J G J I Y T -.w.l.N.K.R.XXXXXXXX+X{./.R.T.T.P.K.F.F.F.F.G.Q.I.U.!.U.).U.!.U.).|.U.M.M.j.r.O.+.n n 8   + ",
"j.g.g.f.6.1.<.1.1.<.=.9.r.r.r.t.r.l.l.x.c.F.D.). XXX@X@X@X+X].E./.R.U.K.F.F.m.F.G.P.~.U.U.^.!.U.!.!.!.Z.x.u.u.q.[ { ` t 0 : * + ",
"W.Q.C.C.C.B.B.n.n.n.n.N.N.A.N.z.A.!.P.P.R.R._.[.oXoXOX#X#X@XXXE.'./.R.T.H.K.F.F.P.J.~.I.U.U.U.U.Z.P.Z.x.t.:.:.&.J Q p f - + * # ",
"(.(.~.H.G.I.I.U.^.|.|.'.'.'./.R.!.|.).R._.`.[.oXOXOX$X$XOX@X X X_.'.].E.T.P.K.F.G.J.J.J.P.K.P.J.Z.A.l.l.>.@.[ T I l p t 7 $ o # ",
"/.E.T.T.T.R././.].+X+XXX'.'.].]./.|.'.].[.[.[.oXoXOXOXoX.X.X X XE._.].).R.K.K.K.J.J.P.J.J.F.F.F.N.n.i.u.>.[ T T G G 2 d - ; * o ",
"T.E.E.T.R.T.E.R.{.{./.T.T./.T.(.I.T.T.'.[.[.[.[. X.X.X.X X_. X X_.]._.E.T.L.K.J.J.K.J.J.F.F.G.G.N.M.i.l.l.:.@.[ | G ^ f e q * $ ",
"D.D.K.K.K.K.K.K.J.F.F.F.F.G.P.I.H.H.U.(.!.^.R.).)._._._._._._._. XXX]._.Y.L.K.K.K.K.I.J.J.J.P.G.C.A.x.M.A.b.j.e.,.O...^ g e : ; ",
"D.S.S.S.S.c.S.c.x.z.m.N.m.m.B.F.F.H.H.U.(.!.T.).).)._._._._. X_.XXXX]._.).Y.L.L.K.U.I.I.P.I.P.P.I.!.P.A.A.V.b.j.h.4.+.E v d , ; "
};
